<?xml version="1.0" encoding="UTF-8"?>
<svg width="32px" height="32px" viewBox="0 0 32 32" version="1.1" xmlns="http://www.w3.org/2000/svg" xmlns:xlink="http://www.w3.org/1999/xlink">
    <!-- Generator: Sketch 51.2 (57519) - http://www.bohemiancoding.com/sketch -->
    <title>CAST_Android_Application</title>
    <desc>Created with Sketch.</desc>
    <defs></defs>
    <g id="CAST_Android_Application" stroke="none" stroke-width="1" fill="none" fill-rule="evenodd">
        <g id="android" transform="translate(2.500000, 1.000000)">
            <path d="M9.23590308,18.1178855 C10.2753304,18.1178855 11.1179736,18.9605286 11.1179736,19.9999559 L11.1179736,28.0735242 C11.1179736,29.1129515 10.2753304,29.9554626 9.23590308,29.9554626 C8.19660793,29.9554626 7.35396476,29.1129515 7.35396476,28.0735242 L7.35396476,19.9999559 C7.35396476,18.9606608 8.19660793,18.1180176 9.23590308,18.1180176 L9.23590308,18.1178855 Z" id="Shape" fill="#A4C639" fill-rule="nonzero"></path>
            <path d="M4.93929515,8.41123348 C4.9330837,8.48259912 4.9276652,8.55475771 4.9276652,8.62770925 L4.9276652,20.8599119 C4.9276652,22.1754185 5.96894273,23.2351982 7.2615859,23.2351982 L19.7008811,23.2351982 C20.9936564,23.2351982 22.0349339,22.1752863 22.0349339,20.8599119 L22.0349339,8.62770925 C22.0349339,8.55475771 22.0322907,8.4823348 22.0262115,8.41123348 L4.93929515,8.41123348 Z" id="Shape" fill="#A4C639" fill-rule="nonzero"></path>
            <path d="M17.7268282,18.1178855 C18.7662555,18.1178855 19.6088987,18.9605286 19.6088987,19.9999559 L19.6088987,28.0735242 C19.6088987,29.1129515 18.7662555,29.9554626 17.7268282,29.9554626 C16.687533,29.9554626 15.8448899,29.1129515 15.8448899,28.0735242 L15.8448899,19.9999559 C15.8448899,18.9606608 16.687533,18.1180176 17.7268282,18.1180176 L17.7268282,18.1178855 Z M1.90374449,9.49982379 C2.94303965,9.49982379 3.78568282,10.342467 3.78568282,11.3818943 L3.78568282,19.4554626 C3.78568282,20.4948899 2.94303965,21.337533 1.90374449,21.337533 C0.864317181,21.337533 0.0216740088,20.4948899 0.0216740088,19.4555947 L0.0216740088,11.3820264 C0.0215418502,10.3425991 0.864185022,9.49982379 1.90374449,9.49982379 Z M25.0591189,9.49982379 C26.0984141,9.49982379 26.9410573,10.342467 26.9410573,11.3818943 L26.9410573,19.4554626 C26.9410573,20.4948899 26.0984141,21.337533 25.0591189,21.337533 C24.0196916,21.337533 23.1770485,20.4948899 23.1770485,19.4555947 L23.1770485,11.3820264 C23.1770485,10.3425991 24.0196916,9.49982379 25.0591189,9.49982379 Z M4.99427313,7.60770925 C5.04660793,3.85044053 8.32599119,0.769823789 12.5355066,0.363832599 L14.4269604,0.363832599 C18.6367401,0.769955947 21.915859,3.85070485 21.9681938,7.60770925 L4.99427313,7.60770925 Z" id="Shape" fill="#A4C639" fill-rule="nonzero"></path>
            <path d="M5.64885463,0.00118942731 L7.63414097,3.43995595 M21.3140088,0.00118942731 L19.3285903,3.43995595" id="Shape" stroke="#A4C639" stroke-linecap="round" stroke-linejoin="round"></path>
            <path d="M10.9530396,4.24057269 C10.9546256,4.76577093 10.5199559,5.19277533 9.98207048,5.19422907 C9.44444934,5.19555066 9.00726872,4.77105727 9.00568282,4.24585903 L9.00568282,4.24057269 C9.00422907,3.71524229 9.43889868,3.28837004 9.97665198,3.2869163 C10.5142731,3.28546256 10.9514537,3.70982379 10.9530396,4.23528634 L10.9530396,4.24057269 Z M18.2212335,4.24057269 C18.2228194,4.76577093 17.7881498,5.19277533 17.2502643,5.19422907 C16.7126432,5.19555066 16.2754626,4.77105727 16.2738767,4.24585903 L16.2738767,4.24057269 C16.2724229,3.71524229 16.7070925,3.28837004 17.2448458,3.2869163 C17.782467,3.28546256 18.2196476,3.70982379 18.2212335,4.23528634 L18.2212335,4.24057269 Z" id="Shape" fill="#FFFFFF" fill-rule="nonzero"></path>
        </g>
    </g>
</svg>