<?xml version="1.0" encoding="UTF-8"?>
<svg width="16px" height="16px" viewBox="0 0 16 16" version="1.1" xmlns="http://www.w3.org/2000/svg" xmlns:xlink="http://www.w3.org/1999/xlink">
    <title>Application_REACT</title>
    <g id="Application_REACT" stroke="none" stroke-width="1" fill="none" fill-rule="evenodd">
        <g id="logo-(1)" transform="translate(1.000000, 2.000000)">
            <circle id="Oval" fill="#00D8FF" fill-rule="nonzero" cx="7.00075325" cy="6.17215584" r="1.30303896"></circle>
            <path d="M7.00075325,3.52280519 C8.75025974,3.52280519 10.3755065,3.77384416 11.6009351,4.19571429 C13.0774026,4.704 13.9851948,5.47449351 13.9851948,6.17215584 C13.9851948,6.89919481 13.0230909,7.71768831 11.4375844,8.24301299 C10.2388571,8.64018182 8.66150649,8.84748052 7.00075325,8.84748052 C5.29805195,8.84748052 3.68568831,8.65288312 2.47374026,8.23862338 C0.940077922,7.71441558 0.0163116883,6.8852987 0.0163116883,6.17215584 C0.0163116883,5.48015584 0.883064935,4.71563636 2.33877922,4.2081039 C3.56877922,3.7792987 5.23415584,3.52280519 7.00075325,3.52280519 L7.00075325,3.52280519 Z" id="Shape" stroke="#00D8FF"></path>
            <path d="M4.69444156,4.85511688 C5.56844156,3.33958442 6.59784416,2.05709091 7.57548052,1.20628571 C8.7534026,0.181194805 9.87436364,-0.220285714 10.4787273,0.128233766 C11.1085455,0.491428571 11.336961,1.73379221 10.9999481,3.36968831 C10.7451429,4.60651948 10.1367273,6.07649351 9.30706494,7.51516883 C8.45644156,8.99018182 7.48238961,10.2896883 6.51805195,11.1326234 C5.29776623,12.1993247 4.11805195,12.5853247 3.50025974,12.2290649 C2.90080519,11.8833506 2.67153247,10.7505974 2.95911688,9.236 C3.2021039,7.95625974 3.8118961,6.38548052 4.69444156,4.85511688 L4.69444156,4.85511688 Z" id="Shape" stroke="#00D8FF"></path>
            <path d="M4.69664935,7.51901299 C3.82012987,6.00493506 3.22311688,4.4725974 2.97425974,3.2007013 C2.67441558,1.66825974 2.88641558,0.496571429 3.49020779,0.147038961 C4.1194026,-0.217220779 5.30981818,0.205324675 6.55877922,1.31431169 C7.50309091,2.15275325 8.47275325,3.41397403 9.30483117,4.85127273 C10.1579221,6.32485714 10.7973247,7.81774026 11.046026,9.07418182 C11.3607532,10.6641299 11.106,11.878961 10.4888052,12.2362597 C9.88992208,12.582961 8.79402597,12.2158961 7.62545455,11.2103117 C6.6381039,10.3606753 5.58176623,9.0478961 4.69664935,7.51901299 L4.69664935,7.51901299 Z" id="Shape" stroke="#00D8FF"></path>
        </g>
    </g>
</svg>