<?xml version="1.0" encoding="UTF-8"?>
<svg width="16px" height="16px" viewBox="0 0 16 16" version="1.1" xmlns="http://www.w3.org/2000/svg" xmlns:xlink="http://www.w3.org/1999/xlink">
    <title>Application_CobolCICS</title>
    <g id="Application_CobolCICS" stroke="none" stroke-width="1" fill="none" fill-rule="evenodd">
        <rect id="Rectangle-1" fill="#44117D" x="0" y="0" width="16" height="16" rx="8"></rect>
        <path d="M4.35986328,8.49414062 L4.92822266,8.63769531 C4.80908144,9.10449452 4.59472811,9.46044799 4.28515625,9.70556641 C3.97558439,9.95068482 3.59717021,10.0732422 3.14990234,10.0732422 C2.6870094,10.0732422 2.31054833,9.97900485 2.02050781,9.79052734 C1.7304673,9.60204984 1.50976638,9.32910335 1.35839844,8.97167969 C1.20703049,8.61425603 1.13134766,8.2304708 1.13134766,7.8203125 C1.13134766,7.37304464 1.21679602,6.98291182 1.38769531,6.64990234 C1.5585946,6.31689287 1.80175624,6.06396571 2.1171875,5.89111328 C2.43261876,5.71826085 2.77978326,5.63183594 3.15869141,5.63183594 C3.58838105,5.63183594 3.94970557,5.74120984 4.24267578,5.95996094 C4.535646,6.17871203 4.73974552,6.48632614 4.85498047,6.8828125 L4.29541016,7.01464844 C4.19580028,6.70214688 4.05127048,6.47461009 3.86181641,6.33203125 C3.67236233,6.18945241 3.43408347,6.11816406 3.14697266,6.11816406 C2.81689288,6.11816406 2.54101673,6.19726483 2.31933594,6.35546875 C2.09765514,6.51367267 1.94189498,6.72607289 1.85205078,6.99267578 C1.76220658,7.25927868 1.71728516,7.53417827 1.71728516,7.81738281 C1.71728516,8.18261901 1.77050728,8.50146348 1.87695312,8.77392578 C1.98339897,9.04638808 2.14892466,9.24999933 2.37353516,9.38476562 C2.59814565,9.51953192 2.84130729,9.58691406 3.10302734,9.58691406 C3.42138831,9.58691406 3.69091687,9.49511811 3.91162109,9.31152344 C4.13232532,9.12792877 4.28173789,8.85547056 4.35986328,8.49414062 Z M5.72509766,10 L5.72509766,5.70507812 L6.29345703,5.70507812 L6.29345703,10 L5.72509766,10 Z M10.3598633,8.49414062 L10.9282227,8.63769531 C10.8090814,9.10449452 10.5947281,9.46044799 10.2851562,9.70556641 C9.97558439,9.95068482 9.59717021,10.0732422 9.14990234,10.0732422 C8.6870094,10.0732422 8.31054833,9.97900485 8.02050781,9.79052734 C7.7304673,9.60204984 7.50976638,9.32910335 7.35839844,8.97167969 C7.20703049,8.61425603 7.13134766,8.2304708 7.13134766,7.8203125 C7.13134766,7.37304464 7.21679602,6.98291182 7.38769531,6.64990234 C7.5585946,6.31689287 7.80175624,6.06396571 8.1171875,5.89111328 C8.43261876,5.71826085 8.77978326,5.63183594 9.15869141,5.63183594 C9.58838105,5.63183594 9.94970557,5.74120984 10.2426758,5.95996094 C10.535646,6.17871203 10.7397455,6.48632614 10.8549805,6.8828125 L10.2954102,7.01464844 C10.1958003,6.70214688 10.0512705,6.47461009 9.86181641,6.33203125 C9.67236233,6.18945241 9.43408347,6.11816406 9.14697266,6.11816406 C8.81689288,6.11816406 8.54101673,6.19726483 8.31933594,6.35546875 C8.09765514,6.51367267 7.94189498,6.72607289 7.85205078,6.99267578 C7.76220658,7.25927868 7.71728516,7.53417827 7.71728516,7.81738281 C7.71728516,8.18261901 7.77050728,8.50146348 7.87695312,8.77392578 C7.98339897,9.04638808 8.14892466,9.24999933 8.37353516,9.38476562 C8.59814565,9.51953192 8.84130729,9.58691406 9.10302734,9.58691406 C9.42138831,9.58691406 9.69091687,9.49511811 9.91162109,9.31152344 C10.1323253,9.12792877 10.2817379,8.85547056 10.3598633,8.49414062 Z M11.4350586,8.62011719 L11.9711914,8.57324219 C11.9965822,8.78808701 12.0556636,8.96435478 12.1484375,9.10205078 C12.2412114,9.23974678 12.3852529,9.35107379 12.5805664,9.43603516 C12.7758799,9.52099652 12.9956042,9.56347656 13.2397461,9.56347656 C13.4565441,9.56347656 13.6479484,9.53125032 13.8139648,9.46679688 C13.9799813,9.40234343 14.1035152,9.31396541 14.1845703,9.20166016 C14.2656254,9.08935491 14.3061523,8.96679754 14.3061523,8.83398438 C14.3061523,8.69921808 14.2670902,8.58154347 14.1889648,8.48095703 C14.1108395,8.38037059 13.9819345,8.29589878 13.8022461,8.22753906 C13.6870111,8.18261696 13.4321309,8.11279344 13.0375977,8.01806641 C12.6430644,7.92333937 12.3667,7.83398479 12.2084961,7.75 C12.0034169,7.64257759 11.8505864,7.50927814 11.75,7.35009766 C11.6494136,7.19091717 11.5991211,7.0126963 11.5991211,6.81542969 C11.5991211,6.59863173 11.6606439,6.39599704 11.7836914,6.20751953 C11.9067389,6.01904203 12.0864246,5.87597705 12.3227539,5.77832031 C12.5590832,5.68066357 12.8217759,5.63183594 13.1108398,5.63183594 C13.4292008,5.63183594 13.7099597,5.68310496 13.953125,5.78564453 C14.1962903,5.88818411 14.3833001,6.0390615 14.5141602,6.23828125 C14.6450202,6.437501 14.715332,6.66308468 14.7250977,6.91503906 L14.1801758,6.95605469 C14.1508788,6.68456896 14.0517587,6.47949288 13.8828125,6.34082031 C13.7138663,6.20214774 13.4643571,6.1328125 13.1342773,6.1328125 C12.7905256,6.1328125 12.5400398,6.19580015 12.3828125,6.32177734 C12.2255852,6.44775454 12.1469727,6.59960849 12.1469727,6.77734375 C12.1469727,6.9316414 12.2026362,7.05859325 12.3139648,7.15820312 C12.4233404,7.257813 12.7089821,7.35986276 13.1708984,7.46435547 C13.6328148,7.56884818 13.9497062,7.66015586 14.121582,7.73828125 C14.3715833,7.8535162 14.5561517,7.99951083 14.675293,8.17626953 C14.7944342,8.35302823 14.8540039,8.55663947 14.8540039,8.78710938 C14.8540039,9.01562614 14.7885749,9.23095602 14.6577148,9.43310547 C14.5268548,9.63525492 14.3388684,9.79247991 14.09375,9.90478516 C13.8486316,10.0170904 13.5727554,10.0732422 13.2661133,10.0732422 C12.8774395,10.0732422 12.5517591,10.0166021 12.2890625,9.90332031 C12.0263659,9.7900385 11.8203132,9.61963004 11.6708984,9.39208984 C11.5214836,9.16454964 11.4428711,8.907228 11.4350586,8.62011719 Z" id="CICS" fill="#FFFFFF"></path>
    </g>
</svg>