<?xml version="1.0" encoding="UTF-8"?>
<svg width="16px" height="16px" viewBox="0 0 16 16" version="1.1" xmlns="http://www.w3.org/2000/svg" xmlns:xlink="http://www.w3.org/1999/xlink">
    <title>Application_CobolJCL</title>
    <g id="Application_CobolJCL" stroke="none" stroke-width="1" fill="none" fill-rule="evenodd">
        <rect id="Rectangle-1" fill="#44117D" x="0" y="0" width="16" height="16" rx="8"></rect>
        <path d="M1.97753906,8.578125 L2.57568359,8.49609375 C2.59163419,8.87890816 2.66341082,9.14094981 2.79101562,9.28222656 C2.91862043,9.42350331 3.09521372,9.49414062 3.32080078,9.49414062 C3.48714276,9.49414062 3.63069601,9.45597369 3.75146484,9.37963867 C3.87223368,9.30330365 3.95540342,9.19962631 4.00097656,9.06860352 C4.04654971,8.93758073 4.06933594,8.72851706 4.06933594,8.44140625 L4.06933594,4.98925781 L4.73242188,4.98925781 L4.73242188,8.40380859 C4.73242188,8.82308152 4.68172251,9.14778531 4.58032227,9.37792969 C4.47892202,9.60807407 4.31827909,9.78352804 4.09838867,9.90429688 C3.87849825,10.0250657 3.62044419,10.0854492 3.32421875,10.0854492 C2.88443791,10.0854492 2.54777135,9.95898564 2.31420898,9.70605469 C2.08064662,9.45312374 1.96842443,9.07715093 1.97753906,8.578125 Z M9.39111328,8.24316406 L10.0541992,8.41064453 C9.91520113,8.95524361 9.66512225,9.37052266 9.30395508,9.65649414 C8.94278791,9.94246562 8.50130469,10.0854492 7.97949219,10.0854492 C7.43945042,10.0854492 7.00024583,9.97550566 6.66186523,9.75561523 C6.32348464,9.53572481 6.06600023,9.21728724 5.8894043,8.80029297 C5.71280836,8.3832987 5.62451172,7.93554927 5.62451172,7.45703125 C5.62451172,6.93521875 5.72420148,6.48006379 5.92358398,6.09155273 C6.12296649,5.70304168 6.40665506,5.40795999 6.7746582,5.20629883 C7.14266135,5.00463766 7.54768659,4.90380859 7.98974609,4.90380859 C8.49105068,4.90380859 8.91259595,5.03141148 9.25439453,5.28662109 C9.59619312,5.5418307 9.83430922,5.90071383 9.96875,6.36328125 L9.31591797,6.51708984 C9.19970645,6.15250469 9.03108834,5.8870451 8.81005859,5.72070312 C8.58902884,5.55436115 8.31103683,5.47119141 7.97607422,5.47119141 C7.59098115,5.47119141 7.26912564,5.56347564 7.01049805,5.74804688 C6.75187045,5.93261811 6.57015026,6.18041837 6.46533203,6.49145508 C6.3605138,6.80249179 6.30810547,7.12320798 6.30810547,7.45361328 C6.30810547,7.87972218 6.37019795,8.2517074 6.49438477,8.56958008 C6.61857158,8.88745276 6.81168489,9.12499921 7.07373047,9.28222656 C7.33577605,9.43945391 7.61946462,9.51806641 7.92480469,9.51806641 C8.29622582,9.51806641 8.6106758,9.41097112 8.86816406,9.19677734 C9.12565233,8.98258356 9.29996699,8.66471565 9.39111328,8.24316406 Z M10.84375,10 L10.84375,4.98925781 L11.5068359,4.98925781 L11.5068359,9.40869141 L13.9746094,9.40869141 L13.9746094,10 L10.84375,10 Z" id="JCL" fill="#FFFFFF"></path>
    </g>
</svg>