<?xml version="1.0" encoding="UTF-8"?>
<svg width="16px" height="16px" viewBox="0 0 16 16" version="1.1" xmlns="http://www.w3.org/2000/svg" xmlns:xlink="http://www.w3.org/1999/xlink">
    <title>Application_Java</title>
    <g id="Application_Java" stroke="none" stroke-width="1" fill="none" fill-rule="evenodd">
        <rect id="Rectangle-1" fill="#E66434" x="0" y="0" width="16" height="16" rx="8"></rect>
        <g id="Group" transform="translate(3.000000, 1.000000)" fill="#FFFFFF" fill-rule="nonzero">
            <path d="M2.3081016,10.2503361 C2.16465241,10.2503361 2.02219251,10.2409559 1.88121658,10.2528046 C1.67989305,10.2681092 1.48697861,10.3199475 1.31780749,10.4379412 C1.31681818,10.4389286 1.31533422,10.439916 1.31385027,10.4409034 C1.16347594,10.5519853 1.15407754,10.6946639 1.30049465,10.8106828 C1.3821123,10.8758508 1.47609626,10.9291702 1.57205882,10.9706408 C1.81048128,11.0753046 2.06423797,11.1330672 2.31997326,11.1819433 C2.83490642,11.2792017 3.35528075,11.3265966 3.87812834,11.3527626 C4.43114973,11.3804097 4.98417112,11.3804097 5.53719251,11.3502941 C6.17381016,11.3152416 6.80745989,11.2495798 7.42676471,11.0911029 C7.72998663,11.0135924 8.02875668,10.9183088 8.28993316,10.7381092 C8.39727273,10.6645483 8.49076203,10.5766702 8.54863636,10.4567017 C8.60354278,10.3421639 8.60552139,10.2246639 8.56792781,10.1046954 C8.56298128,10.0893908 8.55902406,10.0740861 8.55209893,10.0503887 C8.69752674,10.1214811 8.8330615,10.1930672 8.93199198,10.3155042 C9.04477273,10.4532458 9.04971925,10.6462815 8.95227273,10.8225315 C8.85037433,11.0056933 8.69208556,11.1276366 8.5159893,11.231313 C8.19100267,11.4233613 7.83485294,11.534937 7.47227273,11.6282458 C6.98998663,11.7516702 6.50028075,11.8257248 6.00612299,11.8785504 C5.37791444,11.946187 4.74822193,11.9728466 4.11704545,11.9644538 C3.61052139,11.9570483 3.10449198,11.9294013 2.60093583,11.8701576 C2.20125668,11.8227626 1.80454545,11.7590756 1.41475936,11.658855 C1.11153743,11.5808508 0.813756684,11.487542 0.538729947,11.3330147 C0.367085561,11.2367437 0.209291444,11.1231933 0.106403743,10.9494118 C-0.013302139,10.7460084 0.0139037433,10.542605 0.181590909,10.3752416 C0.323061497,10.2345378 0.495200535,10.1441912 0.681684492,10.0814916 C1.04030749,9.96004202 1.40733957,9.9432563 1.78030749,9.98719538 C1.85005348,9.99558824 1.91040107,10.018792 1.96877005,10.0538445 C2.0815508,10.1209874 2.19631016,10.1856618 2.3081016,10.2503361 Z" id="Shape"></path>
            <path d="M4.88474599,6.72237395 C4.86199198,6.70657563 4.83923797,6.69176471 4.81697861,6.67547269 C4.40938503,6.37777311 4.02800802,6.05045168 3.69213904,5.6737605 C3.44926471,5.4007458 3.23260695,5.10946429 3.09756684,4.76634454 C3.00506684,4.53331933 2.96203209,4.29338235 3.01149733,4.04357143 C3.05057487,3.84510504 3.14455882,3.67181723 3.26179144,3.50939076 C3.4794385,3.20971639 3.75644385,2.96780462 4.03740642,2.73132353 C4.36140374,2.45880252 4.69034759,2.19220588 5.01187166,1.91622899 C5.27106952,1.69357143 5.50850267,1.44919118 5.6890508,1.15642857 C5.81568182,0.952037815 5.89828877,0.733329832 5.90274064,0.489936975 C5.9052139,0.360094538 5.88790107,0.232720588 5.84338235,0.110283613 C5.83596257,0.0905357143 5.82953209,0.0707878151 5.82260695,0.051039916 C5.82755348,0.0490651261 5.83200535,0.0465966387 5.83645722,0.0441281513 C5.88938503,0.139905462 5.94627005,0.233707983 5.99474599,0.331953782 C6.12632353,0.598056723 6.20002674,0.878476891 6.19062834,1.17765756 C6.18122995,1.45659664 6.10010695,1.71677521 5.97347594,1.96313025 C5.79391711,2.31365546 5.54362299,2.61332983 5.27601604,2.89819328 C4.98614973,3.2067542 4.68886364,3.50889706 4.40245989,3.82042017 C4.23774064,3.99963235 4.09627005,4.19760504 4.01168449,4.43013655 C3.94144385,4.62366597 3.94243316,4.8127521 4.02108289,5.00480042 C4.25802139,5.58538866 4.53057487,6.14771008 4.87089572,6.67646008 C4.87881016,6.68830882 4.88524064,6.70163866 4.89216578,6.71447479 C4.88969251,6.71644958 4.8867246,6.71941176 4.88474599,6.72237395 Z" id="Shape"></path>
            <path d="M3.49180481,6.49428571 C3.31966578,6.54563025 3.14653743,6.59401261 2.97588235,6.65029412 C2.8111631,6.70460084 2.64644385,6.76285714 2.5015107,6.86060924 C2.46243316,6.88677521 2.42681818,6.92133403 2.39713904,6.95786765 C2.35707219,7.00625 2.36696524,7.05117647 2.42582888,7.07191176 C2.5034893,7.09906513 2.58362299,7.1232563 2.66474599,7.13313025 C2.87991979,7.15781513 3.09558824,7.1820063 3.31224599,7.19039916 C3.99733957,7.22051471 4.68292781,7.20767857 5.36802139,7.16620798 C5.73752674,7.1439916 6.10802139,7.12078782 6.47653743,7.08178571 C6.81042781,7.04673319 7.14135027,6.98946429 7.47375668,6.94206933 C7.48513369,6.94058824 7.4965107,6.93861345 7.51332888,6.94552521 C7.44902406,6.99835084 7.38620321,7.05364496 7.31942513,7.10301471 C7.12799465,7.24519958 6.93557487,7.38491597 6.74266043,7.52463235 C6.72683155,7.5354937 6.70852941,7.54635504 6.69022727,7.54931723 C6.26185829,7.6139916 5.83447861,7.68557773 5.40413102,7.73889706 C4.74673797,7.82035714 4.08489305,7.85195378 3.42255348,7.8475105 C2.93729947,7.84454832 2.45254011,7.81986345 1.97322193,7.73988445 C1.71352941,7.69693277 1.45581551,7.64213235 1.22184492,7.51426471 C1.15902406,7.47970588 1.09719251,7.4362605 1.04921123,7.38294118 C0.925548128,7.24766807 0.947312834,7.06648109 1.09372995,6.93663866 C1.23371658,6.81321429 1.40387701,6.74903361 1.57947861,6.69867647 C1.99894385,6.57920168 2.4297861,6.53378151 2.8631016,6.51057773 C3.07332888,6.49971639 3.2830615,6.49379202 3.49279412,6.48539916 C3.49229947,6.48885504 3.49180481,6.49132353 3.49180481,6.49428571 Z" id="Shape"></path>
            <path d="M5.28046791,6.98847689 C5.39967914,6.88183824 5.50207219,6.76186975 5.58764706,6.62709034 C5.67421123,6.48934874 5.73307487,6.34173319 5.7409893,6.17782563 C5.7503877,5.99219538 5.68657754,5.82581933 5.59061497,5.67326681 C5.46893048,5.48023109 5.33784759,5.29361345 5.21566845,5.10156513 C5.08755348,4.90112395 5,4.68488445 4.98516043,4.44445378 C4.97477273,4.26820378 5.00197861,4.09491597 5.05292781,3.92656513 C5.17263369,3.53061975 5.42391711,3.23143908 5.75385027,2.9924895 C6.11296791,2.73329832 6.51759358,2.57383403 6.94052139,2.45633403 C7.25512032,2.36894958 7.57516043,2.31019958 7.90509358,2.2874895 C7.89025401,2.29785714 7.87541444,2.30822479 7.86057487,2.31760504 C7.50195187,2.54421218 7.15421123,2.78563025 6.82081551,3.04679622 C6.5922861,3.22551471 6.37266043,3.41410714 6.1817246,3.63330882 C6.13127005,3.69205882 6.08526738,3.7547584 6.04025401,3.81795168 C5.89828877,4.01543067 5.90026738,4.23018908 5.98435829,4.44544118 C6.04173797,4.59058824 6.11890374,4.72832983 6.18815508,4.86853992 C6.26878342,5.03244748 6.36177807,5.19191176 6.43053476,5.36125 C6.57794118,5.72164916 6.51709893,6.06081933 6.29104278,6.37184874 C6.0996123,6.6344958 5.83695187,6.80185924 5.53867647,6.91689076 C5.45606952,6.94848739 5.37049465,6.97317227 5.28590909,7.00081933 C5.28393048,6.99637605 5.28195187,6.99292017 5.28046791,6.98847689 Z" id="Shape"></path>
            <path d="M7.07754011,8.72135504 C7.0048262,8.7494958 6.93804813,8.77615546 6.86929144,8.80034664 C6.38799465,8.96820378 5.89334225,9.07780462 5.38830214,9.1400105 C4.92778075,9.19629202 4.46528075,9.2194958 4.00129679,9.1987605 C3.5209893,9.17605042 3.04463904,9.12766807 2.58114973,8.98992647 C2.40505348,8.93759454 2.23143048,8.87637605 2.08254011,8.76381303 C2.04,8.73221639 1.99993316,8.69173319 1.96877005,8.64828782 C1.90891711,8.56435924 1.92227273,8.45722689 1.99795455,8.35404412 C2.09243316,8.22518908 2.22302139,8.1412605 2.36300802,8.07164916 C2.50596257,8.00006303 2.6563369,7.95168067 2.81561497,7.93292017 C2.8413369,7.92995798 2.86705882,7.92995798 2.9026738,7.92798319 C2.87002674,7.96254202 2.84183155,7.98969538 2.81759358,8.02030462 C2.73597594,8.11904412 2.74834225,8.21728992 2.85370321,8.29183824 C2.97786096,8.37971639 3.12279412,8.4167437 3.26921123,8.44488445 C3.79008021,8.54510504 4.31540107,8.54214286 4.84220588,8.50709034 C5.28739305,8.47746849 5.72812834,8.41822479 6.15600267,8.29233193 C6.28213904,8.25530462 6.37266043,8.26863445 6.47703209,8.34071429 C6.65609626,8.46512605 6.84604278,8.57472689 7.03054813,8.6907458 C7.04489305,8.69913866 7.05824866,8.70802521 7.07754011,8.72135504 Z" id="Shape"></path>
            <path d="M3.26921123,9.26787815 C3.24843583,9.29996849 3.23062834,9.32366597 3.21727273,9.34933824 C3.17671123,9.42635504 3.1915508,9.4930042 3.26129679,9.54533613 C3.3453877,9.60902311 3.44481283,9.63420168 3.54572193,9.65493697 C3.83657754,9.71368697 4.13139037,9.71269958 4.42570856,9.70183824 C4.75663102,9.6899895 5.08656417,9.65641807 5.41006684,9.58384454 C5.61881016,9.53743697 5.82260695,9.46831933 6.02937166,9.41055672 C6.0486631,9.40512605 6.07636364,9.40413866 6.09169786,9.41401261 C6.34545455,9.57643908 6.59723262,9.74034664 6.85,9.9042542 C6.85643048,9.90820378 6.86187166,9.91412815 6.87720588,9.92597689 C6.77629679,9.97633403 6.68379679,10.0266912 6.58832888,10.0691492 C6.24998663,10.2177521 5.89433155,10.3061239 5.53125668,10.3678361 C5.05391711,10.4488025 4.57212567,10.4803992 4.08786096,10.4670693 C3.69807487,10.4567017 3.31175134,10.4216492 2.93631016,10.3080987 C2.77604278,10.2592227 2.62022727,10.1989916 2.49508021,10.0814916 C2.3788369,9.97090336 2.35608289,9.83563025 2.43028075,9.69443277 C2.48518717,9.58927521 2.56729947,9.50880252 2.66524064,9.44314076 C2.84578877,9.32317227 3.04661765,9.27330882 3.26921123,9.26787815 Z" id="Shape"></path>
            <path d="M1.73183155,12.1619328 C1.84955882,12.1871113 1.9672861,12.2122899 2.08501337,12.2364811 C2.54207219,12.3302836 3.00259358,12.4013761 3.46657754,12.453708 C4.12100267,12.5262815 4.77691176,12.5568908 5.43479947,12.5376366 C6.33951872,12.5119643 7.23187166,12.4033508 8.10245989,12.1441597 C8.59266043,11.9985189 9.06505348,11.8099265 9.49342246,11.5270378 C9.64181818,11.4292857 9.77685829,11.311292 9.91832888,11.2021849 C9.93217914,11.1913235 9.94553476,11.1789811 9.96680481,11.161208 C9.96532086,11.2732773 9.94256684,11.3710294 9.90398396,11.4648319 C9.83918449,11.6223214 9.7372861,11.753645 9.61362299,11.8681828 C9.33315508,12.1273739 8.99877005,12.2947374 8.64558824,12.4295168 C8.19743316,12.6003361 7.73245989,12.7064811 7.25858289,12.7795483 C6.68775401,12.8684139 6.11395722,12.902479 5.53669786,12.8960609 C5.08804813,12.8911239 4.64088235,12.8585399 4.19569519,12.8017647 C3.56451872,12.7203046 2.9442246,12.5879937 2.3382754,12.3929832 C2.1325,12.326334 1.93068182,12.2498109 1.72737968,12.1772374 C1.72886364,12.1727941 1.73034759,12.1678571 1.73183155,12.1619328 Z" id="Shape"></path>
            <path d="M7.70475936,6.77322479 C7.80171123,6.71891807 7.89717914,6.65868697 7.99808824,6.61227941 C8.17715241,6.53081933 8.36660428,6.48984244 8.56495989,6.48934874 C9.02647059,6.48786765 9.39597594,6.79741597 9.4607754,7.25359244 C9.5428877,7.82677521 9.35096257,8.29628151 8.90429144,8.66161765 C8.58573529,8.92130252 8.21375668,9.07286765 7.82050802,9.17703782 C7.71959893,9.20419118 7.61720588,9.22295168 7.51530749,9.24516807 C7.49700535,9.24862395 7.4777139,9.24911765 7.45545455,9.24269958 C7.4663369,9.23381303 7.47721925,9.22542017 7.4881016,9.21653361 C7.7843984,8.99733193 8.06041444,8.75640756 8.29537433,8.47154412 C8.47889037,8.24938025 8.63569519,8.01141807 8.71286096,7.7305042 C8.75490642,7.57745798 8.77963904,7.42194328 8.72473262,7.26741597 C8.64558824,7.0447584 8.47987968,6.9084979 8.26470588,6.82654412 C8.08514706,6.75841387 7.90064171,6.7519958 7.7126738,6.78655462 C7.70970588,6.78211134 7.70723262,6.77766807 7.70475936,6.77322479 Z" id="Shape"></path>
        </g>
    </g>
</svg>