<?xml version="1.0" encoding="UTF-8"?>
<svg width="190px" height="190px" viewBox="0 0 190 190" version="1.1" xmlns="http://www.w3.org/2000/svg" xmlns:xlink="http://www.w3.org/1999/xlink">
    <title>Application_NodeJS</title>
    <g id="Application_NodeJS" stroke="none" stroke-width="1" fill="none" fill-rule="evenodd">
        <g id="Group" transform="translate(13.000000, 3.000000)" fill="#689F63" fill-rule="nonzero">
            <path d="M81.7147096,183.409805 C79.2484369,183.409805 76.7990564,182.765485 74.6368447,181.525633 L52.1076125,168.242223 C48.7426705,166.368145 50.3846,165.705321 51.4944228,165.32344 C55.981012,163.758904 56.8915058,163.405622 61.6804669,160.697125 C62.1838568,160.411135 62.8426557,160.512073 63.3578702,160.814886 L80.6656991,171.043246 C81.2907134,171.379705 82.177558,171.379705 82.7569632,171.043246 L150.241617,132.249499 C150.866631,131.896217 151.272046,131.17283 151.272046,130.432619 L151.272046,52.8787709 C151.272046,52.1049147 150.866631,51.4151733 150.228103,51.0282452 L82.770477,12.268144 C82.1454627,11.8980389 81.317741,11.8980389 80.6927267,12.268144 L13.2486143,51.0282452 C12.5948831,51.3983504 12.179333,52.1217377 12.179333,52.861948 L12.179333,130.415796 C12.179333,131.156007 12.5847477,131.862571 13.2266543,132.215853 L31.7068073,142.847964 C41.740821,147.844384 47.8727182,141.956347 47.8727182,136.034665 L47.8727182,59.4901944 C47.8727182,58.396702 48.7342244,57.555554 49.8322225,57.555554 L58.3797156,57.555554 C59.4439292,57.555554 60.3223277,58.396702 60.3223277,59.4901944 L60.3223277,136.068311 C60.3223277,149.392096 53.0248632,157.046543 40.3387618,157.046543 C36.4366454,157.046543 33.3622507,157.046543 24.780973,152.840803 L7.07786483,142.679735 C2.70276461,140.156291 0,135.445862 0,130.415796 L0,52.861948 C0,47.8150598 2.70276461,43.1046308 7.07786483,40.6148326 L74.6300878,1.80426252 C78.9038344,-0.601420842 84.5796401,-0.601420842 88.819602,1.80426252 L156.287364,40.6316556 C160.645572,43.1382767 163.365228,47.8318827 163.365228,52.8787709 L163.365228,130.432619 C163.365228,135.462685 160.645572,140.156291 156.287364,142.679735 L88.819602,181.490305 C86.6573904,182.735204 84.2080099,183.374476 81.7079527,183.374476" id="Shape"></path>
            <path d="M102.559782,129.969988 C73.0320783,129.969988 66.8410581,116.471244 66.8410581,105.149392 C66.8410581,104.072722 67.7126997,103.214751 68.7954947,103.214751 L77.5119106,103.214751 C78.4747705,103.214751 79.2855999,103.912904 79.4376304,104.860037 C80.7552281,113.70555 84.6742368,118.166999 102.529376,118.166999 C116.752674,118.166999 122.80011,114.967272 122.80011,107.45582 C122.80011,103.132319 121.077098,99.9191333 98.981997,97.7657944 C80.501844,95.9489146 69.0826635,91.8945811 69.0826635,77.1744906 C69.0826635,63.6151844 80.5694131,55.5401633 99.8097186,55.5401633 C121.414943,55.5401633 132.124648,63.0095578 133.47603,79.0586622 C133.526707,79.6138199 133.324,80.1521546 132.95237,80.5559057 C132.58074,80.9428338 132.057079,81.1783552 131.516526,81.1783552 L122.749433,81.1783552 C121.83725,81.1783552 121.043313,80.5390827 120.857498,79.6642888 C118.745963,70.3611916 113.644495,67.3835275 99.7759341,67.3835275 C84.2519299,67.3835275 82.444456,72.7668749 82.444456,76.8043855 C82.444456,81.699867 84.5728832,83.1298187 105.519309,85.8887842 C126.263027,88.6309268 136.111226,92.5002077 136.111226,107.018423 C136.111226,121.654398 123.847431,130.049056 102.461806,130.049056 L102.559782,129.969988 Z" id="Shape"></path>
        </g>
    </g>
</svg>