<?xml version="1.0" encoding="UTF-8"?>
<svg width="16px" height="16px" viewBox="0 0 16 16" version="1.1" xmlns="http://www.w3.org/2000/svg" xmlns:xlink="http://www.w3.org/1999/xlink">
    <title>Application_VB</title>
    <g id="Application_VB" stroke="none" stroke-width="1" fill="none" fill-rule="evenodd">
        <g id="vb" fill-rule="nonzero">
            <circle id="Oval" fill="#004E8C" cx="8.12307692" cy="7.87692308" r="7.87692308"></circle>
            <path d="M2.66338462,2.21538462 C0.481607349,4.1595882 -0.444492265,7.1518937 0.257611227,9.98864013 C0.95971472,12.8253866 3.17461344,15.0402853 6.01135987,15.7423888 C8.8481063,16.4444923 11.8404118,15.5183927 13.7846154,13.3366154 L2.66338462,2.21538462 Z" id="Shape" fill="#FFFFFF" opacity="0.1"></path>
            <path d="M8.44061538,4.77538462 L6.15384615,10.9784615 L5.344,10.9784615 L3.09415385,4.77538462 L3.904,4.77538462 L5.62707692,9.69846154 C5.68649793,9.8769675 5.72853926,10.0607953 5.75261538,10.2473846 L5.76984615,10.2473846 C5.79564192,10.0559258 5.84185378,9.86777756 5.90769231,9.68615385 L7.66030769,4.76307692 L8.44061538,4.77538462 Z" id="Shape" fill="#FFFFFF"></path>
            <path d="M9.33415385,10.9784615 L9.33415385,4.77538462 L11.0990769,4.77538462 C11.5574146,4.75085759 12.0094883,4.89049424 12.3741538,5.16923077 C12.6832942,5.41884374 12.8581092,5.79852005 12.8467692,6.19569231 C12.8515789,6.52469666 12.7487146,6.8462558 12.5538462,7.11138462 C12.357187,7.37540376 12.0811402,7.56949921 11.7661538,7.66523077 L11.7661538,7.68246154 C12.1471143,7.71316576 12.5039809,7.88110298 12.7704615,8.15507692 C13.0281061,8.43908367 13.1634239,8.81319761 13.1470769,9.19630769 C13.1634056,9.69085281 12.9531203,10.1658075 12.576,10.4861538 C12.1731527,10.8222519 11.6602919,10.9975889 11.136,10.9784615 L9.33415385,10.9784615 Z M10.0726154,5.43015385 L10.0726154,7.43384615 L10.8110769,7.43384615 C11.1473086,7.44965387 11.4781383,7.34490569 11.744,7.13846154 C11.9774348,6.93510298 12.1037387,6.63524492 12.0861538,6.32615385 C12.0861538,5.72389744 11.6898462,5.42276923 10.8972308,5.42276923 L10.0726154,5.43015385 Z M10.0726154,8.08615385 L10.0726154,10.3187692 L11.0572308,10.3187692 C11.411136,10.3392832 11.7606133,10.2318189 12.0418462,10.016 C12.2795529,9.80764225 12.4091673,9.50218722 12.3938462,9.18646154 C12.3938462,8.4545641 11.8949744,8.08861538 10.8972308,8.08861538 L10.0726154,8.08615385 Z" id="Shape" fill="#FFFFFF"></path>
        </g>
    </g>
</svg>