<?xml version="1.0" encoding="UTF-8"?>
<svg width="16px" height="16px" viewBox="0 0 16 16" version="1.1" xmlns="http://www.w3.org/2000/svg" xmlns:xlink="http://www.w3.org/1999/xlink">
    <title>Application_SAP</title>
    <defs>
        <linearGradient x1="49.9649146%" y1="0.0540357987%" x2="49.9649146%" y2="100.003538%" id="linearGradient-1">
            <stop stop-color="#00B8F1" offset="0%"></stop>
            <stop stop-color="#06A5E5" offset="21.9864%"></stop>
            <stop stop-color="#06A5E5" offset="21.9864%"></stop>
            <stop stop-color="#1870C5" offset="79.4312%"></stop>
            <stop stop-color="#1D61BC" offset="100%"></stop>
        </linearGradient>
    </defs>
    <g id="Application_SAP" stroke="none" stroke-width="1" fill="none" fill-rule="evenodd">
        <g id="SAP_2011_logo-Copy">
            <polygon id="path3060" fill="url(#linearGradient-1)" points="0 16 16 16 16 0.00180119329 0 0.00180119329"></polygon>
            <path d="M12.4149384,7.78870094 L11.9921692,7.78870094 L11.9921692,6.2387047 L12.4149384,6.2387047 C12.9793547,6.2387047 13.4286284,6.42513112 13.4286284,7.00379347 C13.4286284,7.60140337 12.9793547,7.78870094 12.4149384,7.78870094 M7.86463026,8.89680559 C7.64086242,8.89680559 7.43099861,8.85586147 7.24959459,8.78747608 L7.85854725,6.86223136 L7.87158227,6.86223136 L8.46793442,8.79270299 C8.2882684,8.8571682 8.08383584,8.89680559 7.86528201,8.89680559 M12.3028372,4.97945527 L10.3829961,4.97945527 L10.3829961,9.55583167 L8.70582353,4.97945527 L7.04342403,4.97945527 L5.61044087,8.80555248 C5.45901739,7.84118781 4.46249014,7.50731902 3.67908546,7.25838749 C3.16268144,7.09177977 2.61303811,6.84698621 2.61803487,6.57584032 C2.62237987,6.35413227 2.91327806,6.14854053 3.48703617,6.17924862 C3.87374176,6.19884952 4.21482477,6.23021098 4.89199404,6.55841729 L5.55895254,5.39368779 C4.94109261,5.07724202 4.08490907,4.87861949 3.38449402,4.87709497 L3.38014901,4.87709497 C2.56307053,4.87709497 1.88220801,5.14410289 1.45987337,5.58120314 C1.16636818,5.8869773 1.00755819,6.27376855 1.00038893,6.70433516 C0.989526415,7.2941047 1.20612499,7.71269297 1.65952642,8.04743292 C2.0431905,8.32925042 2.53265549,8.51066771 2.96498364,8.64656734 C3.49833319,8.81143275 3.93370285,8.95539053 3.92870609,9.26225363 C3.92436108,9.3739788 3.88286627,9.47873477 3.8022664,9.56149416 C3.66952645,9.69978945 3.46552839,9.7509696 3.18332022,9.75728545 C2.6393254,9.76817484 2.23589154,9.68323757 1.59326507,9.30254438 L1.00038893,10.483608 C1.64106015,10.8492738 2.39948104,11.0631415 3.17354395,11.0631415 L3.27369635,11.0631415 C3.94717237,11.0500742 4.49116718,10.857332 4.92588509,10.5071291 L4.9962742,10.4454951 L4.80422491,10.9629591 L6.54765878,10.9629591 L6.84051222,10.0702466 C7.14683518,10.1741314 7.49573921,10.2324986 7.86506476,10.2324986 C8.22548305,10.2324986 8.56547982,10.1780516 8.86637152,10.0787403 L9.14792794,10.9629591 L11.9926037,10.9629591 L11.9926037,9.11394009 L12.6132879,9.11394009 C14.1123152,9.11394009 15,8.34906911 15,7.06542744 C15,5.63673904 14.1379507,4.98141536 12.3026199,4.98141536" id="path3100" fill="#FFFFFF"></path>
        </g>
    </g>
</svg>