<?xml version="1.0" encoding="UTF-8"?>
<svg width="16px" height="16px" viewBox="0 0 16 16" version="1.1" xmlns="http://www.w3.org/2000/svg" xmlns:xlink="http://www.w3.org/1999/xlink">
    <title>Application_iOS</title>
    <g id="Application_iOS" stroke="none" stroke-width="1" fill="none" fill-rule="evenodd">
        <rect id="Rectangle-1" fill="#1A4F8E" x="0" y="0" width="16" height="16" rx="8"></rect>
        <path d="M12.278,10.1575702 C12.278,10.1575702 12.1382,10.2907092 11.9858,10.376858 C11.8322,10.4630068 11.6516,10.5113023 11.6516,10.5113023 C11.6516,10.5113023 12.3572,12.512956 12.4478,12.7413808 C12.5384,12.9698055 12.8648,13.1022919 13.2194,12.9012781 C13.574,12.7022222 13.709,12.3876487 13.5452,12.1239812 C13.4594,11.9862737 12.278,10.1575702 12.278,10.1575702 L12.278,10.1575702 Z M12.53,8.59775528 C12.599,8.76548433 12.6668,8.93256074 12.7358,9.09963715 L14,9.09963715 L14,7.14171048 L11.8982,7.14171048 C12.1856,7.81393197 12.4022,8.3399616 12.5162,8.6088502 L12.53,8.59775528 Z M7.5542,1.03689511 C7.415,1.11586482 7.394,1.26270932 7.4738,1.46045991 C7.553,1.65951579 9.2582,5.94019614 9.7208,6.91002249 C10.1822,7.87984883 10.3562,8.09065227 10.3562,8.09065227 C10.3562,8.09065227 10.5986,8.00841935 10.847,7.86810127 C11.0948,7.7277832 11.297,7.56070679 11.297,7.56070679 C11.297,7.56070679 11.201,7.30552368 10.7396,6.33700262 C10.289,5.39067139 8.0744,1.38736399 7.943,1.19548717 C7.8134,1.00491564 7.694,0.957272759 7.5542,1.03689511 L7.5542,1.03689511 Z M7.4246,7.14171048 C7.0928,7.7943527 6.7604,8.44699493 6.4286,9.09963715 L9.9164,9.09963715 C9.641,8.59710264 9.2726,7.91835473 8.8676,7.14171048 L7.4246,7.14171048 Z M10.5476,8.62255569 L11.315,10.0276944 C11.315,10.0276944 11.5322,9.9598196 11.7278,9.85017571 C11.9234,9.73792125 12.0992,9.58520297 12.0992,9.58520297 L11.4872,8.09326284 C11.4872,8.09326284 11.2658,8.27078153 11.0372,8.40000469 C10.808,8.52922785 10.5476,8.62255569 10.5476,8.62255569 L10.5476,8.62255569 Z M7.7384,4.89401066 L6.5036,4.15065116 L6.1298,4.88487367 L7.3652,5.63019109 L7.7384,4.89401066 Z M5.8796,5.42591407 L3.5336,10.039442 C3.5336,10.039442 3.8156,10.3174675 4.109,10.4949862 C4.4018,10.670547 4.7696,10.7828014 4.7696,10.7828014 L7.115,6.17123149 L5.8796,5.42591407 Z M7.7606,3.31396383 C7.4192,3.10838153 6.968,3.28524757 6.7796,3.65594836 L8.015,4.39865521 C8.2028,4.02795443 8.102,3.51889349 7.7606,3.31396383 L7.7606,3.31396383 Z M3.2564,10.5837456 C3.2564,10.5837456 3.0806,12.1004861 2.9432,12.4907661 C2.846,12.7648759 3.0146,12.877783 3.1748,12.6284737 C3.3938,12.2890997 4.4912,11.3277577 4.4912,11.3277577 C4.4912,11.3277577 4.1078,11.2057136 3.8318,11.0399425 C3.5546,10.874824 3.2564,10.5837456 3.2564,10.5837456 L3.2564,10.5837456 Z M4.2038,7.14171048 L2,7.14171048 L2,9.09963715 L3.2084,9.09963715 C3.5402,8.44699493 3.872,7.7943527 4.2038,7.14171048 L4.2038,7.14171048 Z" id="XCWelcome-NewProjectTemplate" fill="#FFFFFF"></path>
    </g>
</svg>