<?xml version="1.0" encoding="UTF-8"?>
<svg width="16px" height="16px" viewBox="0 0 16 16" version="1.1" xmlns="http://www.w3.org/2000/svg" xmlns:xlink="http://www.w3.org/1999/xlink">
    <title>Application_CSharp</title>
    <g id="Application_CSharp" stroke="none" stroke-width="1" fill="none" fill-rule="evenodd">
        <g id="csharp" fill-rule="nonzero">
            <circle id="Oval" fill="#05930C" cx="8.12307692" cy="7.87692308" r="7.87692308"></circle>
            <path d="M2.66338462,2.21538462 C0.481607349,4.1595882 -0.444492265,7.1518937 0.257611227,9.98864013 C0.95971472,12.8253866 3.17461344,15.0402853 6.01135987,15.7423888 C8.8481063,16.4444923 11.8404118,15.5183927 13.7846154,13.3366154 L2.66338462,2.21538462 Z" id="Shape" fill="#FFFFFF" opacity="0.1"></path>
            <path d="M7.73661538,10.72 C7.2007604,10.98072 6.60906565,11.1058211 6.01353846,11.0843077 C5.21733348,11.1192007 4.44480999,10.8087557 3.89415385,10.2326154 C3.34699975,9.61927496 3.06162094,8.81615008 3.09907692,7.99507692 C3.06056328,7.10530575 3.38376203,6.23781899 3.99507692,5.59015385 C4.59266041,4.97877742 5.42005611,4.64728303 6.27446154,4.67692308 C6.77356693,4.6578756 7.27125788,4.74166196 7.73661538,4.92307692 L7.73661538,5.69846154 C7.28526012,5.44759754 6.77602613,5.31944032 6.25969231,5.32676923 C5.6092852,5.30520958 4.98121915,5.56540837 4.53661538,6.04061538 C4.07569042,6.56604328 3.83733157,7.25022146 3.872,7.94830769 C3.83790373,8.60804103 4.06016305,9.25541539 4.49230769,9.75507692 C4.91158371,10.2058716 5.50668582,10.4512838 6.12184615,10.4270769 C6.68908203,10.4411731 7.24904914,10.2971329 7.73907692,10.0110769 L7.73661538,10.72 Z" id="Shape" fill="#FFFFFF"></path>
            <path d="M13.2332308,6.51323077 L13.1347692,6.97107692 L12.0024615,6.97107692 L11.7316923,8.27076923 L12.9476923,8.27076923 L12.832,8.72861538 L11.6406154,8.72861538 L11.2590769,10.4516923 L10.7150769,10.4516923 L11.0867692,8.72861538 L10.0036923,8.72861538 L9.63938462,10.4516923 L9.10769231,10.4516923 L9.472,8.72861538 L8.32984615,8.72861538 L8.416,8.27076923 L9.56307692,8.27076923 L9.82646154,6.97353846 L8.62769231,6.97353846 L8.71876923,6.51569231 L9.91753846,6.51569231 L10.2818462,4.77538462 L10.8307692,4.77538462 L10.4664615,6.51569231 L11.5569231,6.51569231 L11.9286154,4.77538462 L12.4603077,4.77538462 L12.096,6.51569231 L13.2332308,6.51323077 Z M11.4683077,6.97107692 L10.3753846,6.97107692 L10.0923077,8.27076923 L11.1901538,8.27076923 L11.4683077,6.97107692 Z" id="Shape" fill="#FFFFFF"></path>
        </g>
    </g>
</svg>