<?xml version="1.0" encoding="UTF-8"?>
<svg width="16px" height="16px" viewBox="0 0 16 16" version="1.1" xmlns="http://www.w3.org/2000/svg" xmlns:xlink="http://www.w3.org/1999/xlink">
    <title>Application_PHP</title>
    <g id="Application_PHP" stroke="none" stroke-width="1" fill="none" fill-rule="evenodd">
        <ellipse id="Oval" fill="#FFFFFF" cx="8" cy="7.24845858" rx="8" ry="4.24845858"></ellipse>
        <g id="PHP" transform="translate(0.000000, 3.000000)" fill="#8893BD">
            <path d="M7.98375506,0.00469163407 C12.3847547,0.00469163407 15.9526499,1.88165392 15.9526499,4.19669754 C15.9526499,6.51183376 12.3847547,8.38870344 7.98375506,8.38870344 C3.58266278,8.38870344 0.0147676727,6.51183376 0.0147676727,4.19669754 C0.0147676727,1.88165392 3.58266278,0.00469163407 7.98375506,0.00469163407 Z M11.8126841,3.00616453 L11.1856101,3.00616453 L10.8439233,4.76432353 L11.4006228,4.76432353 C11.7695334,4.76432353 12.0443644,4.694875 12.2249305,4.55579274 C12.4055893,4.41671048 12.5273557,4.18475239 12.5906002,3.85954807 C12.6512519,3.54730748 12.6236577,3.32701674 12.5079101,3.19867586 C12.39207,3.07033497 12.1603897,3.00616453 11.8126841,3.00616453 L11.8126841,3.00616453 Z M9.58301583,6.54415047 L10.4980697,6.54415047 L10.7151195,5.4272329 L11.4989619,5.4272329 C11.8448156,5.4272329 12.1293694,5.39102707 12.3527158,5.31815241 C12.5760623,5.24564815 12.7791298,5.12378912 12.9618257,4.95276054 C13.1151681,4.81182632 13.2392495,4.65635421 13.3343477,4.48634421 C13.4291681,4.31642681 13.496672,4.12882318 13.5364892,3.92371852 C13.6333467,3.42572625 13.5603795,3.03783306 13.3175874,2.76003894 C13.0747953,2.48215222 12.6886615,2.34325515 12.1591859,2.34325515 L10.3994528,2.34325515 L9.58301583,6.54415047 L9.58301583,6.54415047 Z M7.06592328,1.22633759 L7.97375448,1.22633759 L7.75670467,2.34325515 L8.56554855,2.34325515 C9.07446739,2.34325515 9.42550656,2.43196408 9.61875867,2.60947452 C9.81191818,2.78698497 9.86979196,3.07468708 9.79256519,3.47239566 L9.41272803,5.4272329 L8.49035895,5.4272329 L8.8514913,3.56851243 C8.89260484,3.3571111 8.87751135,3.21284336 8.80611826,3.13589438 C8.73481777,3.05903801 8.58286439,3.02051723 8.3506285,3.02051723 L7.62503025,3.02051723 L7.15731755,5.4272329 L6.24939376,5.4272329 L7.06592328,1.22633759 M4.66994898,3.00616453 C5.01756202,3.00616453 5.24933492,3.07033497 5.36517507,3.19867586 C5.48092262,3.32701674 5.50851684,3.54730748 5.44795772,3.85954807 C5.38462066,4.18475239 5.26285423,4.41671048 5.08219546,4.55579274 C4.90162928,4.694875 4.62679829,4.76432353 4.2578877,4.76432353 L3.70118828,4.76432353 L4.04296764,3.00616453 L4.66994898,3.00616453 L4.66994898,3.00616453 Z M2.44018816,6.54415047 L3.35533459,6.54415047 L3.5723844,5.4272329 L4.35631941,5.4272329 C4.7021731,5.4272329 4.98663428,5.39102707 5.20998075,5.31815241 C5.43341982,5.24564815 5.63639473,5.12378912 5.81909066,4.95276054 C5.97243302,4.81182632 6.09651439,4.65635421 6.19151998,4.48634421 C6.28652557,4.31642681 6.35393695,4.12882318 6.39375411,3.92371852 C6.49061166,3.42572625 6.4175518,3.03783306 6.17475974,2.76003894 C5.93206027,2.48215222 5.54583385,2.34325515 5.01645085,2.34325515 L3.25671768,2.34325515 L2.44018816,6.54415047 L2.44018816,6.54415047 Z" id="Combined-Shape"></path>
        </g>
    </g>
</svg>