<?xml version="1.0" encoding="UTF-8"?>
<svg width="190px" height="190px" viewBox="0 0 190 190" version="1.1" xmlns="http://www.w3.org/2000/svg" xmlns:xlink="http://www.w3.org/1999/xlink">
    <title>Application_LoopBack</title>
    <g id="Application_LoopBack" stroke="none" stroke-width="1" fill="none" fill-rule="evenodd">
        <g id="loopback" transform="translate(-17.000000, -35.000000)">
            <polygon id="Path" fill="#07582A" points="179 177.466787 73.0293874 177.466787 73.0293874 83 52 83 52 199.104892 112.201383 199.104892 112.201383 217 179 177.465909"></polygon>
            <path d="M158.590161,118.750059 C163.170406,112.08355 165.669121,104.167236 165.669121,95.8334404 C165.669121,72.9168216 146.931835,54.1671005 124.031488,54.1671005 L112.373162,54.1671005 L112.373162,40 L52,75.4164329 L123.615182,75.4164329 C134.857203,75.4164329 143.601386,84.5834319 143.601386,95.4168385 C143.601386,106.250245 134.440896,115.417244 123.615182,115.417244 L79.4797133,115.417244 L79.4797133,137.083178 L142.767896,137.083178 C153.59361,137.083178 162.7541,146.250177 162.7541,157.083584 C162.7541,162.083685 161.088876,166.667185 157.757549,170 L181.906814,170 C183.15661,165.833981 183.988344,161.667084 183.988344,157.083584 C184.405529,139.583669 173.579814,124.583364 158.590161,118.750059 Z" id="Path" fill="#6CB433"></path>
        </g>
    </g>
</svg>