<?xml version="1.0" encoding="UTF-8"?>
<svg width="42px" height="42px" viewBox="0 0 42 42" version="1.1" xmlns="http://www.w3.org/2000/svg" xmlns:xlink="http://www.w3.org/1999/xlink">
    <title>AWSLambdaFunctionInvokeGrey</title>
    <g id="AWSLambdaFunctionInvokeGrey" stroke="none" stroke-width="1" fill="none" fill-rule="evenodd">
        <g id="Compute/AWSLambda/LambdaFunction" transform="translate(1.367742, 0.205000)" fill="#B9B9B9" fill-rule="nonzero">
            <g id="Group">
                <path d="M19.6322581,1.04694031e-13 C30.4748548,1.04694031e-13 39.2645161,8.72785903 39.2645161,19.4942188 C39.2645161,30.1403825 30.6700153,38.7933073 19.9946222,38.9851834 L19.9943898,22 L17.93,22 L19.883871,18.5460937 L25.0129032,31.8775 L26.2322581,31.41625 L29.0064516,30.365625 L32.4064516,29.0715625 L30.883871,25.1060937 L27.4774194,26.4001562 L22.6064516,13.735 L21.2516129,10.2307812 L20.6193548,8.57796875 L19.6193548,5.98984375 L13.1677419,5.98984375 L13.1677419,10.2307812 L16.6774194,10.2307812 L17.8967742,13.3954687 L13.028,22 L0.160803356,22.000949 C0.0690111716,21.2909199 0.0156881538,20.5689366 0.00297615626,19.8371258 L-4.58414668e-15,19.4942188 C-4.58414668e-15,8.72785903 8.78966133,1.04694031e-13 19.6322581,1.04694031e-13 Z" id="Combined-Shape"></path>
            </g>
        </g>
        <path d="M17.0438958,24 C17.872323,24 18.5438958,24.6715729 18.5438958,25.5 L18.5438958,35.5 C18.5438958,36.3284271 17.872323,37 17.0438958,37 L16.0438958,37 C15.2154687,37 14.5438958,36.3284271 14.5438958,35.5 L14.543,31.082 L5.15648373,40.3255185 C4.57262456,40.9004423 3.6354427,40.9004423 3.05158352,40.3255185 L2.44755018,39.7307293 C1.85726427,39.1494771 1.84994096,38.1997579 2.43119311,37.609472 L2.44755018,37.5931149 L2.44755018,37.5931149 L12.189,28 L7.04389585,28 C6.21546872,28 5.54389585,27.3284271 5.54389585,26.5 L5.54389585,25.5 C5.54389585,24.6715729 6.21546872,24 7.04389585,24 L17.0438958,24 Z" id="Combined-Shape" fill="#5A5B59"></path>
    </g>
</svg>