<?xml version="1.0" encoding="UTF-8"?>
<svg width="32px" height="32px" viewBox="0 0 32 32" version="1.1" xmlns="http://www.w3.org/2000/svg" xmlns:xlink="http://www.w3.org/1999/xlink">
    <title>Beans</title>
    <g id="Beans" stroke="none" stroke-width="1" fill="none" fill-rule="evenodd">
        <g id="groupcoffeebeans" transform="translate(0.000000, 1.000000)" fill="#8B572A" fill-rule="nonzero">
            <path d="M5.91070336,28.3465851 C4.43302752,25.740265 5.43771662,21.6562691 8.4941896,18.5997961 C11.9649337,15.12579 16.7633028,14.3005097 19.2130479,16.7502548 C19.2163099,16.7535168 19.2195719,16.7567788 19.2228338,16.7600408 C18.7335372,18.185525 17.1710499,21.2224261 12.4901121,22.8632008 C8.2038736,24.3669725 6.55005097,26.758002 5.91070336,28.3465851 Z M17.7712538,20.7527013 C16.6523955,21.8715596 15.0605505,22.9741081 12.806524,23.7635066 C8.2332314,25.3683996 6.95453619,27.9942915 6.59898063,29.2664628 C6.61529052,29.2827727 6.63160041,29.3023445 6.6479103,29.3186544 C9.09765545,31.7683996 13.8960245,30.9398573 17.3667686,27.4723751 C20.4558614,24.3832824 21.4475025,20.2470948 19.9045872,17.6440367 C19.5327217,18.5084608 18.8868502,19.640367 17.7712538,20.7527013 Z M8.30825688,9.46625892 C13.2501529,9.90010194 15.9217125,7.77655454 16.9557594,6.67726809 C16.9524975,6.67400612 16.9524975,6.66748216 16.9524975,6.66422018 C15.7292559,3.42181448 11.0156983,2.19857288 6.42283384,3.93394495 C2.37798165,5.46055046 -0.221814475,8.76819572 0.0521916412,11.7529052 C1.28848114,10.5688073 3.78063201,9.07155963 8.30825688,9.46625892 Z M10.8525994,15.6705403 C14.9398573,14.1308869 17.5494393,10.767788 17.2134557,7.76024465 C16.5186544,8.39633028 15.4617737,9.16289501 13.9906218,9.71743119 C12.509684,10.2752294 10.6079511,10.624261 8.22670744,10.4154944 C3.39898063,9.99143731 1.15147808,11.8572885 0.303363914,12.8717635 C0.313149847,12.8945973 0.319673802,12.9174312 0.326197757,12.9370031 C1.54617737,16.1826707 6.25973496,17.4059123 10.8525994,15.6705403 Z M25.1531091,8.91172273 C28.1182467,4.93537207 27.7170234,1.54291539 27.3255861,0.0880733945 C27.3223242,0.0880733945 27.3158002,0.0848114169 27.3125382,0.0848114169 C23.9102956,-0.577370031 20.3938838,2.7922528 19.4576962,7.6069317 C18.6324159,11.8507645 20.0839959,15.8010194 22.7620795,17.1351682 C22.403262,15.4650357 22.4358818,12.5586137 25.1531091,8.91172273 Z M28.3792049,0.440366972 C28.5553517,1.3667686 28.653211,2.66829766 28.3531091,4.21121305 C28.0497452,5.76717635 27.345158,7.56778797 25.9196738,9.48256881 C23.0230377,13.3675841 23.4307849,16.2609582 23.8450561,17.5168196 C23.8678899,17.5200815 23.8907238,17.5266055 23.9135576,17.5331295 C27.3158002,18.1953109 30.832212,14.8256881 31.7683996,10.0110092 C32.6034659,5.72150866 31.1127421,1.73211009 28.3792049,0.440366972 Z" id="Shape"></path>
        </g>
    </g>
</svg>