<?xml version="1.0" encoding="UTF-8"?>
<svg width="32px" height="32px" viewBox="0 0 32 32" version="1.1" xmlns="http://www.w3.org/2000/svg" xmlns:xlink="http://www.w3.org/1999/xlink">
    <title>CallToProgram</title>
    <g id="CallToProgram" stroke="none" stroke-width="1" fill="none" fill-rule="evenodd">
        <g id="object" transform="translate(2.000000, 2.000000)" fill="#559410">
            <g id="Group">
                <path d="M16.6273333,0 L17.2946667,4.004 C17.7928333,4.16733333 18.2746667,4.368 18.7366667,4.6025 L18.7366667,4.6025 L22.0406667,2.24233333 L25.7576667,5.95933333 L23.394,9.268 C23.625,9.72883333 23.8233333,10.2083333 23.9878333,10.7041667 L23.9878333,10.7041667 L28,11.3726667 L28,16.6273333 L23.9785,17.297 C23.8151667,17.7881667 23.6168333,18.263 23.387,18.7203333 L23.387,18.7203333 L25.7588333,22.0406667 L22.0418333,25.7576667 L18.7145,23.3811667 C18.2606667,23.6086667 17.7881667,23.8058333 17.2993333,23.9668333 L17.2993333,23.9668333 L16.6273333,28 L14,28 L14,14 L0,14 L0,11.3726667 L4.01333333,10.7041667 C4.17666667,10.2083333 4.375,9.72766667 4.606,9.268 L4.606,9.268 L2.24233333,5.95816667 L5.95816667,2.24233333 L9.26333333,4.60366667 C9.72533333,4.368 10.2071667,4.1685 10.7053333,4.004 L10.7053333,4.004 L11.3726667,0 L16.6273333,0 Z M14,9.33333333 C16.5771667,9.33333333 18.6666667,11.4228333 18.6666667,14 C18.6666667,16.5768321 16.5777091,18.6661242 14.0010035,18.6666666 L14,14 L9.33333344,14.0010035 C9.33333337,14.000669 9.33333333,14.0003345 9.33333333,14 C9.33333333,11.4228333 11.4228333,9.33333333 14,9.33333333 Z" id="Shape"></path>
            </g>
        </g>
        <path d="M12.5,18 C13.3284271,18 14,18.6715729 14,19.5 L14,26.5 C14,27.3284271 13.3284271,28 12.5,28 C11.6715729,28 11,27.3284271 11,26.5 L10.9993203,23.313 L4.18198052,30.131728 C3.59619408,30.7175144 2.64644661,30.7175144 2.06066017,30.131728 C1.47487373,29.5459415 1.47487373,28.5961941 2.06066017,28.0104076 L9.07032034,21 L5.5,21 C4.67157288,21 4,20.3284271 4,19.5 C4,18.6715729 4.67157288,18 5.5,18 L12.5,18 L12.5,18 Z" id="Combined-Shape" fill="#39630B"></path>
    </g>
</svg>