<?xml version="1.0" encoding="UTF-8"?>
<svg width="32px" height="32px" viewBox="0 0 32 32" version="1.1" xmlns="http://www.w3.org/2000/svg" xmlns:xlink="http://www.w3.org/1999/xlink">
    <title>CallToJavaProgram</title>
    <g id="CallToJavaProgram" stroke="none" stroke-width="1" fill="none" fill-rule="evenodd">
        <g id="object" transform="translate(2.000000, 2.000000)" fill="#A9A9A9">
            <g id="Group">
                <path d="M16.6273333,0 L17.2946667,4.004 C17.7928333,4.16733333 18.2746667,4.368 18.7366667,4.6025 L18.7366667,4.6025 L22.0406667,2.24233333 L25.7576667,5.95933333 L23.394,9.268 C23.625,9.72883333 23.8233333,10.2083333 23.9878333,10.7041667 L23.9878333,10.7041667 L28,11.3726667 L28,16.6273333 L23.9785,17.297 C23.8151667,17.7881667 23.6168333,18.263 23.387,18.7203333 L23.387,18.7203333 L25.7588333,22.0406667 L22.0418333,25.7576667 L18.7145,23.3811667 C18.2606667,23.6086667 17.7881667,23.8058333 17.2993333,23.9668333 L17.2993333,23.9668333 L16.6273333,28 L14,28 L14,14 L0,14 L0,11.3726667 L4.01333333,10.7041667 C4.17666667,10.2083333 4.375,9.72766667 4.606,9.268 L4.606,9.268 L2.24233333,5.95816667 L5.95816667,2.24233333 L9.26333333,4.60366667 C9.72533333,4.368 10.2071667,4.1685 10.7053333,4.004 L10.7053333,4.004 L11.3726667,0 L16.6273333,0 Z M14,9.33333333 C16.5771667,9.33333333 18.6666667,11.4228333 18.6666667,14 C18.6666667,16.5768321 16.5777091,18.6661242 14.0010035,18.6666666 L14,14 L9.33333344,14.0010035 C9.33333337,14.000669 9.33333333,14.0003345 9.33333333,14 C9.33333333,11.4228333 11.4228333,9.33333333 14,9.33333333 Z" id="Shape"></path>
            </g>
        </g>
        <circle id="Oval" fill="#FFFFFF" cx="16" cy="16" r="8"></circle>
        <g id="java" transform="translate(11.000000, 9.000000)" fill-rule="nonzero">
            <g id="Group">
                <path d="M2.16396542,9.50485714 C2.02947433,9.50485714 1.89591077,9.49615909 1.76373849,9.5071461 C1.5749872,9.52133766 1.39411987,9.56940584 1.23551313,9.67881818 C1.2345856,9.67973377 1.23319432,9.68064935 1.23180303,9.68156494 C1.09081927,9.78456818 1.08200778,9.91687013 1.21928145,10.0244513 C1.29580224,10.0848799 1.38391709,10.1343214 1.473887,10.172776 C1.69742046,10.2698279 1.93533057,10.3233896 2.17509572,10.368711 C2.65787236,10.4588961 3.14575039,10.5028442 3.63594723,10.5271071 C4.15443358,10.5527435 4.67291993,10.5527435 5.19140627,10.5248182 C5.78826846,10.4923149 6.38234808,10.4314286 6.96297858,10.2844773 C7.24726492,10.2126039 7.5273774,10.12425 7.77224394,9.95715584 C7.87288038,9.88894481 7.96053147,9.80745779 8.01479167,9.69621429 C8.06626929,9.59000649 8.06812434,9.48105195 8.0328784,9.36980844 C8.02824078,9.35561688 8.02453068,9.34142532 8.01803801,9.3194513 C8.15438415,9.38537338 8.28145504,9.45175325 8.37420752,9.56528571 C8.47994534,9.69300974 8.48458297,9.87200649 8.39322178,10.0354383 C8.29768672,10.2052792 8.14928276,10.3183539 7.98418335,10.4144903 C7.67949147,10.5925714 7.34558255,10.6960325 7.00564472,10.7825552 C6.5534764,10.8970032 6.09435163,10.9656721 5.63105301,11.0146558 C5.04207478,11.0773734 4.45170527,11.1020942 3.85994446,11.0943117 C3.38505178,11.0874448 2.91062286,11.0618084 2.43851276,11.0068734 C2.06379275,10.9629253 1.69185532,10.9038701 1.32641056,10.8109383 C1.04212422,10.7386071 0.762939259,10.6520844 0.505087373,10.5087955 C0.344161826,10.419526 0.196221625,10.3142338 0.0997590492,10.1530909 C-0.0124714479,9.96448052 0.0130354832,9.77587013 0.170250932,9.62067857 C0.302886974,9.49020779 0.464276284,9.40643182 0.639114703,9.34829221 C0.975342432,9.23567532 1.31945412,9.22011039 1.66913096,9.2608539 C1.73452146,9.26863636 1.79110047,9.2901526 1.84582443,9.32265584 C1.95156225,9.38491558 2.05915512,9.44488636 2.16396542,9.50485714 Z" id="Shape" fill="#5382A1"></path>
                <path d="M4.57970369,6.23347403 C4.55837062,6.21882468 4.53703755,6.20509091 4.51616824,6.18998377 C4.13402803,5.91393506 3.77646724,5.61041883 3.46157258,5.26112338 C3.23386525,5.00796429 3.03073732,4.73786688 2.90413019,4.4197013 C2.81740662,4.20362338 2.7770593,3.98113636 2.82343553,3.74949351 C2.86007276,3.56546104 2.94818762,3.40477597 3.0580993,3.25416234 C3.26215475,2.97628247 3.52186169,2.75196429 3.78527872,2.53268182 C4.08904308,2.27998052 4.39744507,2.03277273 4.69889062,1.77686688 C4.94190211,1.5704026 5.16450805,1.34379545 5.33378132,1.07232468 C5.45250449,0.882798701 5.52995281,0.679996753 5.53412667,0.454305195 C5.53644549,0.333905844 5.5202138,0.215795455 5.47847519,0.102262987 C5.47151875,0.0839512987 5.46548984,0.0656396104 5.45899717,0.0473279221 C5.46363479,0.0454967532 5.46780865,0.0432077922 5.47198251,0.0409188312 C5.52160509,0.129730519 5.57493776,0.216711039 5.62038648,0.307811688 C5.74374727,0.554561688 5.81284787,0.814587662 5.80403638,1.09200974 C5.7952249,1.35066234 5.71916787,1.59191883 5.60044469,1.82035714 C5.43209895,2.14538961 5.19743518,2.42326948 4.94653973,2.68741558 C4.67477497,2.97353571 4.39605378,3.25370455 4.12753536,3.54257143 C3.97310249,3.70875 3.84046644,3.89232468 3.76116308,4.10794481 C3.69530882,4.28739935 3.69623634,4.46273377 3.76997456,4.64081494 C3.99211674,5.17917857 4.24764982,5.7006039 4.56671834,6.19089935 C4.57413854,6.20188636 4.58016745,6.21424675 4.58666012,6.22614935 C4.58434131,6.22798052 4.58155874,6.23072727 4.57970369,6.23347403 Z" id="Shape" fill="#E76F00"></path>
                <path d="M3.27374881,6.02197403 C3.1123595,6.06958442 2.95004267,6.11444805 2.79004464,6.16663636 C2.63561177,6.21699351 2.48117889,6.27101299 2.34529652,6.36165584 C2.30865929,6.38591883 2.2752684,6.41796429 2.24744265,6.45184091 C2.2098779,6.49670455 2.21915315,6.53836364 2.27434087,6.55759091 C2.34715157,6.58276948 2.42228107,6.6052013 2.4983381,6.61435714 C2.70007474,6.63724675 2.90227514,6.65967857 3.10540306,6.66746104 C3.74771397,6.69538636 4.39048863,6.68348377 5.03279954,6.64502922 C5.37923004,6.62442857 5.72658806,6.60291234 6.07209104,6.56674675 C6.38513065,6.53424351 6.69538769,6.48113961 7.00703601,6.43719156 C7.01770254,6.43581818 7.02836908,6.43398701 7.044137,6.4403961 C6.98384789,6.48937987 6.92495007,6.5406526 6.86234214,6.58643182 C6.6828661,6.71827597 6.50246253,6.84783117 6.3215952,6.97738636 C6.30675481,6.98745779 6.2895956,6.99752922 6.27243639,7.00027597 C5.87081817,7.06024675 5.47012746,7.12662662 5.06665419,7.17606818 C4.45031398,7.2516039 3.82979991,7.2809026 3.20882208,7.27678247 C2.75387118,7.27403571 2.29938404,7.2511461 1.84999829,7.17698377 C1.60652304,7.13715584 1.36490283,7.08634091 1.14554323,6.96777273 C1.0866454,6.93572727 1.02867511,6.89544156 0.983690155,6.846 C0.867749558,6.72056494 0.888155103,6.55255519 1.02542877,6.43215584 C1.15667352,6.31770779 1.31620778,6.25819481 1.48084343,6.2115 C1.87411393,6.10071429 2.27805097,6.0585974 2.68430682,6.03708117 C2.88140583,6.02700974 3.07804108,6.02151623 3.27467634,6.01373377 C3.27421257,6.01693831 3.27374881,6.01922727 3.27374881,6.02197403 Z" id="Shape" fill="#5382A1"></path>
                <path d="M4.95071359,6.48022403 C5.06248033,6.38134091 5.15847914,6.2700974 5.23871003,6.14512013 C5.31986845,6.0173961 5.37505618,5.88051623 5.38247637,5.72852922 C5.39128786,5.55639935 5.33146251,5.40212338 5.24149261,5.26066558 C5.12740706,5.08166883 5.00451003,4.90862338 4.88996072,4.73054221 C4.76984626,4.54467857 4.68776032,4.34416558 4.67384745,4.12122078 C4.66410844,3.95778896 4.68961537,3.7971039 4.7373829,3.64099675 C4.84961339,3.2738474 5.08520469,2.99642532 5.3945342,2.7748539 C5.73122569,2.53451299 6.11058332,2.3866461 6.50710016,2.27769156 C6.80205303,2.19666234 7.1021073,2.14218506 7.41143681,2.12112662 C7.39752394,2.13074026 7.38361106,2.1403539 7.36969819,2.14905195 C7.03347046,2.35917857 6.70744551,2.58303896 6.39486966,2.82521104 C6.18061144,2.99093182 5.97470094,3.16580844 5.79568866,3.36906818 C5.7483849,3.42354545 5.70525499,3.48168506 5.66305262,3.54028247 C5.52995281,3.72339935 5.53180786,3.92253896 5.61064747,4.12213636 C5.6644439,4.25672727 5.73679084,4.3844513 5.80171757,4.51446429 C5.87731084,4.6664513 5.96449817,4.81431818 6.02896114,4.97134091 C6.16716233,5.30552922 6.11011956,5.62003247 5.89818015,5.90844156 C5.7187041,6.15198701 5.47244628,6.30717857 5.19279756,6.41384416 C5.11534924,6.44314286 5.03511835,6.46603247 4.95581498,6.49166883 C4.95395993,6.4875487 4.95210488,6.48434416 4.95071359,6.48022403 Z" id="Shape" fill="#E76F00"></path>
                <path d="M6.63556234,8.08707468 C6.56738927,8.11316883 6.50478134,8.13788961 6.44031837,8.16032143 C5.98907757,8.31597078 5.52531519,8.41760065 5.05181379,8.47528247 C4.62005101,8.52747078 4.18643318,8.54898701 3.75142407,8.52975974 C3.30111079,8.5087013 2.85450761,8.46383766 2.41996226,8.33611364 C2.25486285,8.28758766 2.09208225,8.23082143 1.95248978,8.12644481 C1.91260621,8.0971461 1.87504146,8.05960714 1.84582443,8.01932143 C1.78970918,7.94149675 1.80223076,7.84215584 1.87318641,7.74647727 C1.96176502,7.62699351 2.08419829,7.54916883 2.21544305,7.48462013 C2.34947038,7.41824026 2.49045414,7.37337662 2.63978563,7.35598052 C2.66390127,7.35323377 2.68801692,7.35323377 2.72140781,7.3514026 C2.69079949,7.38344805 2.66436504,7.40862662 2.64164068,7.43700974 C2.56511989,7.52856818 2.57671395,7.61966883 2.67549533,7.68879545 C2.79189969,7.77028247 2.92778207,7.80461688 3.06505574,7.83071104 C3.55339753,7.92364286 4.04591318,7.9208961 4.53982012,7.88839286 C4.95720627,7.86092532 5.37041855,7.80599026 5.77157301,7.68925325 C5.88983242,7.65491883 5.97470094,7.66727922 6.0725548,7.73411688 C6.24043679,7.84948052 6.41852154,7.95111039 6.59150491,8.05869156 C6.60495402,8.06647403 6.6174756,8.07471429 6.63556234,8.08707468 Z" id="Shape" fill="#5382A1"></path>
                <path d="M3.06505574,8.59385065 C3.04557772,8.62360714 3.02888227,8.64558117 3.01636069,8.66938636 C2.97833217,8.74080195 2.99224504,8.8026039 3.05763554,8.85112987 C3.13647514,8.91018506 3.22969138,8.93353247 3.32429891,8.95275974 C3.59699119,9.00723701 3.87339357,9.00632143 4.14933219,8.99625 C4.45958923,8.98526299 4.76891874,8.95413312 5.07221934,8.88683766 C5.26792706,8.84380519 5.45899717,8.77971429 5.65284984,8.7261526 C5.67093658,8.72111688 5.69690727,8.7202013 5.7112839,8.72935714 C5.94919401,8.87997078 6.18524906,9.03195779 6.42223164,9.18394481 C6.42826055,9.18760714 6.43336194,9.19310065 6.44773857,9.20408766 C6.35313105,9.25078247 6.26640748,9.29747727 6.17690134,9.3368474 C5.85968787,9.47464286 5.52624271,9.55658766 5.18584112,9.61381169 C4.73831042,9.68888961 4.28660586,9.71818831 3.83258248,9.70582792 C3.46713772,9.69621429 3.1049393,9.66371104 2.75294365,9.55841883 C2.60268464,9.5130974 2.45659949,9.45724675 2.33926761,9.34829221 C2.23028344,9.24574675 2.20895038,9.12031169 2.27851473,8.98938312 C2.32999236,8.89187338 2.40697691,8.81725325 2.49880187,8.75636688 C2.66807514,8.64512338 2.85636266,8.59888636 3.06505574,8.59385065 Z" id="Shape" fill="#5382A1"></path>
                <path d="M1.62368225,11.2774286 C1.73405769,11.300776 1.84443314,11.3241234 1.95480859,11.3465552 C2.38332503,11.4335357 2.81508781,11.4994578 3.25009693,11.5479838 C3.86365456,11.6152792 4.47860349,11.6436623 5.09540746,11.6258084 C5.94362886,11.6020032 6.7802562,11.501289 7.596478,11.2609481 C8.05606652,11.1258994 8.4989596,10.9510227 8.90057782,10.6887078 C9.03970654,10.5980649 9.16631367,10.4886526 9.29894971,10.3874805 C9.31193506,10.3774091 9.32445664,10.3659643 9.34439843,10.3494838 C9.34300714,10.4534026 9.32167407,10.5440455 9.2855006,10.631026 C9.22474773,10.7770617 9.12921268,10.8988344 9.01327208,11.0050422 C8.75031881,11.2453831 8.43681544,11.4005747 8.1056891,11.5255519 C7.68552038,11.6839481 7.24958373,11.7823734 6.80529937,11.8501266 C6.27011758,11.9325292 5.73215321,11.9641169 5.19094251,11.9581656 C4.77031003,11.9535877 4.35106883,11.9233734 3.93368268,11.8707273 C3.34192188,11.7951916 2.76036385,11.6725032 2.19225493,11.4916753 C1.99932978,11.4298734 1.81011472,11.3589156 1.61950838,11.2916201 C1.62089967,11.2875 1.62229096,11.2829221 1.62368225,11.2774286 Z" id="Shape" fill="#5382A1"></path>
                <path d="M7.22361304,6.28062662 C7.31451047,6.23026948 7.40401661,6.17441883 7.49862414,6.13138636 C7.66650612,6.05585065 7.84412711,6.0178539 8.03009583,6.0173961 C8.46278613,6.01602273 8.80921663,6.30305844 8.86996951,6.72605844 C8.94695406,7.25755519 8.76701426,7.69291558 8.34823682,8.03168182 C8.04957385,8.27248052 7.70082454,8.41302273 7.33213344,8.50961688 C7.23752591,8.53479545 7.1415271,8.55219156 7.04599205,8.57279221 C7.02883284,8.57599675 7.01074611,8.57645455 6.9898768,8.57050325 C7.00007957,8.56226299 7.01028234,8.55448052 7.02048512,8.54624026 C7.29827879,8.34298052 7.5570582,8.11957792 7.77734533,7.85543182 C7.94940117,7.64942532 8.09641385,7.42876948 8.16876078,7.16828571 C8.20818058,7.02637013 8.2313687,6.88216558 8.17989108,6.73887662 C8.1056891,6.53241234 7.9503287,6.40606169 7.74859206,6.33006818 C7.58024632,6.26689286 7.40726295,6.26094156 7.23103324,6.29298701 C7.22825067,6.28886688 7.22593185,6.28474675 7.22361304,6.28062662 Z" id="Shape" fill="#5382A1"></path>
            </g>
        </g>
        <path d="M12.5,18 C13.3284271,18 14,18.6715729 14,19.5 L14,26.5 C14,27.3284271 13.3284271,28 12.5,28 C11.6715729,28 11,27.3284271 11,26.5 L10.9993203,23.313 L4.18198052,30.131728 C3.59619408,30.7175144 2.64644661,30.7175144 2.06066017,30.131728 C1.47487373,29.5459415 1.47487373,28.5961941 2.06066017,28.0104076 L9.07032034,21 L5.5,21 C4.67157288,21 4,20.3284271 4,19.5 C4,18.6715729 4.67157288,18 5.5,18 L12.5,18 L12.5,18 Z" id="Combined-Shape" fill="#5A5B59"></path>
    </g>
</svg>