<?xml version="1.0" encoding="UTF-8"?>
<svg width="32px" height="32px" viewBox="0 0 32 32" version="1.1" xmlns="http://www.w3.org/2000/svg" xmlns:xlink="http://www.w3.org/1999/xlink">
    <title>ClassRedCorner</title>
    <g id="ClassRedCorner" stroke="none" stroke-width="1" fill="none" fill-rule="evenodd">
        <g id="class" transform="translate(1.000000, 0.000000)">
            <polygon id="Shape" fill="#696153" points="23 15 23 13 12 13 12 29 22 29 22 27 14 27 14 15"></polygon>
            <g id="Group" fill="#4A90E2">
                <path d="M12.682,0.586 C11.901,-0.195 10.635,-0.195 9.853,0.586 L0.661,9.778 C-0.12,10.559 -0.12,11.825 0.661,12.607 L6.318,18.264 C7.099,19.045 8.365,19.045 9.147,18.264 L18.339,9.072 C19.12,8.291 19.12,7.025 18.339,6.243 L12.682,0.586 L12.682,0.586 Z" id="Shape"></path>
                <path d="M23.303,20.106 C23.718,20.521 24.39,20.521 24.805,20.106 L29.682,15.229 C30.097,14.814 30.097,14.143 29.682,13.728 L26.68,10.726 C26.266,10.311 25.594,10.311 25.18,10.726 L20.301,15.604 C19.887,16.019 19.887,16.69 20.301,17.104 L23.303,20.106 L23.303,20.106 Z" id="Shape"></path>
                <path d="M26.68,21.726 C26.266,21.312 25.594,21.312 25.18,21.726 L20.301,26.605 C19.887,27.019 19.887,27.691 20.301,28.106 L23.303,31.107 C23.718,31.522 24.39,31.522 24.805,31.107 L29.682,26.23 C30.097,25.815 30.097,25.143 29.682,24.728 L26.68,21.726 L26.68,21.726 Z" id="Shape"></path>
            </g>
        </g>
        <polygon id="Rectangle" fill="#D0021B" points="1.33226763e-15 0 6 0 0 6"></polygon>
    </g>
</svg>