<?xml version="1.0" encoding="UTF-8"?>
<svg width="16px" height="16px" viewBox="0 0 16 16" version="1.1" xmlns="http://www.w3.org/2000/svg" xmlns:xlink="http://www.w3.org/1999/xlink">
    <title>ConstrainPrimary</title>
    <g id="ConstrainPrimary" stroke="none" stroke-width="1" fill="none" fill-rule="evenodd">
        <path d="M5,12 L5,14 L3,14 L3,16 L0,16 L0,13 L9,4 L12,7 L9,10 L7,10 L7,12 L5,12 Z" id="Combined-Shape" fill="#EFB961"></path>
        <path d="M0,13 L9.00277631,4 L11,5 L0,16 L0,13 Z" id="Combined-Shape-Copy" fill-opacity="0.0895889946" fill="#000000"></path>
        <path d="M11,0 C13.7614237,0 16,2.23857625 16,5 C16,7.76142375 13.7614237,10 11,10 C8.23857625,10 6,7.76142375 6,5 C6,2.23857625 8.23857625,0 11,0 Z M12.5,2 C11.6715729,2 11,2.67157288 11,3.5 C11,4.32842712 11.6715729,5 12.5,5 C13.3284271,5 14,4.32842712 14,3.5 C14,2.67157288 13.3284271,2 12.5,2 Z" id="Combined-Shape" fill="#CE8000"></path>
        <polygon id="Shape" fill="#D0021B" points="12.5014 9 11.6727273 11.6086667 9 11.6086667 11.1374182 13.4051961 10.4174364 16 12.5014 14.4654902 14.5853636 16 13.8653818 13.4051961 16 11.6086667 13.3272727 11.6086667"></polygon>
    </g>
</svg>