<?xml version="1.0" encoding="UTF-8"?>
<svg width="32px" height="32px" viewBox="0 0 32 32" version="1.1" xmlns="http://www.w3.org/2000/svg" xmlns:xlink="http://www.w3.org/1999/xlink">
    <title>ConstructorInstanceBlack</title>
    <g id="ConstructorInstanceBlack" stroke="none" stroke-width="1" fill="none" fill-rule="evenodd">
        <path d="M10.853,0.586 C11.635,-0.195 12.901,-0.195 13.682,0.586 L13.682,0.586 L19.339,6.243 C20.12,7.025 20.12,8.291 19.339,9.072 L19.339,9.072 L15.41025,12.99925 L23.90525,12.99925 L26.18,10.726 C26.5621538,10.3429231 27.164142,10.3134556 27.5801165,10.6375976 L27.68,10.726 L30.682,13.728 C31.097,14.143 31.097,14.814 30.682,15.229 L30.682,15.229 L25.805,20.106 C25.39,20.521 24.718,20.521 24.303,20.106 L24.303,20.106 L21.301,17.104 C20.887,16.69 20.887,16.019 21.301,15.604 L21.301,15.604 L21.90425,14.99925 L15,15 L15,27 L21.0517343,26.9989628 C21.1028371,26.8550818 21.1859257,26.7200743 21.301,26.605 L21.301,26.605 L26.18,21.726 C26.594,21.312 27.266,21.312 27.68,21.726 L27.68,21.726 L30.682,24.728 C31.097,25.143 31.097,25.815 30.682,26.23 L30.682,26.23 L25.805,31.107 C25.39,31.522 24.718,31.522 24.303,31.107 L24.303,31.107 L22.19425,28.99925 L13,29 L12.99925,15.41025 L10.147,18.264 C9.40615789,19.0038947 8.23092244,19.0428366 7.44520499,18.3808255 L7.318,18.264 L1.661,12.607 C0.88,11.825 0.88,10.559 1.661,9.778 L1.661,9.778 Z M14.9036771,6.17182288 C14.5131528,5.78129858 13.8799879,5.78129858 13.4894636,6.17182288 L13.4894636,6.17182288 L9.57525,10.08625 L7.36814322,7.87892966 C7.00765926,7.51844569 6.4404282,7.49071616 6.04813699,7.79574105 L5.95392966,7.87892966 C5.56340536,8.26945395 5.56340536,8.90261893 5.95392966,9.29314322 L5.95392966,9.29314322 L8.78235678,12.1215703 C9.17288107,12.5120946 9.80604605,12.5120946 10.1965703,12.1215703 C10.209673,12.1084676 10.2223361,12.0950918 10.2345596,12.0814612 C10.3896334,12.0366995 10.5374793,11.9522343 10.6610364,11.8286771 L10.6610364,11.8286771 L14.9036771,7.58603644 C15.2942014,7.19551215 15.2942014,6.56234717 14.9036771,6.17182288 Z" id="Shape-2" fill="#000000"></path>
    </g>
</svg>