<?xml version="1.0" encoding="UTF-8"?>
<svg width="32px" height="32px" viewBox="0 0 32 32" version="1.1" xmlns="http://www.w3.org/2000/svg" xmlns:xlink="http://www.w3.org/1999/xlink">
    <title>DataBlockRedCorner</title>
    <g id="DataBlockRedCorner" stroke="none" stroke-width="1" fill="none" fill-rule="evenodd">
        <g id="model" transform="translate(1.000000, 1.000000)">
            <g id="Group">
                <g transform="translate(12.000000, 6.000000)" fill="#1A4F8E" id="Rectangle-path">
                    <rect x="11.5" y="5.5" width="2" height="9"></rect>
                    <rect x="0.5" y="0.5" width="8" height="2"></rect>
                </g>
                <g fill="#4A90E2">
                    <rect id="Rectangle-path" x="19.5" y="2.5" width="10" height="10"></rect>
                    <circle id="Oval" cx="24.5" cy="24.5" r="5"></circle>
                    <path d="M7.5,0.5 C3.634,0.5 0.5,3.634 0.5,7.5 C0.5,11.366 3.634,14.5 7.5,14.5 C11.366,14.5 14.5,11.366 14.5,7.5 C14.5,3.634 11.366,0.5 7.5,0.5 L7.5,0.5 Z M7.5,11.5 C5.291,11.5 3.5,9.709 3.5,7.5 C3.5,5.291 5.291,3.5 7.5,3.5 C9.709,3.5 11.5,5.291 11.5,7.5 C11.5,9.709 9.709,11.5 7.5,11.5 L7.5,11.5 Z" id="Shape"></path>
                </g>
            </g>
        </g>
        <polygon id="Rectangle" fill="#D0021B" points="1.33226763e-15 0 6 0 0 6"></polygon>
    </g>
</svg>