<?xml version="1.0" encoding="UTF-8"?>
<svg width="32px" height="32px" viewBox="0 0 32 32" version="1.1" xmlns="http://www.w3.org/2000/svg" xmlns:xlink="http://www.w3.org/1999/xlink">
    <title>DataModuleBlack</title>
    <g id="DataModuleBlack" stroke="none" stroke-width="1" fill="none" fill-rule="evenodd">
        <path d="M28,0 C30.209139,-4.05812251e-16 32,1.790861 32,4 L32,28 C32,30.209139 30.209139,32 28,32 L4,32 C1.790861,32 2.705415e-16,30.209139 0,28 L0,4 C-2.705415e-16,1.790861 1.790861,4.05812251e-16 4,0 L28,0 Z M20.5,9.5 L20.5,13.5 L24.5,13.5 L24.499812,20.6000563 C22.2176654,21.0633992 20.5,23.0811085 20.5,25.5 C20.5,28.2614237 22.7385763,30.5 25.5,30.5 C28.2614237,30.5 30.5,28.2614237 30.5,25.5 C30.5,23.0814613 28.7828356,21.0639878 26.5011864,20.6002591 L26.5,13.5 L30.5,13.5 L30.5,3.5 L20.5,3.5 L20.5,7.5 L15.4291101,7.49999029 C14.9438778,4.10769602 12.0264752,1.5 8.5,1.5 C4.634,1.5 1.5,4.634 1.5,8.5 C1.5,12.366 4.634,15.5 8.5,15.5 C12.0261281,15.5 14.9433034,12.8928174 15.4289667,9.50101155 L20.5,9.5 Z M8.5,4.5 C10.709,4.5 12.5,6.291 12.5,8.5 C12.5,10.709 10.709,12.5 8.5,12.5 C6.291,12.5 4.5,10.709 4.5,8.5 C4.5,6.291 6.291,4.5 8.5,4.5 Z" id="Rectangle-2" fill="#000000"></path>
    </g>
</svg>