<?xml version="1.0" encoding="UTF-8"?>
<svg width="32px" height="32px" viewBox="0 0 32 32" version="1.1" xmlns="http://www.w3.org/2000/svg" xmlns:xlink="http://www.w3.org/1999/xlink">
    <title>DataSet</title>
    <g id="DataSet" stroke="none" stroke-width="1" fill="none" fill-rule="evenodd">
        <g id="model" transform="translate(11.000000, 2.000000)" fill="#EA0F56">
            <g id="Group">
                <g>
                    <path d="M9.80121131,21.6042943 C9.93061638,22.0486772 10,22.5186277 10,23.0047837 C10,25.7662074 7.76142375,28.0047837 5,28.0047837 C2.23857625,28.0047837 0,25.7662074 0,23.0047837 C0,22.5186277 0.0693836167,22.0486772 0.198788687,21.6042943 C1.29422206,23.0621272 3.03702642,24.0047837 5,24.0047837 C6.95810048,24.0047837 8.69712353,23.0668017 9.79226194,21.615645 Z" id="Combined-Shape"></path>
                    <path d="M9.80121131,15.6042943 C9.93061638,16.0486772 10,16.5186277 10,17.0047837 C10,19.7662074 7.76142375,22.0047837 5,22.0047837 C2.23857625,22.0047837 0,19.7662074 0,17.0047837 C0,16.5186277 0.0693836167,16.0486772 0.198788687,15.6042943 C1.29422206,17.0621272 3.03702642,18.0047837 5,18.0047837 C6.95810048,18.0047837 8.69712353,17.0668017 9.79226194,15.615645 Z" id="Combined-Shape-Copy"></path>
                    <path d="M9.80121131,9.60429526 C9.93061638,10.0486782 10,10.5186287 10,11.0047846 C10,13.7662084 7.76142375,16.0047846 5,16.0047846 C2.23857625,16.0047846 0,13.7662084 0,11.0047846 C0,10.5186287 0.0693836167,10.0486782 0.198788687,9.60429526 C1.29422206,11.0621282 3.03702642,12.0047846 5,12.0047846 C6.95810048,12.0047846 8.69712353,11.0668027 9.79226194,9.61564599 Z" id="Combined-Shape-Copy-2"></path>
                    <circle id="Oval-path-Copy" cx="5" cy="5" r="5"></circle>
                </g>
            </g>
        </g>
    </g>
</svg>