<?xml version="1.0" encoding="UTF-8"?>
<svg width="32px" height="32px" viewBox="0 0 32 32" version="1.1" xmlns="http://www.w3.org/2000/svg" xmlns:xlink="http://www.w3.org/1999/xlink">
    <title>DatabaseEvent</title>
    <g id="DatabaseEvent" stroke="none" stroke-width="1" fill="none" fill-rule="evenodd">
        <g id="database" opacity="0.446897645" transform="translate(5.000000, 1.000000)">
            <g id="Group" transform="translate(0.000000, 3.000000)" fill="#4095F7">
                <path d="M22,14.88 L22,9.971 C19.86,11.181 15.781,12 11.094,12 C6.264,12 2.081,11.13 0,9.859 L0,14.773 C2.081,16.044 6.264,16.914 11.094,16.914 C15.785,16.913 19.863,16.092 22,14.88 L22,14.88 Z" id="Shape"></path>
                <path d="M11.094,8.83 C15.785,8.83 19.864,8.009 22,6.797 L22,0.333 L0,0.333 L0,6.69 C2.081,7.96 6.264,8.83 11.094,8.83 L11.094,8.83 Z" id="Shape"></path>
                <path d="M11.094,20.083 C6.264,20.083 2.081,19.213 -1.97215226e-31,17.941 L-1.97215226e-31,22.5 C0.002,24.111 4.926,25.416 11,25.416 C17.074,25.416 21.998,24.111 22,22.5 L22,18.053 C19.86,19.264 15.781,20.083 11.094,20.083 L11.094,20.083 Z" id="Shape"></path>
            </g>
            <path d="M11,0.417 C17.075,0.417 22,1.723 22,3.333 C22,4.944 17.075,6.25 11,6.25 C4.925,6.25 0,4.944 0,3.333 C0,1.722 4.925,0.417 11,0.417 L11,0.417 Z" id="Shape" fill="#86BFFB"></path>
        </g>
        <g id="event" transform="translate(4.000000, 7.000000)">
            <path d="M12,6 C13.656,6 15,7.343 15,9 C15,10.656 13.656,12 12,12 C10.343,12 9,10.656 9,9 C9,7.343 10.343,6 12,6 L12,6 Z" id="Shape" fill="#C41919"></path>
            <g id="Group" fill="#E5AE61">
                <path d="M20.324,0.368 L18.845,1.723 C20.783,3.547 22,6.129 22,9 C22,11.871 20.783,14.453 18.846,16.276 L20.325,17.631 C22.587,15.449 24,12.392 24,9 C24,5.608 22.587,2.551 20.324,0.368 L20.324,0.368 Z" id="Shape"></path>
                <path d="M5.155,1.724 L3.676,0.368 C1.413,2.551 0,5.608 0,9 C0,12.392 1.413,15.449 3.676,17.632 L5.154,16.277 C3.217,14.453 2,11.871 2,9 C2,6.129 3.217,3.547 5.155,1.724 L5.155,1.724 Z" id="Shape"></path>
                <path d="M8.105,4.429 L6.633,3.079 C5.02,4.543 4,6.65 4,9 C4,11.35 5.02,13.457 6.633,14.921 L8.105,13.571 C6.813,12.468 5.99,10.831 5.99,9 C5.991,7.168 6.813,5.531 8.105,4.429 L8.105,4.429 Z" id="Shape"></path>
                <path d="M17.366,3.08 L15.894,4.429 C17.187,5.531 18.009,7.169 18.009,9 C18.009,10.831 17.187,12.469 15.894,13.571 L17.366,14.921 C18.98,13.457 20,11.35 20,9 C20,6.65 18.98,4.543 17.366,3.08 L17.366,3.08 Z" id="Shape"></path>
            </g>
        </g>
    </g>
</svg>