<?xml version="1.0" encoding="UTF-8"?>
<svg width="32px" height="32px" viewBox="0 0 32 32" version="1.1" xmlns="http://www.w3.org/2000/svg" xmlns:xlink="http://www.w3.org/1999/xlink">
    <title>DatabaseLink</title>
    <g id="DatabaseLink" stroke="none" stroke-width="1" fill="none" fill-rule="evenodd">
        <g id="database">
            <g id="Group" transform="translate(0.000000, 3.000000)" fill="#4095F7">
                <path d="M0,9.859 C1.62081891,10.8489379 4.51677686,11.5956167 8.0004094,11.8774412 L8.0004094,16.7914412 C4.51677686,16.5096167 1.62081891,15.7629379 0,14.773 L0,14.773 Z M8,0.333 L8.0004094,8.70745206 C4.51677686,8.4256656 1.62081891,7.67915907 0,6.69 L0,6.69 L0,0.333 L8,0.333 Z M0,17.941 C1.62081891,18.9317168 4.51677686,19.6785678 8.0004094,19.9604304 L8,25.0029953 C8,25.1031795 8.00738208,25.2016525 8.02163189,25.2978976 L8.02365212,25.3079993 C3.39562834,24.9639687 0.00166037736,23.837434 0,22.5 L0,22.5 Z" id="Combined-Shape"></path>
            </g>
            <path d="M11,0.417 C17.075,0.417 22,1.723 22,3.333 C22,3.39379245 21.9929868,3.45415059 21.9791633,3.51402061 L21.9768426,3.52507254 C21.0300463,3.45465967 20.0316038,3.417 19,3.417 C13.2688679,3.417 8.56123176,4.57844535 8.04665429,6.0625564 L8.02315737,6.14192256 C3.39437522,5.79765789 0,4.67043396 0,3.333 C0,1.722 4.925,0.417 11,0.417 Z" id="Combined-Shape" fill="#86BFFB"></path>
        </g>
        <g id="database-copy" transform="translate(10.000000, 4.000000)">
            <g id="Group" transform="translate(0.000000, 3.000000)" fill="#4095F7">
                <path d="M22,14.88 L22,9.971 C19.86,11.181 15.781,12 11.094,12 C6.264,12 2.081,11.13 0,9.859 L0,14.773 C2.081,16.044 6.264,16.914 11.094,16.914 C15.785,16.913 19.863,16.092 22,14.88 L22,14.88 Z" id="Shape"></path>
                <path d="M11.094,8.83 C15.785,8.83 19.864,8.009 22,6.797 L22,0.333 L0,0.333 L0,6.69 C2.081,7.96 6.264,8.83 11.094,8.83 L11.094,8.83 Z" id="Shape"></path>
                <path d="M11.094,20.083 C6.264,20.083 2.081,19.213 -1.97215226e-31,17.941 L-1.97215226e-31,22.5 C0.002,24.111 4.926,25.416 11,25.416 C17.074,25.416 21.998,24.111 22,22.5 L22,18.053 C19.86,19.264 15.781,20.083 11.094,20.083 L11.094,20.083 Z" id="Shape"></path>
            </g>
            <path d="M11,0.417 C17.075,0.417 22,1.723 22,3.333 C22,4.944 17.075,6.25 11,6.25 C4.925,6.25 0,4.944 0,3.333 C0,1.722 4.925,0.417 11,0.417 L11,0.417 Z" id="Shape" fill="#86BFFB"></path>
        </g>
    </g>
</svg>