<?xml version="1.0" encoding="UTF-8" standalone="no"?>
<svg width="32px" height="32px" viewBox="0 0 32 32" version="1.1" xmlns="http://www.w3.org/2000/svg" xmlns:xlink="http://www.w3.org/1999/xlink">
    <!-- Generator: Sketch 3.8.3 (29802) - http://www.bohemiancoding.com/sketch -->
    <title>CAST_NodeJS_DeleteOperation</title>
    <desc>Created with Sketch.</desc>
    <defs></defs>
    <g id="Functional" stroke="none" stroke-width="1" fill="none" fill-rule="evenodd">
        <g id="CAST_NodeJS_DeleteOperation">
            <g id="web-service-delete" transform="translate(1.000000, 1.000000)">
                <g id="left" transform="translate(0.000000, 2.333333)">
                    <polygon id="Shape" fill="#C4C4C4" points="10.3846154 1.16666667 13.8461538 1.16666667 13.8461538 16.3333333 10.3846154 11.6666667"></polygon>
                    <polygon id="Shape" fill="#000000" opacity="0.1" points="10.3846154 8.16666667 13.8461538 10.5 13.8461538 12.8333333 10.3846154 10.5"></polygon>
                    <path d="M13.8461538,22.1666667 C13.4746154,22.1631667 13.0834615,22.1666667 12.6923077,22.1666667 C7.59461538,22.1666667 3.46153846,17.9876667 3.46153846,12.8333333 C3.46153846,7.679 7.59461538,3.5 12.6923077,3.5 L13.8461538,3.5 L13.8461538,0.0583333333 C13.4653846,0.0245 13.0811538,0 12.6923077,0 C5.68269231,0 0,5.74583333 0,12.8333333 C0,19.9208333 5.68269231,25.6666667 12.6923077,25.6666667 C13.0811538,25.6666667 13.4653846,25.6421667 13.8461538,25.6071667 L13.8461538,22.1666667 L13.8461538,22.1666667 Z" id="Shape" fill="#DDDCDC"></path>
                    <polygon id="Shape" fill="#DDDCDC" points="5.76923077 10.5 13.8461538 18.6666667 13.8461538 10.5"></polygon>
                </g>
                <g id="right" transform="translate(16.153846, 0.000000)">
                    <polygon id="Shape" fill="#602880" points="3.46153846 26.8333333 0 26.8333333 0 11.6666667 3.46153846 16.3333333"></polygon>
                    <polygon id="Shape" fill="#000000" opacity="0.3" points="3.46153846 19.8333333 0 17.5 0 15.1666667 3.46153846 17.5"></polygon>
                    <polygon id="Shape" fill="#8537B2" points="8.07692308 17.5 0 9.33333333 0 17.5"></polygon>
                    <path d="M8.40576923,4.64216667 L8.40576923,9.4045 C9.64038462,10.9923333 10.3846154,12.9896667 10.3846154,15.1666667 C10.3846154,20.321 6.25153846,24.5 1.15384615,24.5 L0,24.5 L0,27.9405 C0.380769231,27.9755 0.763846154,28 1.15384615,28 C8.16346154,28 13.8461538,22.2541667 13.8461538,15.1666667 C13.8461538,10.808 11.6919231,6.9615 8.40576923,4.64216667 L8.40576923,4.64216667 Z" id="Shape" fill="#8537B2"></path>
                    <path d="M3.24692308,0.110833333 C1.45384615,0.110833333 0,1.58083333 0,3.39383333 C0,5.20683333 1.45384615,6.67683333 3.24692308,6.67683333 C5.04,6.67683333 6.49384615,5.20566667 6.49384615,3.39383333 C6.495,1.58083333 5.04115385,0.110833333 3.24692308,0.110833333 L3.24692308,0.110833333 Z M3.24692308,5.14383333 C2.29153846,5.14383333 1.51615385,4.35983333 1.51615385,3.39383333 C1.51615385,2.42783333 2.29153846,1.64383333 3.24692308,1.64383333 C4.20230769,1.64383333 4.97769231,2.42783333 4.97769231,3.39383333 C4.97769231,4.35983333 4.20346154,5.14383333 3.24692308,5.14383333 L3.24692308,5.14383333 Z" id="Shape" fill="#8537B2" opacity="0.5"></path>
                </g>
            </g>
        </g>
    </g>
</svg>