<?xml version="1.0" encoding="UTF-8"?>
<svg width="32px" height="32px" viewBox="0 0 32 32" version="1.1" xmlns="http://www.w3.org/2000/svg" xmlns:xlink="http://www.w3.org/1999/xlink">
    <title>DestructorBlack</title>
    <g id="DestructorBlack" stroke="none" stroke-width="1" fill="none" fill-rule="evenodd">
        <path d="M10.853,0.586 C11.635,-0.195 12.901,-0.195 13.682,0.586 L13.682,0.586 L19.339,6.243 C20.12,7.025 20.12,8.291 19.339,9.072 L19.339,9.072 L15.41025,12.99925 L23.90525,12.99925 L26.18,10.726 C26.5621538,10.3429231 27.164142,10.3134556 27.5801165,10.6375976 L27.68,10.726 L30.682,13.728 C31.097,14.143 31.097,14.814 30.682,15.229 L30.682,15.229 L25.805,20.106 C25.39,20.521 24.718,20.521 24.303,20.106 L24.303,20.106 L21.301,17.104 C20.887,16.69 20.887,16.019 21.301,15.604 L21.301,15.604 L21.90425,14.99925 L15,15 L15,27 L21.0517343,26.9989628 C21.1028371,26.8550818 21.1859257,26.7200743 21.301,26.605 L21.301,26.605 L26.18,21.726 C26.594,21.312 27.266,21.312 27.68,21.726 L27.68,21.726 L30.682,24.728 C31.097,25.143 31.097,25.815 30.682,26.23 L30.682,26.23 L25.805,31.107 C25.39,31.522 24.718,31.522 24.303,31.107 L24.303,31.107 L22.19425,28.99925 L13,29 L12.99925,15.41025 L10.147,18.264 C9.40615789,19.0038947 8.23092244,19.0428366 7.44520499,18.3808255 L7.318,18.264 L1.661,12.607 C0.88,11.825 0.88,10.559 1.661,9.778 L1.661,9.778 Z M9.66103644,6.17182288 C9.27051215,5.78129858 8.63734717,5.78129858 8.24682288,6.17182288 C7.85629858,6.56234717 7.85629858,7.19551215 8.24682288,7.58603644 L8.24682288,7.58603644 L9.66125,9.00025 L8.24682288,10.4144636 C7.88633891,10.7749475 7.85860938,11.3421786 8.16363427,11.7344698 L8.24682288,11.8286771 C8.63734717,12.2192014 9.27051215,12.2192014 9.66103644,11.8286771 L9.66103644,11.8286771 L11.07525,10.41425 L12.4894636,11.8286771 C12.8499475,12.1891611 13.4171786,12.2168906 13.8094698,11.9118657 L13.9036771,11.8286771 C14.2942014,11.4381528 14.2942014,10.8049879 13.9036771,10.4144636 L13.9036771,10.4144636 L12.48925,9.00025 L13.9036771,7.58603644 C14.2641611,7.22555248 14.2918906,6.65832142 13.9868657,6.26603021 L13.9036771,6.17182288 C13.5131528,5.78129858 12.8799879,5.78129858 12.4894636,6.17182288 L12.4894636,6.17182288 L11.07525,7.58625 Z" id="Shape-2" fill="#000000"></path>
    </g>
</svg>