<?xml version="1.0" encoding="UTF-8"?>
<svg width="32px" height="32px" viewBox="0 0 32 32" version="1.1" xmlns="http://www.w3.org/2000/svg" xmlns:xlink="http://www.w3.org/1999/xlink">
    <title>EventHandler</title>
    <g id="EventHandler" stroke="none" stroke-width="1" fill="none" fill-rule="evenodd">
        <g id="event" transform="translate(4.000000, 7.000000)">
            <path d="M12,6 C13.656,6 15,7.343 15,9 C15,10.656 13.656,12 12,12 C10.343,12 9,10.656 9,9 C9,7.343 10.343,6 12,6 L12,6 Z" id="Shape" fill="#C41919"></path>
            <g id="Group" fill="#E5AE61">
                <path d="M20.324,0.368 L18.845,1.723 C20.783,3.547 22,6.129 22,9 C22,11.871 20.783,14.453 18.846,16.276 L20.325,17.631 C22.587,15.449 24,12.392 24,9 C24,5.608 22.587,2.551 20.324,0.368 L20.324,0.368 Z" id="Shape"></path>
                <path d="M5.155,1.724 L3.676,0.368 C1.413,2.551 0,5.608 0,9 C0,12.392 1.413,15.449 3.676,17.632 L5.154,16.277 C3.217,14.453 2,11.871 2,9 C2,6.129 3.217,3.547 5.155,1.724 L5.155,1.724 Z" id="Shape"></path>
                <path d="M8.105,4.429 L6.633,3.079 C5.02,4.543 4,6.65 4,9 C4,11.35 5.02,13.457 6.633,14.921 L8.105,13.571 C6.813,12.468 5.99,10.831 5.99,9 C5.991,7.168 6.813,5.531 8.105,4.429 L8.105,4.429 Z" id="Shape"></path>
                <path d="M17.366,3.08 L15.894,4.429 C17.187,5.531 18.009,7.169 18.009,9 C18.009,10.831 17.187,12.469 15.894,13.571 L17.366,14.921 C18.98,13.457 20,11.35 20,9 C20,6.65 18.98,4.543 17.366,3.08 L17.366,3.08 Z" id="Shape"></path>
            </g>
        </g>
    </g>
</svg>