<?xml version="1.0" encoding="UTF-8"?>
<svg width="32px" height="32px" viewBox="0 0 32 32" version="1.1" xmlns="http://www.w3.org/2000/svg" xmlns:xlink="http://www.w3.org/1999/xlink">
    <!-- Generator: Sketch 53.2 (72643) - https://sketchapp.com -->
    <title>File_DML</title>
    <desc>Created with Sketch.</desc>
    <g id="File_DML" stroke="none" stroke-width="1" fill="none" fill-rule="evenodd">
        <g id="file" transform="translate(4.000000, 2.000000)">
            <g id="Group">
                <path d="M15.43655,0.5 L2.72727273,0.5 C1.79905147,0.5 1.04545455,1.25359692 1.04545455,2.18181818 L1.04545455,26.1818182 C1.04545455,27.1100394 1.79905147,27.8636364 2.72727273,27.8636364 L21.2727273,27.8636364 C22.2009485,27.8636364 22.9545455,27.1100394 22.9545455,26.1818182 L22.9545455,8.01694542 L15.43655,0.5 Z" id="Shape" stroke="#4A90E2" fill="#4A90E2"></path>
                <polygon id="Shape" fill="#000000" opacity="0.1" points="16.2610909 7.188 23.4545455 14.3749091 23.4545455 7.82945455 16.2610909 0.642545455"></polygon>
                <path d="M15.6436364,0 L15.624,5.64763636 C15.624,6.852 16.6014545,7.82945455 17.8058182,7.82945455 L23.4545455,7.80981818 L15.6436364,0 L15.6436364,0 Z" id="Shape" fill="#98BBE4"></path>
            </g>
        </g>
        <path d="M6.21484375,23 L6.21484375,15.8417969 L8.68066406,15.8417969 C9.23730747,15.8417969 9.66210791,15.8759762 9.95507812,15.9443359 C10.3652364,16.0387375 10.7151678,16.2096342 11.0048828,16.4570312 C11.3824889,16.7760433 11.6648754,17.183754 11.8520508,17.6801758 C12.0392262,18.1765975 12.1328125,18.7438119 12.1328125,19.3818359 C12.1328125,19.9254584 12.0693366,20.4072245 11.9423828,20.8271484 C11.8154291,21.2470724 11.6526703,21.5945624 11.4541016,21.8696289 C11.2555329,22.1446954 11.0382499,22.3611646 10.8022461,22.519043 C10.5662423,22.6769214 10.2814144,22.7965491 9.94775391,22.8779297 C9.61409338,22.9593103 9.23079644,23 8.79785156,23 L6.21484375,23 Z M7.16210938,22.1552734 L8.69042969,22.1552734 C9.16243726,22.1552734 9.5327135,22.1113286 9.80126953,22.0234375 C10.0698256,21.9355464 10.2838534,21.8118498 10.4433594,21.6523438 C10.6679699,21.4277333 10.8429356,21.1258157 10.9682617,20.746582 C11.0935879,20.3673484 11.15625,19.9075548 11.15625,19.3671875 C11.15625,18.6184858 11.0333671,18.0431335 10.7875977,17.6411133 C10.5418282,17.239093 10.2431658,16.9697272 9.89160156,16.8330078 C9.63769404,16.7353511 9.22916948,16.6865234 8.66601562,16.6865234 L7.16210938,16.6865234 L7.16210938,22.1552734 Z M13.4072266,23 L13.4072266,15.8417969 L14.8330078,15.8417969 L16.5273438,20.9101562 C16.6835945,21.3821638 16.7975257,21.7353504 16.8691406,21.9697266 C16.9505212,21.7093086 17.0774731,21.3268254 17.25,20.8222656 L18.9638672,15.8417969 L20.2382812,15.8417969 L20.2382812,23 L19.3251953,23 L19.3251953,17.0087891 L17.2451172,23 L16.390625,23 L14.3203125,16.90625 L14.3203125,23 L13.4072266,23 Z M21.7275391,23 L21.7275391,15.8417969 L22.6748047,15.8417969 L22.6748047,22.1552734 L26.2001953,22.1552734 L26.2001953,23 L21.7275391,23 Z" id="DML" fill="#FFFFFF"></path>
    </g>
</svg>