<?xml version="1.0" encoding="UTF-8"?>
<svg width="32px" height="32px" viewBox="0 0 32 32" version="1.1" xmlns="http://www.w3.org/2000/svg" xmlns:xlink="http://www.w3.org/1999/xlink">
    <!-- Generator: Sketch 53.2 (72643) - https://sketchapp.com -->
    <title>File_Script</title>
    <desc>Created with Sketch.</desc>
    <g id="File_Script" stroke="none" stroke-width="1" fill="none" fill-rule="evenodd">
        <g id="file" transform="translate(4.000000, 2.000000)">
            <g id="Group">
                <path d="M15.43655,0.5 L2.72727273,0.5 C1.79905147,0.5 1.04545455,1.25359692 1.04545455,2.18181818 L1.04545455,26.1818182 C1.04545455,27.1100394 1.79905147,27.8636364 2.72727273,27.8636364 L21.2727273,27.8636364 C22.2009485,27.8636364 22.9545455,27.1100394 22.9545455,26.1818182 L22.9545455,8.01694542 L15.43655,0.5 Z" id="Shape" stroke="#4A90E2" fill="#FFFFFF"></path>
                <polygon id="Shape" fill="#000000" opacity="0.1" points="16.2610909 7.188 23.4545455 14.3749091 23.4545455 7.82945455 16.2610909 0.642545455"></polygon>
                <path d="M15.6436364,0 L15.624,5.64763636 C15.624,6.852 16.6014545,7.82945455 17.8058182,7.82945455 L23.4545455,7.80981818 L15.6436364,0 L15.6436364,0 Z" id="Shape" fill="#1669C9"></path>
            </g>
        </g>
        <g id="Group" transform="translate(8.000000, 9.000000)" fill="#000000">
            <rect id="Rectangle-12-Copy-2" x="6" y="12" width="10" height="2"></rect>
            <rect id="Rectangle-12-Copy-6" x="6" y="16" width="10" height="2"></rect>
            <rect id="Rectangle-12-Copy-3" x="0" y="0" width="10" height="2"></rect>
            <rect id="Rectangle-12-Copy-4" x="6" y="4" width="10" height="2"></rect>
            <rect id="Rectangle-12-Copy-5" x="0" y="8" width="10" height="2"></rect>
        </g>
    </g>
</svg>