<?xml version="1.0" encoding="UTF-8"?>
<svg width="32px" height="32px" viewBox="0 0 32 32" version="1.1" xmlns="http://www.w3.org/2000/svg" xmlns:xlink="http://www.w3.org/1999/xlink">
    <!-- Generator: Sketch 53.2 (72643) - https://sketchapp.com -->
    <title>File_VB</title>
    <desc>Created with Sketch.</desc>
    <g id="File_VB" stroke="none" stroke-width="1" fill="none" fill-rule="evenodd">
        <g id="file" transform="translate(4.000000, 2.000000)">
            <g id="Group">
                <path d="M15.43655,0.5 L2.72727273,0.5 C1.79905147,0.5 1.04545455,1.25359692 1.04545455,2.18181818 L1.04545455,26.1818182 C1.04545455,27.1100394 1.79905147,27.8636364 2.72727273,27.8636364 L21.2727273,27.8636364 C22.2009485,27.8636364 22.9545455,27.1100394 22.9545455,26.1818182 L22.9545455,8.01694542 L15.43655,0.5 Z" id="Shape" stroke="#4A90E2" fill="#4A90E2"></path>
                <polygon id="Shape" fill="#000000" opacity="0.1" points="16.2610909 7.188 23.4545455 14.3749091 23.4545455 7.82945455 16.2610909 0.642545455"></polygon>
                <path d="M15.6436364,0 L15.624,5.64763636 C15.624,6.852 16.6014545,7.82945455 17.8058182,7.82945455 L23.4545455,7.80981818 L15.6436364,0 L15.6436364,0 Z" id="Shape" fill="#95BCEA"></path>
            </g>
        </g>
        <path d="M12.1474609,22 L9.37402344,14.8417969 L10.3994141,14.8417969 L12.2597656,20.0419922 C12.409506,20.4586609 12.5348302,20.849282 12.6357422,21.2138672 C12.7464198,20.8232402 12.8749993,20.4326191 13.0214844,20.0419922 L14.9550781,14.8417969 L15.921875,14.8417969 L13.1191406,22 L12.1474609,22 Z M16.7324219,22 L16.7324219,14.8417969 L19.4179688,14.8417969 C19.9648465,14.8417969 20.4034814,14.9142245 20.7338867,15.059082 C21.064292,15.2039395 21.3230785,15.4269191 21.5102539,15.7280273 C21.6974293,16.0291356 21.7910156,16.3440739 21.7910156,16.6728516 C21.7910156,16.9788427 21.7080086,17.2669257 21.5419922,17.5371094 C21.3759757,17.807293 21.1253272,18.0253898 20.7900391,18.1914062 C21.2229839,18.31836 21.5558257,18.5348292 21.7885742,18.8408203 C22.0213228,19.1468114 22.1376953,19.5081359 22.1376953,19.9248047 C22.1376953,20.2600928 22.0668952,20.5717759 21.925293,20.8598633 C21.7836907,21.1479507 21.608725,21.3701164 21.4003906,21.5263672 C21.1920563,21.682618 20.9308284,21.8006181 20.6166992,21.8803711 C20.30257,21.9601241 19.9176455,22 19.4619141,22 L16.7324219,22 Z M17.6796875,17.8496094 L19.2275391,17.8496094 C19.647463,17.8496094 19.9485668,17.8219404 20.1308594,17.7666016 C20.371746,17.6949866 20.553222,17.5761727 20.675293,17.4101562 C20.7973639,17.2441398 20.8583984,17.0358085 20.8583984,16.7851562 C20.8583984,16.5475249 20.8014329,16.3383798 20.6875,16.1577148 C20.5735671,15.9770499 20.4108083,15.8533532 20.1992188,15.7866211 C19.9876292,15.719889 19.6246771,15.6865234 19.1103516,15.6865234 L17.6796875,15.6865234 L17.6796875,17.8496094 Z M17.6796875,21.1552734 L19.4619141,21.1552734 C19.7679052,21.1552734 19.9827468,21.1438803 20.1064453,21.1210938 C20.3245454,21.0820311 20.5068352,21.0169275 20.6533203,20.9257812 C20.7998054,20.834635 20.9202469,20.7019865 21.0146484,20.527832 C21.10905,20.3536775 21.15625,20.1526704 21.15625,19.9248047 C21.15625,19.6578763 21.0878913,19.425945 20.9511719,19.2290039 C20.8144524,19.0320628 20.6248385,18.8937178 20.3823242,18.8139648 C20.13981,18.7342118 19.7906924,18.6943359 19.3349609,18.6943359 L17.6796875,18.6943359 L17.6796875,21.1552734 Z" id="VB" fill="#FFFFFF"></path>
    </g>
</svg>