<?xml version="1.0" encoding="UTF-8"?>
<svg width="32px" height="32px" viewBox="0 0 32 32" version="1.1" xmlns="http://www.w3.org/2000/svg" xmlns:xlink="http://www.w3.org/1999/xlink">
    <!-- Generator: Sketch 53.2 (72643) - https://sketchapp.com -->
    <title>File_CICS</title>
    <desc>Created with Sketch.</desc>
    <g id="File_CICS" stroke="none" stroke-width="1" fill="none" fill-rule="evenodd">
        <g id="file" transform="translate(4.000000, 2.000000)">
            <g id="Group">
                <path d="M15.43655,0.5 L2.72727273,0.5 C1.79905147,0.5 1.04545455,1.25359692 1.04545455,2.18181818 L1.04545455,26.1818182 C1.04545455,27.1100394 1.79905147,27.8636364 2.72727273,27.8636364 L21.2727273,27.8636364 C22.2009485,27.8636364 22.9545455,27.1100394 22.9545455,26.1818182 L22.9545455,8.01694542 L15.43655,0.5 Z" id="Shape" stroke="#44117D" fill="#44117D"></path>
                <polygon id="Shape" fill="#000000" opacity="0.2" points="16.2610909 7.188 23.4545455 14.3749091 23.4545455 7.82945455 16.2610909 0.642545455"></polygon>
                <path d="M15.6436364,0 L15.624,5.64763636 C15.624,6.852 16.6014545,7.82945455 17.8058182,7.82945455 L23.4545455,7.80981818 L15.6436364,0 L15.6436364,0 Z" id="Shape" fill="#AC8BD0"></path>
            </g>
        </g>
        <path d="M10.5397949,19.7412109 L11.392334,19.956543 C11.2136222,20.6567418 10.8920922,21.190672 10.4277344,21.5583496 C9.96337658,21.9260272 9.39575531,22.1098633 8.72485352,22.1098633 C8.03051411,22.1098633 7.46582249,21.9685073 7.03076172,21.685791 C6.59570095,21.4030748 6.26464957,20.993655 6.03759766,20.4575195 C5.81054574,19.921384 5.69702148,19.3457062 5.69702148,18.7304688 C5.69702148,18.059567 5.82519403,17.4743677 6.08154297,16.9748535 C6.33789191,16.4753393 6.70263435,16.0959486 7.17578125,15.8366699 C7.64892815,15.5773913 8.16967489,15.4477539 8.73803711,15.4477539 C9.38257158,15.4477539 9.92455835,15.6118148 10.3640137,15.9399414 C10.803469,16.268068 11.1096183,16.7294892 11.2824707,17.3242188 L10.4431152,17.5219727 C10.2937004,17.0532203 10.0769057,16.7119151 9.79272461,16.4980469 C9.5085435,16.2841786 9.1511252,16.1772461 8.72045898,16.1772461 C8.22533932,16.1772461 7.8115251,16.2958973 7.47900391,16.5332031 C7.14648271,16.770509 6.91284247,17.0891093 6.77807617,17.4890137 C6.64330987,17.888918 6.57592773,18.3012674 6.57592773,18.7260742 C6.57592773,19.2739285 6.65576092,19.7521952 6.81542969,20.1608887 C6.97509845,20.5695821 7.22338699,20.874999 7.56030273,21.0771484 C7.89721848,21.2792979 8.26196093,21.3803711 8.65454102,21.3803711 C9.13208247,21.3803711 9.5363753,21.2426772 9.86743164,20.9672852 C10.198488,20.6918932 10.4226068,20.2832058 10.5397949,19.7412109 Z M12.5876465,22 L12.5876465,15.5576172 L13.4401855,15.5576172 L13.4401855,22 L12.5876465,22 Z M19.5397949,19.7412109 L20.392334,19.956543 C20.2136222,20.6567418 19.8920922,21.190672 19.4277344,21.5583496 C18.9633766,21.9260272 18.3957553,22.1098633 17.7248535,22.1098633 C17.0305141,22.1098633 16.4658225,21.9685073 16.0307617,21.685791 C15.5957009,21.4030748 15.2646496,20.993655 15.0375977,20.4575195 C14.8105457,19.921384 14.6970215,19.3457062 14.6970215,18.7304688 C14.6970215,18.059567 14.825194,17.4743677 15.081543,16.9748535 C15.3378919,16.4753393 15.7026344,16.0959486 16.1757812,15.8366699 C16.6489281,15.5773913 17.1696749,15.4477539 17.7380371,15.4477539 C18.3825716,15.4477539 18.9245583,15.6118148 19.3640137,15.9399414 C19.803469,16.268068 20.1096183,16.7294892 20.2824707,17.3242188 L19.4431152,17.5219727 C19.2937004,17.0532203 19.0769057,16.7119151 18.7927246,16.4980469 C18.5085435,16.2841786 18.1511252,16.1772461 17.720459,16.1772461 C17.2253393,16.1772461 16.8115251,16.2958973 16.4790039,16.5332031 C16.1464827,16.770509 15.9128425,17.0891093 15.7780762,17.4890137 C15.6433099,17.888918 15.5759277,18.3012674 15.5759277,18.7260742 C15.5759277,19.2739285 15.6557609,19.7521952 15.8154297,20.1608887 C15.9750985,20.5695821 16.223387,20.874999 16.5603027,21.0771484 C16.8972185,21.2792979 17.2619609,21.3803711 17.654541,21.3803711 C18.1320825,21.3803711 18.5363753,21.2426772 18.8674316,20.9672852 C19.198488,20.6918932 19.4226068,20.2832058 19.5397949,19.7412109 Z M21.1525879,19.9301758 L21.9567871,19.8598633 C21.9948732,20.1821305 22.0834954,20.4465322 22.2226562,20.6530762 C22.3618171,20.8596202 22.5778794,21.0266107 22.8708496,21.1540527 C23.1638198,21.2814948 23.4934064,21.3452148 23.8596191,21.3452148 C24.1848161,21.3452148 24.4719226,21.2968755 24.7209473,21.2001953 C24.9699719,21.1035151 25.1552728,20.9709481 25.2768555,20.8024902 C25.3984381,20.6340324 25.4592285,20.4501963 25.4592285,20.2509766 C25.4592285,20.0488271 25.4006354,19.8723152 25.2834473,19.7214355 C25.1662592,19.5705559 24.9729017,19.4438482 24.7033691,19.3413086 C24.5305167,19.2739254 24.1481963,19.1691902 23.5563965,19.0270996 C22.9645967,18.8850091 22.55005,18.7509772 22.3127441,18.625 C22.0051254,18.4638664 21.7758797,18.2639172 21.625,18.0251465 C21.4741203,17.7863758 21.3986816,17.5190444 21.3986816,17.2231445 C21.3986816,16.8979476 21.4909659,16.5939956 21.6755371,16.3112793 C21.8601083,16.028563 22.1296369,15.8139656 22.4841309,15.6674805 C22.8386248,15.5209954 23.2326638,15.4477539 23.6662598,15.4477539 C24.1438012,15.4477539 24.5649396,15.5246574 24.9296875,15.6784668 C25.2944354,15.8322762 25.5749502,16.0585923 25.7712402,16.3574219 C25.9675303,16.6562515 26.072998,16.994627 26.0876465,17.3725586 L25.2702637,17.434082 C25.2263181,17.0268534 25.077638,16.7192393 24.8242188,16.5112305 C24.5707995,16.3032216 24.1965357,16.1992188 23.701416,16.1992188 C23.1857884,16.1992188 22.8100598,16.2937002 22.5742188,16.482666 C22.3383777,16.6716318 22.220459,16.8994127 22.220459,17.1660156 C22.220459,17.3974621 22.3039542,17.5878899 22.4709473,17.7373047 C22.6350106,17.8867195 23.0634731,18.0397941 23.7563477,18.1965332 C24.4492222,18.3532723 24.9245593,18.4902338 25.182373,18.6074219 C25.5573749,18.7802743 25.8342276,18.9992663 26.0129395,19.2644043 C26.1916513,19.5295423 26.2810059,19.8349592 26.2810059,20.1806641 C26.2810059,20.5234392 26.1828623,20.846434 25.9865723,21.1496582 C25.7902822,21.4528824 25.5083026,21.6887199 25.140625,21.8571777 C24.7729474,22.0256356 24.3591332,22.1098633 23.8991699,22.1098633 C23.3161592,22.1098633 22.8276387,22.0249032 22.4335938,21.8549805 C22.0395488,21.6850577 21.7304699,21.4294451 21.5063477,21.0881348 C21.2822254,20.7468245 21.1643067,20.360842 21.1525879,19.9301758 Z" id="CICS" fill="#FFFFFF"></path>
    </g>
</svg>