<?xml version="1.0" encoding="UTF-8"?>
<svg width="16px" height="16px" viewBox="0 0 16 16" version="1.1" xmlns="http://www.w3.org/2000/svg" xmlns:xlink="http://www.w3.org/1999/xlink">
    <!-- Generator: Sketch 53.2 (72643) - https://sketchapp.com -->
    <title>File_Data</title>
    <desc>Created with Sketch.</desc>
    <g id="File_Data" stroke="none" stroke-width="1" fill="none" fill-rule="evenodd">
        <g id="file" transform="translate(1.000000, 0.000000)">
            <g id="Group">
                <path d="M9.03119481,0.5 L1.33333333,0.5 C0.864933667,0.5 0.5,0.836861847 0.5,1.23076923 L0.5,14.7692308 C0.5,15.1631382 0.864933667,15.5 1.33333333,15.5 L12.6666667,15.5 C13.1350663,15.5 13.5,15.1631382 13.5,14.7692308 L13.5,4.62447482 L9.03119481,0.5 Z" id="Shape" stroke="#EFEFF0" fill="#EFEFF0"></path>
                <polygon id="Shape" fill="#000000" opacity="0.1" points="9.16833325 2.96226168 14 7.1109333 14 4.42845964 9.16833325 0"></polygon>
                <path d="M9.19999981,3.1159373 C9.19999981,3.78041379 9.77018163,4.31969906 10.4727271,4.31969906 L13.8904419,4.31969929 L9.21145435,0 L9.19999981,3.1159373 Z" id="Shape" fill="#F7F7F7"></path>
            </g>
        </g>
        <g id="model" transform="translate(3.000000, 5.000000)">
            <g id="Group">
                <g transform="translate(4.000000, 2.000000)" fill="#B20F44" id="Rectangle-path">
                    <rect x="3.83333333" y="1.83333333" width="1" height="3"></rect>
                    <rect x="0.166666667" y="0.166666667" width="2.66666667" height="1"></rect>
                </g>
                <g fill="#EA0F56">
                    <rect id="Rectangle-path" x="6.5" y="0.833333333" width="3.33333333" height="3.33333333"></rect>
                    <circle id="Oval" cx="8.16666667" cy="8.16666667" r="1.66666667"></circle>
                    <path d="M2.5,0.166666667 C1.21133333,0.166666667 0.166666667,1.21133333 0.166666667,2.5 C0.166666667,3.78866667 1.21133333,4.83333333 2.5,4.83333333 C3.78866667,4.83333333 4.83333333,3.78866667 4.83333333,2.5 C4.83333333,1.21133333 3.78866667,0.166666667 2.5,0.166666667 L2.5,0.166666667 Z M2.5,3.83333333 C1.76366667,3.83333333 1.16666667,3.23633333 1.16666667,2.5 C1.16666667,1.76366667 1.76366667,1.16666667 2.5,1.16666667 C3.23633333,1.16666667 3.83333333,1.76366667 3.83333333,2.5 C3.83333333,3.23633333 3.23633333,3.83333333 2.5,3.83333333 L2.5,3.83333333 Z" id="Shape"></path>
                </g>
            </g>
        </g>
    </g>
</svg>