<?xml version="1.0" encoding="UTF-8"?>
<svg width="32px" height="32px" viewBox="0 0 32 32" version="1.1" xmlns="http://www.w3.org/2000/svg" xmlns:xlink="http://www.w3.org/1999/xlink">
    <!-- Generator: Sketch 53.2 (72643) - https://sketchapp.com -->
    <title>File_ASCX</title>
    <desc>Created with Sketch.</desc>
    <g id="File_ASCX" stroke="none" stroke-width="1" fill="none" fill-rule="evenodd">
        <g id="file" transform="translate(4.000000, 2.000000)">
            <g id="Group">
                <path d="M15.43655,0.5 L2.72727273,0.5 C1.79905147,0.5 1.04545455,1.25359692 1.04545455,2.18181818 L1.04545455,26.1818182 C1.04545455,27.1100394 1.79905147,27.8636364 2.72727273,27.8636364 L21.2727273,27.8636364 C22.2009485,27.8636364 22.9545455,27.1100394 22.9545455,26.1818182 L22.9545455,8.01694542 L15.43655,0.5 Z" id="Shape" stroke="#4A90E2" fill="#4A90E2"></path>
                <polygon id="Shape" fill="#000000" opacity="0.1" points="16.2610909 7.188 23.4545455 14.3749091 23.4545455 7.82945455 16.2610909 0.642545455"></polygon>
                <path d="M15.6436364,0 L15.624,5.64763636 C15.624,6.852 16.6014545,7.82945455 17.8058182,7.82945455 L23.4545455,7.80981818 L15.6436364,0 L15.6436364,0 Z" id="Shape" fill="#95BCEA"></path>
            </g>
        </g>
        <path d="M5.09570312,22 L7.29492188,16.2734375 L8.11132812,16.2734375 L10.4550781,22 L9.59179688,22 L8.92382812,20.265625 L6.52929688,20.265625 L5.90039062,22 L5.09570312,22 Z M6.74804688,19.6484375 L8.68945312,19.6484375 L8.09179688,18.0625 C7.9095043,17.5807268 7.77408898,17.1848974 7.68554688,16.875 C7.61262984,17.2421893 7.50976629,17.606769 7.37695312,17.96875 L6.74804688,19.6484375 Z M10.8027344,20.1601562 L11.5175781,20.0976562 C11.5514325,20.384116 11.6302077,20.6191397 11.7539062,20.8027344 C11.8776048,20.986329 12.0696602,21.1347651 12.3300781,21.2480469 C12.5904961,21.3613287 12.8834619,21.4179688 13.2089844,21.4179688 C13.4980483,21.4179688 13.7532541,21.3750004 13.9746094,21.2890625 C14.1959646,21.2031246 14.3606765,21.0852872 14.46875,20.9355469 C14.5768235,20.7858065 14.6308594,20.6223967 14.6308594,20.4453125 C14.6308594,20.2656241 14.5787766,20.1087246 14.4746094,19.9746094 C14.3704422,19.8404941 14.1985689,19.727865 13.9589844,19.6367188 C13.8053378,19.5768226 13.4654974,19.4837246 12.9394531,19.3574219 C12.4134088,19.2311192 12.0449229,19.1119797 11.8339844,19 C11.5605455,18.8567701 11.3567715,18.6790375 11.2226562,18.4667969 C11.088541,18.2545562 11.0214844,18.0169284 11.0214844,17.7539062 C11.0214844,17.4648423 11.1035148,17.1946627 11.2675781,16.9433594 C11.4316414,16.692056 11.6712224,16.5013027 11.9863281,16.3710938 C12.3014339,16.2408848 12.6516908,16.1757812 13.0371094,16.1757812 C13.4615907,16.1757812 13.8359359,16.2441399 14.1601562,16.3808594 C14.4843766,16.5175788 14.7337231,16.7187487 14.9082031,16.984375 C15.0826832,17.2500013 15.1764322,17.5507796 15.1894531,17.8867188 L14.4628906,17.9414062 C14.4238279,17.5794253 14.2916678,17.3059905 14.0664062,17.1210938 C13.8411447,16.936197 13.5084657,16.84375 13.0683594,16.84375 C12.6100237,16.84375 12.2760427,16.9277335 12.0664062,17.0957031 C11.8567698,17.2636727 11.7519531,17.4661446 11.7519531,17.703125 C11.7519531,17.9088552 11.8261711,18.0781243 11.9746094,18.2109375 C12.1204434,18.3437507 12.501299,18.479817 13.1171875,18.6191406 C13.733076,18.7584642 14.1555978,18.8802078 14.3847656,18.984375 C14.7181006,19.1380216 14.9641919,19.3326811 15.1230469,19.5683594 C15.2819018,19.8040376 15.3613281,20.0755193 15.3613281,20.3828125 C15.3613281,20.6875015 15.2740894,20.974608 15.0996094,21.2441406 C14.9251293,21.5136732 14.6744808,21.7233065 14.3476562,21.8730469 C14.0208317,22.0227872 13.6529968,22.0976562 13.2441406,22.0976562 C12.7259089,22.0976562 12.2916684,22.0221362 11.9414062,21.8710938 C11.5911441,21.7200513 11.3164072,21.4928401 11.1171875,21.1894531 C10.9179678,20.8860662 10.8131511,20.5429707 10.8027344,20.1601562 Z M20.4824219,19.9921875 L21.2402344,20.1835938 C21.0813794,20.8059927 20.795575,21.2805973 20.3828125,21.6074219 C19.97005,21.9342464 19.4654978,22.0976562 18.8691406,22.0976562 C18.25195,22.0976562 17.7500019,21.9720065 17.3632812,21.7207031 C16.9765606,21.4693998 16.6822927,21.1054711 16.4804688,20.6289062 C16.2786448,20.1523414 16.1777344,19.6406277 16.1777344,19.09375 C16.1777344,18.4973929 16.2916655,17.9772158 16.5195312,17.5332031 C16.747397,17.0891905 17.0716125,16.7519543 17.4921875,16.5214844 C17.9127625,16.2910145 18.3756485,16.1757812 18.8808594,16.1757812 C19.4537789,16.1757812 19.9355449,16.3216131 20.3261719,16.6132812 C20.7167988,16.9049494 20.9889315,17.3151015 21.1425781,17.84375 L20.3964844,18.0195312 C20.2636712,17.6028625 20.0709648,17.2994801 19.8183594,17.109375 C19.5657539,16.9192699 19.2480488,16.8242188 18.8652344,16.8242188 C18.425128,16.8242188 18.0572931,16.9296864 17.7617188,17.140625 C17.4661444,17.3515636 17.2584641,17.6347638 17.1386719,17.9902344 C17.0188796,18.3457049 16.9589844,18.7122377 16.9589844,19.0898438 C16.9589844,19.5768254 17.0299472,20.0019513 17.171875,20.3652344 C17.3138028,20.7285174 17.5345037,20.9999991 17.8339844,21.1796875 C18.133465,21.3593759 18.4576805,21.4492188 18.8066406,21.4492188 C19.2311219,21.4492188 19.5904933,21.3268241 19.8847656,21.0820312 C20.1790379,20.8372384 20.3782547,20.4739607 20.4824219,19.9921875 Z M21.5917969,22 L23.8066406,19.015625 L21.8535156,16.2734375 L22.7558594,16.2734375 L23.7949219,17.7421875 C24.0110688,18.0468765 24.1647131,18.2812492 24.2558594,18.4453125 C24.3834642,18.2369781 24.5345043,18.0195324 24.7089844,17.7929688 L25.8613281,16.2734375 L26.6855469,16.2734375 L24.6738281,18.9726562 L26.8417969,22 L25.9042969,22 L24.4628906,19.9570312 C24.3821611,19.8398432 24.2988286,19.7122403 24.2128906,19.5742188 C24.0852858,19.7825531 23.9941409,19.9257809 23.9394531,20.0039062 L22.5019531,22 L21.5917969,22 Z" id="ASCX" fill="#FFFFFF"></path>
    </g>
</svg>