<?xml version="1.0" encoding="UTF-8"?>
<svg width="32px" height="32px" viewBox="0 0 32 32" version="1.1" xmlns="http://www.w3.org/2000/svg" xmlns:xlink="http://www.w3.org/1999/xlink">
    <!-- Generator: Sketch 53.2 (72643) - https://sketchapp.com -->
    <title>File_Cpp</title>
    <desc>Created with Sketch.</desc>
    <g id="File_Cpp" stroke="none" stroke-width="1" fill="none" fill-rule="evenodd">
        <g id="file" transform="translate(4.000000, 2.000000)">
            <g id="Group">
                <path d="M15.43655,0.5 L2.72727273,0.5 C1.79905147,0.5 1.04545455,1.25359692 1.04545455,2.18181818 L1.04545455,26.1818182 C1.04545455,27.1100394 1.79905147,27.8636364 2.72727273,27.8636364 L21.2727273,27.8636364 C22.2009485,27.8636364 22.9545455,27.1100394 22.9545455,26.1818182 L22.9545455,8.01694542 L15.43655,0.5 Z" id="Shape" stroke="#4A90E2" fill="#FFFFFF"></path>
                <polygon id="Shape" fill="#000000" opacity="0.1" points="16.2610909 7.188 23.4545455 14.3749091 23.4545455 7.82945455 16.2610909 0.642545455"></polygon>
                <path d="M15.6436364,0 L15.624,5.64763636 C15.624,6.852 16.6014545,7.82945455 17.8058182,7.82945455 L23.4545455,7.80981818 L15.6436364,0 L15.6436364,0 Z" id="Shape" fill="#1669C9"></path>
            </g>
        </g>
        <path d="M11.8808594,18.7705078 L12.828125,19.0097656 C12.6295563,19.7877643 12.2723008,20.3810201 11.7563477,20.7895508 C11.2403946,21.1980815 10.6097042,21.4023438 9.86425781,21.4023438 C9.09276958,21.4023438 8.46533445,21.2452815 7.98193359,20.9311523 C7.49853274,20.6170232 7.13069788,20.1621124 6.87841797,19.5664062 C6.62613806,18.9707001 6.5,18.3310581 6.5,17.6474609 C6.5,16.9020145 6.64241394,16.2517931 6.92724609,15.6967773 C7.21207825,15.1417615 7.61734763,14.7202163 8.14306641,14.4321289 C8.66878518,14.1440415 9.24739268,14 9.87890625,14 C10.5950557,14 11.1972632,14.1822898 11.6855469,14.546875 C12.1738306,14.9114602 12.5139964,15.4241503 12.7060547,16.0849609 L11.7734375,16.3046875 C11.607421,15.7838516 11.366538,15.4046236 11.0507812,15.1669922 C10.7350245,14.9293608 10.337893,14.8105469 9.859375,14.8105469 C9.30924204,14.8105469 8.84944846,14.9423815 8.47998047,15.2060547 C8.11051248,15.4697279 7.85091221,15.8237282 7.70117188,16.2680664 C7.55143154,16.7124046 7.4765625,17.1705706 7.4765625,17.6425781 C7.4765625,18.2513051 7.56526604,18.7827126 7.74267578,19.2368164 C7.92008552,19.6909202 8.19596167,20.0302723 8.5703125,20.2548828 C8.94466333,20.4794933 9.34993271,20.5917969 9.78613281,20.5917969 C10.3167344,20.5917969 10.7659487,20.4388036 11.1337891,20.1328125 C11.5016294,19.8268214 11.7506504,19.3727244 11.8808594,18.7705078 Z M15.7285156,20.1230469 L15.7285156,18.1601562 L13.7802734,18.1601562 L13.7802734,17.3398438 L15.7285156,17.3398438 L15.7285156,15.3916016 L16.5585938,15.3916016 L16.5585938,17.3398438 L18.5068359,17.3398438 L18.5068359,18.1601562 L16.5585938,18.1601562 L16.5585938,20.1230469 L15.7285156,20.1230469 Z M21.5683594,20.1230469 L21.5683594,18.1601562 L19.6201172,18.1601562 L19.6201172,17.3398438 L21.5683594,17.3398438 L21.5683594,15.3916016 L22.3984375,15.3916016 L22.3984375,17.3398438 L24.3466797,17.3398438 L24.3466797,18.1601562 L22.3984375,18.1601562 L22.3984375,20.1230469 L21.5683594,20.1230469 Z" id="C++" fill="#4A90E2"></path>
    </g>
</svg>