<?xml version="1.0" encoding="UTF-8"?>
<svg width="32px" height="32px" viewBox="0 0 32 32" version="1.1" xmlns="http://www.w3.org/2000/svg" xmlns:xlink="http://www.w3.org/1999/xlink">
    <title>File_PUG</title>
    <g id="File_PUG" stroke="none" stroke-width="1" fill="none" fill-rule="evenodd">
        <g id="Group" transform="translate(4.000000, 2.000000)">
            <path d="M15.43655,0.5 L22.9545455,8.01694542 L22.9545455,26.1818182 C22.9545455,26.646 22.7661148,27.0664148 22.4617193,27.3708102 C22.1573239,27.6752057 21.7369091,27.8636364 21.2727273,27.8636364 L21.2727273,27.8636364 L2.72727273,27.8636364 C2.26309091,27.8636364 1.84267609,27.6752057 1.53828066,27.3708102 C1.23388524,27.0664148 1.04545455,26.646 1.04545455,26.1818182 L1.04545455,26.1818182 L1.04545455,2.18181818 C1.04545455,1.71763636 1.23388524,1.29722154 1.53828066,0.992826118 C1.84267609,0.688430696 2.26309091,0.5 2.72727273,0.5 L2.72727273,0.5 L15.43655,0.5 Z" id="Shape" stroke="#D0021B" fill="#D0021B"></path>
            <polygon id="Shape" fill="#000000" opacity="0.1" points="16.2610909 7.188 23.4545455 14.3749091 23.4545455 7.82945455 16.2610909 0.642545455"></polygon>
            <path d="M15.6436364,0 L15.624,5.64763636 C15.624,6.852 16.6014545,7.82945455 17.8058182,7.82945455 L23.4545455,7.80981818 L15.6436364,0 L15.6436364,0 Z" id="Shape" fill="#E8A994"></path>
        </g>
        <path d="M8.70703125,23 L8.70703125,20.671875 L10.1757812,20.671875 C10.9856771,20.671875 11.5455729,20.5032552 11.8554688,20.1660156 C12.1653646,19.828776 12.3203125,19.4166667 12.3203125,18.9296875 C12.3203125,18.6458333 12.2623698,18.3854167 12.1464844,18.1484375 C12.030599,17.9114583 11.8776042,17.7272135 11.6875,17.5957031 C11.4973958,17.4641927 11.2617188,17.375 10.9804688,17.328125 C10.7799479,17.2916667 10.4895833,17.2734375 10.109375,17.2734375 L10.109375,17.2734375 L7.94921875,17.2734375 L7.94921875,23 L8.70703125,23 Z M10.1875,19.9960938 L8.70703125,19.9960938 L8.70703125,17.9492188 L10.171875,17.9492188 C10.515625,17.9492188 10.7513021,17.9661458 10.8789062,18 C11.0768229,18.0546875 11.2363281,18.1673177 11.3574219,18.3378906 C11.4785156,18.5084635 11.5390625,18.7135417 11.5390625,18.953125 C11.5390625,19.2838542 11.4361979,19.5403646 11.2304688,19.7226562 C11.0247396,19.9049479 10.6770833,19.9960938 10.1875,19.9960938 L10.1875,19.9960938 Z M15.5625,23.0976562 C16.1145833,23.0976562 16.5605469,22.9915365 16.9003906,22.7792969 C17.2402344,22.5670573 17.4752604,22.2916667 17.6054688,21.953125 C17.7356771,21.6145833 17.8007812,21.1575521 17.8007812,20.5820312 L17.8007812,20.5820312 L17.8007812,17.2734375 L17.0429688,17.2734375 L17.0429688,20.578125 C17.0429688,21.296875 16.9244792,21.7825521 16.6875,22.0351562 C16.4505208,22.2877604 16.0533854,22.4140625 15.4960938,22.4140625 C15.1705729,22.4140625 14.8951823,22.3502604 14.6699219,22.2226562 C14.4446615,22.0950521 14.2858073,21.9134115 14.1933594,21.6777344 C14.1009115,21.4420573 14.0546875,21.0755208 14.0546875,20.578125 L14.0546875,20.578125 L14.0546875,17.2734375 L13.296875,17.2734375 L13.296875,20.5820312 C13.296875,21.1888021 13.3697917,21.6673177 13.515625,22.0175781 C13.6614583,22.3678385 13.9049479,22.6354167 14.2460938,22.8203125 C14.5872396,23.0052083 15.0260417,23.0976562 15.5625,23.0976562 Z M21.796875,23.0976562 C22.2135417,23.0976562 22.6197917,23.0227865 23.015625,22.8730469 C23.4114583,22.7233073 23.7955729,22.5 24.1679688,22.203125 L24.1679688,22.203125 L24.1679688,20.078125 L21.7421875,20.0820312 L21.7421875,20.7539062 L23.4257812,20.7539062 L23.4257812,21.8203125 C23.2643229,21.9635417 23.0273438,22.0983073 22.7148438,22.2246094 C22.4023438,22.3509115 22.0820312,22.4140625 21.7539062,22.4140625 C21.3763021,22.4140625 21.0195312,22.3307292 20.6835938,22.1640625 C20.3476562,21.9973958 20.0917969,21.7421875 19.9160156,21.3984375 C19.7402344,21.0546875 19.6523438,20.6276042 19.6523438,20.1171875 C19.6523438,19.703125 19.7252604,19.3190104 19.8710938,18.9648438 C19.9570312,18.7591146 20.077474,18.5703125 20.2324219,18.3984375 C20.3873698,18.2265625 20.5911458,18.0878906 20.84375,17.9824219 C21.0963542,17.8769531 21.3958333,17.8242188 21.7421875,17.8242188 C22.03125,17.8242188 22.2942708,17.874349 22.53125,17.9746094 C22.7682292,18.0748698 22.9505208,18.2083333 23.078125,18.375 C23.2057292,18.5416667 23.3125,18.7708333 23.3984375,19.0625 L23.3984375,19.0625 L24.0820312,18.875 C23.9830729,18.4895833 23.8385417,18.1770833 23.6484375,17.9375 C23.4583333,17.6979167 23.1959635,17.5110677 22.8613281,17.3769531 C22.5266927,17.2428385 22.1523438,17.1757812 21.7382812,17.1757812 C21.1679688,17.1757812 20.6640625,17.2929688 20.2265625,17.5273438 C19.7890625,17.7617188 19.453776,18.1204427 19.2207031,18.6035156 C18.9876302,19.0865885 18.8710938,19.6067708 18.8710938,20.1640625 C18.8710938,20.7265625 18.9882812,21.2356771 19.2226562,21.6914062 C19.4570312,22.1471354 19.8040365,22.4954427 20.2636719,22.7363281 C20.7233073,22.9772135 21.234375,23.0976562 21.796875,23.0976562 Z" id="PUG" fill="#FFFFFF" fill-rule="nonzero"></path>
    </g>
</svg>