<?xml version="1.0" encoding="UTF-8"?>
<svg width="32px" height="32px" viewBox="0 0 32 32" version="1.1" xmlns="http://www.w3.org/2000/svg" xmlns:xlink="http://www.w3.org/1999/xlink">
    <!-- Generator: Sketch 53.2 (72643) - https://sketchapp.com -->
    <title>File_PF</title>
    <desc>Created with Sketch.</desc>
    <g id="File_PF" stroke="none" stroke-width="1" fill="none" fill-rule="evenodd">
        <g id="file" transform="translate(4.000000, 2.000000)">
            <g id="Group">
                <path d="M15.43655,0.5 L2.72727273,0.5 C1.79905147,0.5 1.04545455,1.25359692 1.04545455,2.18181818 L1.04545455,26.1818182 C1.04545455,27.1100394 1.79905147,27.8636364 2.72727273,27.8636364 L21.2727273,27.8636364 C22.2009485,27.8636364 22.9545455,27.1100394 22.9545455,26.1818182 L22.9545455,8.01694542 L15.43655,0.5 Z" id="Shape" stroke="#4A90E2" fill="#4A90E2"></path>
                <polygon id="Shape" fill="#000000" opacity="0.1" points="16.2610909 7.188 23.4545455 14.3749091 23.4545455 7.82945455 16.2610909 0.642545455"></polygon>
                <path d="M15.6436364,0 L15.624,5.64763636 C15.624,6.852 16.6014545,7.82945455 17.8058182,7.82945455 L23.4545455,7.80981818 L15.6436364,0 L15.6436364,0 Z" id="Shape" fill="#98BBE4"></path>
            </g>
        </g>
        <path d="M9.25878906,23 L9.25878906,14.4101562 L12.4990234,14.4101562 C13.0693388,14.4101562 13.5048813,14.4374997 13.8056641,14.4921875 C14.2275412,14.5625004 14.5810533,14.6962881 14.8662109,14.8935547 C15.1513686,15.0908213 15.3808585,15.3671857 15.5546875,15.7226562 C15.7285165,16.0781268 15.8154297,16.4687479 15.8154297,16.8945312 C15.8154297,17.6250037 15.5830101,18.2431615 15.1181641,18.7490234 C14.653318,19.2548853 13.8134826,19.5078125 12.5986328,19.5078125 L10.3955078,19.5078125 L10.3955078,23 L9.25878906,23 Z M10.3955078,18.4941406 L12.6162109,18.4941406 C13.3505896,18.4941406 13.8720688,18.3574232 14.1806641,18.0839844 C14.4892594,17.8105455 14.6435547,17.4257837 14.6435547,16.9296875 C14.6435547,16.5703107 14.5527353,16.2626966 14.3710938,16.0068359 C14.1894522,15.7509753 13.9501968,15.5820317 13.6533203,15.5 C13.4619131,15.4492185 13.108401,15.4238281 12.5927734,15.4238281 L10.3955078,15.4238281 L10.3955078,18.4941406 Z M17.3212891,23 L17.3212891,14.4101562 L23.1162109,14.4101562 L23.1162109,15.4238281 L18.4580078,15.4238281 L18.4580078,18.0839844 L22.4892578,18.0839844 L22.4892578,19.0976562 L18.4580078,19.0976562 L18.4580078,23 L17.3212891,23 Z" id="PF" fill="#FFFFFF"></path>
    </g>
</svg>