<?xml version="1.0" encoding="UTF-8"?>
<svg width="32px" height="32px" viewBox="0 0 32 32" version="1.1" xmlns="http://www.w3.org/2000/svg" xmlns:xlink="http://www.w3.org/1999/xlink">
    <!-- Generator: Sketch 53.2 (72643) - https://sketchapp.com -->
    <title>File_CSS</title>
    <desc>Created with Sketch.</desc>
    <g id="File_CSS" stroke="none" stroke-width="1" fill="none" fill-rule="evenodd">
        <g id="file" transform="translate(4.000000, 2.000000)">
            <g id="Group">
                <path d="M15.43655,0.5 L2.72727273,0.5 C1.79905147,0.5 1.04545455,1.25359692 1.04545455,2.18181818 L1.04545455,26.1818182 C1.04545455,27.1100394 1.79905147,27.8636364 2.72727273,27.8636364 L21.2727273,27.8636364 C22.2009485,27.8636364 22.9545455,27.1100394 22.9545455,26.1818182 L22.9545455,8.01694542 L15.43655,0.5 Z" id="Shape" stroke="#E66434" fill="#E66434"></path>
                <polygon id="Shape" fill="#000000" opacity="0.1" points="16.2610909 7.188 23.4545455 14.3749091 23.4545455 7.82945455 16.2610909 0.642545455"></polygon>
                <path d="M15.6436364,0 L15.624,5.64763636 C15.624,6.852 16.6014545,7.82945455 17.8058182,7.82945455 L23.4545455,7.80981818 L15.6436364,0 L15.6436364,0 Z" id="Shape" fill="#E8A994"></path>
            </g>
        </g>
        <path d="M11.5981445,20.4902344 L12.5454102,20.7294922 C12.3468415,21.5074909 11.9895859,22.1007467 11.4736328,22.5092773 C10.9576797,22.917808 10.3269894,23.1220703 9.58154297,23.1220703 C8.81005474,23.1220703 8.1826196,22.9650081 7.69921875,22.6508789 C7.2158179,22.3367497 6.84798303,21.8818389 6.59570312,21.2861328 C6.34342322,20.6904267 6.21728516,20.0507847 6.21728516,19.3671875 C6.21728516,18.6217411 6.3596991,17.9715197 6.64453125,17.4165039 C6.9293634,16.8614881 7.33463279,16.4399428 7.86035156,16.1518555 C8.38607034,15.8637681 8.96467783,15.7197266 9.59619141,15.7197266 C10.3123408,15.7197266 10.9145483,15.9020164 11.402832,16.2666016 C11.8911157,16.6311867 12.2312816,17.1438769 12.4233398,17.8046875 L11.4907227,18.0244141 C11.3247062,17.5035781 11.0838232,17.1243501 10.7680664,16.8867188 C10.4523096,16.6490874 10.0551782,16.5302734 9.57666016,16.5302734 C9.0265272,16.5302734 8.56673362,16.6621081 8.19726562,16.9257812 C7.82779763,17.1894544 7.56819736,17.5434548 7.41845703,17.987793 C7.2687167,18.4321311 7.19384766,18.8902971 7.19384766,19.3623047 C7.19384766,19.9710317 7.2825512,20.5024391 7.45996094,20.956543 C7.63737068,21.4106468 7.91324683,21.7499989 8.28759766,21.9746094 C8.66194849,22.1992199 9.06721787,22.3115234 9.50341797,22.3115234 C10.0340196,22.3115234 10.4832338,22.1585302 10.8510742,21.8525391 C11.2189146,21.5465479 11.4679355,21.0924509 11.5981445,20.4902344 Z M13.3901367,20.7001953 L14.2836914,20.6220703 C14.3260093,20.980145 14.4244784,21.2739246 14.5791016,21.503418 C14.7337247,21.7329113 14.9737939,21.9184563 15.2993164,22.0600586 C15.6248389,22.2016609 15.9910461,22.2724609 16.3979492,22.2724609 C16.7592792,22.2724609 17.0782864,22.2187505 17.3549805,22.1113281 C17.6316746,22.0039057 17.8375644,21.856609 17.9726562,21.6694336 C18.1077481,21.4822582 18.175293,21.2779959 18.175293,21.0566406 C18.175293,20.8320301 18.1101895,20.6359058 17.9799805,20.4682617 C17.8497715,20.3006177 17.6349299,20.1598313 17.3354492,20.0458984 C17.143391,19.9710283 16.7185905,19.8546557 16.0610352,19.6967773 C15.4034798,19.538899 14.9428724,19.3899747 14.6791992,19.25 C14.3374006,19.0709626 14.0826831,18.8487969 13.9150391,18.5834961 C13.747395,18.3181953 13.6635742,18.0211605 13.6635742,17.6923828 C13.6635742,17.3310529 13.7661123,16.9933284 13.9711914,16.6791992 C14.1762706,16.36507 14.4757467,16.1266284 14.8696289,15.9638672 C15.2635111,15.801106 15.7013322,15.7197266 16.1831055,15.7197266 C16.7137071,15.7197266 17.1816386,15.8051749 17.5869141,15.9760742 C17.9921895,16.1469735 18.3038726,16.3984358 18.5219727,16.7304688 C18.7400727,17.0625017 18.857259,17.4384745 18.8735352,17.8583984 L17.965332,17.9267578 C17.9165037,17.4742816 17.7513035,17.1324881 17.4697266,16.9013672 C17.1881496,16.6702462 16.7723009,16.5546875 16.222168,16.5546875 C15.6492484,16.5546875 15.2317721,16.6596669 14.9697266,16.8696289 C14.707681,17.0795909 14.5766602,17.3326808 14.5766602,17.6289062 C14.5766602,17.886069 14.6694327,18.0976554 14.8549805,18.2636719 C15.037273,18.4296883 15.5133425,18.5997713 16.2832031,18.7739258 C17.0530637,18.9480803 17.581216,19.1002598 17.8676758,19.2304688 C18.2843445,19.422527 18.5919586,19.6658514 18.7905273,19.9604492 C18.989096,20.255047 19.0883789,20.5943991 19.0883789,20.9785156 C19.0883789,21.3593769 18.9793305,21.71826 18.7612305,22.0551758 C18.5431304,22.3920915 18.2298198,22.6541332 17.8212891,22.8413086 C17.4127584,23.028484 16.9529648,23.1220703 16.4418945,23.1220703 C15.7941048,23.1220703 15.2513043,23.0276702 14.8134766,22.8388672 C14.3756489,22.6500642 14.0322278,22.3660501 13.7832031,21.9868164 C13.5341784,21.6075827 13.4031576,21.1787133 13.3901367,20.7001953 Z M20.0600586,20.7001953 L20.9536133,20.6220703 C20.9959312,20.980145 21.0944003,21.2739246 21.2490234,21.503418 C21.4036466,21.7329113 21.6437158,21.9184563 21.9692383,22.0600586 C22.2947607,22.2016609 22.660968,22.2724609 23.0678711,22.2724609 C23.429201,22.2724609 23.7482083,22.2187505 24.0249023,22.1113281 C24.3015964,22.0039057 24.5074863,21.856609 24.6425781,21.6694336 C24.7776699,21.4822582 24.8452148,21.2779959 24.8452148,21.0566406 C24.8452148,20.8320301 24.7801113,20.6359058 24.6499023,20.4682617 C24.5196934,20.3006177 24.3048518,20.1598313 24.0053711,20.0458984 C23.8133128,19.9710283 23.3885124,19.8546557 22.730957,19.6967773 C22.0734017,19.538899 21.6127943,19.3899747 21.3491211,19.25 C21.0073225,19.0709626 20.752605,18.8487969 20.5849609,18.5834961 C20.4173169,18.3181953 20.3334961,18.0211605 20.3334961,17.6923828 C20.3334961,17.3310529 20.4360341,16.9933284 20.6411133,16.6791992 C20.8461924,16.36507 21.1456686,16.1266284 21.5395508,15.9638672 C21.933433,15.801106 22.3712541,15.7197266 22.8530273,15.7197266 C23.383629,15.7197266 23.8515605,15.8051749 24.2568359,15.9760742 C24.6621114,16.1469735 24.9737945,16.3984358 25.1918945,16.7304688 C25.4099946,17.0625017 25.5271809,17.4384745 25.543457,17.8583984 L24.6352539,17.9267578 C24.5864255,17.4742816 24.4212254,17.1324881 24.1396484,16.9013672 C23.8580715,16.6702462 23.4422228,16.5546875 22.8920898,16.5546875 C22.3191703,16.5546875 21.901694,16.6596669 21.6396484,16.8696289 C21.3776029,17.0795909 21.246582,17.3326808 21.246582,17.6289062 C21.246582,17.886069 21.3393545,18.0976554 21.5249023,18.2636719 C21.7071949,18.4296883 22.1832644,18.5997713 22.953125,18.7739258 C23.7229856,18.9480803 24.2511379,19.1002598 24.5375977,19.2304688 C24.9542664,19.422527 25.2618805,19.6658514 25.4604492,19.9604492 C25.6590179,20.255047 25.7583008,20.5943991 25.7583008,20.9785156 C25.7583008,21.3593769 25.6492524,21.71826 25.4311523,22.0551758 C25.2130523,22.3920915 24.8997416,22.6541332 24.4912109,22.8413086 C24.0826802,23.028484 23.6228867,23.1220703 23.1118164,23.1220703 C22.4640267,23.1220703 21.9212261,23.0276702 21.4833984,22.8388672 C21.0455707,22.6500642 20.7021497,22.3660501 20.453125,21.9868164 C20.2041003,21.6075827 20.0730795,21.1787133 20.0600586,20.7001953 Z" id="CSS" fill="#FFFFFF"></path>
    </g>
</svg>