<?xml version="1.0" encoding="UTF-8"?>
<svg width="32px" height="32px" viewBox="0 0 32 32" version="1.1" xmlns="http://www.w3.org/2000/svg" xmlns:xlink="http://www.w3.org/1999/xlink">
    <!-- Generator: Sketch 53.2 (72643) - https://sketchapp.com -->
    <title>File_DDL</title>
    <desc>Created with Sketch.</desc>
    <g id="File_DDL" stroke="none" stroke-width="1" fill="none" fill-rule="evenodd">
        <g id="file" transform="translate(4.000000, 2.000000)">
            <g id="Group">
                <path d="M15.43655,0.5 L2.72727273,0.5 C1.79905147,0.5 1.04545455,1.25359692 1.04545455,2.18181818 L1.04545455,26.1818182 C1.04545455,27.1100394 1.79905147,27.8636364 2.72727273,27.8636364 L21.2727273,27.8636364 C22.2009485,27.8636364 22.9545455,27.1100394 22.9545455,26.1818182 L22.9545455,8.01694542 L15.43655,0.5 Z" id="Shape" stroke="#4A90E2" fill="#4A90E2"></path>
                <polygon id="Shape" fill="#000000" opacity="0.1" points="16.2610909 7.188 23.4545455 14.3749091 23.4545455 7.82945455 16.2610909 0.642545455"></polygon>
                <path d="M15.6436364,0 L15.624,5.64763636 C15.624,6.852 16.6014545,7.82945455 17.8058182,7.82945455 L23.4545455,7.80981818 L15.6436364,0 L15.6436364,0 Z" id="Shape" fill="#98BBE4"></path>
            </g>
        </g>
        <path d="M6.76904297,23 L6.76904297,15.8417969 L9.23486328,15.8417969 C9.79150669,15.8417969 10.2163071,15.8759762 10.5092773,15.9443359 C10.9194356,16.0387375 11.269367,16.2096342 11.559082,16.4570312 C11.9366881,16.7760433 12.2190746,17.183754 12.40625,17.6801758 C12.5934254,18.1765975 12.6870117,18.7438119 12.6870117,19.3818359 C12.6870117,19.9254584 12.6235358,20.4072245 12.496582,20.8271484 C12.3696283,21.2470724 12.2068695,21.5945624 12.0083008,21.8696289 C11.8097321,22.1446954 11.5924491,22.3611646 11.3564453,22.519043 C11.1204415,22.6769214 10.8356136,22.7965491 10.5019531,22.8779297 C10.1682926,22.9593103 9.78499565,23 9.35205078,23 L6.76904297,23 Z M7.71630859,22.1552734 L9.24462891,22.1552734 C9.71663647,22.1552734 10.0869127,22.1113286 10.3554688,22.0234375 C10.6240248,21.9355464 10.8380526,21.8118498 10.9975586,21.6523438 C11.2221691,21.4277333 11.3971348,21.1258157 11.5224609,20.746582 C11.6477871,20.3673484 11.7104492,19.9075548 11.7104492,19.3671875 C11.7104492,18.6184858 11.5875663,18.0431335 11.3417969,17.6411133 C11.0960274,17.239093 10.797365,16.9697272 10.4458008,16.8330078 C10.1918933,16.7353511 9.7833687,16.6865234 9.22021484,16.6865234 L7.71630859,16.6865234 L7.71630859,22.1552734 Z M13.9907227,23 L13.9907227,15.8417969 L16.456543,15.8417969 C17.0131864,15.8417969 17.4379868,15.8759762 17.730957,15.9443359 C18.1411153,16.0387375 18.4910467,16.2096342 18.7807617,16.4570312 C19.1583678,16.7760433 19.4407543,17.183754 19.6279297,17.6801758 C19.8151051,18.1765975 19.9086914,18.7438119 19.9086914,19.3818359 C19.9086914,19.9254584 19.8452155,20.4072245 19.7182617,20.8271484 C19.591308,21.2470724 19.4285492,21.5945624 19.2299805,21.8696289 C19.0314118,22.1446954 18.8141288,22.3611646 18.578125,22.519043 C18.3421212,22.6769214 18.0572933,22.7965491 17.7236328,22.8779297 C17.3899723,22.9593103 17.0066753,23 16.5737305,23 L13.9907227,23 Z M14.9379883,22.1552734 L16.4663086,22.1552734 C16.9383162,22.1552734 17.3085924,22.1113286 17.5771484,22.0234375 C17.8457045,21.9355464 18.0597323,21.8118498 18.2192383,21.6523438 C18.4438488,21.4277333 18.6188145,21.1258157 18.7441406,20.746582 C18.8694668,20.3673484 18.9321289,19.9075548 18.9321289,19.3671875 C18.9321289,18.6184858 18.809246,18.0431335 18.5634766,17.6411133 C18.3177071,17.239093 18.0190447,16.9697272 17.6674805,16.8330078 C17.4135729,16.7353511 17.0050484,16.6865234 16.4418945,16.6865234 L14.9379883,16.6865234 L14.9379883,22.1552734 Z M21.1733398,23 L21.1733398,15.8417969 L22.1206055,15.8417969 L22.1206055,22.1552734 L25.6459961,22.1552734 L25.6459961,23 L21.1733398,23 Z" id="DDL" fill="#FFFFFF"></path>
    </g>
</svg>