<?xml version="1.0" encoding="UTF-8"?>
<svg width="32px" height="32px" viewBox="0 0 32 32" version="1.1" xmlns="http://www.w3.org/2000/svg" xmlns:xlink="http://www.w3.org/1999/xlink">
    <!-- Generator: Sketch 53.2 (72643) - https://sketchapp.com -->
    <title>File_ASAX</title>
    <desc>Created with Sketch.</desc>
    <g id="File_ASAX" stroke="none" stroke-width="1" fill="none" fill-rule="evenodd">
        <g id="file" transform="translate(4.000000, 2.000000)">
            <g id="Group">
                <path d="M15.43655,0.5 L2.72727273,0.5 C1.79905147,0.5 1.04545455,1.25359692 1.04545455,2.18181818 L1.04545455,26.1818182 C1.04545455,27.1100394 1.79905147,27.8636364 2.72727273,27.8636364 L21.2727273,27.8636364 C22.2009485,27.8636364 22.9545455,27.1100394 22.9545455,26.1818182 L22.9545455,8.01694542 L15.43655,0.5 Z" id="Shape" stroke="#4A90E2" fill="#4A90E2"></path>
                <polygon id="Shape" fill="#000000" opacity="0.1" points="16.2610909 7.188 23.4545455 14.3749091 23.4545455 7.82945455 16.2610909 0.642545455"></polygon>
                <path d="M15.6436364,0 L15.624,5.64763636 C15.624,6.852 16.6014545,7.82945455 17.8058182,7.82945455 L23.4545455,7.80981818 L15.6436364,0 L15.6436364,0 Z" id="Shape" fill="#95BCEA"></path>
            </g>
        </g>
        <path d="M5.31640625,22 L7.515625,16.2734375 L8.33203125,16.2734375 L10.6757812,22 L9.8125,22 L9.14453125,20.265625 L6.75,20.265625 L6.12109375,22 L5.31640625,22 Z M6.96875,19.6484375 L8.91015625,19.6484375 L8.3125,18.0625 C8.13020742,17.5807268 7.99479211,17.1848974 7.90625,16.875 C7.83333297,17.2421893 7.73046941,17.606769 7.59765625,17.96875 L6.96875,19.6484375 Z M11.0234375,20.1601562 L11.7382812,20.0976562 C11.7721356,20.384116 11.8509108,20.6191397 11.9746094,20.8027344 C12.0983079,20.986329 12.2903633,21.1347651 12.5507812,21.2480469 C12.8111992,21.3613287 13.104165,21.4179688 13.4296875,21.4179688 C13.7187514,21.4179688 13.9739572,21.3750004 14.1953125,21.2890625 C14.4166678,21.2031246 14.5813797,21.0852872 14.6894531,20.9355469 C14.7975266,20.7858065 14.8515625,20.6223967 14.8515625,20.4453125 C14.8515625,20.2656241 14.7994797,20.1087246 14.6953125,19.9746094 C14.5911453,19.8404941 14.419272,19.727865 14.1796875,19.6367188 C14.0260409,19.5768226 13.6862005,19.4837246 13.1601562,19.3574219 C12.634112,19.2311192 12.2656261,19.1119797 12.0546875,19 C11.7812486,18.8567701 11.5774746,18.6790375 11.4433594,18.4667969 C11.3092441,18.2545562 11.2421875,18.0169284 11.2421875,17.7539062 C11.2421875,17.4648423 11.3242179,17.1946627 11.4882812,16.9433594 C11.6523446,16.692056 11.8919255,16.5013027 12.2070312,16.3710938 C12.522137,16.2408848 12.8723939,16.1757812 13.2578125,16.1757812 C13.6822938,16.1757812 14.056639,16.2441399 14.3808594,16.3808594 C14.7050797,16.5175788 14.9544262,16.7187487 15.1289062,16.984375 C15.3033863,17.2500013 15.3971354,17.5507796 15.4101562,17.8867188 L14.6835938,17.9414062 C14.6445311,17.5794253 14.5123709,17.3059905 14.2871094,17.1210938 C14.0618478,16.936197 13.7291689,16.84375 13.2890625,16.84375 C12.8307269,16.84375 12.4967458,16.9277335 12.2871094,17.0957031 C12.0774729,17.2636727 11.9726562,17.4661446 11.9726562,17.703125 C11.9726562,17.9088552 12.0468743,18.0781243 12.1953125,18.2109375 C12.3411466,18.3437507 12.7220021,18.479817 13.3378906,18.6191406 C13.9537791,18.7584642 14.3763009,18.8802078 14.6054688,18.984375 C14.9388037,19.1380216 15.184895,19.3326811 15.34375,19.5683594 C15.502605,19.8040376 15.5820312,20.0755193 15.5820312,20.3828125 C15.5820312,20.6875015 15.4947925,20.974608 15.3203125,21.2441406 C15.1458325,21.5136732 14.8951839,21.7233065 14.5683594,21.8730469 C14.2415348,22.0227872 13.8737,22.0976562 13.4648438,22.0976562 C12.946612,22.0976562 12.5123715,22.0221362 12.1621094,21.8710938 C11.8118472,21.7200513 11.5371104,21.4928401 11.3378906,21.1894531 C11.1386709,20.8860662 11.0338542,20.5429707 11.0234375,20.1601562 Z M15.9882812,22 L18.1875,16.2734375 L19.0039062,16.2734375 L21.3476562,22 L20.484375,22 L19.8164062,20.265625 L17.421875,20.265625 L16.7929688,22 L15.9882812,22 Z M17.640625,19.6484375 L19.5820312,19.6484375 L18.984375,18.0625 C18.8020824,17.5807268 18.6666671,17.1848974 18.578125,16.875 C18.505208,17.2421893 18.4023444,17.606769 18.2695312,17.96875 L17.640625,19.6484375 Z M21.3710938,22 L23.5859375,19.015625 L21.6328125,16.2734375 L22.5351562,16.2734375 L23.5742188,17.7421875 C23.7903657,18.0468765 23.94401,18.2812492 24.0351562,18.4453125 C24.1627611,18.2369781 24.3138012,18.0195324 24.4882812,17.7929688 L25.640625,16.2734375 L26.4648438,16.2734375 L24.453125,18.9726562 L26.6210938,22 L25.6835938,22 L24.2421875,19.9570312 C24.1614579,19.8398432 24.0781254,19.7122403 23.9921875,19.5742188 C23.8645827,19.7825531 23.7734378,19.9257809 23.71875,20.0039062 L22.28125,22 L21.3710938,22 Z" id="ASAX" fill="#FFFFFF"></path>
    </g>
</svg>