<?xml version="1.0" encoding="UTF-8"?>
<svg width="32px" height="32px" viewBox="0 0 32 32" version="1.1" xmlns="http://www.w3.org/2000/svg" xmlns:xlink="http://www.w3.org/1999/xlink">
    <!-- Generator: Sketch 61.2 (89653) - https://sketch.com -->
    <title>File_Kotlin</title>
    <desc>Created with Sketch.</desc>
    <g id="File_Kotlin" stroke="none" stroke-width="1" fill="none" fill-rule="evenodd">
        <g id="file" transform="translate(4.000000, 2.000000)">
            <g id="Group">
                <path d="M15.43655,0.5 L2.72727273,0.5 C1.79905147,0.5 1.04545455,1.25359692 1.04545455,2.18181818 L1.04545455,26.1818182 C1.04545455,27.1100394 1.79905147,27.8636364 2.72727273,27.8636364 L21.2727273,27.8636364 C22.2009485,27.8636364 22.9545455,27.1100394 22.9545455,26.1818182 L22.9545455,8.01694542 L15.43655,0.5 Z" id="Shape" stroke="#227D11" fill="#227D11"></path>
                <polygon id="Shape" fill="#000000" opacity="0.2" points="16.2610909 7.188 23.4545455 14.3749091 23.4545455 7.82945455 16.2610909 0.642545455"></polygon>
                <path d="M15.6436364,0 L15.624,5.64763636 C15.624,6.852 16.6014545,7.82945455 17.8058182,7.82945455 L23.4545455,7.80981818 L15.6436364,0 L15.6436364,0 Z" id="Shape" fill="#ACE5A1"></path>
            </g>
        </g>
        <path d="M9.40673828,24 L9.40673828,20.5273438 L11.0473633,18.9277344 L14.6157227,24 L16.3657227,24 L11.9770508,18.0390625 L16.1811523,13.9785156 L14.3833008,13.9785156 L9.40673828,18.9482422 L9.40673828,13.9785156 L8.08056641,13.9785156 L8.08056641,24 L9.40673828,24 Z M21.3491211,24 L21.3491211,15.1611328 L24.6645508,15.1611328 L24.6645508,13.9785156 L16.7211914,13.9785156 L16.7211914,15.1611328 L20.0229492,15.1611328 L20.0229492,24 L21.3491211,24 Z" id="KT" fill="#FFFFFF" fill-rule="nonzero"></path>
    </g>
</svg>