<?xml version="1.0" encoding="UTF-8"?>
<svg width="32px" height="32px" viewBox="0 0 32 32" version="1.1" xmlns="http://www.w3.org/2000/svg" xmlns:xlink="http://www.w3.org/1999/xlink">
    <!-- Generator: Sketch 53.2 (72643) - https://sketchapp.com -->
    <title>File_Header</title>
    <desc>Created with Sketch.</desc>
    <g id="File_Header" stroke="none" stroke-width="1" fill="none" fill-rule="evenodd">
        <g id="file" transform="translate(4.000000, 2.000000)">
            <g id="Group">
                <path d="M15.43655,0.5 L2.72727273,0.5 C1.79905147,0.5 1.04545455,1.25359692 1.04545455,2.18181818 L1.04545455,26.1818182 C1.04545455,27.1100394 1.79905147,27.8636364 2.72727273,27.8636364 L21.2727273,27.8636364 C22.2009485,27.8636364 22.9545455,27.1100394 22.9545455,26.1818182 L22.9545455,8.01694542 L15.43655,0.5 Z" id="Shape" stroke="#4A90E2" fill="#FFFFFF"></path>
                <polygon id="Shape" fill="#000000" opacity="0.1" points="16.2610909 7.188 23.4545455 14.3749091 23.4545455 7.82945455 16.2610909 0.642545455"></polygon>
                <path d="M15.6436364,0 L15.624,5.64763636 C15.624,6.852 16.6014545,7.82945455 17.8058182,7.82945455 L23.4545455,7.80981818 L15.6436364,0 L15.6436364,0 Z" id="Shape" fill="#1669C9"></path>
            </g>
        </g>
        <path d="M13.1054688,22 L13.1054688,10.546875 L14.5117188,10.546875 L14.5117188,14.65625 C15.167972,13.8958295 15.9960887,13.515625 16.9960938,13.515625 C17.6106802,13.515625 18.144529,13.6367175 18.5976562,13.8789062 C19.0507835,14.121095 19.374999,14.455727 19.5703125,14.8828125 C19.765626,15.309898 19.8632812,15.9296834 19.8632812,16.7421875 L19.8632812,22 L18.4570312,22 L18.4570312,16.7421875 C18.4570312,16.039059 18.304689,15.5273454 18,15.2070312 C17.695311,14.8867171 17.2643257,14.7265625 16.7070312,14.7265625 C16.2903625,14.7265625 15.8984393,14.8346343 15.53125,15.0507812 C15.1640607,15.2669282 14.9023445,15.559894 14.7460938,15.9296875 C14.589843,16.299481 14.5117188,16.8098926 14.5117188,17.4609375 L14.5117188,22 L13.1054688,22 Z" id="h" fill="#4A90E2"></path>
    </g>
</svg>