<?xml version="1.0" encoding="UTF-8"?>
<svg width="32px" height="32px" viewBox="0 0 32 32" version="1.1" xmlns="http://www.w3.org/2000/svg" xmlns:xlink="http://www.w3.org/1999/xlink">
    <!-- Generator: Sketch 53.2 (72643) - https://sketchapp.com -->
    <title>File_SQL</title>
    <desc>Created with Sketch.</desc>
    <g id="File_SQL" stroke="none" stroke-width="1" fill="none" fill-rule="evenodd">
        <g id="file" transform="translate(4.000000, 2.000000)">
            <g id="Group">
                <path d="M15.43655,0.5 L2.72727273,0.5 C1.79905147,0.5 1.04545455,1.25359692 1.04545455,2.18181818 L1.04545455,26.1818182 C1.04545455,27.1100394 1.79905147,27.8636364 2.72727273,27.8636364 L21.2727273,27.8636364 C22.2009485,27.8636364 22.9545455,27.1100394 22.9545455,26.1818182 L22.9545455,8.01694542 L15.43655,0.5 Z" id="Shape" stroke="#4A90E2" fill="#4A90E2"></path>
                <polygon id="Shape" fill="#000000" opacity="0.1" points="16.2610909 7.188 23.4545455 14.3749091 23.4545455 7.82945455 16.2610909 0.642545455"></polygon>
                <path d="M15.6436364,0 L15.624,5.64763636 C15.624,6.852 16.6014545,7.82945455 17.8058182,7.82945455 L23.4545455,7.80981818 L15.6436364,0 L15.6436364,0 Z" id="Shape" fill="#98BBE4"></path>
            </g>
        </g>
        <path d="M6.44433594,20.7001953 L7.33789062,20.6220703 C7.38020854,20.980145 7.47867761,21.2739246 7.63330078,21.503418 C7.78792395,21.7329113 8.02799316,21.9184563 8.35351562,22.0600586 C8.67903809,22.2016609 9.04524536,22.2724609 9.45214844,22.2724609 C9.81347837,22.2724609 10.1324856,22.2187505 10.4091797,22.1113281 C10.6858738,22.0039057 10.8917636,21.856609 11.0268555,21.6694336 C11.1619473,21.4822582 11.2294922,21.2779959 11.2294922,21.0566406 C11.2294922,20.8320301 11.1643887,20.6359058 11.0341797,20.4682617 C10.9039707,20.3006177 10.6891291,20.1598313 10.3896484,20.0458984 C10.1975902,19.9710283 9.77278975,19.8546557 9.11523438,19.6967773 C8.457679,19.538899 7.99707163,19.3899747 7.73339844,19.25 C7.39159985,19.0709626 7.13688235,18.8487969 6.96923828,18.5834961 C6.80159421,18.3181953 6.71777344,18.0211605 6.71777344,17.6923828 C6.71777344,17.3310529 6.82031147,16.9933284 7.02539062,16.6791992 C7.23046978,16.36507 7.52994595,16.1266284 7.92382812,15.9638672 C8.3177103,15.801106 8.75553145,15.7197266 9.23730469,15.7197266 C9.7679063,15.7197266 10.2358378,15.8051749 10.6411133,15.9760742 C11.0463887,16.1469735 11.3580718,16.3984358 11.5761719,16.7304688 C11.7942719,17.0625017 11.9114583,17.4384745 11.9277344,17.8583984 L11.0195312,17.9267578 C10.9707029,17.4742816 10.8055027,17.1324881 10.5239258,16.9013672 C10.2423489,16.6702462 9.82650015,16.5546875 9.27636719,16.5546875 C8.70344766,16.5546875 8.28597136,16.6596669 8.02392578,16.8696289 C7.7618802,17.0795909 7.63085938,17.3326808 7.63085938,17.6289062 C7.63085938,17.886069 7.72363188,18.0976554 7.90917969,18.2636719 C8.09147227,18.4296883 8.56754172,18.5997713 9.33740234,18.7739258 C10.107263,18.9480803 10.6354152,19.1002598 10.921875,19.2304688 C11.3385437,19.422527 11.6461579,19.6658514 11.8447266,19.9604492 C12.0432953,20.255047 12.1425781,20.5943991 12.1425781,20.9785156 C12.1425781,21.3593769 12.0335297,21.71826 11.8154297,22.0551758 C11.5973296,22.3920915 11.284019,22.6541332 10.8754883,22.8413086 C10.4669576,23.028484 10.007164,23.1220703 9.49609375,23.1220703 C8.84830405,23.1220703 8.30550349,23.0276702 7.86767578,22.8388672 C7.42984807,22.6500642 7.08642703,22.3660501 6.83740234,21.9868164 C6.58837766,21.6075827 6.45735684,21.1787133 6.44433594,20.7001953 Z M18.8613281,22.2333984 C19.3007834,22.5361343 19.7060528,22.7574863 20.0771484,22.8974609 L19.7988281,23.5566406 C19.2845026,23.3710928 18.7718125,23.078127 18.2607422,22.6777344 C17.7301406,22.9739598 17.1442089,23.1220703 16.5029297,23.1220703 C15.85514,23.1220703 15.2675808,22.9658219 14.7402344,22.6533203 C14.212888,22.3408188 13.8068048,21.90137 13.5219727,21.3349609 C13.2371405,20.7685519 13.0947266,20.1305374 13.0947266,19.4208984 C13.0947266,18.7145147 13.2379543,18.0716175 13.5244141,17.4921875 C13.8108738,16.9127575 14.2185846,16.4716812 14.7475586,16.1689453 C15.2765326,15.8662094 15.8681608,15.7148438 16.5224609,15.7148438 C17.1832715,15.7148438 17.7789687,15.871906 18.3095703,16.1860352 C18.8401719,16.5001643 19.2446275,16.9396131 19.5229492,17.5043945 C19.8012709,18.069176 19.9404297,18.7063767 19.9404297,19.4160156 C19.9404297,20.0052113 19.8509124,20.5349911 19.671875,21.0053711 C19.4928376,21.475751 19.2226581,21.8850894 18.8613281,22.2333984 Z M16.7763672,21.0224609 C17.3232449,21.1754565 17.7740868,21.4033188 18.1289062,21.7060547 C18.6855497,21.1982396 18.9638672,20.4349009 18.9638672,19.4160156 C18.9638672,18.8365856 18.8653981,18.3304058 18.668457,17.8974609 C18.4715159,17.4645161 18.1834329,17.1284192 17.8041992,16.8891602 C17.4249656,16.6499011 16.9993513,16.5302734 16.5273438,16.5302734 C15.82096,16.5302734 15.2350284,16.7719702 14.7695312,17.2553711 C14.3040341,17.7387719 14.0712891,18.4606072 14.0712891,19.4208984 C14.0712891,20.3518927 14.3015927,21.0664038 14.762207,21.5644531 C15.2228213,22.0625025 15.8111943,22.3115234 16.5273438,22.3115234 C16.8658871,22.3115234 17.1848943,22.2480475 17.484375,22.1210938 C17.1881496,21.9290355 16.8756527,21.7923181 16.546875,21.7109375 L16.7763672,21.0224609 Z M21.1757812,23 L21.1757812,15.8417969 L22.1230469,15.8417969 L22.1230469,22.1552734 L25.6484375,22.1552734 L25.6484375,23 L21.1757812,23 Z" id="SQL" fill="#FFFFFF"></path>
    </g>
</svg>