<?xml version="1.0" encoding="UTF-8"?>
<svg width="32px" height="32px" viewBox="0 0 32 32" version="1.1" xmlns="http://www.w3.org/2000/svg" xmlns:xlink="http://www.w3.org/1999/xlink">
    <!-- Generator: Sketch 53.2 (72643) - https://sketchapp.com -->
    <title>File_ASA</title>
    <desc>Created with Sketch.</desc>
    <g id="File_ASA" stroke="none" stroke-width="1" fill="none" fill-rule="evenodd">
        <g id="file" transform="translate(4.000000, 2.000000)">
            <g id="Group">
                <path d="M15.43655,0.5 L2.72727273,0.5 C1.79905147,0.5 1.04545455,1.25359692 1.04545455,2.18181818 L1.04545455,26.1818182 C1.04545455,27.1100394 1.79905147,27.8636364 2.72727273,27.8636364 L21.2727273,27.8636364 C22.2009485,27.8636364 22.9545455,27.1100394 22.9545455,26.1818182 L22.9545455,8.01694542 L15.43655,0.5 Z" id="Shape" stroke="#4A90E2" fill="#4A90E2"></path>
                <polygon id="Shape" fill="#000000" opacity="0.1" points="16.2610909 7.188 23.4545455 14.3749091 23.4545455 7.82945455 16.2610909 0.642545455"></polygon>
                <path d="M15.6436364,0 L15.624,5.64763636 C15.624,6.852 16.6014545,7.82945455 17.8058182,7.82945455 L23.4545455,7.80981818 L15.6436364,0 L15.6436364,0 Z" id="Shape" fill="#95BCEA"></path>
            </g>
        </g>
        <path d="M5.98046875,22 L8.72949219,14.8417969 L9.75,14.8417969 L12.6796875,22 L11.6005859,22 L10.765625,19.8320312 L7.77246094,19.8320312 L6.98632812,22 L5.98046875,22 Z M8.04589844,19.0605469 L10.4726562,19.0605469 L9.72558594,17.078125 C9.49772021,16.4759084 9.32845107,15.9811217 9.21777344,15.59375 C9.12662715,16.0527367 8.99804771,16.5084613 8.83203125,16.9609375 L8.04589844,19.0605469 Z M13.1142578,19.7001953 L14.0078125,19.6220703 C14.0501304,19.980145 14.1485995,20.2739246 14.3032227,20.503418 C14.4578458,20.7329113 14.697915,20.9184563 15.0234375,21.0600586 C15.34896,21.2016609 15.7151672,21.2724609 16.1220703,21.2724609 C16.4834002,21.2724609 16.8024075,21.2187505 17.0791016,21.1113281 C17.3557957,21.0039057 17.5616855,20.856609 17.6967773,20.6694336 C17.8318692,20.4822582 17.8994141,20.2779959 17.8994141,20.0566406 C17.8994141,19.8320301 17.8343105,19.6359058 17.7041016,19.4682617 C17.5738926,19.3006177 17.359051,19.1598313 17.0595703,19.0458984 C16.8675121,18.9710283 16.4427116,18.8546557 15.7851562,18.6967773 C15.1276009,18.538899 14.6669935,18.3899747 14.4033203,18.25 C14.0615217,18.0709626 13.8068042,17.8487969 13.6391602,17.5834961 C13.4715161,17.3181953 13.3876953,17.0211605 13.3876953,16.6923828 C13.3876953,16.3310529 13.4902333,15.9933284 13.6953125,15.6791992 C13.9003917,15.36507 14.1998678,15.1266284 14.59375,14.9638672 C14.9876322,14.801106 15.4254533,14.7197266 15.9072266,14.7197266 C16.4378282,14.7197266 16.9057597,14.8051749 17.3110352,14.9760742 C17.7163106,15.1469735 18.0279937,15.3984358 18.2460938,15.7304688 C18.4641938,16.0625017 18.5813801,16.4384745 18.5976562,16.8583984 L17.6894531,16.9267578 C17.6406248,16.4742816 17.4754246,16.1324881 17.1938477,15.9013672 C16.9122707,15.6702462 16.496422,15.5546875 15.9462891,15.5546875 C15.3733695,15.5546875 14.9558932,15.6596669 14.6938477,15.8696289 C14.4318021,16.0795909 14.3007812,16.3326808 14.3007812,16.6289062 C14.3007812,16.886069 14.3935538,17.0976554 14.5791016,17.2636719 C14.7613941,17.4296883 15.2374636,17.5997713 16.0073242,17.7739258 C16.7771848,17.9480803 17.3053371,18.1002598 17.5917969,18.2304688 C18.0084656,18.422527 18.3160797,18.6658514 18.5146484,18.9604492 C18.7132171,19.255047 18.8125,19.5943991 18.8125,19.9785156 C18.8125,20.3593769 18.7034516,20.71826 18.4853516,21.0551758 C18.2672515,21.3920915 17.9539408,21.6541332 17.5454102,21.8413086 C17.1368795,22.028484 16.6770859,22.1220703 16.1660156,22.1220703 C15.5182259,22.1220703 14.9754254,22.0276702 14.5375977,21.8388672 C14.0997699,21.6500642 13.7563489,21.3660501 13.5073242,20.9868164 C13.2582995,20.6075827 13.1272787,20.1787133 13.1142578,19.7001953 Z M19.3203125,22 L22.0693359,14.8417969 L23.0898438,14.8417969 L26.0195312,22 L24.9404297,22 L24.1054688,19.8320312 L21.1123047,19.8320312 L20.3261719,22 L19.3203125,22 Z M21.3857422,19.0605469 L23.8125,19.0605469 L23.0654297,17.078125 C22.837564,16.4759084 22.6682948,15.9811217 22.5576172,15.59375 C22.4664709,16.0527367 22.3378915,16.5084613 22.171875,16.9609375 L21.3857422,19.0605469 Z" id="ASA" fill="#FFFFFF"></path>
    </g>
</svg>