<?xml version="1.0" encoding="UTF-8"?>
<svg width="32px" height="32px" viewBox="0 0 32 32" version="1.1" xmlns="http://www.w3.org/2000/svg" xmlns:xlink="http://www.w3.org/1999/xlink">
    <!-- Generator: Sketch 53.2 (72643) - https://sketchapp.com -->
    <title>File_LF</title>
    <desc>Created with Sketch.</desc>
    <g id="File_LF" stroke="none" stroke-width="1" fill="none" fill-rule="evenodd">
        <g id="file" transform="translate(4.000000, 2.000000)">
            <g id="Group">
                <path d="M15.43655,0.5 L2.72727273,0.5 C1.79905147,0.5 1.04545455,1.25359692 1.04545455,2.18181818 L1.04545455,26.1818182 C1.04545455,27.1100394 1.79905147,27.8636364 2.72727273,27.8636364 L21.2727273,27.8636364 C22.2009485,27.8636364 22.9545455,27.1100394 22.9545455,26.1818182 L22.9545455,8.01694542 L15.43655,0.5 Z" id="Shape" stroke="#D0021B" fill="#D0021B"></path>
                <polygon id="Shape" fill="#000000" opacity="0.2" points="16.2610909 7.188 23.4545455 14.3749091 23.4545455 7.82945455 16.2610909 0.642545455"></polygon>
                <path d="M15.6436364,0 L15.624,5.64763636 C15.624,6.852 16.6014545,7.82945455 17.8058182,7.82945455 L23.4545455,7.80981818 L15.6436364,0 L15.6436364,0 Z" id="Shape" fill="#E06372"></path>
            </g>
        </g>
        <path d="M9.87695312,23 L9.87695312,14.4101562 L11.0136719,14.4101562 L11.0136719,21.9863281 L15.2441406,21.9863281 L15.2441406,23 L9.87695312,23 Z M16.65625,23 L16.65625,14.4101562 L22.4511719,14.4101562 L22.4511719,15.4238281 L17.7929688,15.4238281 L17.7929688,18.0839844 L21.8242188,18.0839844 L21.8242188,19.0976562 L17.7929688,19.0976562 L17.7929688,23 L16.65625,23 Z" id="LF" fill="#FFFFFF"></path>
    </g>
</svg>