<?xml version="1.0" encoding="UTF-8"?>
<svg width="32px" height="32px" viewBox="0 0 32 32" version="1.1" xmlns="http://www.w3.org/2000/svg" xmlns:xlink="http://www.w3.org/1999/xlink">
    <!-- Generator: Sketch 53.2 (72643) - https://sketchapp.com -->
    <title>File_ASMX</title>
    <desc>Created with Sketch.</desc>
    <g id="File_ASMX" stroke="none" stroke-width="1" fill="none" fill-rule="evenodd">
        <g id="file" transform="translate(4.000000, 2.000000)">
            <g id="Group">
                <path d="M15.43655,0.5 L2.72727273,0.5 C1.79905147,0.5 1.04545455,1.25359692 1.04545455,2.18181818 L1.04545455,26.1818182 C1.04545455,27.1100394 1.79905147,27.8636364 2.72727273,27.8636364 L21.2727273,27.8636364 C22.2009485,27.8636364 22.9545455,27.1100394 22.9545455,26.1818182 L22.9545455,8.01694542 L15.43655,0.5 Z" id="Shape" stroke="#4A90E2" fill="#4A90E2"></path>
                <polygon id="Shape" fill="#000000" opacity="0.1" points="16.2610909 7.188 23.4545455 14.3749091 23.4545455 7.82945455 16.2610909 0.642545455"></polygon>
                <path d="M15.6436364,0 L15.624,5.64763636 C15.624,6.852 16.6014545,7.82945455 17.8058182,7.82945455 L23.4545455,7.80981818 L15.6436364,0 L15.6436364,0 Z" id="Shape" fill="#95BCEA"></path>
            </g>
        </g>
        <path d="M4.65234375,22 L6.8515625,16.2734375 L7.66796875,16.2734375 L10.0117188,22 L9.1484375,22 L8.48046875,20.265625 L6.0859375,20.265625 L5.45703125,22 L4.65234375,22 Z M6.3046875,19.6484375 L8.24609375,19.6484375 L7.6484375,18.0625 C7.46614492,17.5807268 7.33072961,17.1848974 7.2421875,16.875 C7.16927047,17.2421893 7.06640691,17.606769 6.93359375,17.96875 L6.3046875,19.6484375 Z M10.359375,20.1601562 L11.0742188,20.0976562 C11.1080731,20.384116 11.1868483,20.6191397 11.3105469,20.8027344 C11.4342454,20.986329 11.6263008,21.1347651 11.8867188,21.2480469 C12.1471367,21.3613287 12.4401025,21.4179688 12.765625,21.4179688 C13.0546889,21.4179688 13.3098947,21.3750004 13.53125,21.2890625 C13.7526053,21.2031246 13.9173172,21.0852872 14.0253906,20.9355469 C14.1334641,20.7858065 14.1875,20.6223967 14.1875,20.4453125 C14.1875,20.2656241 14.1354172,20.1087246 14.03125,19.9746094 C13.9270828,19.8404941 13.7552095,19.727865 13.515625,19.6367188 C13.3619784,19.5768226 13.022138,19.4837246 12.4960938,19.3574219 C11.9700495,19.2311192 11.6015636,19.1119797 11.390625,19 C11.1171861,18.8567701 10.9134121,18.6790375 10.7792969,18.4667969 C10.6451816,18.2545562 10.578125,18.0169284 10.578125,17.7539062 C10.578125,17.4648423 10.6601554,17.1946627 10.8242188,16.9433594 C10.9882821,16.692056 11.227863,16.5013027 11.5429688,16.3710938 C11.8580745,16.2408848 12.2083314,16.1757812 12.59375,16.1757812 C13.0182313,16.1757812 13.3925765,16.2441399 13.7167969,16.3808594 C14.0410172,16.5175788 14.2903637,16.7187487 14.4648438,16.984375 C14.6393238,17.2500013 14.7330729,17.5507796 14.7460938,17.8867188 L14.0195312,17.9414062 C13.9804686,17.5794253 13.8483084,17.3059905 13.6230469,17.1210938 C13.3977853,16.936197 13.0651064,16.84375 12.625,16.84375 C12.1666644,16.84375 11.8326833,16.9277335 11.6230469,17.0957031 C11.4134104,17.2636727 11.3085938,17.4661446 11.3085938,17.703125 C11.3085938,17.9088552 11.3828118,18.0781243 11.53125,18.2109375 C11.6770841,18.3437507 12.0579396,18.479817 12.6738281,18.6191406 C13.2897166,18.7584642 13.7122384,18.8802078 13.9414062,18.984375 C14.2747412,19.1380216 14.5208325,19.3326811 14.6796875,19.5683594 C14.8385425,19.8040376 14.9179688,20.0755193 14.9179688,20.3828125 C14.9179688,20.6875015 14.83073,20.974608 14.65625,21.2441406 C14.48177,21.5136732 14.2311214,21.7233065 13.9042969,21.8730469 C13.5774723,22.0227872 13.2096375,22.0976562 12.8007812,22.0976562 C12.2825495,22.0976562 11.848309,22.0221362 11.4980469,21.8710938 C11.1477847,21.7200513 10.8730479,21.4928401 10.6738281,21.1894531 C10.4746084,20.8860662 10.3697917,20.5429707 10.359375,20.1601562 Z M15.9296875,22 L15.9296875,16.2734375 L17.0703125,16.2734375 L18.4257812,20.328125 C18.5507819,20.7057311 18.6419268,20.9882803 18.6992188,21.1757812 C18.7643232,20.9674469 18.8658847,20.6614604 19.0039062,20.2578125 L20.375,16.2734375 L21.3945312,16.2734375 L21.3945312,22 L20.6640625,22 L20.6640625,17.2070312 L19,22 L18.3164062,22 L16.6601562,17.125 L16.6601562,22 L15.9296875,22 Z M22.0351562,22 L24.25,19.015625 L22.296875,16.2734375 L23.1992188,16.2734375 L24.2382812,17.7421875 C24.4544282,18.0468765 24.6080725,18.2812492 24.6992188,18.4453125 C24.8268236,18.2369781 24.9778637,18.0195324 25.1523438,17.7929688 L26.3046875,16.2734375 L27.1289062,16.2734375 L25.1171875,18.9726562 L27.2851562,22 L26.3476562,22 L24.90625,19.9570312 C24.8255204,19.8398432 24.7421879,19.7122403 24.65625,19.5742188 C24.5286452,19.7825531 24.4375003,19.9257809 24.3828125,20.0039062 L22.9453125,22 L22.0351562,22 Z" id="ASMX" fill="#FFFFFF"></path>
    </g>
</svg>