<?xml version="1.0" encoding="UTF-8"?>
<svg width="32px" height="32px" viewBox="0 0 32 32" version="1.1" xmlns="http://www.w3.org/2000/svg" xmlns:xlink="http://www.w3.org/1999/xlink">
    <!-- Generator: Sketch 53.2 (72643) - https://sketchapp.com -->
    <title>File_JADE</title>
    <desc>Created with Sketch.</desc>
    <g id="File_JADE" stroke="none" stroke-width="1" fill="none" fill-rule="evenodd">
        <g id="file" transform="translate(4.000000, 2.000000)">
            <g id="Group">
                <path d="M15.43655,0.5 L2.72727273,0.5 C1.79905147,0.5 1.04545455,1.25359692 1.04545455,2.18181818 L1.04545455,26.1818182 C1.04545455,27.1100394 1.79905147,27.8636364 2.72727273,27.8636364 L21.2727273,27.8636364 C22.2009485,27.8636364 22.9545455,27.1100394 22.9545455,26.1818182 L22.9545455,8.01694542 L15.43655,0.5 Z" id="Shape" stroke="#D0021B" fill="#D0021B"></path>
                <polygon id="Shape" fill="#000000" opacity="0.1" points="16.2610909 7.188 23.4545455 14.3749091 23.4545455 7.82945455 16.2610909 0.642545455"></polygon>
                <path d="M15.6436364,0 L15.624,5.64763636 C15.624,6.852 16.6014545,7.82945455 17.8058182,7.82945455 L23.4545455,7.80981818 L15.6436364,0 L15.6436364,0 Z" id="Shape" fill="#E8A994"></path>
            </g>
        </g>
        <path d="M6.00585938,21.375 L6.68945312,21.28125 C6.70768238,21.7187522 6.78971281,22.0182284 6.93554688,22.1796875 C7.08138094,22.3411466 7.28320184,22.421875 7.54101562,22.421875 C7.73112074,22.421875 7.8951816,22.3782556 8.03320312,22.2910156 C8.17122465,22.2037756 8.26627578,22.0852872 8.31835938,21.9355469 C8.37044297,21.7858065 8.39648438,21.5468766 8.39648438,21.21875 L8.39648438,17.2734375 L9.15429688,17.2734375 L9.15429688,21.1757812 C9.15429688,21.6549503 9.09635475,22.0260404 8.98046875,22.2890625 C8.86458275,22.5520846 8.68099084,22.7526035 8.4296875,22.890625 C8.17838416,23.0286465 7.88346523,23.0976562 7.54492188,23.0976562 C7.0423152,23.0976562 6.65755342,22.9531264 6.390625,22.6640625 C6.12369658,22.3749986 5.99544266,21.9453154 6.00585938,21.375 Z M9.76367188,23 L11.9628906,17.2734375 L12.7792969,17.2734375 L15.1230469,23 L14.2597656,23 L13.5917969,21.265625 L11.1972656,21.265625 L10.5683594,23 L9.76367188,23 Z M11.4160156,20.6484375 L13.3574219,20.6484375 L12.7597656,19.0625 C12.577473,18.5807268 12.4420577,18.1848974 12.3535156,17.875 C12.2805986,18.2421893 12.177735,18.606769 12.0449219,18.96875 L11.4160156,20.6484375 Z M15.7285156,23 L15.7285156,17.2734375 L17.7011719,17.2734375 C18.1464866,17.2734375 18.486327,17.300781 18.7207031,17.3554688 C19.0488298,17.43099 19.3287749,17.5677073 19.5605469,17.765625 C19.8626317,18.0208346 20.0885409,18.3470032 20.2382812,18.7441406 C20.3880216,19.141278 20.4628906,19.5950495 20.4628906,20.1054688 C20.4628906,20.5403668 20.4121099,20.9257796 20.3105469,21.2617188 C20.2089839,21.5976579 20.0787768,21.8756499 19.9199219,22.0957031 C19.7610669,22.3157563 19.5872405,22.4889317 19.3984375,22.6152344 C19.2096345,22.7415371 18.9817722,22.8372393 18.7148438,22.9023438 C18.4479153,22.9674482 18.1412778,23 17.7949219,23 L15.7285156,23 Z M16.4863281,22.3242188 L17.7089844,22.3242188 C18.0865904,22.3242188 18.3828114,22.2890629 18.5976562,22.21875 C18.8125011,22.1484371 18.9837233,22.0494798 19.1113281,21.921875 C19.2910165,21.7421866 19.4309891,21.5006526 19.53125,21.1972656 C19.6315109,20.8938787 19.6816406,20.5260438 19.6816406,20.09375 C19.6816406,19.4947887 19.5833343,19.0345068 19.3867187,18.7128906 C19.1901032,18.3912744 18.9511733,18.1757818 18.6699219,18.0664062 C18.4667959,17.9882809 18.1399762,17.9492188 17.6894531,17.9492188 L16.4863281,17.9492188 L16.4863281,22.3242188 Z M21.5214844,23 L21.5214844,17.2734375 L25.6621094,17.2734375 L25.6621094,17.9492188 L22.2792969,17.9492188 L22.2792969,19.703125 L25.4472656,19.703125 L25.4472656,20.375 L22.2792969,20.375 L22.2792969,22.3242188 L25.7949219,22.3242188 L25.7949219,23 L21.5214844,23 Z" id="JADE" fill="#FFFFFF"></path>
    </g>
</svg>