<?xml version="1.0" encoding="UTF-8"?>
<svg width="32px" height="32px" viewBox="0 0 32 32" version="1.1" xmlns="http://www.w3.org/2000/svg" xmlns:xlink="http://www.w3.org/1999/xlink">
    <!-- Generator: Sketch 61.2 (89653) - https://sketch.com -->
    <title>File_Swift</title>
    <desc>Created with Sketch.</desc>
    <g id="File_Swift" stroke="none" stroke-width="1" fill="none" fill-rule="evenodd">
        <g id="file" transform="translate(4.000000, 2.000000)">
            <g id="Group">
                <path d="M15.43655,0.5 L2.72727273,0.5 C1.79905147,0.5 1.04545455,1.25359692 1.04545455,2.18181818 L1.04545455,26.1818182 C1.04545455,27.1100394 1.79905147,27.8636364 2.72727273,27.8636364 L21.2727273,27.8636364 C22.2009485,27.8636364 22.9545455,27.1100394 22.9545455,26.1818182 L22.9545455,8.01694542 L15.43655,0.5 Z" id="Shape" stroke="#4A90E2" fill="#4A90E2"></path>
                <polygon id="Shape" fill="#000000" opacity="0.1" points="16.2610909 7.188 23.4545455 14.3749091 23.4545455 7.82945455 16.2610909 0.642545455"></polygon>
                <path d="M15.6436364,0 L15.624,5.64763636 C15.624,6.852 16.6014545,7.82945455 17.8058182,7.82945455 L23.4545455,7.80981818 L15.6436364,0 L15.6436364,0 Z" id="Shape" fill="#95BCEA"></path>
            </g>
        </g>
        <path d="M17.7117187,9.99010417 C25.7867187,15.2151042 23.317708,21.7859375 23.317708,21.7859375 C23.317708,21.7859375 24.1885414,22.7755208 24.623958,24.0026042 C25.0593747,25.2296875 25.054577,26.7338542 24.9754104,26.7734375 C24.8962437,26.8130208 23.8755038,25.0713542 22.0906247,25.0713542 C20.3057455,25.0713542 19.3989574,26.7734375 16.2322914,26.7734375 C9.1022336,26.7734375 6.00989583,20.9250002 6.00989583,20.9250002 C6.00989583,20.9250002 9.146875,23.1713542 12.432292,23.0921875 C15.7177089,23.0130208 16.6281247,22.0630208 16.6281247,22.0630208 C16.6281247,22.0630208 15.1591046,20.8337961 12.6302083,18.3619792 C10.1013121,15.8901622 7.721875,12.4838542 7.721875,12.4838542 C7.721875,12.4838542 11.5340186,15.5051656 12.7567816,16.3939088 C13.9795446,17.282652 15.2023076,18.0880755 15.2023076,18.0880755 C15.2023076,18.0880755 14.0180771,16.8105074 13.184375,15.7828981 C12.3506729,14.7552889 10.215625,11.6526042 10.215625,11.6526042 C10.215625,11.6526042 13.4901825,14.6090249 14.9799871,15.7828979 C16.4697917,16.9567708 19.3197917,18.9359375 19.3197917,18.9359375 C19.3197917,18.9359375 21.0367187,15.0171875 17.7117187,9.99010417 Z" id="countour" fill="#FFFFFF"></path>
    </g>
</svg>