<?xml version="1.0" encoding="UTF-8"?>
<svg width="32px" height="32px" viewBox="0 0 32 32" version="1.1" xmlns="http://www.w3.org/2000/svg" xmlns:xlink="http://www.w3.org/1999/xlink">
    <!-- Generator: Sketch 53.2 (72643) - https://sketchapp.com -->
    <title>File_CSharp</title>
    <desc>Created with Sketch.</desc>
    <g id="File_CSharp" stroke="none" stroke-width="1" fill="none" fill-rule="evenodd">
        <g id="file" transform="translate(4.000000, 2.000000)">
            <g id="Group">
                <path d="M15.43655,0.5 L2.72727273,0.5 C1.79905147,0.5 1.04545455,1.25359692 1.04545455,2.18181818 L1.04545455,26.1818182 C1.04545455,27.1100394 1.79905147,27.8636364 2.72727273,27.8636364 L21.2727273,27.8636364 C22.2009485,27.8636364 22.9545455,27.1100394 22.9545455,26.1818182 L22.9545455,8.01694542 L15.43655,0.5 Z" id="Shape" stroke="#05930C" fill="#FFFFFF"></path>
                <polygon id="Shape" fill="#000000" opacity="0.1" points="16.2610909 7.188 23.4545455 14.3749091 23.4545455 7.82945455 16.2610909 0.642545455"></polygon>
                <path d="M15.6436364,0 L15.624,5.64763636 C15.624,6.852 16.6014545,7.82945455 17.8058182,7.82945455 L23.4545455,7.80981818 L15.6436364,0 L15.6436364,0 Z" id="Shape" fill="#07690C"></path>
            </g>
        </g>
        <path d="M15.4873047,20.4902344 L16.4345703,20.7294922 C16.2360016,21.5074909 15.8787461,22.1007467 15.362793,22.5092773 C14.8468399,22.917808 14.2161496,23.1220703 13.4707031,23.1220703 C12.6992149,23.1220703 12.0717798,22.9650081 11.5883789,22.6508789 C11.1049781,22.3367497 10.7371432,21.8818389 10.4848633,21.2861328 C10.2325834,20.6904267 10.1064453,20.0507847 10.1064453,19.3671875 C10.1064453,18.6217411 10.2488593,17.9715197 10.5336914,17.4165039 C10.8185236,16.8614881 11.2237929,16.4399428 11.7495117,16.1518555 C12.2752305,15.8637681 12.853838,15.7197266 13.4853516,15.7197266 C14.201501,15.7197266 14.8037085,15.9020164 15.2919922,16.2666016 C15.7802759,16.6311867 16.1204417,17.1438769 16.3125,17.8046875 L15.3798828,18.0244141 C15.2138664,17.5035781 14.9729833,17.1243501 14.6572266,16.8867188 C14.3414698,16.6490874 13.9443383,16.5302734 13.4658203,16.5302734 C12.9156874,16.5302734 12.4558938,16.6621081 12.0864258,16.9257812 C11.7169578,17.1894544 11.4573575,17.5434548 11.3076172,17.987793 C11.1578769,18.4321311 11.0830078,18.8902971 11.0830078,19.3623047 C11.0830078,19.9710317 11.1717114,20.5024391 11.3491211,20.956543 C11.5265308,21.4106468 11.802407,21.7499989 12.1767578,21.9746094 C12.5511086,22.1992199 12.956378,22.3115234 13.3925781,22.3115234 C13.9231797,22.3115234 14.372394,22.1585302 14.7402344,21.8525391 C15.1080748,21.5465479 15.3570957,21.0924509 15.4873047,20.4902344 Z M17.3330078,23.1220703 L17.7578125,21.0419922 L16.9326172,21.0419922 L16.9326172,20.3144531 L17.9042969,20.3144531 L18.265625,18.5419922 L16.9326172,18.5419922 L16.9326172,17.8144531 L18.4121094,17.8144531 L18.8369141,15.7197266 L19.5693359,15.7197266 L19.1445312,17.8144531 L20.6826172,17.8144531 L21.1074219,15.7197266 L21.8447266,15.7197266 L21.4199219,17.8144531 L22.2646484,17.8144531 L22.2646484,18.5419922 L21.2734375,18.5419922 L20.9072266,20.3144531 L22.2646484,20.3144531 L22.2646484,21.0419922 L20.7607422,21.0419922 L20.3359375,23.1220703 L19.6035156,23.1220703 L20.0234375,21.0419922 L18.4902344,21.0419922 L18.0654297,23.1220703 L17.3330078,23.1220703 Z M18.6367188,20.3144531 L20.1699219,20.3144531 L20.5361328,18.5419922 L18.9980469,18.5419922 L18.6367188,20.3144531 Z" id="C#" fill="#05930C"></path>
    </g>
</svg>