<?xml version="1.0" encoding="UTF-8"?>
<svg width="32px" height="32px" viewBox="0 0 32 32" version="1.1" xmlns="http://www.w3.org/2000/svg" xmlns:xlink="http://www.w3.org/1999/xlink">
    <!-- Generator: Sketch 53.2 (72643) - https://sketchapp.com -->
    <title>File_StoryBoard</title>
    <desc>Created with Sketch.</desc>
    <g id="File_StoryBoard" stroke="none" stroke-width="1" fill="none" fill-rule="evenodd">
        <g id="file" transform="translate(4.000000, 2.000000)">
            <g id="Group">
                <path d="M15.43655,0.5 L2.72727273,0.5 C1.79905147,0.5 1.04545455,1.25359692 1.04545455,2.18181818 L1.04545455,26.1818182 C1.04545455,27.1100394 1.79905147,27.8636364 2.72727273,27.8636364 L21.2727273,27.8636364 C22.2009485,27.8636364 22.9545455,27.1100394 22.9545455,26.1818182 L22.9545455,8.01694542 L15.43655,0.5 Z" id="Shape" stroke="#DCA126" fill="#FFFFFF"></path>
                <polygon id="Shape" fill="#000000" opacity="0.1" points="16.2610909 7.188 23.4545455 14.3749091 23.4545455 7.82945455 16.2610909 0.642545455"></polygon>
                <path d="M15.6436364,0 L15.624,5.64763636 C15.624,6.852 16.6014545,7.82945455 17.8058182,7.82945455 L23.4545455,7.80981818 L15.6436364,0 L15.6436364,0 Z" id="Shape" fill="#B78110"></path>
            </g>
        </g>
        <circle id="Oval-1-Copy" stroke="#DCA126" fill="#FECE44" cx="16" cy="17" r="5.5"></circle>
        <circle id="Oval-1" stroke="#DCA126" fill="#FFFFFF" cx="16" cy="17" r="2.5"></circle>
        <path d="M8.5,8.5 L15.5,8.5" id="Line" stroke="#DCA126" stroke-linecap="square"></path>
        <path d="M16.5,25.5 L23.5,25.5" id="Line-Copy-3" stroke="#DCA126" stroke-linecap="square"></path>
        <polygon id="Triangle-3" fill="#DCA126" transform="translate(23.500000, 25.500000) scale(-1, 1) rotate(-90.000000) translate(-23.500000, -25.500000) " points="23.5 24 26 27 21 27"></polygon>
        <path d="M15.5,11.5 L15.5,8.5" id="Line-Copy" stroke="#DCA126" stroke-linecap="square"></path>
        <path d="M16.5,25.5 L16.5,22.5" id="Line-Copy-2" stroke="#DCA126" stroke-linecap="square"></path>
    </g>
</svg>