<?xml version="1.0" encoding="UTF-8"?>
<svg width="32px" height="32px" viewBox="0 0 32 32" version="1.1" xmlns="http://www.w3.org/2000/svg" xmlns:xlink="http://www.w3.org/1999/xlink">
    <title>FORMS_RDF_QUERY</title>
    <g id="FORMS_RDF_QUERY" stroke="none" stroke-width="1" fill="none" fill-rule="evenodd">
        <g id="model" transform="translate(6.000000, 4.000000)">
            <g id="Group">
                <g transform="translate(8.000000, 4.000000)" fill="#B20F44" id="Rectangle-path">
                    <rect x="7.66666667" y="3.66666667" width="1.33333333" height="6"></rect>
                    <rect x="0.333333333" y="0.333333333" width="5.33333333" height="1.33333333"></rect>
                </g>
                <g fill="#EA0F56">
                    <rect id="Rectangle-path" x="13" y="1.66666667" width="6.66666667" height="6.66666667"></rect>
                    <circle id="Oval" cx="16.3333333" cy="16.3333333" r="3.33333333"></circle>
                    <path d="M5,0.333333333 C2.42266667,0.333333333 0.333333333,2.42266667 0.333333333,5 C0.333333333,7.57733333 2.42266667,9.66666667 5,9.66666667 C7.57733333,9.66666667 9.66666667,7.57733333 9.66666667,5 C9.66666667,2.42266667 7.57733333,0.333333333 5,0.333333333 L5,0.333333333 Z M5,7.66666667 C3.52733333,7.66666667 2.33333333,6.47266667 2.33333333,5 C2.33333333,3.52733333 3.52733333,2.33333333 5,2.33333333 C6.47266667,2.33333333 7.66666667,3.52733333 7.66666667,5 C7.66666667,6.47266667 6.47266667,7.66666667 5,7.66666667 L5,7.66666667 Z" id="Shape"></path>
                </g>
            </g>
        </g>
        <path d="M16,0 C23.7319865,0 30,6.2680135 30,14 C30,21.7319865 23.7319865,28 16,28 C8.2680135,28 2,21.7319865 2,14 C2,6.2680135 8.2680135,0 16,0 Z M16,0.875 C8.75126266,0.875 2.875,6.75126266 2.875,14 C2.875,21.2487373 8.75126266,27.125 16,27.125 C23.2487373,27.125 29.125,21.2487373 29.125,14 C29.125,6.75126266 23.2487373,0.875 16,0.875 Z" id="Combined-Shape" fill="#4A4A4A"></path>
        <rect id="Rectangle" fill="#4A4A4A" transform="translate(28.000000, 27.000000) rotate(-45.000000) translate(-28.000000, -27.000000) " x="27" y="23" width="2" height="8"></rect>
    </g>
</svg>