<?xml version="1.0" encoding="UTF-8"?>
<svg width="32px" height="32px" viewBox="0 0 32 32" version="1.1" xmlns="http://www.w3.org/2000/svg" xmlns:xlink="http://www.w3.org/1999/xlink">
    <!-- Generator: Sketch 53.2 (72643) - https://sketchapp.com -->
    <title>Fragment_TS</title>
    <desc>Created with Sketch.</desc>
    <defs>
        <path d="M15.6436364,0 L2.72727273,0 C1.52290909,0 0.545454545,0.977454545 0.545454545,2.18181818 L0.545454545,26.1818182 C0.545454545,27.3861818 1.52290909,28.3636364 2.72727273,28.3636364 L21.2727273,28.3636364 C22.4770909,28.3636364 23.4545455,27.3861818 23.4545455,26.1818182 L23.4545455,7.80981818 L15.6436364,0 L15.6436364,0 Z" id="path-1"></path>
        <mask id="mask-2" maskContentUnits="userSpaceOnUse" maskUnits="objectBoundingBox" x="0" y="0" width="22.9090909" height="28.3636364" fill="white">
            <use xlink:href="#path-1"></use>
        </mask>
    </defs>
    <g id="Fragment_TS" stroke="none" stroke-width="1" fill="none" fill-rule="evenodd">
        <g id="file" transform="translate(4.000000, 2.000000)">
            <g id="Group">
                <use id="Shape" stroke="#4A90E2" mask="url(#mask-2)" stroke-width="2" fill="#FFFFFF" stroke-dasharray="3,2,2" xlink:href="#path-1"></use>
                <rect id="Rectangle-38" fill="#4A90E2" x="4" y="12" width="16" height="12"></rect>
                <polygon id="Shape" fill="#000000" opacity="0.1" points="16.2610909 7.188 23.4545455 14.3749091 23.4545455 7.82945455 16.2610909 0.642545455"></polygon>
                <path d="M15.6436364,0 L15.624,5.64763636 C15.624,6.852 16.6014545,7.82945455 17.8058182,7.82945455 L23.4545455,7.80981818 L15.6436364,0 L15.6436364,0 Z" id="Shape" fill="#95BCEA"></path>
            </g>
        </g>
        <path d="M12.2036133,23 L12.2036133,16.6865234 L9.84521484,16.6865234 L9.84521484,15.8417969 L15.519043,15.8417969 L15.519043,16.6865234 L13.1508789,16.6865234 L13.1508789,23 L12.2036133,23 Z M16.168457,20.7001953 L17.0620117,20.6220703 C17.1043296,20.980145 17.2027987,21.2739246 17.3574219,21.503418 C17.512045,21.7329113 17.7521143,21.9184563 18.0776367,22.0600586 C18.4031592,22.2016609 18.7693665,22.2724609 19.1762695,22.2724609 C19.5375995,22.2724609 19.8566067,22.2187505 20.1333008,22.1113281 C20.4099949,22.0039057 20.6158847,21.856609 20.7509766,21.6694336 C20.8860684,21.4822582 20.9536133,21.2779959 20.9536133,21.0566406 C20.9536133,20.8320301 20.8885098,20.6359058 20.7583008,20.4682617 C20.6280918,20.3006177 20.4132502,20.1598313 20.1137695,20.0458984 C19.9217113,19.9710283 19.4969108,19.8546557 18.8393555,19.6967773 C18.1818001,19.538899 17.7211927,19.3899747 17.4575195,19.25 C17.1157209,19.0709626 16.8610034,18.8487969 16.6933594,18.5834961 C16.5257153,18.3181953 16.4418945,18.0211605 16.4418945,17.6923828 C16.4418945,17.3310529 16.5444326,16.9933284 16.7495117,16.6791992 C16.9545909,16.36507 17.254067,16.1266284 17.6479492,15.9638672 C18.0418314,15.801106 18.4796525,15.7197266 18.9614258,15.7197266 C19.4920274,15.7197266 19.9599589,15.8051749 20.3652344,15.9760742 C20.7705098,16.1469735 21.0821929,16.3984358 21.300293,16.7304688 C21.518393,17.0625017 21.6355793,17.4384745 21.6518555,17.8583984 L20.7436523,17.9267578 C20.694824,17.4742816 20.5296238,17.1324881 20.2480469,16.9013672 C19.9664699,16.6702462 19.5506212,16.5546875 19.0004883,16.5546875 C18.4275687,16.5546875 18.0100925,16.6596669 17.7480469,16.8696289 C17.4860013,17.0795909 17.3549805,17.3326808 17.3549805,17.6289062 C17.3549805,17.886069 17.447753,18.0976554 17.6333008,18.2636719 C17.8155934,18.4296883 18.2916628,18.5997713 19.0615234,18.7739258 C19.8313841,18.9480803 20.3595363,19.1002598 20.6459961,19.2304688 C21.0626648,19.422527 21.370279,19.6658514 21.5688477,19.9604492 C21.7674164,20.255047 21.8666992,20.5943991 21.8666992,20.9785156 C21.8666992,21.3593769 21.7576508,21.71826 21.5395508,22.0551758 C21.3214507,22.3920915 21.0081401,22.6541332 20.5996094,22.8413086 C20.1910787,23.028484 19.7312851,23.1220703 19.2202148,23.1220703 C18.5724251,23.1220703 18.0296246,23.0276702 17.5917969,22.8388672 C17.1539692,22.6500642 16.8105481,22.3660501 16.5615234,21.9868164 C16.3124988,21.6075827 16.1814779,21.1787133 16.168457,20.7001953 Z" id="TS" fill="#FFFFFF"></path>
    </g>
</svg>