<?xml version="1.0" encoding="UTF-8"?>
<svg width="32px" height="32px" viewBox="0 0 32 32" version="1.1" xmlns="http://www.w3.org/2000/svg" xmlns:xlink="http://www.w3.org/1999/xlink">
    <!-- Generator: Sketch 53.2 (72643) - https://sketchapp.com -->
    <title>Fragment_HTML</title>
    <desc>Created with Sketch.</desc>
    <defs>
        <path d="M15.6436364,0 L2.72727273,0 C1.52290909,0 0.545454545,0.977454545 0.545454545,2.18181818 L0.545454545,26.1818182 C0.545454545,27.3861818 1.52290909,28.3636364 2.72727273,28.3636364 L21.2727273,28.3636364 C22.4770909,28.3636364 23.4545455,27.3861818 23.4545455,26.1818182 L23.4545455,7.80981818 L15.6436364,0 L15.6436364,0 Z" id="path-1"></path>
        <mask id="mask-2" maskContentUnits="userSpaceOnUse" maskUnits="objectBoundingBox" x="0" y="0" width="22.9090909" height="28.3636364" fill="white">
            <use xlink:href="#path-1"></use>
        </mask>
    </defs>
    <g id="Fragment_HTML" stroke="none" stroke-width="1" fill="none" fill-rule="evenodd">
        <g id="file" transform="translate(4.000000, 2.000000)">
            <g id="Group">
                <use id="Shape" stroke="#E66434" mask="url(#mask-2)" stroke-width="2" fill="#FFFFFF" stroke-dasharray="3,2,2" xlink:href="#path-1"></use>
                <rect id="Rectangle-38" fill="#E66434" x="2" y="9" width="20" height="15"></rect>
                <polygon id="Shape" fill="#000000" opacity="0.1" points="16.2610909 7.188 23.4545455 14.3749091 23.4545455 7.82945455 16.2610909 0.642545455"></polygon>
                <path d="M15.6436364,0 L15.624,5.64763636 C15.624,6.852 16.6014545,7.82945455 17.8058182,7.82945455 L23.4545455,7.80981818 L15.6436364,0 L15.6436364,0 Z" id="Shape" fill="#E8A994"></path>
            </g>
        </g>
        <path d="M16.9999999,12 L15,24" id="Line" stroke="#FFFFFF" stroke-width="2" stroke-linecap="square"></path>
        <g id="Group-2" transform="translate(12.000000, 18.242641) rotate(-315.000000) translate(-12.000000, -18.242641) translate(8.000000, 14.242641)" fill="#FFFFFF">
            <rect id="Rectangle-17" x="-9.47390314e-15" y="-7.10542736e-15" width="1.33333333" height="8"></rect>
            <rect id="Rectangle-17-Copy" x="-3.3158661e-14" y="6.66666667" width="8" height="1.33333333"></rect>
        </g>
        <g id="Group-2-Copy" transform="translate(20.000000, 18.242641) scale(-1, 1) rotate(-315.000000) translate(-20.000000, -18.242641) translate(16.000000, 14.242641)" fill="#FFFFFF">
            <rect id="Rectangle-17" x="-7.10542736e-15" y="-9.47390314e-15" width="1.33333333" height="8"></rect>
            <rect id="Rectangle-17-Copy" x="2.13162821e-14" y="6.66666667" width="8" height="1.33333333"></rect>
        </g>
    </g>
</svg>