<?xml version="1.0" encoding="UTF-8"?>
<svg width="32px" height="32px" viewBox="0 0 32 32" version="1.1" xmlns="http://www.w3.org/2000/svg" xmlns:xlink="http://www.w3.org/1999/xlink">
    <!-- Generator: Sketch 53.2 (72643) - https://sketchapp.com -->
    <title>Fragment_XML</title>
    <desc>Created with Sketch.</desc>
    <defs>
        <path d="M15.1580952,0 L2.19047619,0 C0.981333333,0 0,0.977454545 0,2.18181818 L0,26.1818182 C0,27.3861818 0.981333333,28.3636364 2.19047619,28.3636364 L20.8095238,28.3636364 C22.0186667,28.3636364 23,27.3861818 23,26.1818182 L23,7.80981818 L15.1580952,0 L15.1580952,0 Z" id="path-1"></path>
        <mask id="mask-2" maskContentUnits="userSpaceOnUse" maskUnits="objectBoundingBox" x="0" y="0" width="23" height="28.3636364" fill="white">
            <use xlink:href="#path-1"></use>
        </mask>
    </defs>
    <g id="Fragment_XML" stroke="none" stroke-width="1" fill="none" fill-rule="evenodd">
        <g id="file" transform="translate(5.000000, 2.000000)">
            <g id="Group">
                <use id="Shape" stroke="#1A4F8E" mask="url(#mask-2)" stroke-width="2" fill="#FFFFFF" stroke-dasharray="3,2,2" xlink:href="#path-1"></use>
                <rect id="Rectangle-38" fill="#1A4F8E" x="0" y="12" width="23" height="12"></rect>
                <polygon id="Shape" fill="#000000" opacity="0.1" points="15.2610909 7.188 22.4545455 14.3749091 22.4545455 7.82945455 15.2610909 0.642545455"></polygon>
                <path d="M15.0200613,0 L15,5.77065626 C15,7.00125401 15.9986069,8 17.2290332,8 L23,7.97993591 L15.0200613,0 L15.0200613,0 Z" id="Shape" fill="#4A90E2"></path>
            </g>
        </g>
        <path d="M6.26318359,23 L9.03173828,19.2695312 L6.59033203,15.8417969 L7.71826172,15.8417969 L9.01708984,17.6777344 C9.28727349,18.0585957 9.47932886,18.3515615 9.59326172,18.5566406 C9.75276772,18.2962227 9.94156792,18.0244155 10.159668,17.7412109 L11.6000977,15.8417969 L12.6303711,15.8417969 L10.1157227,19.2158203 L12.8256836,23 L11.6538086,23 L9.85205078,20.4462891 C9.75113882,20.299804 9.64697319,20.1403003 9.53955078,19.9677734 C9.38004478,20.2281914 9.26611362,20.4072261 9.19775391,20.5048828 L7.40087891,23 L6.26318359,23 Z M13.6313477,23 L13.6313477,15.8417969 L15.0571289,15.8417969 L16.7514648,20.9101562 C16.9077156,21.3821638 17.0216468,21.7353504 17.0932617,21.9697266 C17.1746423,21.7093086 17.3015942,21.3268254 17.4741211,20.8222656 L19.1879883,15.8417969 L20.4624023,15.8417969 L20.4624023,23 L19.5493164,23 L19.5493164,17.0087891 L17.4692383,23 L16.6147461,23 L14.5444336,16.90625 L14.5444336,23 L13.6313477,23 Z M21.9516602,23 L21.9516602,15.8417969 L22.8989258,15.8417969 L22.8989258,22.1552734 L26.4243164,22.1552734 L26.4243164,23 L21.9516602,23 Z" id="XML" fill="#FFFFFF"></path>
    </g>
</svg>