<?xml version="1.0" encoding="UTF-8"?>
<svg width="32px" height="32px" viewBox="0 0 32 32" version="1.1" xmlns="http://www.w3.org/2000/svg" xmlns:xlink="http://www.w3.org/1999/xlink">
    <title>FunctionOrangeWatch</title>
    <g id="FunctionOrangeWatch" stroke="none" stroke-width="1" fill="none" fill-rule="evenodd">
        <g id="function" transform="translate(1.000000, 1.000000)">
            <polygon id="Shape" fill="#C23C19" points="0 24.6763636 9.61538462 24.6763636 9.61538462 28.7890909 0 28.7890909"></polygon>
            <polygon id="Shape" fill="#000000" opacity="0.3" points="6.2967033 24.6763636 2.7760989 28.8110255 8.2706044 28.8110255 9.20604396 24.6763636"></polygon>
            <polygon id="Shape" fill="#C23C19" points="16.4835165 0 26.0989011 0 26.0989011 4.11272727 16.4835165 4.11272727"></polygon>
            <polygon id="Shape" fill="#000000" opacity="0.3" points="19.831044 4.13466182 23.3516484 0 17.8571429 0 16.9203297 4.13466182"></polygon>
            <polygon id="Shape" fill="#C23C19" points="5.49450549 9.59636364 21.978022 9.59636364 21.978022 13.7090909 5.49450549 13.7090909"></polygon>
            <polygon id="Shape" fill="#000000" opacity="0.3" points="17.0837912 13.7310255 20.6043956 9.59636364 15.1098901 9.59636364 14.1730769 13.7310255"></polygon>
            <polygon id="Shape" fill="#F54F23" points="15.1098901 0 20.6043956 0 10.989011 28.7890909 5.49450549 28.7890909"></polygon>
        </g>
        <g id="event" transform="translate(15.000000, 19.000000)">
            <path d="M8.5,4.33333333 C9.673,4.33333333 10.625,5.30327778 10.625,6.5 C10.625,7.696 9.673,8.66666667 8.5,8.66666667 C7.32629167,8.66666667 6.375,7.696 6.375,6.5 C6.375,5.30327778 7.32629167,4.33333333 8.5,4.33333333 L8.5,4.33333333 Z" id="Shape" fill="#19C49A"></path>
            <g id="Group" fill="#BAE561">
                <path d="M14.3961667,0.265777778 L13.3485417,1.24438889 C14.7212917,2.56172222 15.5833333,4.4265 15.5833333,6.5 C15.5833333,8.5735 14.7212917,10.4382778 13.34925,11.7548889 L14.396875,12.7335 C15.999125,11.1576111 17,8.94977778 17,6.5 C17,4.05022222 15.999125,1.84238889 14.3961667,0.265777778 L14.3961667,0.265777778 Z" id="Shape"></path>
                <path d="M3.65145833,1.24511111 L2.60383333,0.265777778 C1.000875,1.84238889 0,4.05022222 0,6.5 C0,8.94977778 1.000875,11.1576111 2.60383333,12.7342222 L3.65075,11.7556111 C2.27870833,10.4382778 1.41666667,8.5735 1.41666667,6.5 C1.41666667,4.4265 2.27870833,2.56172222 3.65145833,1.24511111 L3.65145833,1.24511111 Z" id="Shape"></path>
                <path d="M5.74104167,3.19872222 L4.698375,2.22372222 C3.55583333,3.28105556 2.83333333,4.80277778 2.83333333,6.5 C2.83333333,8.19722222 3.55583333,9.71894444 4.698375,10.7762778 L5.74104167,9.80127778 C4.825875,9.00466667 4.24291667,7.82238889 4.24291667,6.5 C4.243625,5.17688889 4.825875,3.99461111 5.74104167,3.19872222 L5.74104167,3.19872222 Z" id="Shape"></path>
                <path d="M12.3009167,2.22444444 L11.25825,3.19872222 C12.174125,3.99461111 12.756375,5.17761111 12.756375,6.5 C12.756375,7.82238889 12.174125,9.00538889 11.25825,9.80127778 L12.3009167,10.7762778 C13.4441667,9.71894444 14.1666667,8.19722222 14.1666667,6.5 C14.1666667,4.80277778 13.4441667,3.28105556 12.3009167,2.22444444 L12.3009167,2.22444444 Z" id="Shape"></path>
            </g>
        </g>
    </g>
</svg>