<?xml version="1.0" encoding="UTF-8"?>
<svg width="32px" height="32px" viewBox="0 0 32 32" version="1.1" xmlns="http://www.w3.org/2000/svg" xmlns:xlink="http://www.w3.org/1999/xlink">
    <title>FunctionBlueService</title>
    <g id="FunctionBlueService" stroke="none" stroke-width="1" fill="none" fill-rule="evenodd">
        <g id="function" transform="translate(1.000000, 1.000000)">
            <polygon id="Shape" fill="#2D71C0" points="0 24.6763636 9.61538462 24.6763636 9.61538462 28.7890909 0 28.7890909"></polygon>
            <polygon id="Shape" fill="#000000" opacity="0.3" points="6.2967033 24.6763636 2.7760989 28.8110255 8.2706044 28.8110255 9.20604396 24.6763636"></polygon>
            <polygon id="Shape" fill="#2D71C0" points="16.4835165 0 26.0989011 0 26.0989011 4.11272727 16.4835165 4.11272727"></polygon>
            <polygon id="Shape" fill="#000000" opacity="0.3" points="19.831044 4.13466182 23.3516484 0 17.8571429 0 16.9203297 4.13466182"></polygon>
            <polygon id="Shape" fill="#2D71C0" points="5.49450549 9.59636364 21.978022 9.59636364 21.978022 13.7090909 5.49450549 13.7090909"></polygon>
            <polygon id="Shape" fill="#000000" opacity="0.3" points="17.0837912 13.7310255 20.6043956 9.59636364 15.1098901 9.59636364 14.1730769 13.7310255"></polygon>
            <polygon id="Shape" fill="#4A90E2" points="15.1098901 0 20.6043956 0 10.989011 28.7890909 5.49450549 28.7890909"></polygon>
        </g>
        <g id="object" transform="translate(18.000000, 18.000000)" fill="#000000">
            <g id="Group">
                <path d="M14,8.31366667 L14,5.68633333 L11.9939167,5.35208333 C11.9116667,5.10416667 11.8125,4.86441667 11.697,4.634 L12.8788333,2.97966667 L11.0203333,1.12116667 L9.36833333,2.30125 C9.13733333,2.184 8.89641667,2.08366667 8.64733333,2.002 L8.31366667,0 L5.68633333,0 L5.35266667,2.002 C5.10358333,2.08425 4.86266667,2.184 4.63166667,2.30183333 L2.97908333,1.12116667 L1.12116667,2.97908333 L2.303,4.634 C2.1875,4.86383333 2.08833333,5.10416667 2.00666667,5.35208333 L0,5.68633333 L0,8.31366667 L2.01133333,8.64908333 C2.093,8.89466667 2.19216667,9.13208333 2.30708333,9.36075 L1.12116667,11.0209167 L2.97966667,12.8794167 L4.64275,11.6911667 C4.86966667,11.8049167 5.10591667,11.9035 5.35033333,11.984 L5.68633333,14 L8.31366667,14 L8.64966667,11.9834167 C8.89408333,11.9029167 9.13033333,11.8043333 9.35725,11.6905833 L11.0209167,12.8788333 L12.8794167,11.0203333 L11.6935,9.36016667 C11.8084167,9.1315 11.9075833,8.89408333 11.98925,8.6485 L14,8.31366667 L14,8.31366667 L14,8.31366667 Z M7,9.33333333 C5.71141667,9.33333333 4.66666667,8.28858333 4.66666667,7 C4.66666667,5.71141667 5.71141667,4.66666667 7,4.66666667 C8.28858333,4.66666667 9.33333333,5.71141667 9.33333333,7 C9.33333333,8.28858333 8.28858333,9.33333333 7,9.33333333 L7,9.33333333 Z" id="Shape"></path>
            </g>
        </g>
    </g>
</svg>