<?xml version="1.0" encoding="UTF-8"?>
<svg width="32px" height="32px" viewBox="0 0 32 32" version="1.1" xmlns="http://www.w3.org/2000/svg" xmlns:xlink="http://www.w3.org/1999/xlink">
    <title>FunctionOrangeProcess</title>
    <g id="FunctionOrangeProcess" stroke="none" stroke-width="1" fill="none" fill-rule="evenodd">
        <g id="function" transform="translate(1.000000, 1.000000)">
            <polygon id="Shape" fill="#C23C19" points="0 24.6763636 9.61538462 24.6763636 9.61538462 28.7890909 0 28.7890909"></polygon>
            <polygon id="Shape" fill="#000000" opacity="0.3" points="6.2967033 24.6763636 2.7760989 28.8110255 8.2706044 28.8110255 9.20604396 24.6763636"></polygon>
            <polygon id="Shape" fill="#C23C19" points="16.4835165 0 26.0989011 0 26.0989011 4.11272727 16.4835165 4.11272727"></polygon>
            <polygon id="Shape" fill="#000000" opacity="0.3" points="19.831044 4.13466182 23.3516484 0 17.8571429 0 16.9203297 4.13466182"></polygon>
            <polygon id="Shape" fill="#C23C19" points="5.49450549 9.59636364 21.978022 9.59636364 21.978022 13.7090909 5.49450549 13.7090909"></polygon>
            <polygon id="Shape" fill="#000000" opacity="0.3" points="17.0837912 13.7310255 20.6043956 9.59636364 15.1098901 9.59636364 14.1730769 13.7310255"></polygon>
            <polygon id="Shape" fill="#F54F23" points="15.1098901 0 20.6043956 0 10.989011 28.7890909 5.49450549 28.7890909"></polygon>
        </g>
        <path d="M32,25.5013333 L32,22.4986667 L29.7073333,22.1166667 C29.6133333,21.8333333 29.5,21.5593333 29.368,21.296 L30.7186667,19.4053333 L28.5946667,17.2813333 L26.7066667,18.63 C26.4426667,18.496 26.1673333,18.3813333 25.8826667,18.288 L25.5013333,16 L22.4986667,16 L22.1173333,18.288 C21.8326667,18.382 21.5573333,18.496 21.2933333,18.6306667 L19.4046667,17.2813333 L17.2813333,19.4046667 L18.632,21.296 C18.5,21.5586667 18.3866667,21.8333333 18.2933333,22.1166667 L16,22.4986667 L16,25.5013333 L18.2986667,25.8846667 C18.392,26.1653333 18.5053333,26.4366667 18.6366667,26.698 L17.2813333,28.5953333 L19.4053333,30.7193333 L21.306,29.3613333 C21.5653333,29.4913333 21.8353333,29.604 22.1146667,29.696 L22.4986667,32 L25.5013333,32 L25.8853333,29.6953333 C26.1646667,29.6033333 26.4346667,29.4906667 26.694,29.3606667 L28.5953333,30.7186667 L30.7193333,28.5946667 L29.364,26.6973333 C29.4953333,26.436 29.6086667,26.1646667 29.702,25.884 L32,25.5013333 L32,25.5013333 L32,25.5013333 Z M24,26.6666667 C22.5273333,26.6666667 21.3333333,25.4726667 21.3333333,24 C21.3333333,22.5273333 22.5273333,21.3333333 24,21.3333333 C25.4726667,21.3333333 26.6666667,22.5273333 26.6666667,24 C26.6666667,25.4726667 25.4726667,26.6666667 24,26.6666667 L24,26.6666667 Z" id="Shape" fill="#CE041C"></path>
    </g>
</svg>