<?xml version="1.0" encoding="UTF-8"?>
<svg width="32px" height="32px" viewBox="0 0 32 32" version="1.1" xmlns="http://www.w3.org/2000/svg" xmlns:xlink="http://www.w3.org/1999/xlink">
    <title>FunctionBean</title>
    <g id="FunctionBean" stroke="none" stroke-width="1" fill="none" fill-rule="evenodd">
        <g id="function" transform="translate(1.000000, 1.000000)">
            <polygon id="Shape" fill="#C88312" points="0 24.6763636 9.61538462 24.6763636 9.61538462 28.7890909 0 28.7890909"></polygon>
            <polygon id="Shape" fill="#000000" opacity="0.3" points="6.2967033 24.6763636 2.7760989 28.8110255 8.2706044 28.8110255 9.20604396 24.6763636"></polygon>
            <polygon id="Shape" fill="#C88312" points="16.4835165 0 26.0989011 0 26.0989011 4.11272727 16.4835165 4.11272727"></polygon>
            <polygon id="Shape" fill="#000000" opacity="0.3" points="19.831044 4.13466182 23.3516484 0 17.8571429 0 16.9203297 4.13466182"></polygon>
            <polygon id="Shape" fill="#C88312" points="5.49450549 9.59636364 21.978022 9.59636364 21.978022 13.7090909 5.49450549 13.7090909"></polygon>
            <polygon id="Shape" fill="#000000" opacity="0.3" points="17.0837912 13.7310255 20.6043956 9.59636364 15.1098901 9.59636364 14.1730769 13.7310255"></polygon>
            <polygon id="Shape" fill="#F5A623" points="15.1098901 0 20.6043956 0 10.989011 28.7890909 5.49450549 28.7890909"></polygon>
        </g>
        <path d="M23.2977381,22.9885527 C25.9483193,19.8696945 25.5896598,17.2088146 25.2397481,16.0677065 C25.2368322,16.0677065 25.2310003,16.0651479 25.2280844,16.0651479 C22.1867684,15.5457646 19.0433949,18.1887348 18.2065227,21.9651374 C17.4687922,25.2937958 18.7663814,28.3921858 21.1603607,29.438628 C20.8396083,28.1286563 20.8687676,25.8489986 23.2977381,22.9885527 Z" id="Path" fill="#8B572A"></path>
        <path d="M26.3134632,16 C26.4709235,16.7266249 26.5584014,17.7474817 26.2901358,18.9576704 C26.0189542,20.1780932 25.3891131,21.5904063 24.1148513,23.0922684 C21.5255047,26.1394876 21.889996,28.4089111 22.2603192,29.3939484 C22.2807308,29.3965069 22.3011423,29.401624 22.3215538,29.4067411 C25.3628698,29.9261243 28.5062433,27.2831542 29.3431155,23.5067516 C30.0895938,20.1422736 28.7570134,17.0131812 26.3134632,16 Z" id="Path" fill="#8B572A"></path>
    </g>
</svg>