<?xml version="1.0" encoding="UTF-8"?>
<svg width="32px" height="32px" viewBox="0 0 32 32" version="1.1" xmlns="http://www.w3.org/2000/svg" xmlns:xlink="http://www.w3.org/1999/xlink">
    <title>FunctionAnnotation</title>
    <defs>
        <linearGradient x1="9.6613432%" y1="9.73943357%" x2="88.7832751%" y2="76.1828016%" id="linearGradient-1">
            <stop stop-color="#7ED321" offset="0%"></stop>
            <stop stop-color="#71B427" offset="100%"></stop>
        </linearGradient>
        <text id="text-2" font-family="Helvetica-Bold, Helvetica" font-size="12" font-weight="bold" fill="#FFFFFF">
            <tspan x="2.89941406" y="12">@</tspan>
        </text>
        <filter x="-69.7%" y="-67.9%" width="239.4%" height="264.3%" filterUnits="objectBoundingBox" id="filter-3">
            <feOffset dx="0" dy="2" in="SourceAlpha" result="shadowOffsetOuter1"></feOffset>
            <feGaussianBlur stdDeviation="3.5" in="shadowOffsetOuter1" result="shadowBlurOuter1"></feGaussianBlur>
            <feColorMatrix values="0 0 0 0 0   0 0 0 0 0   0 0 0 0 0  0 0 0 0.5 0" type="matrix" in="shadowBlurOuter1"></feColorMatrix>
        </filter>
    </defs>
    <g id="FunctionAnnotation" stroke="none" stroke-width="1" fill="none" fill-rule="evenodd">
        <g id="function" transform="translate(1.000000, 1.000000)">
            <polygon id="Shape" fill="#C88312" points="0 24.6763636 9.61538462 24.6763636 9.61538462 28.7890909 0 28.7890909"></polygon>
            <polygon id="Shape" fill="#000000" opacity="0.3" points="6.2967033 24.6763636 2.7760989 28.8110255 8.2706044 28.8110255 9.20604396 24.6763636"></polygon>
            <polygon id="Shape" fill="#C88312" points="16.4835165 0 26.0989011 0 26.0989011 4.11272727 16.4835165 4.11272727"></polygon>
            <polygon id="Shape" fill="#000000" opacity="0.3" points="19.831044 4.13466182 23.3516484 0 17.8571429 0 16.9203297 4.13466182"></polygon>
            <polygon id="Shape" fill="#C88312" points="5.49450549 9.59636364 21.978022 9.59636364 21.978022 13.7090909 5.49450549 13.7090909"></polygon>
            <polygon id="Shape" fill="#000000" opacity="0.3" points="17.0837912 13.7310255 20.6043956 9.59636364 15.1098901 9.59636364 14.1730769 13.7310255"></polygon>
            <polygon id="Shape" fill="#F5A623" points="15.1098901 0 20.6043956 0 10.989011 28.7890909 5.49450549 28.7890909"></polygon>
        </g>
        <g id="Group" transform="translate(15.000000, 16.000000)">
            <circle id="Oval" fill="#7ED321" cx="9" cy="8" r="8"></circle>
            <path d="M13,5 L16.8835186,9.36785809 C16.3119025,12.6856727 13.6968109,15.3043369 10.3808199,15.8812744 L4.5,10 C4,7.5 4.33333333,5.66666667 5.5,4.5 C6.66666667,3.33333333 9.16666667,3.5 13,5 Z" id="Combined-Shape" fill="url(#linearGradient-1)"></path>
            <g id="@" fill="#FFFFFF" fill-opacity="1">
                <use filter="url(#filter-3)" xlink:href="#text-2"></use>
                <use xlink:href="#text-2"></use>
            </g>
        </g>
    </g>
</svg>