<?xml version="1.0" encoding="UTF-8"?>
<svg width="16px" height="16px" viewBox="0 0 16 16" version="1.1" xmlns="http://www.w3.org/2000/svg" xmlns:xlink="http://www.w3.org/1999/xlink">
    <title>IndexExternal</title>
    <g id="IndexExternal" stroke="none" stroke-width="1" fill="none" fill-rule="evenodd">
        <path d="M14.5,13 L16,16 L0,16 L1.5,13 L14.5,13 Z M12.5,9 L14,12 L2,12 L3.5,9 L12.5,9 Z M10.5,5 L12,8 L4,8 L5.5,5 L10.5,5 Z M8,0 L10,4 L6,4 L8,0 Z" id="Combined-Shape" fill="#939393"></path>
        <path d="M5.5,13 L4,16 L0,16 L1.5,13 L5.5,13 Z M7.5,9 L6,12 L2,12 L3.5,9 L7.5,9 Z M9.5,5 L8,8 L4,8 L5.5,5 L9.5,5 Z M8,0 L10,4 L6,4 L8,0 Z" id="Combined-Shape" fill="#BABABA"></path>
        <polygon id="Triangle-3" fill-opacity="0.415421196" fill="#272727" points="9.5 5 10.5 5 12 8 8 8"></polygon>
        <polygon id="Triangle-3" fill-opacity="0.415421196" fill="#272727" points="7.5 9 8.5 9 10 12 6 12"></polygon>
        <polygon id="Triangle-3-Copy-3" fill-opacity="0.415421196" fill="#272727" points="5.5 13 6.5 13 8 16 4 16"></polygon>
    </g>
</svg>