<?xml version="1.0" encoding="UTF-8"?>
<svg width="32px" height="32px" viewBox="0 0 32 32" version="1.1" xmlns="http://www.w3.org/2000/svg" xmlns:xlink="http://www.w3.org/1999/xlink">
    <title>iOS_Project</title>
    <g id="iOS_Project" stroke="none" stroke-width="1" fill="none" fill-rule="evenodd">
        <rect id="Rectangle-1" fill="#3F78AF" x="0" y="0" width="32" height="32"></rect>
        <path d="M25.982,23.3676638 C25.982,23.3676638 25.6558,23.6783215 25.3002,23.8793353 C24.9418,24.0803491 24.5204,24.1930387 24.5204,24.1930387 C24.5204,24.1930387 26.1668,28.863564 26.3782,29.3965551 C26.5896,29.9295463 27.3512,30.2386811 28.1786,29.7696489 C29.006,29.3051852 29.321,28.5711802 28.9388,27.9559562 C28.7386,27.6346387 25.982,23.3676638 25.982,23.3676638 L25.982,23.3676638 Z M26.57,19.7280957 C26.731,20.1194634 26.8892,20.5093084 27.0502,20.8991534 L30,20.8991534 L30,16.3306578 L25.0958,16.3306578 C25.7664,17.8991746 26.2718,19.1265771 26.5378,19.7539838 L26.57,19.7280957 Z M14.9598,2.08608859 C14.635,2.27035125 14.586,2.61298841 14.7722,3.07440647 C14.957,3.53887018 18.9358,13.5271243 20.0152,15.7900525 C21.0918,18.0529806 21.4978,18.5448553 21.4978,18.5448553 C21.4978,18.5448553 22.0634,18.3529785 22.643,18.0255696 C23.2212,17.6981608 23.693,17.3083158 23.693,17.3083158 C23.693,17.3083158 23.469,16.7128886 22.3924,14.4530061 C21.341,12.2448999 16.1736,2.9038493 15.867,2.45613673 C15.5646,2.01146983 15.286,1.9003031 14.9598,2.08608859 L14.9598,2.08608859 Z M14.6574,16.3306578 C13.8832,17.8534896 13.1076,19.3763215 12.3334,20.8991534 L20.4716,20.8991534 C19.829,19.7265728 18.9694,18.1428277 18.0244,16.3306578 L14.6574,16.3306578 Z M21.9444,19.7859633 L23.735,23.0646203 C23.735,23.0646203 24.2418,22.9062457 24.6982,22.65041 C25.1546,22.3884829 25.5648,22.0321403 25.5648,22.0321403 L24.1368,18.5509466 C24.1368,18.5509466 23.6202,18.9651569 23.0868,19.2666776 C22.552,19.5681983 21.9444,19.7859633 21.9444,19.7859633 L21.9444,19.7859633 Z M15.3896,11.0860249 L12.5084,9.35151938 L11.6362,11.0647052 L14.5188,12.8037792 L15.3896,11.0860249 Z M11.0524,12.3271328 L5.5784,23.0920312 C5.5784,23.0920312 6.2364,23.7407576 6.921,24.1549679 C7.6042,24.5646096 8.4624,24.8265367 8.4624,24.8265367 L13.935,14.0662068 L11.0524,12.3271328 Z M15.4414,7.39924894 C14.6448,6.91955691 13.592,7.33224434 13.1524,8.19721283 L16.035,9.93019549 C16.4732,9.06522699 16.238,7.87741814 15.4414,7.39924894 L15.4414,7.39924894 Z M4.9316,24.362073 C4.9316,24.362073 4.5214,27.9011342 4.2008,28.8117877 C3.974,29.4513771 4.3674,29.714827 4.7412,29.1331052 C5.2522,28.3412326 7.8128,26.0981013 7.8128,26.0981013 C7.8128,26.0981013 6.9182,25.8133318 6.2742,25.4265325 C5.6274,25.041256 4.9316,24.362073 4.9316,24.362073 L4.9316,24.362073 Z M7.1422,16.3306578 L2,16.3306578 L2,20.8991534 L4.8196,20.8991534 C5.5938,19.3763215 6.368,17.8534896 7.1422,16.3306578 L7.1422,16.3306578 Z" id="XCWelcome-NewProjectTemplate" fill="#FFFFFF"></path>
    </g>
</svg>