<?xml version="1.0" encoding="UTF-8"?>
<svg width="16px" height="16px" viewBox="0 0 16 16" version="1.1" xmlns="http://www.w3.org/2000/svg" xmlns:xlink="http://www.w3.org/1999/xlink">
    <!-- Generator: Sketch 53.2 (72643) - https://sketchapp.com -->
    <title>iOS_Workspace16</title>
    <desc>Created with Sketch.</desc>
    <g id="iOS_Workspace16" stroke="none" stroke-width="1" fill="none" fill-rule="evenodd">
        <rect id="Rectangle-1" stroke="#3F78AF" x="0.5" y="0.5" width="15" height="15"></rect>
        <path d="M12.991,11.6838319 C12.991,11.6838319 12.8279,11.8391607 12.6501,11.9396676 C12.4709,12.0401746 12.2602,12.0965193 12.2602,12.0965193 C12.2602,12.0965193 13.0834,14.431782 13.1891,14.6982776 C13.2948,14.9647731 13.6756,15.1193406 14.0893,14.8848245 C14.503,14.6525926 14.6605,14.2855901 14.4694,13.9779781 C14.3693,13.8173193 12.991,11.6838319 12.991,11.6838319 L12.991,11.6838319 Z M13.285,9.86404783 C13.3655,10.0597317 13.4446,10.2546542 13.5251,10.4495767 L15,10.4495767 L15,8.16532889 L12.5479,8.16532889 C12.8832,8.9495873 13.1359,9.56328854 13.2689,9.8769919 L13.285,9.86404783 Z M7.4799,1.0430443 C7.3175,1.13517562 7.293,1.30649421 7.3861,1.53720323 C7.4785,1.76943509 9.4679,6.76356217 10.0076,7.89502624 C10.5459,9.02649031 10.7489,9.27242765 10.7489,9.27242765 C10.7489,9.27242765 11.0317,9.17648924 11.3215,9.01278482 C11.6106,8.84908039 11.8465,8.65415792 11.8465,8.65415792 C11.8465,8.65415792 11.7345,8.35644429 11.1962,7.22650305 C10.6705,6.12244995 8.0868,1.45192465 7.9335,1.22806837 C7.7823,1.00573492 7.643,0.950151552 7.4799,1.0430443 L7.4799,1.0430443 Z M7.3287,8.16532889 C6.9416,8.92674482 6.5538,9.68816075 6.1667,10.4495767 L10.2358,10.4495767 C9.9145,9.86328641 9.4847,9.07141385 9.0122,8.16532889 L7.3287,8.16532889 Z M10.9722,9.89298163 L11.8675,11.5323101 C11.8675,11.5323101 12.1209,11.4531229 12.3491,11.325205 C12.5773,11.1942415 12.7824,11.0160701 12.7824,11.0160701 L12.0684,9.27547331 C12.0684,9.27547331 11.8101,9.48257845 11.5434,9.6333388 C11.276,9.78409916 10.9722,9.89298163 10.9722,9.89298163 L10.9722,9.89298163 Z M7.6948,5.54301243 L6.2542,4.67575969 L5.8181,5.53235261 L7.2594,6.4018896 L7.6948,5.54301243 Z M5.5262,6.16356642 L2.7892,11.5460156 C2.7892,11.5460156 3.1182,11.8703788 3.4605,12.0774839 C3.8021,12.2823048 4.2312,12.4132684 4.2312,12.4132684 L6.9675,7.03310341 L5.5262,6.16356642 Z M7.7207,3.69962447 C7.3224,3.45977845 6.796,3.66612217 6.5762,4.09860642 L8.0175,4.96509774 C8.2366,4.5326135 8.119,3.93870907 7.7207,3.69962447 L7.7207,3.69962447 Z M2.4658,12.1810365 C2.4658,12.1810365 2.2607,13.9505671 2.1004,14.4058938 C1.987,14.7256885 2.1837,14.8574135 2.3706,14.5665526 C2.6261,14.1706163 3.9064,13.0490507 3.9064,13.0490507 C3.9064,13.0490507 3.4591,12.9066659 3.1371,12.7132662 C2.8137,12.520628 2.4658,12.1810365 2.4658,12.1810365 L2.4658,12.1810365 Z M3.5711,8.16532889 L1,8.16532889 L1,10.4495767 L2.4098,10.4495767 C2.7969,9.68816075 3.184,8.92674482 3.5711,8.16532889 L3.5711,8.16532889 Z" id="XCWelcome-NewProjectTemplate" fill="#3F78AF"></path>
    </g>
</svg>