<?xml version="1.0" encoding="UTF-8"?>
<svg width="32px" height="32px" viewBox="0 0 32 32" version="1.1" xmlns="http://www.w3.org/2000/svg" xmlns:xlink="http://www.w3.org/1999/xlink">
    <title>ListBean</title>
    <g id="ListBean" stroke="none" stroke-width="1" fill="none" fill-rule="evenodd">
        <g id="window" transform="translate(3.000000, 3.000000)">
            <path d="M26,7 L26,24 C26,25.104 25.104,26 24,26 L2,26 C0.896,26 0,25.104 0,24 L0,7 L26,7 L26,7 Z" id="Shape" fill="#E7E7E7"></path>
            <path d="M2,0 L24,0 C25.104,0 26,0.896 26,2 L26,7 L0,7 L0,2 C0,0.896 0.896,0 2,0 L2,0 Z" id="Shape" fill="#DBDBDB"></path>
            <path d="M0.012,7 L19.012,26 L24,26 C25.104,26 26,25.104 26,24 L26,7 L0.012,7 L0.012,7 Z" id="Shape" fill="#000000" opacity="0.05"></path>
        </g>
        <rect id="Rectangle-5" fill="#9B9B9B" x="6" y="6" width="20" height="3"></rect>
        <rect id="Rectangle-5-Copy" fill="#9B9B9B" x="6" y="12" width="20" height="3"></rect>
        <rect id="Rectangle-5-Copy-2" fill="#9B9B9B" x="6" y="18" width="20" height="3"></rect>
        <rect id="Rectangle-5-Copy-3" fill="#9B9B9B" x="6" y="24" width="20" height="3"></rect>
        <path d="M23.2977381,22.9885527 C25.9483193,19.8696945 25.5896598,17.2088146 25.2397481,16.0677065 C25.2368322,16.0677065 25.2310003,16.0651479 25.2280844,16.0651479 C22.1867684,15.5457646 19.0433949,18.1887348 18.2065227,21.9651374 C17.4687922,25.2937958 18.7663814,28.3921858 21.1603607,29.438628 C20.8396083,28.1286563 20.8687676,25.8489986 23.2977381,22.9885527 Z" id="Path" fill="#8B572A"></path>
        <path d="M26.3134632,16 C26.4709235,16.7266249 26.5584014,17.7474817 26.2901358,18.9576704 C26.0189542,20.1780932 25.3891131,21.5904063 24.1148513,23.0922684 C21.5255047,26.1394876 21.889996,28.4089111 22.2603192,29.3939484 C22.2807308,29.3965069 22.3011423,29.401624 22.3215538,29.4067411 C25.3628698,29.9261243 28.5062433,27.2831542 29.3431155,23.5067516 C30.0895938,20.1422736 28.7570134,17.0131812 26.3134632,16 Z" id="Path" fill="#8B572A"></path>
    </g>
</svg>