<?xml version="1.0" encoding="UTF-8"?>
<svg width="32px" height="32px" viewBox="0 0 32 32" version="1.1" xmlns="http://www.w3.org/2000/svg" xmlns:xlink="http://www.w3.org/1999/xlink">
    <title>Member</title>
    <g id="Member" stroke="none" stroke-width="1" fill="none" fill-rule="evenodd">
        <g id="variable" transform="translate(-1.000000, 6.000000)">
            <rect id="Rectangle-path" fill="#4095F7" x="4.28571429" y="1.61538462" width="5.35714286" height="3.23076923"></rect>
            <rect id="Rectangle-path" fill="#2274C6" x="20.3571429" y="1.61538462" width="5.35714286" height="3.23076923"></rect>
            <polygon id="Shape" fill="#000000" opacity="0.3" points="6.42857143 4.84615385 9.64285714 4.84615385 9.64285714 1.61538462 7.5 1.61538462"></polygon>
            <polygon id="Shape" fill="#000000" opacity="0.3" points="23.5714286 1.61538462 21.4285714 1.61538462 21.4285714 4.84615385 24.6428571 4.84615385"></polygon>
            <polygon id="Shape" fill="#2274C6" points="20.3571429 1.61538462 11.7857143 19.3846154 15 19.3846154 23.5714286 1.61538462"></polygon>
            <polygon id="Shape" fill="#000000" opacity="0.3" points="12.8571429 19.3846154 15 19.3846154 16.5789577 16.1538462 12.8571429 16.1538462"></polygon>
            <polygon id="Shape" fill="#4095F7" points="7.5 1.61538462 10.7142857 1.61538462 15 19.3846154 11.7857143 19.3846154"></polygon>
        </g>
        <polygon id="Shape" fill="#000000" points="23.0786227 20.4285714 23.0786227 19 20.3595409 19 20.3595409 23.2857143 19 23.2857143 19 24.7142857 20.3595409 24.7142857 20.3595409 29 23.0786227 29 23.0786227 27.5714286 21.7190818 27.5714286 21.7190818 20.4285714"></polygon>
        <polygon id="Shape" fill="#000000" points="28.5167864 23.2857143 28.5167864 19 25.7977046 19 25.7977046 20.4285714 27.1572455 20.4285714 27.1572455 27.5714286 25.7977046 27.5714286 25.7977046 29 28.5167864 29 28.5167864 24.7142857 29.8763273 24.7142857 29.8763273 23.2857143"></polygon>
    </g>
</svg>