<?xml version="1.0" encoding="UTF-8"?>
<svg width="32px" height="32px" viewBox="0 0 32 32" version="1.1" xmlns="http://www.w3.org/2000/svg" xmlns:xlink="http://www.w3.org/1999/xlink">
    <title>Menu</title>
    <g id="Menu" stroke="none" stroke-width="1" fill="none" fill-rule="evenodd">
        <g id="window" transform="translate(3.000000, 3.000000)">
            <path d="M26,7 L26,24 C26,25.104 25.104,26 24,26 L2,26 C0.896,26 0,25.104 0,24 L0,7 L26,7 L26,7 Z" id="Shape" fill="#E7E7E7"></path>
            <path d="M2,0 L24,0 C25.104,0 26,0.896 26,2 L26,7 L0,7 L0,2 C0,0.896 0.896,0 2,0 L2,0 Z" id="Shape" fill="#9B9B9B"></path>
            <path d="M0.012,7 L19.012,26 L24,26 C25.104,26 26,25.104 26,24 L26,7 L0.012,7 L0.012,7 Z" id="Shape" fill="#000000" opacity="0.05"></path>
        </g>
    </g>
</svg>