<?xml version="1.0" encoding="UTF-8"?>
<svg width="16px" height="16px" viewBox="0 0 16 16" version="1.1" xmlns="http://www.w3.org/2000/svg" xmlns:xlink="http://www.w3.org/1999/xlink">
    <title>Paragraph</title>
    <g id="Paragraph" stroke="none" stroke-width="1" fill="none" fill-rule="evenodd">
        <rect id="Rectangle-1" fill="#44117D" x="0" y="0" width="16" height="16" rx="3"></rect>
        <path d="M0.989257812,7.4140625 C1.29004057,7.40624996 1.5351553,7.32519608 1.72460938,7.17089844 C1.91406345,7.01660079 2.04003875,6.80468885 2.10253906,6.53515625 C2.16503938,6.26562365 2.19824217,5.80469076 2.20214844,5.15234375 C2.20605471,4.49999674 2.21777334,4.07031354 2.23730469,3.86328125 C2.27246111,3.53515461 2.33789015,3.27148537 2.43359375,3.07226562 C2.52929735,2.87304588 2.64746023,2.71386778 2.78808594,2.59472656 C2.92871164,2.47558534 3.10839734,2.38476594 3.32714844,2.32226562 C3.47558668,2.28320293 3.71777176,2.26367188 4.05371094,2.26367188 L4.38183594,2.26367188 L4.38183594,3.18359375 L4.20019531,3.18359375 C3.79394328,3.18359375 3.52441473,3.25683521 3.39160156,3.40332031 C3.2587884,3.54980542 3.19238281,3.87695059 3.19238281,4.38476562 C3.19238281,5.40820824 3.17089865,6.05468615 3.12792969,6.32421875 C3.05761684,6.74218959 2.93750085,7.06445199 2.76757812,7.29101562 C2.5976554,7.51757926 2.3310565,7.71874912 1.96777344,7.89453125 C2.39746309,8.07421965 2.70898341,8.34863097 2.90234375,8.71777344 C3.09570409,9.08691591 3.19238281,9.69140205 3.19238281,10.53125 C3.19238281,11.2929726 3.20019523,11.746093 3.21582031,11.890625 C3.24707047,12.1562513 3.32617124,12.3417963 3.453125,12.4472656 C3.58007876,12.5527349 3.82909971,12.6054688 4.20019531,12.6054688 L4.38183594,12.6054688 L4.38183594,13.5253906 L4.05371094,13.5253906 C3.67089652,13.5253906 3.39355555,13.4941409 3.22167969,13.4316406 C2.97167844,13.3417964 2.76464926,13.1962901 2.60058594,12.9951172 C2.43652262,12.7939443 2.33007837,12.539064 2.28125,12.2304688 C2.23242163,11.9218735 2.20605471,11.4160191 2.20214844,10.7128906 C2.19824217,10.0097621 2.16503938,9.52343885 2.10253906,9.25390625 C2.04003875,8.98437365 1.91406345,8.77148516 1.72460938,8.61523438 C1.5351553,8.45898359 1.29004057,8.37695316 0.989257812,8.36914062 L0.989257812,7.4140625 Z M5.50097656,11.4101562 L6.56152344,11.2578125 C6.67089898,11.7656275 6.84472537,12.1220693 7.08300781,12.3271484 C7.32129025,12.5322276 7.64550576,12.6347656 8.05566406,12.6347656 C8.45410355,12.6347656 8.76562388,12.5332041 8.99023438,12.3300781 C9.21484487,12.1269521 9.32714844,11.8886732 9.32714844,11.6152344 C9.32714844,11.4160146 9.25683664,11.2324227 9.11621094,11.0644531 C8.87402223,10.7714829 8.20996637,10.2929721 7.12402344,9.62890625 C6.54589555,9.27343572 6.14257927,8.99511819 5.9140625,8.79394531 C5.68554573,8.59277243 5.49902416,8.35547012 5.35449219,8.08203125 C5.20996021,7.80859238 5.13769531,7.52343898 5.13769531,7.2265625 C5.13769531,6.85156063 5.25488164,6.51172027 5.48925781,6.20703125 C5.72363398,5.90234223 6.04589639,5.68945373 6.45605469,5.56835938 C6.17870955,5.30273305 5.983399,5.05761831 5.87011719,4.83300781 C5.75683537,4.60839731 5.70019531,4.36914189 5.70019531,4.11523438 C5.70019531,3.61523187 5.89550586,3.18164246 6.28613281,2.81445312 C6.67675977,2.44726379 7.19433271,2.26367188 7.83886719,2.26367188 C8.56933959,2.26367188 9.13964639,2.43749826 9.54980469,2.78515625 C9.95996299,3.13281424 10.2060543,3.63671545 10.2880859,4.296875 L9.19238281,4.40820312 C9.11035115,3.93163824 8.9667979,3.59961031 8.76171875,3.41210938 C8.5566396,3.22460844 8.28027518,3.13085938 7.93261719,3.13085938 C7.57324039,3.13085938 7.28320423,3.2275381 7.0625,3.42089844 C6.84179577,3.61425878 6.73144531,3.82812383 6.73144531,4.0625 C6.73144531,4.26562602 6.80175711,4.45312414 6.94238281,4.625 C7.16113391,4.89062633 7.75878418,5.32030953 8.73535156,5.9140625 C9.34863588,6.28906438 9.76269424,6.56445225 9.97753906,6.74023438 C10.2548842,6.97461055 10.4589837,7.21679562 10.5898438,7.46679688 C10.7207038,7.71679813 10.7861328,7.98827979 10.7861328,8.28125 C10.7861328,8.72265846 10.6435561,9.09960781 10.3583984,9.41210938 C10.1943351,9.59179777 9.89355687,9.77343658 9.45605469,9.95703125 C9.76855625,10.1953137 10.0019524,10.4511705 10.15625,10.7246094 C10.3105476,10.9980482 10.3876953,11.2910141 10.3876953,11.6035156 C10.3876953,11.9472673 10.29004,12.2724594 10.0947266,12.5791016 C9.89941309,12.8857437 9.6181659,13.1201164 9.25097656,13.2822266 C8.88378723,13.4443367 8.48730682,13.5253906 8.06152344,13.5253906 C7.31542596,13.5253906 6.723635,13.3388691 6.28613281,12.9658203 C5.84863063,12.5927716 5.58691449,12.0742221 5.50097656,11.4101562 Z M8.92871094,9.5703125 C9.21777488,9.42187426 9.43359304,9.24902442 9.57617188,9.05175781 C9.71875071,8.8544912 9.79003906,8.66211031 9.79003906,8.47460938 C9.79003906,8.25195201 9.68847758,8.01757936 9.48535156,7.77148438 C9.27831928,7.52538939 8.83887055,7.19531457 8.16699219,6.78125 C7.63183326,6.45312336 7.23339975,6.1835948 6.97167969,5.97265625 C6.65527186,6.15234465 6.42968817,6.33203035 6.29492188,6.51171875 C6.16015558,6.69140715 6.09277344,6.89062391 6.09277344,7.109375 C6.09277344,7.35546998 6.18261629,7.58984264 6.36230469,7.8125 C6.54199309,8.03515736 6.94628592,8.33202939 7.57519531,8.703125 C8.09863543,9.01172029 8.54980279,9.3007799 8.92871094,9.5703125 Z M15.0048828,7.4140625 L15.0048828,8.36914062 C14.7041001,8.37695316 14.4589853,8.45898359 14.2695312,8.61523438 C14.0800772,8.77148516 13.9541019,8.9833971 13.8916016,9.25097656 C13.8291013,9.51855603 13.7958985,9.97851236 13.7919922,10.6308594 C13.7880859,11.2832064 13.7763673,11.7128896 13.7568359,11.9199219 C13.7216795,12.2519548 13.6562505,12.5166006 13.5605469,12.7138672 C13.4648433,12.9111338 13.3466804,13.0693353 13.2060547,13.1884766 C13.065429,13.3076178 12.8857433,13.3984372 12.6669922,13.4609375 C12.5185539,13.5039065 12.2763689,13.5253906 11.9404297,13.5253906 L11.6123047,13.5253906 L11.6123047,12.6054688 L11.7939453,12.6054688 C12.2001973,12.6054688 12.4697259,12.5322273 12.6025391,12.3857422 C12.7353522,12.2392571 12.8017578,11.9101588 12.8017578,11.3984375 C12.8017578,10.4218701 12.8193358,9.80273568 12.8544922,9.54101562 C12.9169925,9.10741971 13.0419912,8.76074349 13.2294922,8.50097656 C13.4169931,8.24120964 13.6826155,8.03906322 14.0263672,7.89453125 C13.5771462,7.67968643 13.2607431,7.39550958 13.0771484,7.04199219 C12.8935538,6.68847479 12.8017578,6.09180107 12.8017578,5.25195312 C12.8017578,4.49023057 12.7919923,4.03515699 12.7724609,3.88671875 C12.7451171,3.62499869 12.6679694,3.44238333 12.5410156,3.33886719 C12.4140619,3.23535104 12.1650409,3.18359375 11.7939453,3.18359375 L11.6123047,3.18359375 L11.6123047,2.26367188 L11.9404297,2.26367188 C12.3232441,2.26367188 12.6005851,2.29492156 12.7724609,2.35742188 C13.0224622,2.4433598 13.2294914,2.58788961 13.3935547,2.79101562 C13.557618,2.99414164 13.6640623,3.24999846 13.7128906,3.55859375 C13.761719,3.86718904 13.7880859,4.37304336 13.7919922,5.07617188 C13.7958985,5.77930039 13.8291013,6.2646471 13.8916016,6.53222656 C13.9541019,6.79980603 14.0800772,7.01171797 14.2695312,7.16796875 C14.4589853,7.32421953 14.7041001,7.40624996 15.0048828,7.4140625 Z" id="{ยง}" fill="#FFFFFF"></path>
    </g>
</svg>