<?xml version="1.0" encoding="UTF-8"?>
<svg width="32px" height="32px" viewBox="0 0 32 32" version="1.1" xmlns="http://www.w3.org/2000/svg" xmlns:xlink="http://www.w3.org/1999/xlink">
    <title>ProcessRed</title>
    <g id="ProcessRed" stroke="none" stroke-width="1" fill="none" fill-rule="evenodd">
        <g id="object" transform="translate(2.000000, 2.000000)" fill="#CE041C">
            <g id="Group">
                <path d="M28,16.6273333 L28,11.3726667 L23.9878333,10.7041667 C23.8233333,10.2083333 23.625,9.72883333 23.394,9.268 L25.7576667,5.95933333 L22.0406667,2.24233333 L18.7366667,4.6025 C18.2746667,4.368 17.7928333,4.16733333 17.2946667,4.004 L16.6273333,0 L11.3726667,0 L10.7053333,4.004 C10.2071667,4.1685 9.72533333,4.368 9.26333333,4.60366667 L5.95816667,2.24233333 L2.24233333,5.95816667 L4.606,9.268 C4.375,9.72766667 4.17666667,10.2083333 4.01333333,10.7041667 L0,11.3726667 L0,16.6273333 L4.02266667,17.2981667 C4.186,17.7893333 4.38433333,18.2641667 4.61416667,18.7215 L2.24233333,22.0418333 L5.95933333,25.7588333 L9.2855,23.3823333 C9.73933333,23.6098333 10.2118333,23.807 10.7006667,23.968 L11.3726667,28 L16.6273333,28 L17.2993333,23.9668333 C17.7881667,23.8058333 18.2606667,23.6086667 18.7145,23.3811667 L22.0418333,25.7576667 L25.7588333,22.0406667 L23.387,18.7203333 C23.6168333,18.263 23.8151667,17.7881667 23.9785,17.297 L28,16.6273333 L28,16.6273333 L28,16.6273333 Z M14,18.6666667 C11.4228333,18.6666667 9.33333333,16.5771667 9.33333333,14 C9.33333333,11.4228333 11.4228333,9.33333333 14,9.33333333 C16.5771667,9.33333333 18.6666667,11.4228333 18.6666667,14 C18.6666667,16.5771667 16.5771667,18.6666667 14,18.6666667 L14,18.6666667 Z" id="Shape"></path>
            </g>
        </g>
    </g>
</svg>