<?xml version="1.0" encoding="UTF-8"?>
<svg width="16px" height="16px" viewBox="0 0 16 16" version="1.1" xmlns="http://www.w3.org/2000/svg" xmlns:xlink="http://www.w3.org/1999/xlink">
    <title>Project_Cpp</title>
    <g id="Project_Cpp" stroke="none" stroke-width="1" fill="none" fill-rule="evenodd">
        <path d="M8.86395063,0.32899864 L14.1510497,3.41313977 C14.625435,3.68986451 15.0100002,4.35358334 15.0100002,4.91630317 L15.0100002,11.0845854 C15.0100002,11.6380349 14.623403,12.3122094 14.1510497,12.5877488 L8.86395063,15.67189 C8.38956536,15.9486147 7.61840284,15.9474294 7.1460496,15.67189 L1.85895051,12.5877488 C1.38456524,12.3110241 1,11.6473053 1,11.0845854 L1,4.91630317 C1,4.36285369 1.38659727,3.68867916 1.85895051,3.41313977 L7.1460496,0.32899864 C7.62043487,0.0522738991 8.39159739,0.053459248 8.86395063,0.32899864 Z M8.00500011,3.33044423 C5.42583029,3.33044423 3.33500004,5.42127448 3.33500004,8.00044431 C3.33500004,10.5796141 5.42583029,12.6704444 8.00500011,12.6704444 C9.66160139,12.6704444 11.1167384,11.8078733 11.9457821,10.5073602 L9.97492666,9.25463057 C9.56032592,9.90448083 8.83299148,10.3354443 8.00500011,10.3354443 C6.7154152,10.3354443 5.67000008,9.29002922 5.67000008,8.00044431 C5.67000008,6.71085939 6.7154152,5.66544427 8.00500011,5.66544427 C8.83341457,5.66544427 9.56106921,6.09684833 9.97556198,6.74725441 L11.9457821,5.49352839 C11.1167384,4.19301529 9.66160139,3.33044423 8.00500011,3.33044423 Z M11.9161256,7.21335804 L11.3626249,7.21335804 L11.362,7.691 L10.8653749,7.69105696 L10.8653749,8.24455771 L11.362,8.244 L11.3626249,8.75767325 L11.9161256,8.75767325 L11.916,8.244 L12.4123125,8.24455771 L12.4123125,7.69105696 L11.916,7.691 L11.9161256,7.21335804 Z M13.784125,7.21238157 L13.2306242,7.21238157 L13.23,7.691 L12.7333754,7.69105696 L12.7333754,8.24455771 L13.23,8.244 L13.2306242,8.75669678 L13.784125,8.75669678 L13.784,8.244 L14.280313,8.24455771 L14.280313,7.69105696 L13.784,7.691 L13.784125,7.21238157 Z" id="Combined-Shape" fill="#0962A5"></path>
    </g>
</svg>