<?xml version="1.0" encoding="UTF-8" standalone="no"?>
<svg width="32px" height="32px" viewBox="0 0 32 32" version="1.1" xmlns="http://www.w3.org/2000/svg" xmlns:xlink="http://www.w3.org/1999/xlink">
    <!-- Generator: Sketch 3.8.3 (29802) - http://www.bohemiancoding.com/sketch -->
    <title>CAST_NodeJS_PutOperation</title>
    <desc>Created with Sketch.</desc>
    <defs></defs>
    <g id="Functional" stroke="none" stroke-width="1" fill="none" fill-rule="evenodd">
        <g id="CAST_NodeJS_PutOperation">
            <g id="web-service-put" transform="translate(1.000000, 1.000000)">
                <g id="left" transform="translate(0.000000, 2.416667)">
                    <polygon id="Shape" fill="#C4C4C4" points="10.3730769 1.20833333 13.8307692 1.20833333 13.8307692 16.9166667 10.3730769 12.0833333"></polygon>
                    <polygon id="Shape" fill="#000000" opacity="0.1" points="10.3730769 8.45833333 13.8307692 10.875 13.8307692 13.2916667 10.3730769 10.875"></polygon>
                    <path d="M13.8307692,22.9583333 C13.4596436,22.9547083 13.0689244,22.9583333 12.6782051,22.9583333 C7.58617692,22.9583333 3.45769231,18.6300833 3.45769231,13.2916667 C3.45769231,7.95325 7.58617692,3.625 12.6782051,3.625 L13.8307692,3.625 L13.8307692,0.0604166667 C13.4504231,0.025375 13.0666192,0 12.6782051,0 C5.67637821,0 0,5.95104167 0,13.2916667 C0,20.6322917 5.67637821,26.5833333 12.6782051,26.5833333 C13.0666192,26.5833333 13.4504231,26.5579583 13.8307692,26.5217083 L13.8307692,22.9583333 L13.8307692,22.9583333 Z" id="Shape" fill="#DDDCDC"></path>
                    <polygon id="Shape" fill="#DDDCDC" points="5.76282051 10.875 13.8307692 19.3333333 13.8307692 10.875"></polygon>
                </g>
                <g id="right" transform="translate(16.135897, 0.000000)">
                    <polygon id="Shape" fill="#602880" points="3.45769231 27.7916667 0 27.7916667 0 12.0833333 3.45769231 16.9166667"></polygon>
                    <polygon id="Shape" fill="#000000" opacity="0.3" points="3.45769231 20.5416667 0 18.125 0 15.7083333 3.45769231 18.125"></polygon>
                    <polygon id="Shape" fill="#8537B2" points="8.06794872 18.125 0 9.66666667 0 18.125"></polygon>
                    <path d="M8.39642949,4.80795833 L8.39642949,9.740375 C9.62967308,11.3849167 10.3730769,13.4535833 10.3730769,15.7083333 C10.3730769,21.04675 6.24459231,25.375 1.1525641,25.375 L0,25.375 L0,28.938375 C0.380346154,28.974625 0.762997436,29 1.1525641,29 C8.15439103,29 13.8307692,23.0489583 13.8307692,15.7083333 C13.8307692,11.194 11.6789321,7.210125 8.39642949,4.80795833 L8.39642949,4.80795833 Z" id="Shape" fill="#8537B2"></path>
                    <ellipse id="Oval" fill="#8537B2" cx="3.24331538" cy="3.51504167" rx="3.24331538" ry="3.40025"></ellipse>
                </g>
            </g>
        </g>
    </g>
</svg>