<?xml version="1.0" encoding="UTF-8"?>
<svg width="16px" height="16px" viewBox="0 0 16 16" version="1.1" xmlns="http://www.w3.org/2000/svg" xmlns:xlink="http://www.w3.org/1999/xlink">
    <title>QueueReceiveGrey</title>
    <g id="QueueReceiveGrey" stroke="none" stroke-width="1" fill="none" fill-rule="evenodd">
        <g id="Main" transform="translate(-12.000000, 0.000000)" fill="#5A5B59">
            <circle id="Oval" cx="26" cy="2" r="2"></circle>
            <path d="M7.99982758,11.6824642 L7.99982758,18.3175358 C7.36808573,17.3672813 7,16.2266262 7,15 C7,13.7733738 7.36808573,12.6327187 7.99982758,11.6824642 Z M14.0008069,9.08309386 C16.5129932,9.50491217 18.495669,11.4878649 18.9170737,14.0001915 L17.8999437,13.999812 C17.502281,12.0411664 15.9596907,10.4983109 14.0011864,10.1002591 Z" id="FirstRing" opacity="0.3"></path>
            <path d="M7.99960477,8.70879903 L8.00005536,10.3923215 C7.3652014,11.4458844 7,12.6802935 7,14 C7,15.3197065 7.3652014,16.5541156 8.00005536,17.6076785 L7.99960477,19.291201 C6.7551133,17.8809902 6,16.0286782 6,14 C6,11.9713218 6.7551133,10.1190098 7.99960477,8.70879903 Z M14,6 C18.418278,6 22,9.581722 22,14 L22,13.999 L21,13.999 L20.995941,13.7593502 C20.8690987,10.0047834 17.7854517,7 14,7 Z" id="SecondRing" opacity="0.5"></path>
            <path d="M8.00075967,4.77843545 L8.00023987,5.99908746 C5.57121004,7.82348905 4,10.7282566 4,14 C4,16.7975441 5.14876093,19.3267806 7.00029777,21.1417247 L6.99999396,22.4856708 C4.55699077,20.4680874 3,17.4158711 3,14 C3,10.1381208 4.9901255,6.74106036 8.00075967,4.77843545 Z M14,3 C20.0751322,3 25,7.92486775 25,14 L25,14 L24,14 L24,14 C24,8.4771525 19.5228475,4 14,4 Z" id="ThirdRing" opacity="0.7"></path>
            <path d="M21.2141431,26.0006207 C19.107283,27.2698777 16.6389061,28 14,28 L14,28 L14,27 L14,27 C15.7743736,27 17.465719,26.644514 19.0067016,26.0008764 Z M8,26 L8.00030205,26.6528812 C7.58375358,26.4550128 7.1785264,26.2371805 6.78585694,26.0006207 L8,26 Z M8.00030205,1.34711885 L8.00061606,2.4641002 C3.84050037,4.63204235 1,8.98430397 1,14 C1,17.1586975 2.12654489,20.0542763 3.99977178,22.3068736 L4.00028144,23.7982527 C1.52574164,21.2731535 0,17.8147548 0,14 C0,8.41508921 3.27024455,3.59398496 8.00030205,1.34711885 Z M14,5.55111512e-16 C21.7319865,5.55111512e-16 28,6.2680135 28,14 L28,14 L27,14 L27,14 C27,6.82029825 21.1797017,1 14,1 Z" id="FourthRing" opacity="0.9"></path>
        </g>
    </g>
</svg>