<?xml version="1.0" encoding="UTF-8"?>
<svg width="16px" height="16px" viewBox="0 0 16 16" version="1.1" xmlns="http://www.w3.org/2000/svg" xmlns:xlink="http://www.w3.org/1999/xlink">
    <title>QueueCallGrey</title>
    <g id="QueueCallGrey" stroke="none" stroke-width="1" fill="none" fill-rule="evenodd">
        <circle id="Oval" fill="#5A5B59" cx="2" cy="14" r="2"></circle>
        <path d="M-4.00017242,11.6824642 L-4.00017242,18.3175358 C-4.63191427,17.3672813 -5,16.2266262 -5,15 C-5,13.7733738 -4.63191427,12.6327187 -4.00017242,11.6824642 Z M2.00080686,9.08309386 C4.51299324,9.50491217 6.495669,11.4878649 6.91707369,14.0001915 L5.89994372,13.999812 C5.50228099,12.0411664 3.95969071,10.4983109 2.0011864,10.1002591 Z" id="FirstRing" fill="#5A5B59" opacity="0.9"></path>
        <path d="M-4.00039523,8.70879903 L-3.99994464,10.3923215 C-4.6347986,11.4458844 -5,12.6802935 -5,14 C-5,15.3197065 -4.6347986,16.5541156 -3.99994464,17.6076785 L-4.00039523,19.291201 C-5.2448867,17.8809902 -6,16.0286782 -6,14 C-6,11.9713218 -5.2448867,10.1190098 -4.00039523,8.70879903 Z M2,6 C6.418278,6 10,9.581722 10,14 L10,13.999 L9,13.999 L8.99594098,13.7593502 C8.86909868,10.0047834 5.78545172,7 2,7 Z" id="SecondRing" fill="#5A5B59" opacity="0.7"></path>
        <path d="M-3.99924033,4.77843545 L-3.99976013,5.99908746 C-6.42878996,7.82348905 -8,10.7282566 -8,14 C-8,16.7975441 -6.85123907,19.3267806 -4.99970223,21.1417247 L-5.00000604,22.4856708 C-7.44300923,20.4680874 -9,17.4158711 -9,14 C-9,10.1381208 -7.0098745,6.74106036 -3.99924033,4.77843545 Z M2,3 C8.07513225,3 13,7.92486775 13,14 L13,14 L12,14 L12,14 C12,8.4771525 7.5228475,4 2,4 Z" id="ThirdRing" fill="#5A5B59" opacity="0.5"></path>
        <path d="M9.21414306,26.0006207 C7.10728298,27.2698777 4.63890609,28 2,28 L2,28 L2,27 L2,27 C3.77437359,27 5.46571896,26.644514 7.00670157,26.0008764 Z M-4,26 L-3.99969795,26.6528812 C-4.41624642,26.4550128 -4.8214736,26.2371805 -5.21414306,26.0006207 L-4,26 Z M-3.99969795,1.34711885 L-3.99938394,2.4641002 C-8.15949963,4.63204235 -11,8.98430397 -11,14 C-11,17.1586975 -9.87345511,20.0542763 -8.00022822,22.3068736 L-7.99971856,23.7982527 C-10.4742584,21.2731535 -12,17.8147548 -12,14 C-12,8.41508921 -8.72975545,3.59398496 -3.99969795,1.34711885 Z M2,5.55111512e-16 C9.7319865,5.55111512e-16 16,6.2680135 16,14 L16,14 L15,14 L15,14 C15,6.82029825 9.17970175,1 2,1 Z" id="FourthRing" fill="#5A5B59" opacity="0.3"></path>
    </g>
</svg>