<?xml version="1.0" encoding="UTF-8"?>
<svg width="16px" height="16px" viewBox="0 0 16 16" version="1.1" xmlns="http://www.w3.org/2000/svg" xmlns:xlink="http://www.w3.org/1999/xlink">
    <title>RegionBlack</title>
    <g id="RegionBlack" stroke="none" stroke-width="1" fill="none" fill-rule="evenodd">
        <rect id="Rectangle-1" fill="#000000" x="0" y="0" width="16" height="16" rx="8"></rect>
        <path d="M9.5008,14.2608 C10.044,13.6952 10.5032,12.8384 10.828,11.78 C11.444,11.9704 12.032,12.2112 12.592,12.508 C11.7576,13.3592 10.6936,13.9752 9.5008,14.2608 L9.5008,14.2608 Z M3.408,12.508 C3.9624,12.2168 4.5448,11.9704 5.1552,11.7856 C5.48,12.8384 5.9392,13.6952 6.4768,14.2552 C5.2952,13.9696 4.2368,13.3536 3.408,12.508 L3.408,12.508 Z M6.4768,1.7448 C5.9392,2.3048 5.48,3.1616 5.1552,4.2088 C4.5448,4.024 3.9624,3.7832 3.4136,3.4864 C4.2368,2.6464 5.2952,2.0304 6.4768,1.7448 L6.4768,1.7448 Z M12.5864,3.4864 C12.032,3.7832 11.444,4.0296 10.828,4.2144 C10.5032,3.1616 10.044,2.3048 9.5008,1.7392 C10.6936,2.0248 11.7576,2.6408 12.5864,3.4864 L12.5864,3.4864 Z M11.3656,7.72 C11.3432,6.6504 11.2088,5.648 10.9792,4.7576 C11.6792,4.5448 12.3456,4.2592 12.9728,3.9176 C13.8352,4.9592 14.3728,6.2808 14.4344,7.72 L11.3656,7.72 L11.3656,7.72 Z M11.3656,8.28 L14.4344,8.28 C14.3728,9.7192 13.8352,11.0408 12.9784,12.0824 C12.3456,11.7352 11.6792,11.4552 10.9848,11.2424 C11.2088,10.352 11.3432,9.344 11.3656,8.28 L11.3656,8.28 Z M8.28,10.8056 L8.28,8.28 L10.8,8.28 C10.7776,9.3216 10.6488,10.2736 10.4416,11.0968 C9.7472,10.9288 9.0248,10.828 8.28,10.8056 L8.28,10.8056 Z M8.28,14.3952 L8.28,11.3656 C8.9688,11.388 9.6408,11.4776 10.2848,11.6344 C9.7976,13.18 9.036,14.188 8.28,14.3952 L8.28,14.3952 Z M7.72,11.3656 L7.72,14.4008 C6.9584,14.2048 6.1856,13.1912 5.6984,11.64 C6.348,11.4776 7.0256,11.388 7.72,11.3656 L7.72,11.3656 Z M5.1832,8.28 L7.72,8.28 L7.72,10.8056 C6.9696,10.828 6.2416,10.9288 5.5416,11.1024 C5.3344,10.2736 5.2056,9.3216 5.1832,8.28 L5.1832,8.28 Z M4.6176,8.28 C4.64,9.3496 4.7744,10.3576 5.004,11.248 C4.3096,11.4608 3.6488,11.7408 3.0216,12.0824 C2.1648,11.0408 1.6272,9.7192 1.5656,8.28 L4.6176,8.28 L4.6176,8.28 Z M4.6176,7.72 L1.5656,7.72 C1.6272,6.2808 2.1648,4.9592 3.0216,3.9176 C3.6488,4.2592 4.3096,4.5392 5.004,4.752 C4.7744,5.6424 4.64,6.6504 4.6176,7.72 L4.6176,7.72 Z M7.72,5.1888 L7.72,7.72 L5.1832,7.72 C5.2056,6.6784 5.3344,5.7264 5.5416,4.8976 C6.2416,5.0712 6.9696,5.1664 7.72,5.1888 L7.72,5.1888 Z M7.72,1.5992 L7.72,4.6288 C7.0256,4.612 6.348,4.5168 5.6984,4.36 C6.1856,2.8032 6.9584,1.7952 7.72,1.5992 L7.72,1.5992 Z M8.28,4.6288 L8.28,1.6048 C9.036,1.812 9.7976,2.82 10.2848,4.36 C9.6408,4.5168 8.9688,4.612 8.28,4.6288 L8.28,4.6288 Z M8.28,5.1888 C9.0248,5.172 9.7416,5.0712 10.4416,4.9032 C10.6488,5.7264 10.7776,6.6784 10.8,7.72 L8.28,7.72 L8.28,5.1888 L8.28,5.1888 Z M8,1 L7.9944,1 L7.9832,1 C4.1248,1.0112 1,4.1416 1,8 C1,11.8584 4.1248,14.9888 7.9832,15 L7.9888,15 L8,15 C11.864,15 15,11.864 15,8 C15,4.136 11.864,1 8,1 L8,1 Z" id="globe" fill="#FFFFFF"></path>
    </g>
</svg>