<?xml version="1.0" encoding="UTF-8"?>
<svg width="16px" height="16px" viewBox="0 0 16 16" version="1.1" xmlns="http://www.w3.org/2000/svg" xmlns:xlink="http://www.w3.org/1999/xlink">
    <!-- Generator: Sketch 53.2 (72643) - https://sketchapp.com -->
    <title>ReportRed</title>
    <desc>Created with Sketch.</desc>
    <g id="ReportRed" stroke="none" stroke-width="1" fill="none" fill-rule="evenodd">
        <g id="file" transform="translate(1.000000, 0.000000)">
            <g id="Group">
                <path d="M9.03119481,0.5 L1.33333333,0.5 C0.864933667,0.5 0.5,0.836861847 0.5,1.23076923 L0.5,14.7692308 C0.5,15.1631382 0.864933667,15.5 1.33333333,15.5 L12.6666667,15.5 C13.1350663,15.5 13.5,15.1631382 13.5,14.7692308 L13.5,4.62447482 L9.03119481,0.5 Z" id="Shape" stroke="#D0021B" fill="#D0021B"></path>
                <polygon id="Shape" fill="#000000" opacity="0.1" points="9.16833325 2.96226168 14 7.1109333 14 4.42845964 9.16833325 0"></polygon>
                <path d="M9.19999981,3.1159373 C9.19999981,3.78041379 9.77018163,4.31969906 10.4727271,4.31969906 L13.8904419,4.31969929 L9.21145435,0 L9.19999981,3.1159373 Z" id="Shape" fill="#E8A994"></path>
            </g>
        </g>
        <rect id="Rectangle" fill="#FFFFFF" x="4" y="9" width="2" height="4"></rect>
        <rect id="Rectangle-Copy" fill="#FFFFFF" x="7" y="7" width="2" height="6"></rect>
        <rect id="Rectangle-Copy-2" fill="#FFFFFF" x="10" y="5" width="2" height="8"></rect>
    </g>
</svg>