<?xml version="1.0" encoding="UTF-8"?>
<svg width="32px" height="32px" viewBox="0 0 32 32" version="1.1" xmlns="http://www.w3.org/2000/svg" xmlns:xlink="http://www.w3.org/1999/xlink">
    <title>ResourceServiceGet</title>
    <g id="ResourceServiceGet" stroke="none" stroke-width="1" fill="none" fill-rule="evenodd">
        <g id="web-service-get" transform="translate(1.000000, 3.000000)">
            <g id="left">
                <polygon id="Shape" fill="#0C8D6D" points="10.0384615 1.18181818 13.3846154 1.18181818 13.3846154 16.5454545 10.0384615 11.8181818"></polygon>
                <polygon id="Shape" fill="#000000" opacity="0.3" points="10.0384615 8.27272727 13.3846154 10.6363636 13.3846154 13 10.0384615 10.6363636"></polygon>
                <path d="M13.3846154,22.4545455 C13.0254615,22.451 12.6473462,22.4545455 12.2692308,22.4545455 C7.34146154,22.4545455 3.34615385,18.2212727 3.34615385,13 C3.34615385,7.77872727 7.34146154,3.54545455 12.2692308,3.54545455 L13.3846154,3.54545455 L13.3846154,0.0590909091 C13.0165385,0.0248181818 12.6451154,0 12.2692308,0 C5.49326923,0 0,5.82045455 0,13 C0,20.1795455 5.49326923,26 12.2692308,26 C12.6451154,26 13.0165385,25.9751818 13.3846154,25.9397273 L13.3846154,22.4545455 L13.3846154,22.4545455 Z" id="Shape" fill="#16B890"></path>
                <polygon id="Shape" fill="#16B890" points="5.57692308 10.6363636 13.3846154 18.9090909 13.3846154 10.6363636"></polygon>
            </g>
            <g id="right" transform="translate(15.615385, 0.000000)">
                <polygon id="Shape" fill="#C4C4C4" points="3.34615385 24.8181818 0 24.8181818 0 9.45454545 3.34615385 14.1818182"></polygon>
                <polygon id="Shape" fill="#000000" opacity="0.1" points="3.34615385 17.7272727 0 15.3636364 0 13 3.34615385 15.3636364"></polygon>
                <path d="M0,3.54545455 C0.359153846,3.549 0.736153846,3.54545455 1.11538462,3.54545455 C6.04315385,3.54545455 10.0384615,7.77872727 10.0384615,13 C10.0384615,18.2212727 6.04315385,22.4545455 1.11538462,22.4545455 L0,22.4545455 L0,25.9397273 C0.368076923,25.9751818 0.738384615,26 1.11538462,26 C7.89134615,26 13.3846154,20.1795455 13.3846154,13 C13.3846154,5.82045455 7.89134615,0 1.11538462,0 C0.738384615,0 0.368076923,0.0248181818 0,0.0602727273 L0,3.54545455 L0,3.54545455 Z" id="Shape" fill="#DDDCDC"></path>
                <polygon id="Shape" fill="#DDDCDC" points="7.80769231 15.3636364 0 7.09090909 0 15.3636364"></polygon>
            </g>
        </g>
    </g>
</svg>