<?xml version="1.0" encoding="UTF-8"?>
<svg width="32px" height="32px" viewBox="0 0 32 32" version="1.1" xmlns="http://www.w3.org/2000/svg" xmlns:xlink="http://www.w3.org/1999/xlink">
    <title>RouteTo</title>
    <g id="RouteTo" stroke="none" stroke-width="1" fill="none" fill-rule="evenodd">
        <path d="M18.5,12 C19.3284271,12 20,12.6715729 20,13.5 L20,23.5 C20,24.3284271 19.3284271,25 18.5,25 L17.5,25 C16.6715729,25 16,24.3284271 16,23.5 L15.9991042,19.082 L6.61258789,28.3255185 C6.02872872,28.9004423 5.09154685,28.9004423 4.50768768,28.3255185 L3.90365433,27.7307293 C3.31336843,27.1494771 3.30604512,26.1997579 3.88729726,25.609472 L3.90365433,25.5931149 L3.90365433,25.5931149 L13.6451042,16 L8.5,16 C7.67157288,16 7,15.3284271 7,14.5 L7,13.5 C7,12.6715729 7.67157288,12 8.5,12 L18.5,12 Z" id="Combined-Shape" fill="#5A5B59"></path>
        <circle id="Oval" fill="#9013FE" cx="25" cy="7" r="6"></circle>
    </g>
</svg>