<?xml version="1.0" encoding="UTF-8"?>
<svg width="54px" height="54px" viewBox="0 0 54 54" version="1.1" xmlns="http://www.w3.org/2000/svg" xmlns:xlink="http://www.w3.org/1999/xlink">
    <title>S3BucketGray</title>
    <g id="S3BucketGray" stroke="none" stroke-width="1" fill="none" fill-rule="evenodd">
        <g id="Storage/AmazonS3/bucket" transform="translate(1.000000, 0.000000)" fill-rule="nonzero">
            <g id="Group">
                <path d="M26.0357143,2.95071429 L51.5892857,6.75 L51.5892857,8.98714286 C51.5892857,12.3139286 40.1432143,14.9946429 26.0260714,14.9946429 C11.9089286,14.9946429 0.4725,12.3139286 0.4725,8.98714286 L0.4725,6.55714286 L26.0357143,2.95071429 Z" id="Shape" fill="#5E5D5C"></path>
                <path d="M26.0357143,19.0928571 C36.7103571,19.0928571 45.8517857,17.5596429 49.68,15.3803571 L50.9335714,13.2589286 L51.4446429,11.3303571 L51.4446429,13.7217857 L43.0842857,49.4003571 C43.0842857,51.6182143 35.4567857,53.4021429 26.0453571,53.4021429 C16.6339286,53.4021429 9.01607143,51.6182143 9.01607143,49.4003571 L0.655714286,13.7217857 L0.655714286,11.3785714 L2.58428571,15.4575 C6.42214286,17.5982143 15.4767857,19.0928571 26.0357143,19.0928571 Z" id="Shape" fill="#5E5D5C"></path>
                <path d="M26.0357143,0.559285714 C40.1528571,0.559285714 51.5989286,3.24964286 51.5989286,6.55714286 C51.5989286,9.86464286 40.1432143,12.5357143 26.0357143,12.5357143 C11.9282143,12.5357143 0.482142857,9.88392857 0.482142857,6.55714286 C0.482142857,3.23035714 11.9185714,0.559285714 26.0357143,0.559285714 Z" id="Shape" fill="#C8C8C8"></path>
                <path d="M26.0357143,16.7014286 C39.1982143,16.7014286 50.0271429,14.3775 51.435,11.3689286 L43.0746429,47.0475 C43.0746429,49.2653571 35.4471429,51.0492857 26.0357143,51.0492857 C16.6242857,51.0492857 8.99678571,49.275 8.99678571,47.0571429 L0.636428571,11.3785714 C2.05392857,14.3775 12.8828571,16.7014286 26.0357143,16.7014286 Z" id="Shape" fill="#C8C8C8"></path>
            </g>
        </g>
    </g>
</svg>