<?xml version="1.0" encoding="UTF-8"?>
<svg width="16px" height="16px" viewBox="0 0 16 16" version="1.1" xmlns="http://www.w3.org/2000/svg" xmlns:xlink="http://www.w3.org/1999/xlink">
    <title>Section</title>
    <g id="Section" stroke="none" stroke-width="1" fill="none" fill-rule="evenodd">
        <rect id="Rectangle-1" fill="#44117D" x="0" y="0" width="16" height="16" rx="3"></rect>
        <path d="M0.9921875,7.4140625 C1.29297025,7.40624996 1.53808499,7.32519608 1.72753906,7.17089844 C1.91699313,7.01660079 2.04296844,6.80468885 2.10546875,6.53515625 C2.16796906,6.26562365 2.20117186,5.80469076 2.20507812,5.15234375 C2.20898439,4.49999674 2.22070303,4.07031354 2.24023438,3.86328125 C2.2753908,3.53515461 2.34081983,3.27148537 2.43652344,3.07226562 C2.53222704,2.87304588 2.65038992,2.71386778 2.79101562,2.59472656 C2.93164133,2.47558534 3.11132703,2.38476594 3.33007812,2.32226562 C3.47851637,2.28320293 3.72070145,2.26367188 4.05664062,2.26367188 L4.38476562,2.26367188 L4.38476562,3.18359375 L4.203125,3.18359375 C3.79687297,3.18359375 3.52734441,3.25683521 3.39453125,3.40332031 C3.26171809,3.54980542 3.1953125,3.87695059 3.1953125,4.38476562 C3.1953125,5.40820824 3.17382834,6.05468615 3.13085938,6.32421875 C3.06054652,6.74218959 2.94043054,7.06445199 2.77050781,7.29101562 C2.60058509,7.51757926 2.33398619,7.71874912 1.97070312,7.89453125 C2.40039277,8.07421965 2.7119131,8.34863097 2.90527344,8.71777344 C3.09863378,9.08691591 3.1953125,9.69140205 3.1953125,10.53125 C3.1953125,11.2929726 3.20312492,11.746093 3.21875,11.890625 C3.25000016,12.1562513 3.32910093,12.3417963 3.45605469,12.4472656 C3.58300845,12.5527349 3.83202939,12.6054688 4.203125,12.6054688 L4.38476562,12.6054688 L4.38476562,13.5253906 L4.05664062,13.5253906 C3.67382621,13.5253906 3.39648523,13.4941409 3.22460938,13.4316406 C2.97460813,13.3417964 2.76757895,13.1962901 2.60351562,12.9951172 C2.4394523,12.7939443 2.33300806,12.539064 2.28417969,12.2304688 C2.23535132,11.9218735 2.20898439,11.4160191 2.20507812,10.7128906 C2.20117186,10.0097621 2.16796906,9.52343885 2.10546875,9.25390625 C2.04296844,8.98437365 1.91699313,8.77148516 1.72753906,8.61523438 C1.53808499,8.45898359 1.29297025,8.37695316 0.9921875,8.36914062 L0.9921875,7.4140625 Z M15.0019531,7.4140625 L15.0019531,8.36914062 C14.7011704,8.37695316 14.4560556,8.45898359 14.2666016,8.61523438 C14.0771475,8.77148516 13.9511722,8.9833971 13.8886719,9.25097656 C13.8261716,9.51855603 13.7929688,9.97851236 13.7890625,10.6308594 C13.7851562,11.2832064 13.7734376,11.7128896 13.7539062,11.9199219 C13.7187498,12.2519548 13.6533208,12.5166006 13.5576172,12.7138672 C13.4619136,12.9111338 13.3437507,13.0693353 13.203125,13.1884766 C13.0624993,13.3076178 12.8828136,13.3984372 12.6640625,13.4609375 C12.5156243,13.5039065 12.2734392,13.5253906 11.9375,13.5253906 L11.609375,13.5253906 L11.609375,12.6054688 L11.7910156,12.6054688 C12.1972677,12.6054688 12.4667962,12.5322273 12.5996094,12.3857422 C12.7324225,12.2392571 12.7988281,11.9101588 12.7988281,11.3984375 C12.7988281,10.4218701 12.8164061,9.80273568 12.8515625,9.54101562 C12.9140628,9.10741971 13.0390616,8.76074349 13.2265625,8.50097656 C13.4140634,8.24120964 13.6796858,8.03906322 14.0234375,7.89453125 C13.5742165,7.67968643 13.2578134,7.39550958 13.0742188,7.04199219 C12.8906241,6.68847479 12.7988281,6.09180107 12.7988281,5.25195312 C12.7988281,4.49023057 12.7890626,4.03515699 12.7695312,3.88671875 C12.7421874,3.62499869 12.6650397,3.44238333 12.5380859,3.33886719 C12.4111322,3.23535104 12.1621112,3.18359375 11.7910156,3.18359375 L11.609375,3.18359375 L11.609375,2.26367188 L11.9375,2.26367188 C12.3203144,2.26367188 12.5976554,2.29492156 12.7695312,2.35742188 C13.0195325,2.4433598 13.2265617,2.58788961 13.390625,2.79101562 C13.5546883,2.99414164 13.6611326,3.24999846 13.7099609,3.55859375 C13.7587893,3.86718904 13.7851562,4.37304336 13.7890625,5.07617188 C13.7929688,5.77930039 13.8261716,6.2646471 13.8886719,6.53222656 C13.9511722,6.79980603 14.0771475,7.01171797 14.2666016,7.16796875 C14.4560556,7.32421953 14.7011704,7.40624996 15.0019531,7.4140625 Z" id="{-}" fill="#FFFFFF"></path>
        <path d="M4.88452148,7.90820312 C5.05997809,7.90364581 5.20296169,7.85636438 5.31347656,7.76635742 C5.42399144,7.67635046 5.49747703,7.55273516 5.53393555,7.39550781 C5.57039406,7.23828046 5.58976236,6.96940294 5.59204102,6.58886719 C5.59431967,6.20833143 5.60115554,5.9576829 5.61254883,5.83691406 C5.63305674,5.64550686 5.67122368,5.4916998 5.72705078,5.37548828 C5.78287788,5.25927676 5.85180623,5.16642287 5.93383789,5.09692383 C6.01586955,5.02742478 6.12068621,4.9744468 6.24829102,4.93798828 C6.33487999,4.91520171 6.47615462,4.90380859 6.67211914,4.90380859 L6.86352539,4.90380859 L6.86352539,5.44042969 L6.75756836,5.44042969 C6.52058801,5.44042969 6.36336302,5.48315387 6.28588867,5.56860352 C6.20841433,5.65405316 6.16967773,5.84488784 6.16967773,6.14111328 C6.16967773,6.73812147 6.15714531,7.11523359 6.13208008,7.27246094 C6.09106425,7.51627726 6.02099659,7.70426366 5.921875,7.83642578 C5.82275341,7.9685879 5.66723739,8.08593699 5.45532227,8.18847656 C5.70597456,8.29329479 5.88769475,8.45336806 6.00048828,8.66870117 C6.11328181,8.88403428 6.16967773,9.2366512 6.16967773,9.7265625 C6.16967773,10.1709007 6.17423498,10.4352209 6.18334961,10.5195312 C6.20157887,10.6744799 6.24772098,10.7827145 6.32177734,10.8442383 C6.3958337,10.905762 6.54109592,10.9365234 6.75756836,10.9365234 L6.86352539,10.9365234 L6.86352539,11.4731445 L6.67211914,11.4731445 C6.44881073,11.4731445 6.2870285,11.4549155 6.18676758,11.418457 C6.04093352,11.3660479 5.92016649,11.2811692 5.82446289,11.1638184 C5.72875929,11.0464675 5.66666681,10.8977874 5.63818359,10.7177734 C5.60970038,10.5377595 5.59431967,10.2426778 5.59204102,9.83251953 C5.58976236,9.42236123 5.57039406,9.13867266 5.53393555,8.98144531 C5.49747703,8.82421796 5.42399144,8.70003301 5.31347656,8.60888672 C5.20296169,8.51774043 5.05997809,8.46988935 4.88452148,8.46533203 L4.88452148,7.90820312 Z M11.1120605,7.90820312 L11.1120605,8.46533203 C10.9366039,8.46988935 10.7936203,8.51774043 10.6831055,8.60888672 C10.5725906,8.70003301 10.499105,8.82364831 10.4626465,8.97973633 C10.426188,9.13582435 10.4068197,9.40413221 10.404541,9.78466797 C10.4022624,10.1652037 10.3954265,10.4158523 10.3840332,10.5366211 C10.3635253,10.730307 10.3253584,10.8846837 10.2695312,10.9997559 C10.2137041,11.114828 10.1447758,11.2071123 10.0627441,11.2766113 C9.98071248,11.3461104 9.87589582,11.3990884 9.74829102,11.4355469 C9.66170204,11.4606121 9.52042741,11.4731445 9.32446289,11.4731445 L9.13305664,11.4731445 L9.13305664,10.9365234 L9.23901367,10.9365234 C9.47599402,10.9365234 9.63321901,10.8937993 9.71069336,10.8083496 C9.78816771,10.7229 9.8269043,10.530926 9.8269043,10.2324219 C9.8269043,9.66275757 9.8371581,9.30159582 9.85766602,9.14892578 C9.89412453,8.89599483 9.96704047,8.69376703 10.076416,8.54223633 C10.1857916,8.39070562 10.3407379,8.27278688 10.5412598,8.18847656 C10.2792142,8.06315042 10.0946457,7.89738059 9.98754883,7.69116211 C9.88045194,7.48494363 9.8269043,7.13688396 9.8269043,6.64697266 C9.8269043,6.2026345 9.82120774,5.93717491 9.80981445,5.85058594 C9.79386385,5.6979159 9.74886105,5.59139028 9.67480469,5.53100586 C9.60074833,5.47062144 9.45548611,5.44042969 9.23901367,5.44042969 L9.13305664,5.44042969 L9.13305664,4.90380859 L9.32446289,4.90380859 C9.5477713,4.90380859 9.70955354,4.92203758 9.80981445,4.95849609 C9.95564852,5.00862655 10.0764155,5.09293561 10.1721191,5.21142578 C10.2678227,5.32991596 10.3299152,5.47916577 10.3583984,5.65917969 C10.3868817,5.83919361 10.4022624,6.13427529 10.404541,6.54443359 C10.4068197,6.95459189 10.426188,7.23771081 10.4626465,7.39379883 C10.499105,7.54988685 10.5725906,7.67350215 10.6831055,7.76464844 C10.7936203,7.85579473 10.9366039,7.90364581 11.1120605,7.90820312 Z" id="{-}" fill="#FFFFFF"></path>
    </g>
</svg>