<?xml version="1.0" encoding="UTF-8"?>
<svg width="32px" height="32px" viewBox="0 0 32 32" version="1.1" xmlns="http://www.w3.org/2000/svg" xmlns:xlink="http://www.w3.org/1999/xlink">
    <title>ServiceRed</title>
    <g id="ServiceRed" stroke="none" stroke-width="1" fill="none" fill-rule="evenodd">
        <g id="object">
            <g id="Group">
                <rect id="Rectangle-4" fill="#CE041C" x="0" y="0" width="32" height="32" rx="4"></rect>
                <path d="M30,18.6273333 L30,13.3726667 L25.9878333,12.7041667 C25.8233333,12.2083333 25.625,11.7288333 25.394,11.268 L27.7576667,7.95933333 L24.0406667,4.24233333 L20.7366667,6.6025 C20.2746667,6.368 19.7928333,6.16733333 19.2946667,6.004 L18.6273333,2 L13.3726667,2 L12.7053333,6.004 C12.2071667,6.1685 11.7253333,6.368 11.2633333,6.60366667 L7.95816667,4.24233333 L4.24233333,7.95816667 L6.606,11.268 C6.375,11.7276667 6.17666667,12.2083333 6.01333333,12.7041667 L2,13.3726667 L2,18.6273333 L6.02266667,19.2981667 C6.186,19.7893333 6.38433333,20.2641667 6.61416667,20.7215 L4.24233333,24.0418333 L7.95933333,27.7588333 L11.2855,25.3823333 C11.7393333,25.6098333 12.2118333,25.807 12.7006667,25.968 L13.3726667,30 L18.6273333,30 L19.2993333,25.9668333 C19.7881667,25.8058333 20.2606667,25.6086667 20.7145,25.3811667 L24.0418333,27.7576667 L27.7588333,24.0406667 L25.387,20.7203333 C25.6168333,20.263 25.8151667,19.7881667 25.9785,19.297 L30,18.6273333 L30,18.6273333 L30,18.6273333 Z M16,20.6666667 C13.4228333,20.6666667 11.3333333,18.5771667 11.3333333,16 C11.3333333,13.4228333 13.4228333,11.3333333 16,11.3333333 C18.5771667,11.3333333 20.6666667,13.4228333 20.6666667,16 C20.6666667,18.5771667 18.5771667,20.6666667 16,20.6666667 L16,20.6666667 Z" id="Shape" fill="#FFFFFF"></path>
            </g>
        </g>
    </g>
</svg>