<?xml version="1.0" encoding="UTF-8"?>
<svg width="32px" height="32px" viewBox="0 0 32 32" version="1.1" xmlns="http://www.w3.org/2000/svg" xmlns:xlink="http://www.w3.org/1999/xlink">
    <title>Shapes</title>
    <defs>
        <linearGradient x1="50%" y1="0%" x2="50%" y2="100%" id="linearGradient-1">
            <stop stop-color="#F5515F" offset="0%"></stop>
            <stop stop-color="#9F041B" offset="100%"></stop>
        </linearGradient>
    </defs>
    <g id="Shapes" stroke="none" stroke-width="1" fill="none" fill-rule="evenodd">
        <g id="object" transform="translate(11.000000, 2.000000)">
            <g id="Group">
                <polygon id="Shape" fill="#669FE1" points="-7.63278329e-16 4.35136364 -8.8817842e-16 15.3100909 9 20.4670909 9 10.1530909"></polygon>
                <polygon id="Shape" fill="#6BD0B9" points="6.75 0.0556363636 15 5.85054545 9 10.1530909 0 4.35136364"></polygon>
                <polygon id="Shape" fill="#1A4F8E" points="15 16.8100909 15 5.85054545 9 10.1522727 9 20.4670909"></polygon>
            </g>
        </g>
        <g id="object" transform="translate(0.000000, 11.000000)">
            <g id="Group">
                <polygon id="Shape" fill="#417505" points="10 20.7734805 20 16.7681948 10 0.440584416 10 22.4163377"></polygon>
                <polygon id="Shape-Copy" fill="#7DBE30" transform="translate(5.000000, 11.428461) scale(-1, 1) translate(-5.000000, -11.428461) " points="0 20.7734805 10 16.7681948 0 0.440584416 0 22.4163377"></polygon>
            </g>
        </g>
        <circle id="Oval-2" fill="url(#linearGradient-1)" cx="24" cy="23" r="8"></circle>
    </g>
</svg>