<?xml version="1.0" encoding="UTF-8"?>
<svg width="28px" height="28px" viewBox="0 0 28 28" version="1.1" xmlns="http://www.w3.org/2000/svg" xmlns:xlink="http://www.w3.org/1999/xlink">
    <title>SQL</title>
    <g id="SQL" stroke="none" stroke-width="1" fill="none" fill-rule="evenodd">
        <g id="database" transform="translate(4.000000, 1.000000)">
            <g id="Group" transform="translate(0.000000, 2.761905)" fill="#000000">
                <path d="M20,13.6990476 L20,9.17965079 C18.0545455,10.293619 14.3463636,11.047619 10.0854545,11.047619 C5.69454545,11.047619 1.89181818,10.2466667 0,9.07653968 L0,13.6005397 C1.89181818,14.7706667 5.69454545,15.571619 10.0854545,15.571619 C14.35,15.5706984 18.0572727,14.8148571 20,13.6990476 L20,13.6990476 Z" id="Shape"></path>
                <path d="M10.0854545,8.12920635 C14.35,8.12920635 18.0581818,7.37336508 20,6.25755556 L20,0.306571429 L0,0.306571429 L0,6.15904762 C1.89181818,7.32825397 5.69454545,8.12920635 10.0854545,8.12920635 L10.0854545,8.12920635 Z" id="Shape"></path>
                <path d="M10.0854545,18.4891111 C5.69454545,18.4891111 1.89181818,17.6881587 1.77635684e-15,16.5171111 L1.77635684e-15,20.7142857 C0.00181818182,22.1974286 4.47818182,23.3988571 10,23.3988571 C15.5218182,23.3988571 19.9981818,22.1974286 20,20.7142857 L20,16.6202222 C18.0545455,17.7351111 14.3463636,18.4891111 10.0854545,18.4891111 L10.0854545,18.4891111 Z" id="Shape"></path>
            </g>
            <path d="M10,0.383904762 C15.5227273,0.383904762 20,1.58625397 20,3.06847619 C20,4.55161905 15.5227273,5.75396825 10,5.75396825 C4.47727273,5.75396825 0,4.55161905 0,3.06847619 C0,1.58533333 4.47727273,0.383904762 10,0.383904762 L10,0.383904762 Z" id="Shape" fill="#9B9B9B"></path>
        </g>
    </g>
</svg>