<?xml version="1.0" encoding="UTF-8"?>
<svg width="32px" height="32px" viewBox="0 0 32 32" version="1.1" xmlns="http://www.w3.org/2000/svg" xmlns:xlink="http://www.w3.org/1999/xlink">
    <title>SQLNamedQuery</title>
    <g id="SQLNamedQuery" stroke="none" stroke-width="1" fill="none" fill-rule="evenodd">
        <g id="alias" transform="translate(0.000000, 6.000000)">
            <g id="Group">
                <polygon id="Shape" fill="#26D7AB" points="9 0 2.95522388 10 0 10 6.04477612 0"></polygon>
                <polygon id="Shape-Copy" fill="#16B890" transform="translate(4.500000, 15.000000) scale(1, -1) translate(-4.500000, -15.000000) " points="9 10 2.95522388 20 0 20 6.04477612 10"></polygon>
            </g>
            <g id="Group-Copy" transform="translate(27.500000, 10.000000) scale(-1, -1) translate(-27.500000, -10.000000) translate(23.000000, 0.000000)">
                <polygon id="Shape" fill="#26D7AB" points="9 0 2.95522388 10 0 10 6.04477612 0"></polygon>
                <polygon id="Shape-Copy" fill="#16B890" transform="translate(4.500000, 15.000000) scale(1, -1) translate(-4.500000, -15.000000) " points="9 10 2.95522388 20 0 20 6.04477612 10"></polygon>
            </g>
        </g>
        <polygon id="Path" fill="#16B890" transform="translate(19.000000, 25.500000) scale(1, -1) translate(-19.000000, -25.500000) " points="24 22 17.2835821 29 14 29 20.7164179 22"></polygon>
        <polygon id="Path-Copy" fill="#0D8668" transform="translate(17.560000, 24.500000) scale(1, -1) translate(-17.560000, -24.500000) " points="20.1200008 24 18.2000008 26 15 26 17.8999996 23"></polygon>
        <path d="M16,8 C20.418278,8 24,11.581722 24,16 C24,20.418278 20.418278,24 16,24 C11.581722,24 8,20.418278 8,16 C8,11.581722 11.581722,8 16,8 Z M16,10 C12.6862915,10 10,12.6862915 10,16 C10,19.3137085 12.6862915,22 16,22 C19.3137085,22 22,19.3137085 22,16 C22,12.6862915 19.3137085,10 16,10 Z" id="Combined-Shape" fill="#26D7AB"></path>
    </g>
</svg>