<?xml version="1.0" encoding="UTF-8"?>
<svg width="16px" height="16px" viewBox="0 0 16 16" version="1.1" xmlns="http://www.w3.org/2000/svg" xmlns:xlink="http://www.w3.org/1999/xlink">
    <title>TemplateRoundedRectangle</title>
    <g id="TemplateRoundedRectangle" stroke="none" stroke-width="1" fill="none" fill-rule="evenodd">
        <path d="M11.0068977,1 C13.2122272,1 15,2.78732987 15,4.99310226 L15,11.0068977 C15,13.2122272 13.2126701,15 11.0068977,15 L4.99310226,15 C2.78777278,15 1,13.2126701 1,11.0068977 L1,4.99310226 C1,2.78777278 2.78732987,1 4.99310226,1 L11.0068977,1 Z M10.0041738,2 L5.99582624,2 C3.79652125,2 2,3.78899235 2,5.99582624 L2,5.99582624 L2,10.0041738 C2,12.2034788 3.78899235,14 5.99582624,14 L5.99582624,14 L10.0041738,14 C12.2034788,14 14,12.2110077 14,10.0041738 L14,10.0041738 L14,5.99582624 C14,3.79652125 12.2110077,2 10.0041738,2 L10.0041738,2 Z" id="Combined-Shape" fill="#4A4A4A"></path>
    </g>
</svg>