<?xml version="1.0" encoding="UTF-8"?>
<svg width="32px" height="32px" viewBox="0 0 32 32" version="1.1" xmlns="http://www.w3.org/2000/svg" xmlns:xlink="http://www.w3.org/1999/xlink">
    <!-- Generator: Sketch 51.2 (57519) - http://www.bohemiancoding.com/sketch -->
    <title>CAST_Android_UI_XML_File</title>
    <desc>Created with Sketch.</desc>
    <defs></defs>
    <g id="CAST_Android_UI_XML_File" stroke="none" stroke-width="1" fill="none" fill-rule="evenodd">
        <g id="file" transform="translate(4.000000, 2.000000)">
            <g id="Group">
                <path d="M15.43655,0.5 L2.72727273,0.5 C1.79905147,0.5 1.04545455,1.25359692 1.04545455,2.18181818 L1.04545455,26.1818182 C1.04545455,27.1100394 1.79905147,27.8636364 2.72727273,27.8636364 L21.2727273,27.8636364 C22.2009485,27.8636364 22.9545455,27.1100394 22.9545455,26.1818182 L22.9545455,8.01694542 L15.43655,0.5 Z" id="Shape" stroke="#7ED321" fill="#FFFFFF"></path>
                <polygon id="Shape" fill="#000000" opacity="0.1" points="16.2610909 7.188 23.4545455 14.3749091 23.4545455 7.82945455 16.2610909 0.642545455"></polygon>
                <path d="M15.6436364,0 L15.624,5.64763636 C15.624,6.852 16.6014545,7.82945455 17.8058182,7.82945455 L23.4545455,7.80981818 L15.6436364,0 L15.6436364,0 Z" id="Shape" fill="#417505"></path>
            </g>
        </g>
        <g id="Group-3" transform="translate(17.176777, 17.778175) rotate(-45.000000) translate(-17.176777, -17.778175) translate(15.676777, 8.278175)" fill="#7ED321">
            <path d="M1.69570069e-09,0.995577499 C7.59182229e-10,0.445735229 0.442660332,2.48689958e-14 0.998956561,2.48689958e-14 L2.00104344,2.48689958e-14 C2.55275191,2.48689958e-14 3,0.444836974 3,0.995577499 L3,11 L-1.59872116e-14,11 C2.01585045e-08,11 1.69570069e-09,0.995577499 1.69570069e-09,0.995577499 Z" id="Rectangle-7"></path>
            <path d="M1.0793457,15.7296278 C1.5,14.7035048 0.934129989,13.5510345 1.5,14.17787 C2.65795898,15.4605849 3,18.17787 3,18.17787 L-1.0658141e-14,18.17787 C-1.0658141e-14,18.17787 0.658691406,16.7557508 1.0793457,15.7296278 Z" id="Triangle-1" transform="translate(1.500000, 16.088935) scale(1, -1) translate(-1.500000, -16.088935) "></path>
            <rect id="Rectangle-7-Copy" x="-1.0658141e-14" y="11.5" width="3" height="2"></rect>
        </g>
        <g id="Group-2" transform="translate(14.823223, 17.424621) rotate(-315.000000) translate(-14.823223, -17.424621) translate(13.323223, 8.424621)" fill="#7ED321">
            <path d="M7.55945228e-09,1 C3.38448599e-09,0.44771525 0.442660332,-1.15463195e-14 0.998956561,-1.15463195e-14 L2.00104344,-1.15463195e-14 C2.55275191,-1.15463195e-14 3,0.443864822 3,1 L3,2 L7.10542736e-15,2 C2.01585276e-08,2 7.55945228e-09,1 7.55945228e-09,1 Z" id="Rectangle-7-Copy-3"></path>
            <polygon id="Triangle-1-Copy" transform="translate(1.500000, 16.000000) scale(1, -1) translate(-1.500000, -16.000000) " points="1.5 14 3 18 -7.10542736e-15 18"></polygon>
            <rect id="Rectangle-7-Copy-2" x="7.10542736e-15" y="10" width="3" height="3.5"></rect>
            <rect id="Rectangle-7-Copy-4" x="1.0658141e-14" y="2.5" width="3" height="3"></rect>
        </g>
    </g>
</svg>