<?xml version="1.0" encoding="UTF-8"?>
<svg width="32px" height="32px" viewBox="0 0 32 32" version="1.1" xmlns="http://www.w3.org/2000/svg" xmlns:xlink="http://www.w3.org/1999/xlink">
    <title>UnknownSchema</title>
    <defs>
        <rect id="path-1" x="0" y="0" width="32" height="32"></rect>
        <mask id="mask-2" maskContentUnits="userSpaceOnUse" maskUnits="objectBoundingBox" x="0" y="0" width="32" height="32" fill="white">
            <use xlink:href="#path-1"></use>
        </mask>
    </defs>
    <g id="UnknownSchema" stroke="none" stroke-width="1" fill="none" fill-rule="evenodd">
        <use id="Rectangle-7-Copy-6" stroke="#A8A8A8" mask="url(#mask-2)" stroke-width="2" stroke-dasharray="2,2" xlink:href="#path-1"></use>
        <rect id="Rectangle-7-Copy-3" fill="#A8A8A8" x="13" y="2" width="6" height="6"></rect>
        <rect id="Rectangle-7-Copy-7" fill="#A8A8A8" x="13" y="12" width="6" height="6"></rect>
        <rect id="Rectangle-7-Copy-10" fill="#A8A8A8" x="23" y="22" width="6" height="6"></rect>
        <rect id="Rectangle-7-Copy-11" fill="#A8A8A8" x="3" y="22" width="6" height="6"></rect>
        <line x1="19" y1="15" x2="23.5" y2="15" id="Line" stroke="#A8A8A8" stroke-linecap="square"></line>
        <line x1="16" y1="25" x2="23.5" y2="25" id="Line-Copy-2" stroke="#A8A8A8" stroke-linecap="square"></line>
        <line x1="16" y1="25" x2="16" y2="18.5" id="Line-Copy-3" stroke="#A8A8A8" stroke-linecap="square"></line>
        <line x1="16" y1="12" x2="16" y2="8.5" id="Line-Copy-4" stroke="#A8A8A8" stroke-linecap="square"></line>
        <line x1="26" y1="22" x2="26" y2="18.5" id="Line-Copy-5" stroke="#A8A8A8" stroke-linecap="square"></line>
        <line x1="6" y1="22" x2="6" y2="18.5" id="Line-Copy-6" stroke="#A8A8A8" stroke-linecap="square"></line>
        <line x1="9" y1="15" x2="13.5" y2="15" id="Line-Copy" stroke="#A8A8A8" stroke-linecap="square"></line>
        <rect id="Rectangle-7-Copy-8" fill="#A8A8A8" x="23" y="12" width="6" height="6"></rect>
        <rect id="Rectangle-7-Copy-9" fill="#A8A8A8" x="3" y="12" width="6" height="6"></rect>
    </g>
</svg>