<?xml version="1.0" encoding="UTF-8"?>
<svg width="32px" height="32px" viewBox="0 0 32 32" version="1.1" xmlns="http://www.w3.org/2000/svg" xmlns:xlink="http://www.w3.org/1999/xlink">
    <title>UnresolvedTable</title>
    <g id="UnresolvedTable" stroke="none" stroke-width="1" fill="none" fill-rule="evenodd">
        <rect id="Rectangle-7-Copy-3" fill="#C9C9C9" x="1" y="1" width="6" height="6"></rect>
        <rect id="Rectangle-7-Copy-6" fill="#9B9B9B" x="7" y="2" width="24" height="5"></rect>
        <rect id="Rectangle-7-Copy-4" fill="#C9C9C9" x="1" y="9" width="6" height="6"></rect>
        <rect id="Rectangle-7-Copy-7" fill="#9B9B9B" x="7" y="10" width="24" height="5"></rect>
        <rect id="Rectangle-7-Copy-5" fill="#C9C9C9" x="1" y="17" width="6" height="6"></rect>
        <rect id="Rectangle-7-Copy-8" fill="#9B9B9B" x="7" y="18" width="24" height="5"></rect>
        <rect id="Rectangle-7-Copy-10" fill="#C9C9C9" x="1" y="25" width="6" height="6"></rect>
        <rect id="Rectangle-7-Copy-9" fill="#9B9B9B" x="7" y="26" width="24" height="5"></rect>
        <polygon id="Rectangle-15" fill-opacity="0.415421196" fill="#272727" transform="translate(9.500000, 12.500000) scale(1, -1) translate(-9.500000, -12.500000) " points="7 10 12 10 9.4 15 7 15"></polygon>
        <polygon id="Rectangle-15-Copy" fill-opacity="0.415421196" fill="#272727" transform="translate(9.500000, 20.500000) scale(1, -1) translate(-9.500000, -20.500000) " points="7 18 12 18 9.4 23 7 23"></polygon>
        <polygon id="Rectangle-15-Copy-2" fill-opacity="0.415421196" fill="#272727" transform="translate(9.500000, 28.500000) scale(1, -1) translate(-9.500000, -28.500000) " points="7 26 12 26 9.4 31 7 31"></polygon>
        <polygon id="Rectangle-15-Copy-3" fill-opacity="0.415421196" fill="#272727" transform="translate(9.500000, 4.500000) scale(1, -1) translate(-9.500000, -4.500000) " points="7 2 12 2 9.4 7 7 7"></polygon>
    </g>
</svg>