<?xml version="1.0" encoding="UTF-8"?>
<svg width="32px" height="32px" viewBox="0 0 32 32" version="1.1" xmlns="http://www.w3.org/2000/svg" xmlns:xlink="http://www.w3.org/1999/xlink">
    <title>VariablePropertyExternal</title>
    <g id="VariablePropertyExternal" stroke="none" stroke-width="1" fill="none" fill-rule="evenodd">
        <g id="variable" transform="translate(-1.000000, 6.000000)">
            <rect id="Rectangle-path" fill="#939393" x="4.28571429" y="1.61538462" width="5.35714286" height="3.23076923"></rect>
            <rect id="Rectangle-path" fill="#727272" x="20.3571429" y="1.61538462" width="5.35714286" height="3.23076923"></rect>
            <polygon id="Shape" fill="#000000" opacity="0.3" points="6.42857143 4.84615385 9.64285714 4.84615385 9.64285714 1.61538462 7.5 1.61538462"></polygon>
            <polygon id="Shape" fill="#000000" opacity="0.3" points="23.5714286 1.61538462 21.4285714 1.61538462 21.4285714 4.84615385 24.6428571 4.84615385"></polygon>
            <polygon id="Shape" fill="#727272" points="20.3571429 1.61538462 11.7857143 19.3846154 15 19.3846154 23.5714286 1.61538462"></polygon>
            <polygon id="Shape" fill="#000000" opacity="0.3" points="12.8571429 19.3846154 15 19.3846154 16.5789577 16.1538462 12.8571429 16.1538462"></polygon>
            <polygon id="Shape" fill="#939393" points="7.5 1.61538462 10.7142857 1.61538462 15 19.3846154 11.7857143 19.3846154"></polygon>
        </g>
        <path d="M24,19 C22.6192881,19 21.3692881,19.5596441 20.4644661,20.4644661 C19.5596441,21.3692881 19,22.6192881 19,24 C19,25.3807119 19.5596441,26.6307119 20.4644661,27.5355339 C21.3692881,28.4403559 22.6192881,29 24,29 C25.3807119,29 26.6307119,28.4403559 27.5355339,27.5355339 C28.4403559,26.6307119 29,25.3807119 29,24 C29,22.6192881 28.4403559,21.3692881 27.5355339,20.4644661 C26.6307119,19.5596441 25.3807119,19 24,19 Z" id="Oval-1" stroke="#939393" stroke-width="2"></path>
    </g>
</svg>