<?xml version="1.0" encoding="UTF-8"?>
<svg width="32px" height="32px" viewBox="0 0 32 32" version="1.1" xmlns="http://www.w3.org/2000/svg" xmlns:xlink="http://www.w3.org/1999/xlink">
    <title>View</title>
    <g id="View" stroke="none" stroke-width="1" fill="none" fill-rule="evenodd">
        <g id="Group" transform="translate(-1.000000, 0.000000)">
            <rect id="Rectangle-7-Copy-3" fill="#D391E0" x="0" y="0" width="5" height="5"></rect>
            <rect id="Rectangle-7-Copy-6" fill="#A771B2" x="5" y="1" width="21" height="4"></rect>
            <polygon id="Rectangle-7-Copy-4" fill="#D391E0" points="0 7 5 7 5 12 0 12"></polygon>
            <rect id="Rectangle-7-Copy-7" fill="#A771B2" x="5" y="8" width="21" height="4"></rect>
            <rect id="Rectangle-7-Copy-5" fill="#D391E0" x="0" y="14" width="5" height="5"></rect>
            <polygon id="Rectangle-7-Copy-8" fill="#A771B2" points="5 15 26 15 26 19 5 19"></polygon>
            <rect id="Rectangle-7-Copy-10" fill="#D391E0" x="0" y="21" width="5" height="5"></rect>
            <rect id="Rectangle-7-Copy-9" fill="#A771B2" x="5" y="22" width="21" height="4"></rect>
            <polygon id="Rectangle-15" fill-opacity="0.415421196" fill="#272727" transform="translate(7.000000, 10.000000) scale(1, -1) translate(-7.000000, -10.000000) " points="5 8 9 8 6.92 12 5 12"></polygon>
            <polygon id="Rectangle-15-Copy" fill-opacity="0.415421196" fill="#272727" transform="translate(7.000000, 17.000000) scale(1, -1) translate(-7.000000, -17.000000) " points="5 15 9 15 6.92 19 5 19"></polygon>
            <polygon id="Rectangle-15-Copy-2" fill-opacity="0.415421196" fill="#272727" transform="translate(7.000000, 24.000000) scale(1, -1) translate(-7.000000, -24.000000) " points="5 22 9 22 6.92 26 5 26"></polygon>
            <polygon id="Rectangle-15-Copy-3" fill-opacity="0.415421196" fill="#272727" transform="translate(7.000000, 3.000000) scale(1, -1) translate(-7.000000, -3.000000) " points="5 1 9 1 6.92 5 5 5"></polygon>
        </g>
        <rect id="Rectangle" fill="#FFFFFF" x="6" y="22" width="19" height="4"></rect>
        <rect id="Rectangle-Copy" fill="#FFFFFF" x="6" y="15" width="19" height="4"></rect>
        <rect id="Rectangle-Copy-2" fill="#FFFFFF" x="6" y="8" width="19" height="4"></rect>
        <g id="Group-Copy-2" transform="translate(7.000000, 6.000000)">
            <rect id="Rectangle-7-Copy-3" fill="#86BFFB" x="0" y="0" width="5" height="5"></rect>
            <rect id="Rectangle-7-Copy-6" fill="#4095F7" x="5" y="1" width="21" height="4"></rect>
            <polygon id="Rectangle-7-Copy-4" fill="#86BFFB" points="0 7 5 7 5 12 0 12"></polygon>
            <rect id="Rectangle-7-Copy-7" fill="#4095F7" x="5.2" y="7.8" width="20.8" height="4"></rect>
            <rect id="Rectangle-7-Copy-5" fill="#86BFFB" x="0" y="14" width="5" height="5"></rect>
            <polygon id="Rectangle-7-Copy-8" fill="#4095F7" points="5 15 26 15 26 19 5 19"></polygon>
            <rect id="Rectangle-7-Copy-10" fill="#86BFFB" x="0" y="21" width="5" height="5"></rect>
            <rect id="Rectangle-7-Copy-9" fill="#4095F7" x="5" y="22" width="21" height="4"></rect>
            <polygon id="Rectangle-15" fill-opacity="0.415421196" fill="#272727" transform="translate(7.000000, 10.000000) scale(1, -1) translate(-7.000000, -10.000000) " points="5 8 9 8 6.92 12 5 12"></polygon>
            <polygon id="Rectangle-15-Copy" fill-opacity="0.415421196" fill="#272727" transform="translate(7.000000, 17.000000) scale(1, -1) translate(-7.000000, -17.000000) " points="5 15 9 15 6.92 19 5 19"></polygon>
            <polygon id="Rectangle-15-Copy-2" fill-opacity="0.415421196" fill="#272727" transform="translate(7.000000, 24.000000) scale(1, -1) translate(-7.000000, -24.000000) " points="5 22 9 22 6.92 26 5 26"></polygon>
            <polygon id="Rectangle-15-Copy-3" fill-opacity="0.415421196" fill="#272727" transform="translate(7.000000, 3.000000) scale(1, -1) translate(-7.000000, -3.000000) " points="5 1 9 1 6.92 5 5 5"></polygon>
        </g>
    </g>
</svg>