<?xml version="1.0" encoding="UTF-8"?>
<svg width="16px" height="16px" viewBox="0 0 16 16" version="1.1" xmlns="http://www.w3.org/2000/svg" xmlns:xlink="http://www.w3.org/1999/xlink">
    <title>Authentication</title>
    <g id="Authentication" stroke="none" stroke-width="1" fill="none" fill-rule="evenodd">
        <circle id="Oval" fill="#000000" cx="8" cy="4" r="3"></circle>
        <path d="M8,8 C11.3137085,8 14,11.3578644 14,15.5 C14,19.6421356 11.3137085,23 8,23 C4.6862915,23 2,19.6421356 2,15.5 C2,11.3578644 4.6862915,8 8,8 Z M10.9497475,10 C10.5592232,9.60947571 9.9260582,9.60947571 9.53553391,10 L9.53553391,10 L6.974,12.56 L6.12132034,11.7071068 C5.76083638,11.3466228 5.19360533,11.3188933 4.80131412,11.6239182 L4.70710678,11.7071068 C4.31658249,12.0976311 4.31658249,12.7307961 4.70710678,13.1213203 L4.70710678,13.1213203 L6.12132034,14.5355339 C6.51184464,14.9260582 7.14500961,14.9260582 7.53553391,14.5355339 C7.53904926,14.5320185 7.54253298,14.5284835 7.54598505,14.5249292 C7.75553526,14.4994532 7.95930796,14.4046531 8.12132034,14.2426407 L8.12132034,14.2426407 L10.9497475,11.4142136 C11.3402718,11.0236893 11.3402718,10.3905243 10.9497475,10 Z" id="Oval-Copy-2" fill="#000000"></path>
    </g>
</svg>