<?xml version="1.0" encoding="UTF-8"?>
<svg width="16px" height="16px" viewBox="0 0 16 16" version="1.1" xmlns="http://www.w3.org/2000/svg" xmlns:xlink="http://www.w3.org/1999/xlink">
    <title>AWSLambdaFunction</title>
    <g id="AWSLambdaFunction" stroke="none" stroke-width="1" fill="none" fill-rule="evenodd">
        <g id="Compute/AWSLambda/LambdaFunction" transform="translate(-0.000000, 0.000000)" fill="#000000" fill-rule="nonzero">
            <g id="Group">
                <path d="M8,4.29641352e-14 C12.418278,4.29641352e-14 16,3.581722 16,8 C16,12.418278 12.418278,16 8,16 C3.581722,16 -1.86800588e-15,12.418278 -1.86800588e-15,8 C-1.86800588e-15,3.581722 3.581722,4.29641352e-14 8,4.29641352e-14 Z M7.81558985,2 L5.19984306,2 L5.19984306,3.8020292 L6.62280931,3.8020292 L7.11718546,5.14674585 L3,12.7740658 L4.98796756,12.7740658 L7.92283547,7.33531304 L10.0023542,13 L10.4967303,12.8040089 L11.6215014,12.3575848 L13,11.8077209 L12.3826838,10.1227419 L11.0015694,10.6726058 L9.02668062,5.29101707 L8.47737379,3.8020292 L8.2210306,3.09972779 L7.81558985,2 Z" id="Combined-Shape"></path>
            </g>
        </g>
    </g>
</svg>