<?xml version="1.0" encoding="UTF-8"?>
<svg width="32px" height="32px" viewBox="0 0 32 32" version="1.1" xmlns="http://www.w3.org/2000/svg" xmlns:xlink="http://www.w3.org/1999/xlink">
    <title>Beans</title>
    <g id="Beans" stroke="none" stroke-width="1" fill="none" fill-rule="evenodd">
        <path d="M5.91070336,29.3465851 C4.43302752,26.740265 5.43771662,22.6562691 8.4941896,19.5997961 C11.9649337,16.12579 16.7633028,15.3005097 19.2130479,17.7502548 C19.2163099,17.7535168 19.2195719,17.7567788 19.2228338,17.7600408 C18.7335372,19.185525 17.1710499,22.2224261 12.4901121,23.8632008 C8.2038736,25.3669725 6.55005097,27.758002 5.91070336,29.3465851 Z M17.7712538,21.7527013 C16.6523955,22.8715596 15.0605505,23.9741081 12.806524,24.7635066 C8.2332314,26.3683996 6.95453619,28.9942915 6.59898063,30.2664628 C6.61529052,30.2827727 6.63160041,30.3023445 6.6479103,30.3186544 C9.09765545,32.7683996 13.8960245,31.9398573 17.3667686,28.4723751 C20.4558614,25.3832824 21.4475025,21.2470948 19.9045872,18.6440367 C19.5327217,19.5084608 18.8868502,20.640367 17.7712538,21.7527013 Z M8.30825688,10.4662589 C13.2501529,10.9001019 15.9217125,8.77655454 16.9557594,7.67726809 C16.9524975,7.67400612 16.9524975,7.66748216 16.9524975,7.66422018 C15.7292559,4.42181448 11.0156983,3.19857288 6.42283384,4.93394495 C2.37798165,6.46055046 -0.221814475,9.76819572 0.0521916412,12.7529052 C1.28848114,11.5688073 3.78063201,10.0715596 8.30825688,10.4662589 Z M10.8525994,16.6705403 C14.9398573,15.1308869 17.5494393,11.767788 17.2134557,8.76024465 C16.5186544,9.39633028 15.4617737,10.162895 13.9906218,10.7174312 C12.509684,11.2752294 10.6079511,11.624261 8.22670744,11.4154944 C3.39898063,10.9914373 1.15147808,12.8572885 0.303363914,13.8717635 C0.313149847,13.8945973 0.319673802,13.9174312 0.326197757,13.9370031 C1.54617737,17.1826707 6.25973496,18.4059123 10.8525994,16.6705403 Z M25.1531091,9.91172273 C28.1182467,5.93537207 27.7170234,2.54291539 27.3255861,1.08807339 C27.3223242,1.08807339 27.3158002,1.08481142 27.3125382,1.08481142 C23.9102956,0.422629969 20.3938838,3.7922528 19.4576962,8.6069317 C18.6324159,12.8507645 20.0839959,16.8010194 22.7620795,18.1351682 C22.403262,16.4650357 22.4358818,13.5586137 25.1531091,9.91172273 Z M28.3792049,1.44036697 C28.5553517,2.3667686 28.653211,3.66829766 28.3531091,5.21121305 C28.0497452,6.76717635 27.345158,8.56778797 25.9196738,10.4825688 C23.0230377,14.3675841 23.4307849,17.2609582 23.8450561,18.5168196 C23.8678899,18.5200815 23.8907238,18.5266055 23.9135576,18.5331295 C27.3158002,19.1953109 30.832212,15.8256881 31.7683996,11.0110092 C32.6034659,6.72150866 31.1127421,2.73211009 28.3792049,1.44036697 Z" id="Shape" fill="#000000" fill-rule="nonzero"></path>
    </g>
</svg>