<?xml version="1.0" encoding="UTF-8"?>
<svg width="16px" height="16px" viewBox="0 0 16 16" version="1.1" xmlns="http://www.w3.org/2000/svg" xmlns:xlink="http://www.w3.org/1999/xlink">
    <title>Bucket</title>
    <g id="Bucket" stroke="none" stroke-width="1" fill="none" fill-rule="evenodd">
        <g id="Storage/AmazonS3/bucket" transform="translate(1.000000, 1.000000)" fill="#000000" fill-rule="nonzero">
            <g id="Group">
                <path d="M7,0.15037037 C10.7955556,0.15037037 13.872963,0.873703704 13.872963,1.76296296 C13.872963,2.65222222 10.792963,3.37037037 7,3.37037037 C3.20703704,3.37037037 0.12962963,2.65740741 0.12962963,1.76296296 C0.12962963,0.868518519 3.20444444,0.15037037 7,0.15037037 Z" id="Shape"></path>
                <path d="M7,4.49037037 C10.5388889,4.49037037 13.4503704,3.86555556 13.8288889,3.05666667 L11.5811111,12.6492593 C11.5811111,13.2455556 9.53037037,13.7251852 7,13.7251852 C4.46962963,13.7251852 2.41888889,13.2481481 2.41888889,12.6518519 L0.171111111,3.05925926 C0.552222222,3.86555556 3.4637037,4.49037037 7,4.49037037 Z" id="Shape"></path>
            </g>
        </g>
    </g>
</svg>