<?xml version="1.0" encoding="UTF-8"?>
<svg width="32px" height="32px" viewBox="0 0 32 32" version="1.1" xmlns="http://www.w3.org/2000/svg" xmlns:xlink="http://www.w3.org/1999/xlink">
    <title>CallToJavaBean</title>
    <g id="CallToJavaBean" stroke="none" stroke-width="1" fill="none" fill-rule="evenodd">
        <path d="M18.6273333,2 L19.2946667,6.004 C19.7928333,6.16733333 20.2746667,6.368 20.7366667,6.6025 L20.7366667,6.6025 L24.0406667,4.24233333 L27.7576667,7.95933333 L25.394,11.268 C25.625,11.7288333 25.8233333,12.2083333 25.9878333,12.7041667 L25.9878333,12.7041667 L30,13.3726667 L30,18.6273333 L25.9785,19.297 C25.8151667,19.7881667 25.6168333,20.263 25.387,20.7203333 L25.387,20.7203333 L27.7588333,24.0406667 L24.0418333,27.7576667 L20.7145,25.3811667 C20.2606667,25.6086667 19.7881667,25.8058333 19.2993333,25.9668333 L19.2993333,25.9668333 L18.6273333,30 L16,30 L16,24 L16,24 C20.418278,24 24,20.418278 24,16 C24,11.581722 20.418278,8 16,8 C11.581722,8 8,11.581722 8,16 L2,16 L2,13.3726667 L6.01333333,12.7041667 C6.17666667,12.2083333 6.375,11.7276667 6.606,11.268 L6.606,11.268 L4.24233333,7.95816667 L7.95816667,4.24233333 L11.2633333,6.60366667 C11.7253333,6.368 12.2071667,6.1685 12.7053333,6.004 L12.7053333,6.004 L13.3726667,2 L18.6273333,2 Z M18.4278653,10 C20.3697298,10.9024847 21.4287179,13.6897041 20.8354992,16.6865915 C20.1704453,20.0503983 17.6724384,22.4046073 15.2555355,21.9419699 C15.2393147,21.9374119 15.2230939,21.9328539 15.2068731,21.9305749 C14.912581,21.0531592 14.6229234,19.0316845 16.6806508,16.3173932 C17.6932937,14.9796191 18.193822,13.7216101 18.4093273,12.6345262 C18.6225152,11.5565583 18.5529974,10.6472365 18.4278653,10 Z M11.1656354,14.8826794 C11.8368237,11.7915581 14.3578727,9.62819202 16.7970695,10.0533259 C16.7994081,10.0533259 16.8040854,10.0554202 16.806424,10.0554202 C17.0870603,10.9894582 17.3747125,13.167484 15.2488928,15.7203816 C13.3008095,18.0617594 13.2774232,19.9277411 13.5346731,21 C11.6146534,20.1434495 10.5739606,17.6073059 11.1656354,14.8826794 Z" id="Shape" fill="#000000"></path>
        <path d="M12.5,18 C13.3284271,18 14,18.6715729 14,19.5 L14,26.5 C14,27.3284271 13.3284271,28 12.5,28 C11.6715729,28 11,27.3284271 11,26.5 L10.9993203,23.313 L4.18198052,30.131728 C3.59619408,30.7175144 2.64644661,30.7175144 2.06066017,30.131728 C1.47487373,29.5459415 1.47487373,28.5961941 2.06066017,28.0104076 L9.07032034,21 L5.5,21 C4.67157288,21 4,20.3284271 4,19.5 C4,18.6715729 4.67157288,18 5.5,18 L12.5,18 L12.5,18 Z" id="Combined-Shape" fill="#000000"></path>
    </g>
</svg>