<?xml version="1.0" encoding="UTF-8"?>
<svg width="32px" height="32px" viewBox="0 0 32 32" version="1.1" xmlns="http://www.w3.org/2000/svg" xmlns:xlink="http://www.w3.org/1999/xlink">
    <title>DatabaseConnection</title>
    <g id="DatabaseConnection" stroke="none" stroke-width="1" fill="none" fill-rule="evenodd">
        <path d="M5,21.941 C6.77350087,23.0250428 10.0736935,23.8171113 13.9999592,24.0275219 L14.0007518,29.3679556 C8.88124886,29.1187642 5.0017752,27.92992 5,26.5 L5,26.5 Z M27,22.053 L27,26.5 C26.9982249,27.9298274 23.119254,29.1186101 18.0002435,29.3679071 L18.0006271,24.0371154 C21.87239,23.8489152 25.1560254,23.0964828 27,22.053 L27,22.053 Z M27,14.971 L27,19.88 C25.1584275,20.9244482 21.8754232,21.6785307 18.000854,21.8677046 L18.0011591,20.575535 C19.5403781,19.8891686 20.6681769,18.4352711 20.9079654,16.6947206 C23.4939981,16.3518492 25.6390856,15.740489 27,14.971 L27,14.971 Z M5,14.859 C6.31378715,15.661414 8.46537084,16.3040009 11.0886325,16.6687473 C11.3205996,18.4210807 12.4524063,19.8863621 13.999834,20.5759777 L13.9999592,21.8585251 C10.0736935,21.6481331 6.77350087,20.8561906 5,19.773 L5,19.773 Z M5,7.859 C7.081,9.13 11.264,10 16.094,10 C20.781,10 24.86,9.181 27,7.971 L27,7.971 L27,12.88 C25.6568441,13.6417711 23.5469108,14.2490807 20.999934,14.5954106 C20.9989493,13.8309399 20.7400855,13.8103425 19.0014267,13.8636477 L19,11 L17,11 L17.0017498,13.9135338 C16.6920569,13.9177565 16.35873,13.9203524 16,13.9203524 C15.6416549,13.9203524 15.3086584,13.917762 14.9992472,13.9135474 L15,11 L13,11 L12.9995802,13.8636785 C11.2787797,13.81091 11.0068102,13.8303597 11.0001287,14.5703861 C8.41667865,14.2034059 6.29888818,13.5663142 5,12.773 L5,12.773 Z M16,2 C22.075,2 27,3.306 27,4.916 C27,6.527 22.075,7.833 16,7.833 C9.925,7.833 5,6.527 5,4.916 C5,3.305 9.925,2 16,2 Z" id="Combined-Shape" fill="#000000"></path>
    </g>
</svg>