<?xml version="1.0" encoding="UTF-8"?>
<svg width="32px" height="32px" viewBox="0 0 32 32" version="1.1" xmlns="http://www.w3.org/2000/svg" xmlns:xlink="http://www.w3.org/1999/xlink">
    <title>Database</title>
    <g id="Database" stroke="none" stroke-width="1" fill="none" fill-rule="evenodd">
        <path d="M27,19.88 L27,14.971 C24.86,16.181 20.781,17 16.094,17 C11.264,17 7.081,16.13 5,14.859 L5,19.773 C7.081,21.044 11.264,21.914 16.094,21.914 C20.785,21.913 24.863,21.092 27,19.88 L27,19.88 Z" id="Shape" fill="#000000"></path>
        <path d="M27,12.88 L27,7.971 C24.86,9.181 20.781,10 16.094,10 C11.264,10 7.081,9.13 5,7.859 L5,12.773 C7.081,14.044 11.264,14.914 16.094,14.914 C20.785,14.913 24.863,14.092 27,12.88 L27,12.88 Z" id="Shape-Copy" fill="#000000"></path>
        <path d="M16.094,24.083 C11.264,24.083 7.081,23.213 5,21.941 L5,26.5 C5.002,28.111 9.926,29.416 16,29.416 C22.074,29.416 26.998,28.111 27,26.5 L27,22.053 C24.86,23.264 20.781,24.083 16.094,24.083 L16.094,24.083 Z" id="Combined-Shape" fill="#000000"></path>
        <path d="M16,2 C22.075,2 27,3.306 27,4.916 C27,6.527 22.075,7.833 16,7.833 C9.925,7.833 5,6.527 5,4.916 C5,3.305 9.925,2 16,2 L16,2 Z" id="Shape" fill="#000000"></path>
    </g>
</svg>