<?xml version="1.0" encoding="UTF-8"?>
<svg width="16px" height="16px" viewBox="0 0 16 16" version="1.1" xmlns="http://www.w3.org/2000/svg" xmlns:xlink="http://www.w3.org/1999/xlink">
    <title>Division</title>
    <g id="Division" stroke="none" stroke-width="1" fill="none" fill-rule="evenodd">
        <path d="M12.9905224,0 C14.652611,0 16,1.33663106 16,3.00947762 L16,12.9905224 C16,14.652611 14.6633689,16 12.9905224,16 L3.00947762,16 C1.34738902,16 0,14.6633689 0,12.9905224 L0,3.00947762 C0,1.34738902 1.33663106,0 3.00947762,0 L12.9905224,0 Z M6.05175781,2.26367188 L5.72363281,2.26367188 C5.38769363,2.26367188 5.14550855,2.28320293 4.99707031,2.32226562 C4.77831922,2.38476594 4.59863352,2.47558534 4.45800781,2.59472656 C4.31738211,2.71386778 4.19921923,2.87304588 4.10351562,3.07226562 C4.00781202,3.27148537 3.94238299,3.53515461 3.90722656,3.86328125 C3.88769521,4.07031354 3.87597658,4.49999674 3.87207031,5.15234375 C3.86816404,5.80469076 3.83496125,6.26562365 3.77246094,6.53515625 C3.70996062,6.80468885 3.58398532,7.01660079 3.39453125,7.17089844 C3.20507718,7.32519608 2.95996244,7.40624996 2.65917969,7.4140625 L2.65917969,7.4140625 L2.65917969,8.36914062 C2.95996244,8.37695316 3.20507718,8.45898359 3.39453125,8.61523438 C3.58398532,8.77148516 3.70996062,8.98437365 3.77246094,9.25390625 C3.83496125,9.52343885 3.86816404,10.0097621 3.87207031,10.7128906 C3.87597658,11.4160191 3.90234351,11.9218735 3.95117188,12.2304688 C4.00000024,12.539064 4.10644449,12.7939443 4.27050781,12.9951172 C4.43457113,13.1962901 4.64160031,13.3417964 4.89160156,13.4316406 C5.06347742,13.4941409 5.3408184,13.5253906 5.72363281,13.5253906 L5.72363281,13.5253906 L6.05175781,13.5253906 L6.05175781,12.6054688 L5.87011719,12.6054688 C5.49902158,12.6054688 5.25000063,12.5527349 5.12304688,12.4472656 C4.99609312,12.3417963 4.91699234,12.1562513 4.88574219,11.890625 C4.87011711,11.746093 4.86230469,11.2929726 4.86230469,10.53125 C4.86230469,9.69140205 4.76562597,9.08691591 4.57226562,8.71777344 C4.37890528,8.34863097 4.06738496,8.07421965 3.63769531,7.89453125 C4.00097838,7.71874912 4.26757728,7.51757926 4.4375,7.29101562 C4.60742272,7.06445199 4.72753871,6.74218959 4.79785156,6.32421875 C4.84082053,6.05468615 4.86230469,5.40820824 4.86230469,4.38476562 C4.86230469,3.87695059 4.92871027,3.54980542 5.06152344,3.40332031 C5.1943366,3.25683521 5.46386516,3.18359375 5.87011719,3.18359375 L5.87011719,3.18359375 L6.05175781,3.18359375 L6.05175781,2.26367188 Z M10.2705078,2.26367188 L9.94238281,2.26367188 L9.94238281,3.18359375 L10.1240234,3.18359375 C10.495119,3.18359375 10.74414,3.23535104 10.8710938,3.33886719 C10.9980475,3.44238333 11.0751952,3.62499869 11.1025391,3.88671875 C11.1220704,4.03515699 11.1318359,4.49023057 11.1318359,5.25195312 C11.1318359,6.09180107 11.2236319,6.68847479 11.4072266,7.04199219 C11.5908212,7.39550958 11.9072243,7.67968643 12.3564453,7.89453125 C12.0126936,8.03906322 11.7470713,8.24120964 11.5595703,8.50097656 C11.3720694,8.76074349 11.2470706,9.10741971 11.1845703,9.54101562 C11.1494139,9.80273568 11.1318359,10.4218701 11.1318359,11.3984375 C11.1318359,11.9101588 11.0654304,12.2392571 10.9326172,12.3857422 C10.799804,12.5322273 10.5302755,12.6054688 10.1240234,12.6054688 L10.1240234,12.6054688 L9.94238281,12.6054688 L9.94238281,13.5253906 L10.2705078,13.5253906 C10.606447,13.5253906 10.8486321,13.5039065 10.9970703,13.4609375 C11.2158214,13.3984372 11.3955071,13.3076178 11.5361328,13.1884766 C11.6767585,13.0693353 11.7949214,12.9111338 11.890625,12.7138672 C11.9863286,12.5166006 12.0517576,12.2519548 12.0869141,11.9199219 C12.1064454,11.7128896 12.118164,11.2832064 12.1220703,10.6308594 C12.1259766,9.97851236 12.1591794,9.51855603 12.2216797,9.25097656 C12.28418,8.9833971 12.4101553,8.77148516 12.5996094,8.61523438 C12.7890634,8.45898359 13.0341782,8.37695316 13.3349609,8.36914062 L13.3349609,8.36914062 L13.3349609,7.4140625 C13.0341782,7.40624996 12.7890634,7.32421953 12.5996094,7.16796875 C12.4101553,7.01171797 12.28418,6.79980603 12.2216797,6.53222656 C12.1591794,6.2646471 12.1259766,5.77930039 12.1220703,5.07617188 C12.118164,4.37304336 12.0917971,3.86718904 12.0429688,3.55859375 C11.9941404,3.24999846 11.8876961,2.99414164 11.7236328,2.79101562 C11.5595695,2.58788961 11.3525403,2.4433598 11.1025391,2.35742188 C10.9306632,2.29492156 10.6533222,2.26367188 10.2705078,2.26367188 L10.2705078,2.26367188 Z" id="Rectangle-2" fill="#000000"></path>
    </g>
</svg>