<?xml version="1.0" encoding="UTF-8"?>
<svg width="32px" height="32px" viewBox="0 0 32 32" version="1.1" xmlns="http://www.w3.org/2000/svg" xmlns:xlink="http://www.w3.org/1999/xlink">
    <title>File</title>
    <g id="File" stroke="none" stroke-width="1" fill="none" fill-rule="evenodd">
        <g id="Group" transform="translate(4.000000, 2.000000)" fill="#000000">
            <path d="M15.0204545,0 L15,5.9919883 C15,7.37641076 16.1234327,8.5 17.5076623,8.5 L23.4544545,8.479 L23.4545455,26.1818182 C23.4545455,27.3338182 22.5602392,28.2782114 21.4284697,28.3581548 L21.2727273,28.3636364 L2.72727273,28.3636364 C1.52290909,28.3636364 0.545454545,27.3861818 0.545454545,26.1818182 L0.545454545,26.1818182 L0.545454545,2.18181818 C0.545454545,0.977454545 1.52290909,6.39488462e-14 2.72727273,6.39488462e-14 L2.72727273,6.39488462e-14 L15.0204545,0 Z M15.6436364,6.39488462e-14 L23.4545455,7.80981818 L23.4544545,7.932 L15.5224545,0 L15.6436364,6.39488462e-14 Z" id="Shape-2"></path>
            <path d="M15.6436364,0 L15.624,5.64763636 C15.624,6.852 16.6014545,7.82945455 17.8058182,7.82945455 L23.4545455,7.80981818 L15.6436364,0 L15.6436364,0 Z" id="Shape"></path>
        </g>
    </g>
</svg>