<?xml version="1.0" encoding="UTF-8"?>
<svg width="32px" height="32px" viewBox="0 0 32 32" version="1.1" xmlns="http://www.w3.org/2000/svg" xmlns:xlink="http://www.w3.org/1999/xlink">
    <title>Form</title>
    <g id="Form" stroke="none" stroke-width="1" fill="none" fill-rule="evenodd">
        <rect id="Rectangle-44" fill="#000000" x="8" y="4" width="1" height="4"></rect>
        <rect id="Rectangle" fill="#000000" x="14" y="26" width="12" height="4" rx="2"></rect>
        <path d="M26,19 L26,25 L6,25 L6,19 L26,19 Z M25,20 L7,20 L7,24 L25,24 L25,20 Z" id="Rectangle-42-Copy-4" fill="#000000"></path>
        <path d="M26,11 L26,17 L6,17 L6,11 L26,11 Z M25,12 L7,12 L7,16 L25,16 L25,12 Z" id="Rectangle-42-Copy-5" fill="#000000"></path>
        <path d="M26,3 L26,9 L6,9 L6,3 L26,3 Z M25,4 L7,4 L7,8 L25,8 L25,4 Z" id="Rectangle-42-Copy-6" fill="#000000"></path>
        <path d="M25,0 C27.209139,-4.05812251e-16 29,1.790861 29,4 L29,28 C29,30.209139 27.209139,32 25,32 L7,32 C4.790861,32 3,30.209139 3,28 L3,4 C3,1.790861 4.790861,4.05812251e-16 7,0 L25,0 Z M25,1 L7,1 C5.34314575,1 4,2.34314575 4,4 L4,4 L4,28 C4,29.6568542 5.34314575,31 7,31 L7,31 L25,31 C26.6568542,31 28,29.6568542 28,28 L28,28 L28,4 C28,2.34314575 26.6568542,1 25,1 L25,1 Z" id="Combined-Shape" fill="#000000"></path>
    </g>
</svg>