<?xml version="1.0" encoding="UTF-8"?>
<svg width="32px" height="32px" viewBox="0 0 32 32" version="1.1" xmlns="http://www.w3.org/2000/svg" xmlns:xlink="http://www.w3.org/1999/xlink">
    <title>ListBean</title>
    <g id="ListBean" stroke="none" stroke-width="1" fill="none" fill-rule="evenodd">
        <path d="M26.3134632,15 C28.7570134,16.0131812 30.0895938,19.1422736 29.3431155,22.5067516 C28.5062433,26.2831542 25.3628698,28.9261243 22.3215538,28.4067411 C22.3011423,28.401624 22.2807308,28.3965069 22.2603192,28.3939484 C21.889996,27.4089111 21.5255047,25.1394876 24.1148513,22.0922684 C25.3891131,20.5904063 26.0189542,19.1780932 26.2901358,17.9576704 C26.5584014,16.7474817 26.4709235,15.7266249 26.3134632,15 Z M18.2065227,20.9651374 C19.0433949,17.1887348 22.1867684,14.5457646 25.2280844,15.0651479 C25.2310003,15.0651479 25.2368322,15.0677065 25.2397481,15.0677065 C25.5896598,16.2088146 25.9483193,18.8696945 23.2977381,21.9885527 C20.8687676,24.8489986 20.8396083,27.1286563 21.1603607,28.438628 C18.7663814,27.3921858 17.4687922,24.2937958 18.2065227,20.9651374 Z M17,23 L17,26 L6,26 L6,23 L17,23 Z M18,17 L18,20 L6,20 L6,17 L18,17 Z M26,11 L26,14 L6,14 L6,11 L26,11 Z M26,5 L26,8 L6,8 L6,5 L26,5 Z" id="Combined-Shape" fill="#000000"></path>
    </g>
</svg>