<?xml version="1.0" encoding="UTF-8"?>
<svg width="16px" height="16px" viewBox="0 0 16 16" version="1.1" xmlns="http://www.w3.org/2000/svg" xmlns:xlink="http://www.w3.org/1999/xlink">
    <title>Macro</title>
    <g id="Macro" stroke="none" stroke-width="1" fill="none" fill-rule="evenodd">
        <path d="M12.9905224,0 C14.652611,0 16,1.33663106 16,3.00947762 L16,12.9905224 C16,14.652611 14.6633689,16 12.9905224,16 L3.00947762,16 C1.34738902,16 0,14.6633689 0,12.9905224 L0,3.00947762 C0,1.34738902 1.33663106,0 3.00947762,0 L12.9905224,0 Z M7.47850868,2 L5.31900579,2 L4.926,4.204 L2.61962717,4.20440574 L2.07975145,6.40881148 L4.534,6.408 L3.945,9.715 L1.53987572,9.71542008 L1,11.9198258 L3.552,11.919 L3.15950289,14.1242316 L5.31900579,14.1242316 L5.712,11.919 L8.951,11.919 L8.55826013,14.1242316 L10.717763,14.1242316 L11.11,11.919 L13.4171416,11.9198258 L13.9570174,9.71542008 L11.503,9.715 L12.092,6.408 L14.4968931,6.40881148 L15.0367688,4.20440574 L12.484,4.204 L12.8772659,2 L10.717763,2 L10.325,4.204 L7.086,4.204 L7.47850868,2 Z M9.932,6.408 L9.343,9.715 L6.104,9.715 L6.693,6.408 L9.932,6.408 Z" id="Rectangle-2" fill="#000000"></path>
    </g>
</svg>