<?xml version="1.0" encoding="UTF-8"?>
<svg width="16px" height="16px" viewBox="0 0 16 16" version="1.1" xmlns="http://www.w3.org/2000/svg" xmlns:xlink="http://www.w3.org/1999/xlink">
    <title>Program</title>
    <g id="Program" stroke="none" stroke-width="1" fill="none" fill-rule="evenodd">
        <path d="M12.9905224,0 C14.652611,0 16,1.33663106 16,3.00947762 L16,12.9905224 C16,14.652611 14.6633689,16 12.9905224,16 L3.00947762,16 C1.34738902,16 0,14.6633689 0,12.9905224 L0,3.00947762 C0,1.34738902 1.33663106,0 3.00947762,0 L12.9905224,0 Z M13,11 L3,11 L3,13 L13,13 L13,11 Z M13,7 L3,7 L3,9 L13,9 L13,7 Z M13,3 L3,3 L3,5 L13,5 L13,3 Z" id="Rectangle-2" fill="#000000"></path>
    </g>
</svg>