<?xml version="1.0" encoding="UTF-8"?>
<svg width="32px" height="32px" viewBox="0 0 32 32" version="1.1" xmlns="http://www.w3.org/2000/svg" xmlns:xlink="http://www.w3.org/1999/xlink">
    <title>Queue</title>
    <g id="Queue" stroke="none" stroke-width="1" fill="none" fill-rule="evenodd">
        <g id="Group" transform="translate(10.000000, 1.000000)" fill="#000000">
            <path d="M10.8012113,23.6042943 C10.9306164,24.0486772 11,24.5186277 11,25.0047837 C11,27.7662074 8.76142375,30.0047837 6,30.0047837 C3.23857625,30.0047837 1,27.7662074 1,25.0047837 C1,24.5186277 1.06938362,24.0486772 1.19878869,23.6042943 C2.29422206,25.0621272 4.03702642,26.0047837 6,26.0047837 C7.95810048,26.0047837 9.69712353,25.0668017 10.7922619,23.615645 Z" id="Combined-Shape"></path>
            <path d="M10.8012113,17.6042943 C10.9306164,18.0486772 11,18.5186277 11,19.0047837 C11,21.7662074 8.76142375,24.0047837 6,24.0047837 C3.23857625,24.0047837 1,21.7662074 1,19.0047837 C1,18.5186277 1.06938362,18.0486772 1.19878869,17.6042943 C2.29422206,19.0621272 4.03702642,20.0047837 6,20.0047837 C7.95810048,20.0047837 9.69712353,19.0668017 10.7922619,17.615645 Z" id="Combined-Shape-Copy"></path>
            <path d="M10.8012113,11.6042953 C10.9306164,12.0486782 11,12.5186287 11,13.0047846 C11,15.7662084 8.76142375,18.0047846 6,18.0047846 C3.23857625,18.0047846 1,15.7662084 1,13.0047846 C1,12.5186287 1.06938362,12.0486782 1.19878869,11.6042953 C2.29422206,13.0621282 4.03702642,14.0047846 6,14.0047846 C7.95810048,14.0047846 9.69712353,13.0668027 10.7922619,11.615646 Z" id="Combined-Shape-Copy-2"></path>
            <circle id="Oval-path-Copy" cx="6" cy="6" r="6"></circle>
        </g>
    </g>
</svg>