<?xml version="1.0" encoding="UTF-8"?>
<svg width="16px" height="16px" viewBox="0 0 16 16" version="1.1" xmlns="http://www.w3.org/2000/svg" xmlns:xlink="http://www.w3.org/1999/xlink">
    <title>QueueReceive</title>
    <g id="QueueReceive" stroke="none" stroke-width="1" fill="none" fill-rule="evenodd">
        <g id="Main" transform="translate(2.000000, 0.000000)" fill="#000000">
            <circle id="Oval" cx="12" cy="2" r="2"></circle>
            <path d="M0.000333220733,9.08301435 C2.51241124,9.50460708 4.4951172,11.4871817 4.91690614,13.9991931 L3.89974091,13.9988136 C3.5017376,12.0405479 1.95920958,10.4980949 0.000903924701,10.1002017 Z" id="FirstRing"></path>
            <path d="M0,6 C4.418278,6 8,9.581722 8,14 L8,14 L7,14 L7,14 C7,10.1340068 3.86599325,7 0,7 Z" id="SecondRing"></path>
            <path d="M0,3 C6.07513225,3 11,7.92486775 11,14 L11,14 L10,14 L10,14 C10,8.4771525 5.5228475,4 0,4 Z" id="ThirdRing"></path>
            <path d="M0,0 C7.7319865,0 14,6.2680135 14,14 L14,14 L13,14 L13,14 C13,6.82029825 7.17970175,1 0,1 Z" id="FourthRing"></path>
        </g>
    </g>
</svg>