<?xml version="1.0" encoding="UTF-8"?>
<svg width="32px" height="32px" viewBox="0 0 32 32" version="1.1" xmlns="http://www.w3.org/2000/svg" xmlns:xlink="http://www.w3.org/1999/xlink">
    <title>ResourceServicePost</title>
    <g id="ResourceServicePost" stroke="none" stroke-width="1" fill="none" fill-rule="evenodd">
        <path d="M15,3 L15,22 L7,13.8333333 L14.033,13.833 L14,13.6923077 L14.0005348,4.04102967 C7.84074966,4.548926 3,9.70915417 3,16 C3,22.627417 8.372583,28 15,28 L15,29 C7.82029825,29 2,23.1797017 2,16 C2,8.82029825 7.82029825,3 15,3 L15,3 Z M17.7307692,3 C24.5067308,3 30,8.82045455 30,16 C30,23.1795455 24.5067308,29 17.7307692,29 C17.4794359,29 17.2310769,28.9889697 16.9843704,28.9711111 L16.6153846,28.9397273 L16.6153846,10.0909091 L24.4230769,18.3636364 L19.9613846,18.363 L19.9622693,25.156438 C23.7302903,24.1283424 26.5351459,20.5576529 26.6501736,16.273874 L26.6538462,16 C26.6538462,10.7787273 22.6585385,6.54545455 17.7307692,6.54545455 C17.4779487,6.54545455 17.2261197,6.5470303 16.9799088,6.5470303 L16.6153846,6.54545455 L16.6153846,3.06027273 C16.9834615,3.02481818 17.3537692,3 17.7307692,3 Z" id="Combined-Shape" fill="#000000"></path>
    </g>
</svg>