<?xml version="1.0" encoding="UTF-8"?>
<svg width="32px" height="32px" viewBox="0 0 32 32" version="1.1" xmlns="http://www.w3.org/2000/svg" xmlns:xlink="http://www.w3.org/1999/xlink">
    <title>ResourceServicePut</title>
    <g id="ResourceServicePut" stroke="none" stroke-width="1" fill="none" fill-rule="evenodd">
        <path d="M15,4 L15,23 L7,14.8333333 L14.033,14.8328333 L14,14.6923077 L14.0005348,5.04102967 C7.84074966,5.548926 3,10.7091542 3,17 C3,23.627417 8.372583,29 15,29 L15,30 C7.82029825,30 2,24.1797017 2,17 C2,9.82029825 7.82029825,4 15,4 L15,4 Z M24.5596154,6.64216667 C27.8457692,8.9615 30,12.808 30,17.1666667 C30,24.2541667 24.3173077,30 17.3076923,30 C17.0476923,30 16.7907692,29.9891111 16.5355556,29.9714815 L16.1538462,29.9405 L16.1538462,11.3333333 L24.2307692,19.5 L19.6148462,19.4991667 L19.6158386,26.2057931 C23.5139435,25.1909817 26.4156651,21.6659974 26.5346623,17.4370295 L26.5384615,17.1666667 C26.5384615,15.1106111 25.8746261,13.2148138 24.7608005,11.6728911 L24.5596154,11.4045 L24.5596154,6.64216667 Z M19.4007692,2.11083333 C21.195,2.11083333 22.6488462,3.58083333 22.6476923,5.39383333 C22.6476923,7.20566667 21.1938462,8.67683333 19.4007692,8.67683333 C17.6076923,8.67683333 16.1538462,7.20683333 16.1538462,5.39383333 C16.1538462,3.58083333 17.6076923,2.11083333 19.4007692,2.11083333 Z" id="Combined-Shape" fill="#000000"></path>
    </g>
</svg>