<?xml version="1.0" encoding="UTF-8"?>
<svg width="32px" height="32px" viewBox="0 0 32 32" version="1.1" xmlns="http://www.w3.org/2000/svg" xmlns:xlink="http://www.w3.org/1999/xlink">
    <title>ResourceServiceGet</title>
    <g id="ResourceServiceGet" stroke="none" stroke-width="1" fill="none" fill-rule="evenodd">
        <path d="M15.6153846,3 L15.6153846,22 L7.61538462,13.8333333 L14.6483846,13.833 L14.6153846,13.6923077 L14.6159194,4.04102967 C8.45613428,4.548926 3.61538462,9.70915417 3.61538462,16 C3.61538462,22.627417 8.98796762,28 15.6153846,28 L15.6153846,29 C8.43568287,29 2.61538462,23.1797017 2.61538462,16 C2.61538462,8.82029825 8.43568287,3 15.6153846,3 L15.6153846,3 Z M17.7307692,3 C24.5067308,3 30,8.82045455 30,16 C30,23.1795455 24.5067308,29 17.7307692,29 C17.4801795,29 17.2315726,28.9889697 16.9846182,28.9714613 L16.6153846,28.9409091 L16.6153846,10.0909091 L24.4230769,18.3636364 L19.962,18.364 L19.9612732,25.1567097 C23.7297959,24.1289717 26.5351357,20.5580304 26.6501736,16.273874 L26.6538462,16 C26.6538462,10.7787273 22.6585385,6.54545455 17.7307692,6.54545455 C17.4786923,6.54545455 17.2266154,6.5470303 16.9801567,6.5470303 L16.6153846,6.54545455 L16.6153846,3.06027273 C16.9834615,3.02481818 17.3548846,3 17.7307692,3 Z" id="Combined-Shape" fill="#000000" transform="translate(16.307692, 16.000000) scale(-1, -1) translate(-16.307692, -16.000000) "></path>
    </g>
</svg>