<?xml version="1.0" encoding="UTF-8"?>
<svg width="32px" height="32px" viewBox="0 0 32 32" version="1.1" xmlns="http://www.w3.org/2000/svg" xmlns:xlink="http://www.w3.org/1999/xlink">
    <title>RouteFrom</title>
    <g id="RouteFrom" stroke="none" stroke-width="1" fill="none" fill-rule="evenodd">
        <path d="M27.5,3 C28.3284271,3 29,3.67157288 29,4.5 L29,14.5 C29,15.3284271 28.3284271,16 27.5,16 L26.5,16 C25.6715729,16 25,15.3284271 25,14.5 L24.9991042,10.082 L15.6125879,19.3255185 C15.0287287,19.9004423 14.0915469,19.9004423 13.5076877,19.3255185 L12.9036543,18.7307293 C12.3133684,18.1494771 12.3060451,17.1997579 12.8872973,16.609472 L12.9036543,16.5931149 L12.9036543,16.5931149 L22.6451042,7 L17.5,7 C16.6715729,7 16,6.32842712 16,5.5 L16,4.5 C16,3.67157288 16.6715729,3 17.5,3 L27.5,3 Z" id="Combined-Shape" fill="#000000"></path>
        <circle id="Oval" fill="#000000" cx="7" cy="25" r="6"></circle>
    </g>
</svg>