<?xml version="1.0" encoding="UTF-8"?>
<svg width="32px" height="32px" viewBox="0 0 32 32" version="1.1" xmlns="http://www.w3.org/2000/svg" xmlns:xlink="http://www.w3.org/1999/xlink">
    <title>SQLNamedQuery</title>
    <g id="SQLNamedQuery" stroke="none" stroke-width="1" fill="none" fill-rule="evenodd">
        <path d="M16,8 C20.418278,8 24,11.581722 24,16 C24,19.4554644 21.8092206,22.3992449 18.7408555,23.5181478 L24,29 L20.7164179,29 L15.9190649,23.9995991 C11.5380642,23.9561771 8,20.3912681 8,16 C8,11.581722 11.581722,8 16,8 Z M2.95522388,16 L9,26 L6.04477612,26 L0,16 L2.95522388,16 Z M32,16 L25.9552239,26 L23,26 L29.0447761,16 L32,16 Z M16,10 C12.6862915,10 10,12.6862915 10,16 C10,19.2986462 12.6619262,21.9755662 15.9548521,21.9998337 L16.045,21.999 L16.2249383,21.9958615 C19.4344251,21.8775718 22,19.2383969 22,16 C22,12.6862915 19.3137085,10 16,10 Z M9,6 L2.95522388,16 L0,16 L6.04477612,6 L9,6 Z M25.9552239,6 L32,16 L29.0447761,16 L23,6 L25.9552239,6 Z" id="Combined-Shape" fill="#000000"></path>
    </g>
</svg>