<?xml version="1.0" encoding="UTF-8"?>
<svg width="32px" height="32px" viewBox="0 0 32 32" version="1.1" xmlns="http://www.w3.org/2000/svg" xmlns:xlink="http://www.w3.org/1999/xlink">
    <title>TableColumn</title>
    <g id="TableColumn" stroke="none" stroke-width="1" fill="none" fill-rule="evenodd">
        <rect id="Rectangle-7-Copy-3" fill="#000000" x="1" y="1" width="6" height="6"></rect>
        <rect id="Rectangle-7-Copy-6" fill="#000000" x="8" y="2" width="7" height="5"></rect>
        <rect id="Rectangle-7-Copy-4" fill="#000000" x="1" y="9" width="6" height="6"></rect>
        <rect id="Rectangle-7-Copy-7" fill="#000000" x="8" y="10" width="7" height="5"></rect>
        <rect id="Rectangle-7-Copy-5" fill="#000000" x="1" y="17" width="6" height="6"></rect>
        <rect id="Rectangle-7-Copy-8" fill="#000000" x="8" y="18" width="7" height="5"></rect>
        <rect id="Rectangle-7-Copy-10" fill="#000000" x="1" y="25" width="6" height="6"></rect>
        <rect id="Rectangle-7-Copy-9" fill="#000000" x="8" y="26" width="7" height="5"></rect>
        <rect id="Rectangle-7-Copy-14" fill="#000000" x="23" y="2" width="8" height="5"></rect>
        <rect id="Rectangle-7-Copy-13" fill="#000000" x="23" y="10" width="8" height="5"></rect>
        <rect id="Rectangle-7-Copy-12" fill="#000000" x="23" y="18" width="8" height="5"></rect>
        <rect id="Rectangle-7-Copy-11" fill="#000000" x="23" y="26" width="8" height="5"></rect>
        <path d="M22,1 L22,32 L16,32 L16,1 L22,1 Z M21,2 L17,2 L17,31 L21,31 L21,2 Z" id="Rectangle-Copy-2" fill="#000000"></path>
    </g>
</svg>