<?xml version="1.0" encoding="UTF-8"?>
<svg width="32px" height="32px" viewBox="0 0 32 32" version="1.1" xmlns="http://www.w3.org/2000/svg" xmlns:xlink="http://www.w3.org/1999/xlink">
    <title>Table</title>
    <g id="Table" stroke="none" stroke-width="1" fill="none" fill-rule="evenodd">
        <path d="M7,25 L7,31 L1,31 L1,25 L7,25 Z M31,26 L31,31 L8,31 L8,26 L31,26 Z M7,17 L7,23 L1,23 L1,17 L7,17 Z M31,18 L31,23 L8,23 L8,18 L31,18 Z M7,9 L7,15 L1,15 L1,9 L7,9 Z M31,10 L31,15 L8,15 L8,10 L31,10 Z M7,1 L7,7 L1,7 L1,1 L7,1 Z M31,2 L31,7 L8,7 L8,2 L31,2 Z" id="Combined-Shape" fill="#000000"></path>
    </g>
</svg>