<?xml version="1.0" encoding="UTF-8"?>
<svg width="16px" height="16px" viewBox="0 0 16 16" version="1.1" xmlns="http://www.w3.org/2000/svg" xmlns:xlink="http://www.w3.org/1999/xlink">
    <title>UniqueKey</title>
    <g id="UniqueKey" stroke="none" stroke-width="1" fill="none" fill-rule="evenodd">
        <path d="M11,0 C13.7614237,0 16,2.23857625 16,5 C16,7.76142375 13.7614237,10 11,10 C10.4024571,10 9.82939625,9.89518005 9.29820167,9.70292444 L9,10 L7,10 L7,12 L5,12 L5,14 L3,14 L3,16 L0,16 L0,13 L6.2974391,6.70280243 C6.10495209,6.17132594 6,5.5979194 6,5 C6,2.23857625 8.23857625,0 11,0 Z M12.5,2 C11.6715729,2 11,2.67157288 11,3.5 C11,4.32842712 11.6715729,5 12.5,5 C13.3284271,5 14,4.32842712 14,3.5 C14,2.67157288 13.3284271,2 12.5,2 Z" id="Combined-Shape" fill="#000000"></path>
    </g>
</svg>