<?xml version="1.0" encoding="UTF-8"?>
<svg width="32px" height="32px" viewBox="0 0 32 32" version="1.1" xmlns="http://www.w3.org/2000/svg" xmlns:xlink="http://www.w3.org/1999/xlink">
    <title>WebService</title>
    <g id="WebService" stroke="none" stroke-width="1" fill="none" fill-rule="evenodd">
        <g id="web-service-post" transform="translate(1.000000, 3.000000)" fill="#000000">
            <g id="left">
                <path d="M13.3846154,18.9090909 L5.57692308,10.6363636 L10.038,10.636 L10.0387268,3.84329025 C6.27020408,4.87102828 3.46486426,8.4419696 3.34982642,12.726126 L3.34615385,13 C3.34615385,18.2212727 7.34146154,22.4545455 12.2692308,22.4545455 C12.6473462,22.4545455 13.0254615,22.451 13.3846154,22.4545455 L13.3846154,22.4545455 L13.3846154,25.9397273 C13.0165385,25.9751818 12.6451154,26 12.2692308,26 C5.49326923,26 -1.3500312e-13,20.1795455 -1.3500312e-13,13 C-1.3500312e-13,5.82045455 5.49326923,0 12.2692308,0 C12.6451154,0 13.0165385,0.0248181818 13.3846154,0.0590909091 L13.3846154,0.0590909091 L13.3846154,18.9090909 Z" id="Combined-Shape"></path>
            </g>
            <g id="right" transform="translate(15.615385, 0.000000)">
                <path d="M-3.19744231e-14,7.09090909 L7.80769231,15.3636364 L3.346,15.363 L3.34688472,22.156438 C7.11490566,21.1283424 9.91976126,17.5576529 10.034789,13.273874 L10.0384615,13 C10.0384615,7.77872727 6.04315385,3.54545455 1.11538462,3.54545455 C0.736153846,3.54545455 0.359153846,3.549 -1.3500312e-13,3.54545455 L-1.3500312e-13,3.54545455 L-1.3500312e-13,0.0602727273 C0.368076923,0.0248181818 0.738384615,0 1.11538462,0 C7.89134615,0 13.3846154,5.82045455 13.3846154,13 C13.3846154,20.1795455 7.89134615,26 1.11538462,26 C0.738384615,26 0.368076923,25.9751818 -1.3500312e-13,25.9397273 L-1.3500312e-13,25.9397273 L-3.19744231e-14,7.09090909 Z" id="Combined-Shape"></path>
            </g>
        </g>
    </g>
</svg>