<?xml version="1.0" encoding="UTF-8"?>
<svg width="160px" height="160px" viewBox="0 0 160 160" version="1.1" xmlns="http://www.w3.org/2000/svg" xmlns:xlink="http://www.w3.org/1999/xlink">
    <title>iso5055-index</title>
    <g id="iso5055-index" stroke="none" stroke-width="1" fill="none" fill-rule="evenodd">
        <path d="M80,7 C120.316787,7 153,39.6832133 153,80 C153,120.316787 120.316787,153 80,153 C39.6832133,153 7,120.316787 7,80 C7,39.6832133 39.6832133,7 80,7 Z M80,18 C45.7583455,18 18,45.7583455 18,80 C18,114.241654 45.7583455,142 80,142 C114.241654,142 142,114.241654 142,80 C142,45.7583455 114.241654,18 80,18 Z" id="Combined-Shape" fill="#000000"></path>
        <g id="iso-5055-index" transform="translate(33.889734, 24.184502)" fill="#000000" fill-rule="nonzero">
            <path d="M83.1841411,32.7695336 C83.9844815,33.9483897 83.9309845,35.4907039 84.0926847,36.8733349 C84.0382809,39.802749 84.2997216,43.2904587 83.7689823,46.268433 C83.4987763,47.5044892 82.6543086,48.7858286 81.3229264,49.2511741 C79.1918088,50.1732262 76.3144521,49.9158262 74.3453367,48.8391555 C72.6902516,47.7088598 72.4838196,45.8123231 72.268018,44.0129065 C72.1063177,40.4676988 71.8364142,36.7228871 72.8528586,33.4833418 C73.6528971,31.4846193 75.8381166,30.9704152 77.8078365,30.8154982 C79.8842484,30.8152007 81.9071633,31.1253319 83.1841411,32.7695336 M55.5361217,76.7789419 L55.1741347,77.0717682 C49.7324721,78.1848451 43.6569621,78.2309768 38.2129278,76.9713464 L38.6232388,76.5361861 C43.4061502,73.5778261 50.8617171,73.5778261 55.5361217,76.7789419 M37.1939164,75.5546629 L36.1897963,76.3837638 C31.9761912,75.2410388 28.0678112,73.2689119 24.4562738,70.571021 L24.4562738,70.414058 C25.6621429,69.6340647 26.8662777,68.8049642 28.1689747,68.2361624 C31.0261216,71.1895324 33.9841425,73.4258749 37.1939164,75.5546629 M69.8022814,70.4533106 C66.908077,72.7728166 63.5426467,74.322247 60.1240947,75.6091984 L57.6918648,76.3837638 C57.28331,76.1745594 56.9189232,75.8716769 56.5551331,75.5601147 L56.6527208,75.4041843 C59.9730879,73.4447254 62.9744296,71.0719452 65.8155134,68.2361624 C67.2187456,68.8063117 68.5593076,69.5763878 69.8022814,70.4533106 M64.1977186,67.8819958 C62.5943969,69.7628859 60.5442672,71.3935616 58.6405751,72.7687057 C57.4918451,73.4806492 56.341962,74.2454717 55.1413449,74.8560886 L52.9885932,73.8894994 L53.1428139,73.5335276 C54.9438845,71.0375899 56.5477825,68.4932039 57.9458605,65.7952036 L58.091145,65.6900369 C60.2441852,66.1990323 62.2943149,66.9157025 64.1977186,67.8819958 M36.0570522,65.7420481 C37.5513443,68.5268611 39.4105041,71.1582849 41.269962,73.7897081 C40.5440947,74.2005101 39.6697213,74.454396 38.9435564,74.8560886 C35.539213,73.1864347 32.2851621,70.8567951 29.5513308,68.0722759 L29.5513308,67.9191804 C31.5634616,66.9579982 33.6797557,66.2489389 35.8466427,65.6900369 L36.0570522,65.7420481 L36.0570522,65.7420481 Z M56.5115805,65.1918523 L56.5551331,65.3472306 C55.1373163,68.1198772 53.342239,70.7905291 51.4073815,73.3102767 C50.5410363,73.4122715 49.7264829,73.0532021 48.8507211,72.999819 L47.9926151,72.9019994 C47.8881476,69.8675067 47.8354724,67.1923813 47.9926151,64.1623616 C50.8994629,64.2163415 53.8060166,64.5220273 56.5115805,65.1918523 M46.365019,72.8156394 C45.2858126,73.0717292 44.0983886,73.0717292 43.0658585,73.3284133 C40.9496628,70.818318 39.1982568,68.1047176 37.7034221,65.2892156 L37.9620747,65.0815516 C40.6422525,64.5738282 43.4282699,64.1623616 46.3162614,64.1623616 L46.365019,72.8156394 L46.365019,72.8156394 Z M35.698698,61.1667182 C35.1855804,61.1667182 34.623805,61.0622324 34.2663924,61.2147173 L35.5450576,64.1880352 L35.3937762,64.3405201 C33.0885808,64.993778 30.8382357,65.8039113 28.6424461,66.7132621 L28.4339553,66.6093613 C27.0016493,65.0505576 25.6218348,63.334878 24.4947454,61.6156867 C24.2446743,60.7622372 23.2205033,61.2630096 22.6590229,61.1673038 C23.8849022,63.3831698 25.5189163,65.3511379 27.1597132,67.3671056 C25.77577,68.1772384 24.3962504,69.0871748 22.9636496,69.7398475 C19.8952653,67.4192019 17.0285892,64.3932025 14.8835217,61.2153029 C14.2671907,61.1149142 13.8590558,61.1673038 13.2471483,61.2153029 C16.9253759,66.9661361 22.6590229,72.0081031 28.6424461,74.9817134 L28.6908089,74.9340066 L28.7456594,75.0861997 C32.7836589,77.0500701 37.0782178,78.465169 41.6316942,79.0698422 C57.3316188,81.1379061 72.317307,74.4291369 81.0114069,61.2153029 C80.5552041,61.1673038 79.8881511,61.1673038 79.3712,61.2153029 C77.2299661,64.293399 74.5192893,67.2708142 71.5538234,69.5873621 L71.0445393,69.5393626 C69.7632201,68.7339126 68.3775073,68.0721669 67.1492689,67.2708142 C68.7897708,65.2990411 70.3777813,63.3354636 71.6057252,61.1673038 L70.0177147,61.1673038 C68.7366899,63.0307856 67.4034689,64.9943636 65.7187328,66.6614581 C63.4639642,65.7559118 61.4197504,64.9463641 59.1210425,64.3405201 L58.867138,64.1403285 C59.2269102,63.1302963 59.8848211,62.1720676 60.0950814,61.1667182 L58.7179211,61.1667182 L57.3316188,63.8877472 C54.3136616,63.2303921 50.9884236,62.877715 47.9173851,62.6775229 C47.7681682,62.22475 47.9790179,61.5671021 47.7681682,61.1667182 L46.4367162,61.1667182 C46.3358621,61.7675865 46.5903566,62.22475 46.2874993,62.7252296 C43.1135427,62.877715 40.0451582,63.2303921 37.0776278,63.8356504 L35.698698,61.1667182 L35.698698,61.1667182 Z M3.26064448,21.896679 L0.126335671,21.9492662 C0.0765006127,24.7998241 0.0765006127,27.6510459 0.126335671,30.5016037 C1.84721839,30.558304 3.46435271,30.5016037 5.13336123,30.654665 L5.13336123,47.8733279 L5.07915558,48.57694 L0.0765014789,48.681821 C-0.025500493,51.4646679 -0.025500493,54.2503634 0.0765014789,57.0332103 L22.3655025,57.0332103 L22.3655025,48.681821 C20.696494,48.57694 18.8281487,48.7294137 17.2110144,48.5287597 L17.2608486,30.7595458 L17.3628484,30.6064845 L22.3655025,30.558304 C22.4199995,27.6695288 22.4675023,24.5842123 22.3179997,21.9489725 L3.26064448,21.896679 L3.26064448,21.896679 Z M89.7402713,25.2891878 C83.1197674,21.0524438 73.0315056,20.7477284 66.2190006,24.5793561 C62.4981783,26.4951699 60.0526635,30.2834759 59.292881,34.1631087 C57.912765,40.5723768 58.2709318,48.1885052 63.15286,52.9825768 C68.8653238,58.0248702 77.1630456,59.1351347 84.5433325,57.0668166 C84.8921049,56.9971506 86.0106417,56.7140963 86.7704242,56.3045892 L86.9888473,56.2088717 C89.2772972,55.2514037 91.4697466,53.6833342 93.0938266,51.5673043 C96.8674934,46.0200791 97.1208522,37.6944117 94.8235949,31.4420383 C93.9149674,29.0207072 92.0287213,26.8522811 89.7402713,25.2891878 M28.2353048,24.71019 C33.357128,21.0247854 41.2419891,21.2734308 46.8776184,23.6505152 L46.8776184,23.6505152 L49.2296114,24.9160261 C49.4844478,24.3055549 49.2827641,23.4505434 49.3881828,22.8444705 C51.6899762,22.7397931 54.5100057,22.7397931 56.8117996,22.7878802 C56.8640658,26.98377 57.0137784,30.6213807 56.9169229,34.7694766 C54.4571486,34.8653575 51.8479571,34.8172705 49.5901621,34.8172705 C47.4903475,31.5329824 43.8071822,30.32025 40.2229395,29.8144562 C38.531808,29.7663691 36.2760795,29.2602821 35.3010288,30.9266162 C35.2024017,31.4804972 35.4593047,31.9340989 35.8676924,32.2874216 L35.8676924,32.2874216 L36.7901815,32.7454216 L49.1862036,36.3308402 C53.3326807,37.3952063 57.4271857,41.2858608 57.9894202,45.5820294 C58.5605129,49.9740795 56.5046966,54.0652917 52.665618,56.1937309 C47.394378,58.9153414 40.528566,58.4139462 35.2026967,56.1937309 C34.3307022,55.735438 33.4610702,55.2337489 32.5890757,54.8241292 L32.5890757,54.8241292 L32.485724,57.2536987 L24.8028418,57.3014925 C24.6489952,53.2583675 24.7042147,48.5602023 24.8028418,44.4689896 L24.8028418,44.4689896 L31.7170816,44.4165043 C32.1298984,44.9225916 32.3868014,45.528958 32.7951891,46.0347514 C36.2763751,49.6723621 41.4991876,50.6804313 46.3112504,49.3671265 C46.6715056,49.1665687 47.1392461,48.9135251 47.1392461,48.4599232 C47.235511,47.9013506 46.6230775,47.4480425 46.1574036,47.2471909 C41.5538163,45.6773237 36.7901815,44.5170768 32.2282305,42.8985364 C28.9008908,41.6380103 25.4197048,38.9597953 24.7520518,35.3221846 C23.8800574,31.4796175 24.9056031,27.1353615 28.2353048,24.71019 Z M45.6002871,0.0899271129 C47.0775108,-0.0585962782 48.7533214,-0.0106570642 50.1316918,0.142572025 L50.1316918,0.142572025 L50.2276118,0.243156151 L50.2798249,0.142572025 C62.4455087,1.10517992 73.6857272,7.74638063 80.5019012,18.0847839 C79.9956089,18.3385972 79.4808099,18.1330173 78.8697975,18.1330173 C76.6882815,14.9393236 73.9391671,12.0517938 70.8409862,9.67189056 L70.8409862,9.67189056 L70.3261872,9.87305886 L66.7651271,11.9512097 L66.7651271,12.2050229 C67.6289919,13.1193975 68.3444307,13.9767156 69.0079498,14.9393236 C69.8365895,15.9305851 70.5672864,17.0001668 71.1897587,18.1330173 C70.7887731,18.2862463 70.2296808,18.238013 69.6711749,18.238013 C68.3444307,16.3130913 66.8698468,14.3314071 65.2896632,12.6600044 C63.0556407,13.574379 60.8656181,14.484342 58.5262894,15.0925526 L58.5262894,15.0925526 L58.4218631,15.1975484 L59.6961007,18.1330173 C59.3382346,18.3385972 58.7275156,18.238013 58.2649298,18.238013 L58.2649298,18.238013 L56.8947727,15.599885 L56.6419197,15.5516516 C53.7877916,16.2560347 50.6899042,16.5621988 47.74015,16.7154278 C47.5398036,17.1707035 47.74015,17.7262691 47.5829236,18.238013 L47.5829236,18.238013 L46.2151128,18.238013 C46.0625795,17.7830315 46.3635389,17.0171802 45.9578598,16.6674886 C42.8030657,16.5624929 39.6984314,16.2078014 36.7486772,15.5516516 C36.2403316,16.4092638 35.8868656,17.3718717 35.4266265,18.238013 C34.8681207,18.2862463 34.5102545,18.3385972 33.9517492,18.238013 L33.9517492,18.238013 L35.2215867,15.2937209 L35.0209469,15.0922585 C32.7825248,14.4840479 30.6464756,13.6223183 28.4561596,12.8129394 C26.8305093,14.4840479 25.4538986,16.3610305 24.1843543,18.2377189 C23.6760086,18.338303 23.0148365,18.3865364 22.6569705,18.2377189 C23.8285416,16.1072173 25.4538986,14.1296506 27.0314423,12.1520839 C25.7616047,11.342705 24.2890741,10.6342044 22.9646766,9.77218061 C21.5399593,10.6865552 20.3158816,11.8982707 18.9938308,13.1670426 C17.469087,14.790212 16.0945296,16.4657321 14.8725052,18.185074 C14.3644528,18.3862423 13.755494,18.185074 13.2471483,18.2374248 C20.266015,7.43992245 31.5085807,1.10488585 43.7197306,0.142572025 C44.3809029,0.0899271129 45.0417818,0.041987848 45.6002871,0.0899271129 Z M50.6729269,6.11070111 C49.6360054,6.26369035 48.491516,6.42121485 47.4458809,6.57813465 C47.3920969,9.44350845 47.3389137,12.5196204 47.4458809,15.2767528 C50.3688514,15.2767528 53.2299246,14.9169559 56.0456274,14.2378772 C54.6866024,11.3728057 52.7110134,8.71484421 50.6729269,6.11070111 Z M43.0105935,6.11070111 C40.9176327,8.64257285 39.1835071,11.3790917 37.7034221,14.2183836 C39.078418,14.6819108 40.814898,14.8377183 42.1963697,15.0429647 C43.6258236,15.1499326 44.8980848,15.4043183 46.3298937,15.1990719 C46.3298937,12.35978 46.4349833,9.26190758 46.281617,6.57872286 L46.281617,6.57872286 Z M38.5108969,4.58302583 C35.3063934,6.33441881 32.4043319,8.60127897 29.6523373,11.3262325 L29.6523373,11.3262325 L29.5513308,11.6376046 C31.4511191,12.5131516 33.4559538,13.1843048 35.507829,13.7490775 L35.507829,13.7490775 L35.7052248,13.7000707 C37.2099332,11.0731307 38.7082927,8.39270154 40.6121208,5.92114863 L40.6121208,5.92114863 L40.7604563,5.51236081 C40.008968,5.15228087 39.2620968,4.88991552 38.5108969,4.58302583 Z M54.8531216,4.58302583 C54.08232,4.98945518 53.2049334,5.29903078 52.4790875,5.70991662 C54.4455405,8.32199768 56.1994202,11.0312297 57.7937211,13.7490775 C60.0174057,13.2853083 62.0815117,12.467696 64.1006614,11.5969033 L64.1006614,11.5969033 L64.1977186,11.446572 C61.4607615,8.68000018 58.2099363,6.27143083 54.8531216,4.58302583 Z M36.260103,3.16480013 C35.8991003,2.85143773 35.5824364,3.32163184 35.1681074,3.21416752 L35.1681074,3.21416752 L35.1681074,3.1157338 L34.7025491,3.42036656 C30.856448,4.66960189 27.2200582,6.48325074 23.9467681,8.92362436 L23.9467681,8.92362436 L23.9467681,9.02235913 C25.1924518,9.90886467 26.4935591,10.6833905 27.8953278,11.202952 C30.8055183,8.3011139 33.9739529,5.91462291 37.1939164,3.89056067 L37.1939164,3.89056067 Z M57.5183409,3.05535055 L56.5551331,3.89332194 C59.7202477,5.71793238 62.8336175,8.03143099 65.4824388,10.6937269 L65.4824388,10.6937269 L65.7408749,10.6937269 L69.1979582,8.76733625 L69.2927757,8.57149511 C65.6888406,6.01126528 61.7241362,4.13976728 57.5183409,3.05535055 L57.5183409,3.05535055 Z M55.5361217,2.47606683 C50.1221034,1.16366534 43.679873,1.26034784 38.2129278,2.47606683 L38.2129278,2.47606683 L39.0377569,3.10943586 C43.7791859,5.97298541 51.0510021,5.68378354 55.5361217,2.57274933 L55.5361217,2.57274933 Z M37.1684411,89.8782288 C38.1078422,89.8782288 38.9318082,90.0671992 39.6403396,90.4451394 C40.348871,90.8230802 40.9340067,91.3681099 41.3957462,92.0802296 C41.8574858,92.7923488 42.2197122,93.6596228 42.4824261,94.6820516 C42.74514,95.7044798 42.8764972,97.0829684 42.8764972,98.8175164 C42.8764972,100.87033 42.6655297,102.527301 42.2435953,103.788428 C41.8216609,105.049556 41.1907496,106.024245 40.3508616,106.712494 C39.510973,107.400744 38.4501664,107.744869 37.1684411,107.744869 C35.4807034,107.744869 34.1551922,107.140164 33.191908,105.930754 C32.0375592,104.474688 31.460385,102.103609 31.460385,98.8175164 C31.460385,96.7487895 31.6733426,95.0838617 32.0992573,93.8227342 C32.5251724,92.5616062 33.1580738,91.5889068 33.9979624,90.9046356 C34.8378504,90.2203644 35.8946768,89.8782288 37.1684411,89.8782288 Z M58.6727662,90.1885378 L58.6727662,92.2413515 L51.6869651,92.2413515 L50.7435837,96.9437269 L51.0073756,96.7683493 C51.9785655,96.1532566 52.9932368,95.8457103 54.05139,95.8457103 C55.5799071,95.8457103 56.8695934,96.3748268 57.9204489,97.4330607 C58.9713044,98.4912936 59.4967322,99.8518799 59.4967322,101.514818 C59.4967322,103.09819 59.0349926,104.466732 58.1115135,105.620445 C56.9890088,107.036727 55.4565114,107.744869 53.5140209,107.744869 C51.9218156,107.744869 50.6221781,107.299297 49.615108,106.408153 C48.6080384,105.517009 48.0328538,104.335447 47.8895554,102.863469 L47.8895554,102.863469 L50.1465067,102.672509 L50.1929045,102.941336 C50.3799057,103.906217 50.7525399,104.64211 51.3108067,105.149014 C51.9198255,105.702001 52.6542301,105.978494 53.5140209,105.978494 C54.5489544,105.978494 55.4246673,105.588618 56.1411597,104.808867 C56.8576521,104.029116 57.2158983,102.994753 57.2158983,101.705777 C57.2158983,100.480454 56.871584,99.5137223 56.182955,98.8055812 C55.4943264,98.09744 54.5927398,97.7433692 53.4781961,97.7433692 C52.7855867,97.7433692 52.1606464,97.900513 51.6033745,98.2148006 C51.0461027,98.5290877 50.6082462,98.9368655 50.2898051,99.4381345 L50.2898051,99.4381345 L48.2716846,99.1755648 L49.9673833,90.1885378 L58.6727662,90.1885378 Z M75.1019371,90.1885378 L75.1019371,92.2413515 L68.1161359,92.2413515 L67.1727545,96.9437269 L67.4365465,96.7683493 C68.4077364,96.1532566 69.4224077,95.8457103 70.4805608,95.8457103 C72.009078,95.8457103 73.2987643,96.3748268 74.3496198,97.4330607 C75.4004753,98.4912936 75.9259031,99.8518799 75.9259031,101.514818 C75.9259031,103.09819 75.4641635,104.466732 74.5406844,105.620445 C73.4181797,107.036727 71.8856823,107.744869 69.9431918,107.744869 C68.3509865,107.744869 67.0513485,107.299297 66.0442789,106.408153 C65.0372088,105.517009 64.4620247,104.335447 64.3187262,102.863469 L64.3187262,102.863469 L66.5756775,102.672509 L66.6220754,102.941336 C66.8090765,103.906217 67.1817103,104.64211 67.7399776,105.149014 C68.3489958,105.702001 69.0834009,105.978494 69.9431918,105.978494 C70.9781253,105.978494 71.8538382,105.588618 72.5703306,104.808867 C73.286823,104.029116 73.6450692,102.994753 73.6450692,101.705777 C73.6450692,100.480454 73.3007544,99.5137223 72.6121259,98.8055812 C71.9234968,98.09744 71.0219107,97.7433692 69.9073669,97.7433692 C69.2147576,97.7433692 68.5898173,97.900513 68.0325454,98.2148006 C67.4752736,98.5290877 67.0374171,98.9368655 66.718976,99.4381345 L66.718976,99.4381345 L64.7008555,99.1755648 L66.3965542,90.1885378 L75.1019371,90.1885378 Z M25.8144249,90.1885378 L25.8144249,92.2413515 L18.8286241,92.2413515 L17.8852424,96.9437269 L18.1490343,96.7683493 C19.1202243,96.1532566 20.1348958,95.8457103 21.193049,95.8457103 C22.7215661,95.8457103 24.0112524,96.3748268 25.0621079,97.4330607 C26.1129634,98.4912936 26.6383912,99.8518799 26.6383912,101.514818 C26.6383912,103.09819 26.1766516,104.466732 25.2531725,105.620445 C24.1306678,107.036727 22.5981702,107.744869 20.6556797,107.744869 C19.0634743,107.744869 17.7638367,107.299297 16.7567669,106.408153 C15.749697,105.517009 15.1745128,104.335447 15.0312144,102.863469 L15.0312144,102.863469 L17.2881654,102.672509 L17.3345633,102.941336 C17.5215645,103.906217 17.8941985,104.64211 18.4524655,105.149014 C19.0614841,105.702001 19.7958888,105.978494 20.6556797,105.978494 C21.6906131,105.978494 22.5663261,105.588618 23.2828185,104.808867 C23.9993108,104.029116 24.357557,102.994753 24.357557,101.705777 C24.357557,100.480454 24.0132426,99.5137223 23.3246138,98.8055812 C22.635985,98.09744 21.7343988,97.7433692 20.6198551,97.7433692 C19.9272457,97.7433692 19.3023051,97.900513 18.7450333,98.2148006 C18.1877614,98.5290877 17.749905,98.9368655 17.4314639,99.4381345 L17.4314639,99.4381345 L15.4133436,99.1755648 L17.1090423,90.1885378 L25.8144249,90.1885378 Z M37.5863756,91.8154982 C36.5988899,91.8154982 35.810494,92.2238312 35.2211879,93.0404979 C34.4805736,94.0827201 34.1102662,96.0077199 34.1102662,98.8154982 C34.1102662,101.623275 34.4467284,103.491887 35.119652,104.421331 C35.792576,105.350776 36.6227806,105.815498 37.6102662,105.815498 C38.5977522,105.815498 39.4279569,105.348831 40.1008809,104.415498 C40.7738044,103.482165 41.1102662,101.615498 41.1102662,98.8154982 C41.1102662,95.9999426 40.7738044,94.1293868 40.1008809,93.2038312 C39.4279569,92.2782757 38.5897886,91.8154982 37.5863756,91.8154982 Z" id="Shape"></path>
        </g>
    </g>
</svg>